<?xml version="1.0" encoding="utf-8" standalone="no"?>
<!DOCTYPE svg PUBLIC "-//W3C//DTD SVG 1.1//EN"
  "http://www.w3.org/Graphics/SVG/1.1/DTD/svg11.dtd">
<!-- Created with matplotlib (http://matplotlib.org/) -->
<svg height="564pt" version="1.1" viewBox="0 0 564 564" width="564pt" xmlns="http://www.w3.org/2000/svg" xmlns:xlink="http://www.w3.org/1999/xlink">
 <defs>
  <style type="text/css">
*{stroke-linecap:butt;stroke-linejoin:round;}
  </style>
 </defs>
 <g id="figure_1">
  <g id="patch_1">
   <path d="
M0 564.48
L564.48 564.48
L564.48 0
L0 0
z
" style="fill:none;"/>
  </g>
  <g id="axes_1">
   <g id="patch_2">
    <path clip-path="url(#p09214e8173)" d="
M282.24 8.84366
L145.542 45.4718
L45.4718 145.542
L8.84366 282.24
L45.4718 418.938
L145.542 519.008
L282.24 555.636
L418.938 519.008
L519.008 418.938
L555.636 282.24
L519.008 145.542
L418.938 45.4718
z
" style="fill:#bcd4e6;stroke:#000000;stroke-width:0.25;"/>
   </g>
   <g id="patch_3">
    <path clip-path="url(#p09214e8173)" d="
M282.24 8.84366
L253.352 16.5841
L232.205 37.7314
L224.465 66.6191
L232.205 95.5068
L253.352 116.654
L282.24 124.395
L311.128 116.654
L332.275 95.5068
L340.015 66.6191
L332.275 37.7314
L311.128 16.5841
z
" style="fill:#eae2ac;stroke:#000000;stroke-width:0.25;"/>
   </g>
   <g id="patch_4">
    <path clip-path="url(#p09214e8173)" d="
M390.05 37.7314
L361.163 45.4718
L340.015 66.6191
L332.275 95.5068
L340.015 124.395
L361.163 145.542
L390.05 153.282
L418.938 145.542
L440.085 124.395
L447.826 95.5068
L440.085 66.6191
L418.938 45.4718
z
" style="fill:#eae2ac;stroke:#000000;stroke-width:0.25;"/>
   </g>
   <g id="patch_5">
    <path clip-path="url(#p09214e8173)" d="
M468.973 116.654
L440.085 124.395
L418.938 145.542
L411.198 174.43
L418.938 203.317
L440.085 224.465
L468.973 232.205
L497.861 224.465
L519.008 203.317
L526.749 174.43
L519.008 145.542
L497.861 124.395
z
" style="fill:#eae2ac;stroke:#000000;stroke-width:0.25;"/>
   </g>
   <g id="patch_6">
    <path clip-path="url(#p09214e8173)" d="
M497.861 224.465
L468.973 232.205
L447.826 253.352
L440.085 282.24
L447.826 311.128
L468.973 332.275
L497.861 340.015
L526.749 332.275
L547.896 311.128
L555.636 282.24
L547.896 253.352
L526.749 232.205
z
" style="fill:#eae2ac;stroke:#000000;stroke-width:0.25;"/>
   </g>
   <g id="patch_7">
    <path clip-path="url(#p09214e8173)" d="
M468.973 332.275
L440.085 340.015
L418.938 361.163
L411.198 390.05
L418.938 418.938
L440.085 440.085
L468.973 447.826
L497.861 440.085
L519.008 418.938
L526.749 390.05
L519.008 361.163
L497.861 340.015
z
" style="fill:#eae2ac;stroke:#000000;stroke-width:0.25;"/>
   </g>
   <g id="patch_8">
    <path clip-path="url(#p09214e8173)" d="
M390.05 411.198
L361.163 418.938
L340.015 440.085
L332.275 468.973
L340.015 497.861
L361.163 519.008
L390.05 526.749
L418.938 519.008
L440.085 497.861
L447.826 468.973
L440.085 440.085
L418.938 418.938
z
" style="fill:#eae2ac;stroke:#000000;stroke-width:0.25;"/>
   </g>
   <g id="patch_9">
    <path clip-path="url(#p09214e8173)" d="
M282.24 440.085
L253.352 447.826
L232.205 468.973
L224.465 497.861
L232.205 526.749
L253.352 547.896
L282.24 555.636
L311.128 547.896
L332.275 526.749
L340.015 497.861
L332.275 468.973
L311.128 447.826
z
" style="fill:#eae2ac;stroke:#000000;stroke-width:0.25;"/>
   </g>
   <g id="patch_10">
    <path clip-path="url(#p09214e8173)" d="
M174.43 411.198
L145.542 418.938
L124.395 440.085
L116.654 468.973
L124.395 497.861
L145.542 519.008
L174.43 526.749
L203.317 519.008
L224.465 497.861
L232.205 468.973
L224.465 440.085
L203.317 418.938
z
" style="fill:#eae2ac;stroke:#000000;stroke-width:0.25;"/>
   </g>
   <g id="patch_11">
    <path clip-path="url(#p09214e8173)" d="
M95.5068 332.275
L66.6191 340.015
L45.4718 361.163
L37.7314 390.05
L45.4718 418.938
L66.6191 440.085
L95.5068 447.826
L124.395 440.085
L145.542 418.938
L153.282 390.05
L145.542 361.163
L124.395 340.015
z
" style="fill:#eae2ac;stroke:#000000;stroke-width:0.25;"/>
   </g>
   <g id="patch_12">
    <path clip-path="url(#p09214e8173)" d="
M66.6191 224.465
L37.7314 232.205
L16.5841 253.352
L8.84366 282.24
L16.5841 311.128
L37.7314 332.275
L66.6191 340.015
L95.5068 332.275
L116.654 311.128
L124.395 282.24
L116.654 253.352
L95.5068 232.205
z
" style="fill:#eae2ac;stroke:#000000;stroke-width:0.25;"/>
   </g>
   <g id="patch_13">
    <path clip-path="url(#p09214e8173)" d="
M95.5068 116.654
L66.6191 124.395
L45.4718 145.542
L37.7314 174.43
L45.4718 203.317
L66.6191 224.465
L95.5068 232.205
L124.395 224.465
L145.542 203.317
L153.282 174.43
L145.542 145.542
L124.395 124.395
z
" style="fill:#eae2ac;stroke:#000000;stroke-width:0.25;"/>
   </g>
   <g id="patch_14">
    <path clip-path="url(#p09214e8173)" d="
M174.43 37.7314
L145.542 45.4718
L124.395 66.6191
L116.654 95.5068
L124.395 124.395
L145.542 145.542
L174.43 153.282
L203.317 145.542
L224.465 124.395
L232.205 95.5068
L224.465 66.6191
L203.317 45.4718
z
" style="fill:#eae2ac;stroke:#000000;stroke-width:0.25;"/>
   </g>
   <g id="patch_15">
    <path clip-path="url(#p09214e8173)" d="
M282.24 440.085
L361.163 418.938
L418.938 361.163
L440.085 282.24
L418.938 203.317
L361.163 145.542
L282.24 124.395
L203.317 145.542
L145.542 203.317
L124.395 282.24
L145.542 361.163
L203.317 418.938
z
" style="fill:#eae2ac;stroke:#000000;stroke-width:0.25;"/>
   </g>
   <g id="patch_16">
    <path clip-path="url(#p09214e8173)" d="
M282.24 8.84366
L276.135 10.4794
L271.666 14.9484
L270.031 21.053
L271.666 27.1577
L276.135 31.6267
L282.24 33.2624
L288.345 31.6267
L292.814 27.1577
L294.449 21.053
L292.814 14.9484
L288.345 10.4794
z
" style="fill:#af0a0a;stroke:#000000;stroke-width:0.25;"/>
   </g>
   <g id="patch_17">
    <path clip-path="url(#p09214e8173)" d="
M305.023 14.9484
L298.918 16.5841
L294.449 21.053
L292.814 27.1577
L294.449 33.2624
L298.918 37.7314
L305.023 39.3671
L311.128 37.7314
L315.597 33.2624
L317.232 27.1577
L315.597 21.053
L311.128 16.5841
z
" style="fill:#af0a0a;stroke:#000000;stroke-width:0.25;"/>
   </g>
   <g id="patch_18">
    <path clip-path="url(#p09214e8173)" d="
M321.701 31.6267
L315.597 33.2624
L311.128 37.7314
L309.492 43.8361
L311.128 49.9408
L315.597 54.4097
L321.701 56.0455
L327.806 54.4097
L332.275 49.9408
L333.911 43.8361
L332.275 37.7314
L327.806 33.2624
z
" style="fill:#af0a0a;stroke:#000000;stroke-width:0.25;"/>
   </g>
   <g id="patch_19">
    <path clip-path="url(#p09214e8173)" d="
M327.806 54.4097
L321.701 56.0455
L317.232 60.5144
L315.597 66.6191
L317.232 72.7238
L321.701 77.1927
L327.806 78.8285
L333.911 77.1927
L338.38 72.7238
L340.015 66.6191
L338.38 60.5144
L333.911 56.0455
z
" style="fill:#af0a0a;stroke:#000000;stroke-width:0.25;"/>
   </g>
   <g id="patch_20">
    <path clip-path="url(#p09214e8173)" d="
M321.701 77.1927
L315.597 78.8285
L311.128 83.2974
L309.492 89.4021
L311.128 95.5068
L315.597 99.9758
L321.701 101.612
L327.806 99.9758
L332.275 95.5068
L333.911 89.4021
L332.275 83.2974
L327.806 78.8285
z
" style="fill:#af0a0a;stroke:#000000;stroke-width:0.25;"/>
   </g>
   <g id="patch_21">
    <path clip-path="url(#p09214e8173)" d="
M305.023 93.8711
L298.918 95.5068
L294.449 99.9758
L292.814 106.08
L294.449 112.185
L298.918 116.654
L305.023 118.29
L311.128 116.654
L315.597 112.185
L317.232 106.08
L315.597 99.9758
L311.128 95.5068
z
" style="fill:#af0a0a;stroke:#000000;stroke-width:0.25;"/>
   </g>
   <g id="patch_22">
    <path clip-path="url(#p09214e8173)" d="
M282.24 99.9758
L276.135 101.612
L271.666 106.08
L270.031 112.185
L271.666 118.29
L276.135 122.759
L282.24 124.395
L288.345 122.759
L292.814 118.29
L294.449 112.185
L292.814 106.08
L288.345 101.612
z
" style="fill:#af0a0a;stroke:#000000;stroke-width:0.25;"/>
   </g>
   <g id="patch_23">
    <path clip-path="url(#p09214e8173)" d="
M259.457 93.8711
L253.352 95.5068
L248.883 99.9758
L247.248 106.08
L248.883 112.185
L253.352 116.654
L259.457 118.29
L265.562 116.654
L270.031 112.185
L271.666 106.08
L270.031 99.9758
L265.562 95.5068
z
" style="fill:#af0a0a;stroke:#000000;stroke-width:0.25;"/>
   </g>
   <g id="patch_24">
    <path clip-path="url(#p09214e8173)" d="
M242.779 77.1927
L236.674 78.8285
L232.205 83.2974
L230.569 89.4021
L232.205 95.5068
L236.674 99.9758
L242.779 101.612
L248.883 99.9758
L253.352 95.5068
L254.988 89.4021
L253.352 83.2974
L248.883 78.8285
z
" style="fill:#af0a0a;stroke:#000000;stroke-width:0.25;"/>
   </g>
   <g id="patch_25">
    <path clip-path="url(#p09214e8173)" d="
M236.674 54.4097
L230.569 56.0455
L226.1 60.5144
L224.465 66.6191
L226.1 72.7238
L230.569 77.1927
L236.674 78.8285
L242.779 77.1927
L247.248 72.7238
L248.883 66.6191
L247.248 60.5144
L242.779 56.0455
z
" style="fill:#af0a0a;stroke:#000000;stroke-width:0.25;"/>
   </g>
   <g id="patch_26">
    <path clip-path="url(#p09214e8173)" d="
M242.779 31.6267
L236.674 33.2624
L232.205 37.7314
L230.569 43.8361
L232.205 49.9408
L236.674 54.4097
L242.779 56.0455
L248.883 54.4097
L253.352 49.9408
L254.988 43.8361
L253.352 37.7314
L248.883 33.2624
z
" style="fill:#af0a0a;stroke:#000000;stroke-width:0.25;"/>
   </g>
   <g id="patch_27">
    <path clip-path="url(#p09214e8173)" d="
M259.457 14.9484
L253.352 16.5841
L248.883 21.053
L247.248 27.1577
L248.883 33.2624
L253.352 37.7314
L259.457 39.3671
L265.562 37.7314
L270.031 33.2624
L271.666 27.1577
L270.031 21.053
L265.562 16.5841
z
" style="fill:#af0a0a;stroke:#000000;stroke-width:0.25;"/>
   </g>
   <g id="patch_28">
    <path clip-path="url(#p09214e8173)" d="
M282.24 99.9758
L298.918 95.5068
L311.128 83.2974
L315.597 66.6191
L311.128 49.9408
L298.918 37.7314
L282.24 33.2624
L265.562 37.7314
L253.352 49.9408
L248.883 66.6191
L253.352 83.2974
L265.562 95.5068
z
" style="fill:#af0a0a;stroke:#000000;stroke-width:0.25;"/>
   </g>
   <g id="patch_29">
    <path clip-path="url(#p09214e8173)" d="
M390.05 37.7314
L383.946 39.3671
L379.477 43.8361
L377.841 49.9408
L379.477 56.0455
L383.946 60.5144
L390.05 62.1502
L396.155 60.5144
L400.624 56.0455
L402.26 49.9408
L400.624 43.8361
L396.155 39.3671
z
" style="fill:#af0a0a;stroke:#000000;stroke-width:0.25;"/>
   </g>
   <g id="patch_30">
    <path clip-path="url(#p09214e8173)" d="
M412.833 43.8361
L406.729 45.4718
L402.26 49.9408
L400.624 56.0455
L402.26 62.1502
L406.729 66.6191
L412.833 68.2549
L418.938 66.6191
L423.407 62.1502
L425.043 56.0455
L423.407 49.9408
L418.938 45.4718
z
" style="fill:#af0a0a;stroke:#000000;stroke-width:0.25;"/>
   </g>
   <g id="patch_31">
    <path clip-path="url(#p09214e8173)" d="
M429.512 60.5144
L423.407 62.1502
L418.938 66.6191
L417.302 72.7238
L418.938 78.8285
L423.407 83.2974
L429.512 84.9332
L435.617 83.2974
L440.085 78.8285
L441.721 72.7238
L440.085 66.6191
L435.617 62.1502
z
" style="fill:#af0a0a;stroke:#000000;stroke-width:0.25;"/>
   </g>
   <g id="patch_32">
    <path clip-path="url(#p09214e8173)" d="
M435.617 83.2974
L429.512 84.9332
L425.043 89.4021
L423.407 95.5068
L425.043 101.612
L429.512 106.08
L435.617 107.716
L441.721 106.08
L446.19 101.612
L447.826 95.5068
L446.19 89.4021
L441.721 84.9332
z
" style="fill:#af0a0a;stroke:#000000;stroke-width:0.25;"/>
   </g>
   <g id="patch_33">
    <path clip-path="url(#p09214e8173)" d="
M429.512 106.08
L423.407 107.716
L418.938 112.185
L417.302 118.29
L418.938 124.395
L423.407 128.863
L429.512 130.499
L435.617 128.863
L440.085 124.395
L441.721 118.29
L440.085 112.185
L435.617 107.716
z
" style="fill:#af0a0a;stroke:#000000;stroke-width:0.25;"/>
   </g>
   <g id="patch_34">
    <path clip-path="url(#p09214e8173)" d="
M412.833 122.759
L406.729 124.395
L402.26 128.863
L400.624 134.968
L402.26 141.073
L406.729 145.542
L412.833 147.178
L418.938 145.542
L423.407 141.073
L425.043 134.968
L423.407 128.863
L418.938 124.395
z
" style="fill:#af0a0a;stroke:#000000;stroke-width:0.25;"/>
   </g>
   <g id="patch_35">
    <path clip-path="url(#p09214e8173)" d="
M390.05 128.863
L383.946 130.499
L379.477 134.968
L377.841 141.073
L379.477 147.178
L383.946 151.647
L390.05 153.282
L396.155 151.647
L400.624 147.178
L402.26 141.073
L400.624 134.968
L396.155 130.499
z
" style="fill:#af0a0a;stroke:#000000;stroke-width:0.25;"/>
   </g>
   <g id="patch_36">
    <path clip-path="url(#p09214e8173)" d="
M367.267 122.759
L361.163 124.395
L356.694 128.863
L355.058 134.968
L356.694 141.073
L361.163 145.542
L367.267 147.178
L373.372 145.542
L377.841 141.073
L379.477 134.968
L377.841 128.863
L373.372 124.395
z
" style="fill:#af0a0a;stroke:#000000;stroke-width:0.25;"/>
   </g>
   <g id="patch_37">
    <path clip-path="url(#p09214e8173)" d="
M350.589 106.08
L344.484 107.716
L340.015 112.185
L338.38 118.29
L340.015 124.395
L344.484 128.863
L350.589 130.499
L356.694 128.863
L361.163 124.395
L362.798 118.29
L361.163 112.185
L356.694 107.716
z
" style="fill:#af0a0a;stroke:#000000;stroke-width:0.25;"/>
   </g>
   <g id="patch_38">
    <path clip-path="url(#p09214e8173)" d="
M344.484 83.2974
L338.38 84.9332
L333.911 89.4021
L332.275 95.5068
L333.911 101.612
L338.38 106.08
L344.484 107.716
L350.589 106.08
L355.058 101.612
L356.694 95.5068
L355.058 89.4021
L350.589 84.9332
z
" style="fill:#af0a0a;stroke:#000000;stroke-width:0.25;"/>
   </g>
   <g id="patch_39">
    <path clip-path="url(#p09214e8173)" d="
M350.589 60.5144
L344.484 62.1502
L340.015 66.6191
L338.38 72.7238
L340.015 78.8285
L344.484 83.2974
L350.589 84.9332
L356.694 83.2974
L361.163 78.8285
L362.798 72.7238
L361.163 66.6191
L356.694 62.1502
z
" style="fill:#af0a0a;stroke:#000000;stroke-width:0.25;"/>
   </g>
   <g id="patch_40">
    <path clip-path="url(#p09214e8173)" d="
M367.267 43.8361
L361.163 45.4718
L356.694 49.9408
L355.058 56.0455
L356.694 62.1502
L361.163 66.6191
L367.267 68.2549
L373.372 66.6191
L377.841 62.1502
L379.477 56.0455
L377.841 49.9408
L373.372 45.4718
z
" style="fill:#af0a0a;stroke:#000000;stroke-width:0.25;"/>
   </g>
   <g id="patch_41">
    <path clip-path="url(#p09214e8173)" d="
M390.05 128.863
L406.729 124.395
L418.938 112.185
L423.407 95.5068
L418.938 78.8285
L406.729 66.6191
L390.05 62.1502
L373.372 66.6191
L361.163 78.8285
L356.694 95.5068
L361.163 112.185
L373.372 124.395
z
" style="fill:#af0a0a;stroke:#000000;stroke-width:0.25;"/>
   </g>
   <g id="patch_42">
    <path clip-path="url(#p09214e8173)" d="
M468.973 116.654
L462.868 118.29
L458.4 122.759
L456.764 128.863
L458.4 134.968
L462.868 139.437
L468.973 141.073
L475.078 139.437
L479.547 134.968
L481.183 128.863
L479.547 122.759
L475.078 118.29
z
" style="fill:#af0a0a;stroke:#000000;stroke-width:0.25;"/>
   </g>
   <g id="patch_43">
    <path clip-path="url(#p09214e8173)" d="
M491.756 122.759
L485.652 124.395
L481.183 128.863
L479.547 134.968
L481.183 141.073
L485.652 145.542
L491.756 147.178
L497.861 145.542
L502.33 141.073
L503.966 134.968
L502.33 128.863
L497.861 124.395
z
" style="fill:#af0a0a;stroke:#000000;stroke-width:0.25;"/>
   </g>
   <g id="patch_44">
    <path clip-path="url(#p09214e8173)" d="
M508.435 139.437
L502.33 141.073
L497.861 145.542
L496.225 151.647
L497.861 157.751
L502.33 162.22
L508.435 163.856
L514.539 162.22
L519.008 157.751
L520.644 151.647
L519.008 145.542
L514.539 141.073
z
" style="fill:#af0a0a;stroke:#000000;stroke-width:0.25;"/>
   </g>
   <g id="patch_45">
    <path clip-path="url(#p09214e8173)" d="
M514.539 162.22
L508.435 163.856
L503.966 168.325
L502.33 174.43
L503.966 180.534
L508.435 185.003
L514.539 186.639
L520.644 185.003
L525.113 180.534
L526.749 174.43
L525.113 168.325
L520.644 163.856
z
" style="fill:#af0a0a;stroke:#000000;stroke-width:0.25;"/>
   </g>
   <g id="patch_46">
    <path clip-path="url(#p09214e8173)" d="
M508.435 185.003
L502.33 186.639
L497.861 191.108
L496.225 197.213
L497.861 203.317
L502.33 207.786
L508.435 209.422
L514.539 207.786
L519.008 203.317
L520.644 197.213
L519.008 191.108
L514.539 186.639
z
" style="fill:#af0a0a;stroke:#000000;stroke-width:0.25;"/>
   </g>
   <g id="patch_47">
    <path clip-path="url(#p09214e8173)" d="
M491.756 201.682
L485.652 203.317
L481.183 207.786
L479.547 213.891
L481.183 219.996
L485.652 224.465
L491.756 226.1
L497.861 224.465
L502.33 219.996
L503.966 213.891
L502.33 207.786
L497.861 203.317
z
" style="fill:#af0a0a;stroke:#000000;stroke-width:0.25;"/>
   </g>
   <g id="patch_48">
    <path clip-path="url(#p09214e8173)" d="
M468.973 207.786
L462.868 209.422
L458.4 213.891
L456.764 219.996
L458.4 226.1
L462.868 230.569
L468.973 232.205
L475.078 230.569
L479.547 226.1
L481.183 219.996
L479.547 213.891
L475.078 209.422
z
" style="fill:#af0a0a;stroke:#000000;stroke-width:0.25;"/>
   </g>
   <g id="patch_49">
    <path clip-path="url(#p09214e8173)" d="
M446.19 201.682
L440.085 203.317
L435.617 207.786
L433.981 213.891
L435.617 219.996
L440.085 224.465
L446.19 226.1
L452.295 224.465
L456.764 219.996
L458.4 213.891
L456.764 207.786
L452.295 203.317
z
" style="fill:#af0a0a;stroke:#000000;stroke-width:0.25;"/>
   </g>
   <g id="patch_50">
    <path clip-path="url(#p09214e8173)" d="
M429.512 185.003
L423.407 186.639
L418.938 191.108
L417.302 197.213
L418.938 203.317
L423.407 207.786
L429.512 209.422
L435.617 207.786
L440.085 203.317
L441.721 197.213
L440.085 191.108
L435.617 186.639
z
" style="fill:#af0a0a;stroke:#000000;stroke-width:0.25;"/>
   </g>
   <g id="patch_51">
    <path clip-path="url(#p09214e8173)" d="
M423.407 162.22
L417.302 163.856
L412.833 168.325
L411.198 174.43
L412.833 180.534
L417.302 185.003
L423.407 186.639
L429.512 185.003
L433.981 180.534
L435.617 174.43
L433.981 168.325
L429.512 163.856
z
" style="fill:#af0a0a;stroke:#000000;stroke-width:0.25;"/>
   </g>
   <g id="patch_52">
    <path clip-path="url(#p09214e8173)" d="
M429.512 139.437
L423.407 141.073
L418.938 145.542
L417.302 151.647
L418.938 157.751
L423.407 162.22
L429.512 163.856
L435.617 162.22
L440.085 157.751
L441.721 151.647
L440.085 145.542
L435.617 141.073
z
" style="fill:#af0a0a;stroke:#000000;stroke-width:0.25;"/>
   </g>
   <g id="patch_53">
    <path clip-path="url(#p09214e8173)" d="
M446.19 122.759
L440.085 124.395
L435.617 128.863
L433.981 134.968
L435.617 141.073
L440.085 145.542
L446.19 147.178
L452.295 145.542
L456.764 141.073
L458.4 134.968
L456.764 128.863
L452.295 124.395
z
" style="fill:#af0a0a;stroke:#000000;stroke-width:0.25;"/>
   </g>
   <g id="patch_54">
    <path clip-path="url(#p09214e8173)" d="
M468.973 207.786
L485.652 203.317
L497.861 191.108
L502.33 174.43
L497.861 157.751
L485.652 145.542
L468.973 141.073
L452.295 145.542
L440.085 157.751
L435.617 174.43
L440.085 191.108
L452.295 203.317
z
" style="fill:#af0a0a;stroke:#000000;stroke-width:0.25;"/>
   </g>
   <g id="patch_55">
    <path clip-path="url(#p09214e8173)" d="
M497.861 224.465
L491.756 226.1
L487.287 230.569
L485.652 236.674
L487.287 242.779
L491.756 247.248
L497.861 248.883
L503.966 247.248
L508.435 242.779
L510.07 236.674
L508.435 230.569
L503.966 226.1
z
" style="fill:#af0a0a;stroke:#000000;stroke-width:0.25;"/>
   </g>
   <g id="patch_56">
    <path clip-path="url(#p09214e8173)" d="
M520.644 230.569
L514.539 232.205
L510.07 236.674
L508.435 242.779
L510.07 248.883
L514.539 253.352
L520.644 254.988
L526.749 253.352
L531.218 248.883
L532.853 242.779
L531.218 236.674
L526.749 232.205
z
" style="fill:#af0a0a;stroke:#000000;stroke-width:0.25;"/>
   </g>
   <g id="patch_57">
    <path clip-path="url(#p09214e8173)" d="
M537.322 247.248
L531.218 248.883
L526.749 253.352
L525.113 259.457
L526.749 265.562
L531.218 270.031
L537.322 271.666
L543.427 270.031
L547.896 265.562
L549.532 259.457
L547.896 253.352
L543.427 248.883
z
" style="fill:#af0a0a;stroke:#000000;stroke-width:0.25;"/>
   </g>
   <g id="patch_58">
    <path clip-path="url(#p09214e8173)" d="
M543.427 270.031
L537.322 271.666
L532.853 276.135
L531.218 282.24
L532.853 288.345
L537.322 292.814
L543.427 294.449
L549.532 292.814
L554.001 288.345
L555.636 282.24
L554.001 276.135
L549.532 271.666
z
" style="fill:#af0a0a;stroke:#000000;stroke-width:0.25;"/>
   </g>
   <g id="patch_59">
    <path clip-path="url(#p09214e8173)" d="
M537.322 292.814
L531.218 294.449
L526.749 298.918
L525.113 305.023
L526.749 311.128
L531.218 315.597
L537.322 317.232
L543.427 315.597
L547.896 311.128
L549.532 305.023
L547.896 298.918
L543.427 294.449
z
" style="fill:#af0a0a;stroke:#000000;stroke-width:0.25;"/>
   </g>
   <g id="patch_60">
    <path clip-path="url(#p09214e8173)" d="
M520.644 309.492
L514.539 311.128
L510.07 315.597
L508.435 321.701
L510.07 327.806
L514.539 332.275
L520.644 333.911
L526.749 332.275
L531.218 327.806
L532.853 321.701
L531.218 315.597
L526.749 311.128
z
" style="fill:#af0a0a;stroke:#000000;stroke-width:0.25;"/>
   </g>
   <g id="patch_61">
    <path clip-path="url(#p09214e8173)" d="
M497.861 315.597
L491.756 317.232
L487.287 321.701
L485.652 327.806
L487.287 333.911
L491.756 338.38
L497.861 340.015
L503.966 338.38
L508.435 333.911
L510.07 327.806
L508.435 321.701
L503.966 317.232
z
" style="fill:#af0a0a;stroke:#000000;stroke-width:0.25;"/>
   </g>
   <g id="patch_62">
    <path clip-path="url(#p09214e8173)" d="
M475.078 309.492
L468.973 311.128
L464.504 315.597
L462.868 321.701
L464.504 327.806
L468.973 332.275
L475.078 333.911
L481.183 332.275
L485.652 327.806
L487.287 321.701
L485.652 315.597
L481.183 311.128
z
" style="fill:#af0a0a;stroke:#000000;stroke-width:0.25;"/>
   </g>
   <g id="patch_63">
    <path clip-path="url(#p09214e8173)" d="
M458.4 292.814
L452.295 294.449
L447.826 298.918
L446.19 305.023
L447.826 311.128
L452.295 315.597
L458.4 317.232
L464.504 315.597
L468.973 311.128
L470.609 305.023
L468.973 298.918
L464.504 294.449
z
" style="fill:#af0a0a;stroke:#000000;stroke-width:0.25;"/>
   </g>
   <g id="patch_64">
    <path clip-path="url(#p09214e8173)" d="
M452.295 270.031
L446.19 271.666
L441.721 276.135
L440.085 282.24
L441.721 288.345
L446.19 292.814
L452.295 294.449
L458.4 292.814
L462.868 288.345
L464.504 282.24
L462.868 276.135
L458.4 271.666
z
" style="fill:#af0a0a;stroke:#000000;stroke-width:0.25;"/>
   </g>
   <g id="patch_65">
    <path clip-path="url(#p09214e8173)" d="
M458.4 247.248
L452.295 248.883
L447.826 253.352
L446.19 259.457
L447.826 265.562
L452.295 270.031
L458.4 271.666
L464.504 270.031
L468.973 265.562
L470.609 259.457
L468.973 253.352
L464.504 248.883
z
" style="fill:#af0a0a;stroke:#000000;stroke-width:0.25;"/>
   </g>
   <g id="patch_66">
    <path clip-path="url(#p09214e8173)" d="
M475.078 230.569
L468.973 232.205
L464.504 236.674
L462.868 242.779
L464.504 248.883
L468.973 253.352
L475.078 254.988
L481.183 253.352
L485.652 248.883
L487.287 242.779
L485.652 236.674
L481.183 232.205
z
" style="fill:#af0a0a;stroke:#000000;stroke-width:0.25;"/>
   </g>
   <g id="patch_67">
    <path clip-path="url(#p09214e8173)" d="
M497.861 315.597
L514.539 311.128
L526.749 298.918
L531.218 282.24
L526.749 265.562
L514.539 253.352
L497.861 248.883
L481.183 253.352
L468.973 265.562
L464.504 282.24
L468.973 298.918
L481.183 311.128
z
" style="fill:#af0a0a;stroke:#000000;stroke-width:0.25;"/>
   </g>
   <g id="patch_68">
    <path clip-path="url(#p09214e8173)" d="
M468.973 332.275
L462.868 333.911
L458.4 338.38
L456.764 344.484
L458.4 350.589
L462.868 355.058
L468.973 356.694
L475.078 355.058
L479.547 350.589
L481.183 344.484
L479.547 338.38
L475.078 333.911
z
" style="fill:#af0a0a;stroke:#000000;stroke-width:0.25;"/>
   </g>
   <g id="patch_69">
    <path clip-path="url(#p09214e8173)" d="
M491.756 338.38
L485.652 340.015
L481.183 344.484
L479.547 350.589
L481.183 356.694
L485.652 361.163
L491.756 362.798
L497.861 361.163
L502.33 356.694
L503.966 350.589
L502.33 344.484
L497.861 340.015
z
" style="fill:#af0a0a;stroke:#000000;stroke-width:0.25;"/>
   </g>
   <g id="patch_70">
    <path clip-path="url(#p09214e8173)" d="
M508.435 355.058
L502.33 356.694
L497.861 361.163
L496.225 367.267
L497.861 373.372
L502.33 377.841
L508.435 379.477
L514.539 377.841
L519.008 373.372
L520.644 367.267
L519.008 361.163
L514.539 356.694
z
" style="fill:#af0a0a;stroke:#000000;stroke-width:0.25;"/>
   </g>
   <g id="patch_71">
    <path clip-path="url(#p09214e8173)" d="
M514.539 377.841
L508.435 379.477
L503.966 383.946
L502.33 390.05
L503.966 396.155
L508.435 400.624
L514.539 402.26
L520.644 400.624
L525.113 396.155
L526.749 390.05
L525.113 383.946
L520.644 379.477
z
" style="fill:#af0a0a;stroke:#000000;stroke-width:0.25;"/>
   </g>
   <g id="patch_72">
    <path clip-path="url(#p09214e8173)" d="
M508.435 400.624
L502.33 402.26
L497.861 406.729
L496.225 412.833
L497.861 418.938
L502.33 423.407
L508.435 425.043
L514.539 423.407
L519.008 418.938
L520.644 412.833
L519.008 406.729
L514.539 402.26
z
" style="fill:#af0a0a;stroke:#000000;stroke-width:0.25;"/>
   </g>
   <g id="patch_73">
    <path clip-path="url(#p09214e8173)" d="
M491.756 417.302
L485.652 418.938
L481.183 423.407
L479.547 429.512
L481.183 435.617
L485.652 440.085
L491.756 441.721
L497.861 440.085
L502.33 435.617
L503.966 429.512
L502.33 423.407
L497.861 418.938
z
" style="fill:#af0a0a;stroke:#000000;stroke-width:0.25;"/>
   </g>
   <g id="patch_74">
    <path clip-path="url(#p09214e8173)" d="
M468.973 423.407
L462.868 425.043
L458.4 429.512
L456.764 435.617
L458.4 441.721
L462.868 446.19
L468.973 447.826
L475.078 446.19
L479.547 441.721
L481.183 435.617
L479.547 429.512
L475.078 425.043
z
" style="fill:#af0a0a;stroke:#000000;stroke-width:0.25;"/>
   </g>
   <g id="patch_75">
    <path clip-path="url(#p09214e8173)" d="
M446.19 417.302
L440.085 418.938
L435.617 423.407
L433.981 429.512
L435.617 435.617
L440.085 440.085
L446.19 441.721
L452.295 440.085
L456.764 435.617
L458.4 429.512
L456.764 423.407
L452.295 418.938
z
" style="fill:#af0a0a;stroke:#000000;stroke-width:0.25;"/>
   </g>
   <g id="patch_76">
    <path clip-path="url(#p09214e8173)" d="
M429.512 400.624
L423.407 402.26
L418.938 406.729
L417.302 412.833
L418.938 418.938
L423.407 423.407
L429.512 425.043
L435.617 423.407
L440.085 418.938
L441.721 412.833
L440.085 406.729
L435.617 402.26
z
" style="fill:#af0a0a;stroke:#000000;stroke-width:0.25;"/>
   </g>
   <g id="patch_77">
    <path clip-path="url(#p09214e8173)" d="
M423.407 377.841
L417.302 379.477
L412.833 383.946
L411.198 390.05
L412.833 396.155
L417.302 400.624
L423.407 402.26
L429.512 400.624
L433.981 396.155
L435.617 390.05
L433.981 383.946
L429.512 379.477
z
" style="fill:#af0a0a;stroke:#000000;stroke-width:0.25;"/>
   </g>
   <g id="patch_78">
    <path clip-path="url(#p09214e8173)" d="
M429.512 355.058
L423.407 356.694
L418.938 361.163
L417.302 367.267
L418.938 373.372
L423.407 377.841
L429.512 379.477
L435.617 377.841
L440.085 373.372
L441.721 367.267
L440.085 361.163
L435.617 356.694
z
" style="fill:#af0a0a;stroke:#000000;stroke-width:0.25;"/>
   </g>
   <g id="patch_79">
    <path clip-path="url(#p09214e8173)" d="
M446.19 338.38
L440.085 340.015
L435.617 344.484
L433.981 350.589
L435.617 356.694
L440.085 361.163
L446.19 362.798
L452.295 361.163
L456.764 356.694
L458.4 350.589
L456.764 344.484
L452.295 340.015
z
" style="fill:#af0a0a;stroke:#000000;stroke-width:0.25;"/>
   </g>
   <g id="patch_80">
    <path clip-path="url(#p09214e8173)" d="
M468.973 423.407
L485.652 418.938
L497.861 406.729
L502.33 390.05
L497.861 373.372
L485.652 361.163
L468.973 356.694
L452.295 361.163
L440.085 373.372
L435.617 390.05
L440.085 406.729
L452.295 418.938
z
" style="fill:#af0a0a;stroke:#000000;stroke-width:0.25;"/>
   </g>
   <g id="patch_81">
    <path clip-path="url(#p09214e8173)" d="
M390.05 411.198
L383.946 412.833
L379.477 417.302
L377.841 423.407
L379.477 429.512
L383.946 433.981
L390.05 435.617
L396.155 433.981
L400.624 429.512
L402.26 423.407
L400.624 417.302
L396.155 412.833
z
" style="fill:#af0a0a;stroke:#000000;stroke-width:0.25;"/>
   </g>
   <g id="patch_82">
    <path clip-path="url(#p09214e8173)" d="
M412.833 417.302
L406.729 418.938
L402.26 423.407
L400.624 429.512
L402.26 435.617
L406.729 440.085
L412.833 441.721
L418.938 440.085
L423.407 435.617
L425.043 429.512
L423.407 423.407
L418.938 418.938
z
" style="fill:#af0a0a;stroke:#000000;stroke-width:0.25;"/>
   </g>
   <g id="patch_83">
    <path clip-path="url(#p09214e8173)" d="
M429.512 433.981
L423.407 435.617
L418.938 440.085
L417.302 446.19
L418.938 452.295
L423.407 456.764
L429.512 458.4
L435.617 456.764
L440.085 452.295
L441.721 446.19
L440.085 440.085
L435.617 435.617
z
" style="fill:#af0a0a;stroke:#000000;stroke-width:0.25;"/>
   </g>
   <g id="patch_84">
    <path clip-path="url(#p09214e8173)" d="
M435.617 456.764
L429.512 458.4
L425.043 462.868
L423.407 468.973
L425.043 475.078
L429.512 479.547
L435.617 481.183
L441.721 479.547
L446.19 475.078
L447.826 468.973
L446.19 462.868
L441.721 458.4
z
" style="fill:#af0a0a;stroke:#000000;stroke-width:0.25;"/>
   </g>
   <g id="patch_85">
    <path clip-path="url(#p09214e8173)" d="
M429.512 479.547
L423.407 481.183
L418.938 485.652
L417.302 491.756
L418.938 497.861
L423.407 502.33
L429.512 503.966
L435.617 502.33
L440.085 497.861
L441.721 491.756
L440.085 485.652
L435.617 481.183
z
" style="fill:#af0a0a;stroke:#000000;stroke-width:0.25;"/>
   </g>
   <g id="patch_86">
    <path clip-path="url(#p09214e8173)" d="
M412.833 496.225
L406.729 497.861
L402.26 502.33
L400.624 508.435
L402.26 514.539
L406.729 519.008
L412.833 520.644
L418.938 519.008
L423.407 514.539
L425.043 508.435
L423.407 502.33
L418.938 497.861
z
" style="fill:#af0a0a;stroke:#000000;stroke-width:0.25;"/>
   </g>
   <g id="patch_87">
    <path clip-path="url(#p09214e8173)" d="
M390.05 502.33
L383.946 503.966
L379.477 508.435
L377.841 514.539
L379.477 520.644
L383.946 525.113
L390.05 526.749
L396.155 525.113
L400.624 520.644
L402.26 514.539
L400.624 508.435
L396.155 503.966
z
" style="fill:#af0a0a;stroke:#000000;stroke-width:0.25;"/>
   </g>
   <g id="patch_88">
    <path clip-path="url(#p09214e8173)" d="
M367.267 496.225
L361.163 497.861
L356.694 502.33
L355.058 508.435
L356.694 514.539
L361.163 519.008
L367.267 520.644
L373.372 519.008
L377.841 514.539
L379.477 508.435
L377.841 502.33
L373.372 497.861
z
" style="fill:#af0a0a;stroke:#000000;stroke-width:0.25;"/>
   </g>
   <g id="patch_89">
    <path clip-path="url(#p09214e8173)" d="
M350.589 479.547
L344.484 481.183
L340.015 485.652
L338.38 491.756
L340.015 497.861
L344.484 502.33
L350.589 503.966
L356.694 502.33
L361.163 497.861
L362.798 491.756
L361.163 485.652
L356.694 481.183
z
" style="fill:#af0a0a;stroke:#000000;stroke-width:0.25;"/>
   </g>
   <g id="patch_90">
    <path clip-path="url(#p09214e8173)" d="
M344.484 456.764
L338.38 458.4
L333.911 462.868
L332.275 468.973
L333.911 475.078
L338.38 479.547
L344.484 481.183
L350.589 479.547
L355.058 475.078
L356.694 468.973
L355.058 462.868
L350.589 458.4
z
" style="fill:#af0a0a;stroke:#000000;stroke-width:0.25;"/>
   </g>
   <g id="patch_91">
    <path clip-path="url(#p09214e8173)" d="
M350.589 433.981
L344.484 435.617
L340.015 440.085
L338.38 446.19
L340.015 452.295
L344.484 456.764
L350.589 458.4
L356.694 456.764
L361.163 452.295
L362.798 446.19
L361.163 440.085
L356.694 435.617
z
" style="fill:#af0a0a;stroke:#000000;stroke-width:0.25;"/>
   </g>
   <g id="patch_92">
    <path clip-path="url(#p09214e8173)" d="
M367.267 417.302
L361.163 418.938
L356.694 423.407
L355.058 429.512
L356.694 435.617
L361.163 440.085
L367.267 441.721
L373.372 440.085
L377.841 435.617
L379.477 429.512
L377.841 423.407
L373.372 418.938
z
" style="fill:#af0a0a;stroke:#000000;stroke-width:0.25;"/>
   </g>
   <g id="patch_93">
    <path clip-path="url(#p09214e8173)" d="
M390.05 502.33
L406.729 497.861
L418.938 485.652
L423.407 468.973
L418.938 452.295
L406.729 440.085
L390.05 435.617
L373.372 440.085
L361.163 452.295
L356.694 468.973
L361.163 485.652
L373.372 497.861
z
" style="fill:#af0a0a;stroke:#000000;stroke-width:0.25;"/>
   </g>
   <g id="patch_94">
    <path clip-path="url(#p09214e8173)" d="
M282.24 440.085
L276.135 441.721
L271.666 446.19
L270.031 452.295
L271.666 458.4
L276.135 462.868
L282.24 464.504
L288.345 462.868
L292.814 458.4
L294.449 452.295
L292.814 446.19
L288.345 441.721
z
" style="fill:#af0a0a;stroke:#000000;stroke-width:0.25;"/>
   </g>
   <g id="patch_95">
    <path clip-path="url(#p09214e8173)" d="
M305.023 446.19
L298.918 447.826
L294.449 452.295
L292.814 458.4
L294.449 464.504
L298.918 468.973
L305.023 470.609
L311.128 468.973
L315.597 464.504
L317.232 458.4
L315.597 452.295
L311.128 447.826
z
" style="fill:#af0a0a;stroke:#000000;stroke-width:0.25;"/>
   </g>
   <g id="patch_96">
    <path clip-path="url(#p09214e8173)" d="
M321.701 462.868
L315.597 464.504
L311.128 468.973
L309.492 475.078
L311.128 481.183
L315.597 485.652
L321.701 487.287
L327.806 485.652
L332.275 481.183
L333.911 475.078
L332.275 468.973
L327.806 464.504
z
" style="fill:#af0a0a;stroke:#000000;stroke-width:0.25;"/>
   </g>
   <g id="patch_97">
    <path clip-path="url(#p09214e8173)" d="
M327.806 485.652
L321.701 487.287
L317.232 491.756
L315.597 497.861
L317.232 503.966
L321.701 508.435
L327.806 510.07
L333.911 508.435
L338.38 503.966
L340.015 497.861
L338.38 491.756
L333.911 487.287
z
" style="fill:#af0a0a;stroke:#000000;stroke-width:0.25;"/>
   </g>
   <g id="patch_98">
    <path clip-path="url(#p09214e8173)" d="
M321.701 508.435
L315.597 510.07
L311.128 514.539
L309.492 520.644
L311.128 526.749
L315.597 531.218
L321.701 532.853
L327.806 531.218
L332.275 526.749
L333.911 520.644
L332.275 514.539
L327.806 510.07
z
" style="fill:#af0a0a;stroke:#000000;stroke-width:0.25;"/>
   </g>
   <g id="patch_99">
    <path clip-path="url(#p09214e8173)" d="
M305.023 525.113
L298.918 526.749
L294.449 531.218
L292.814 537.322
L294.449 543.427
L298.918 547.896
L305.023 549.532
L311.128 547.896
L315.597 543.427
L317.232 537.322
L315.597 531.218
L311.128 526.749
z
" style="fill:#af0a0a;stroke:#000000;stroke-width:0.25;"/>
   </g>
   <g id="patch_100">
    <path clip-path="url(#p09214e8173)" d="
M282.24 531.218
L276.135 532.853
L271.666 537.322
L270.031 543.427
L271.666 549.532
L276.135 554.001
L282.24 555.636
L288.345 554.001
L292.814 549.532
L294.449 543.427
L292.814 537.322
L288.345 532.853
z
" style="fill:#af0a0a;stroke:#000000;stroke-width:0.25;"/>
   </g>
   <g id="patch_101">
    <path clip-path="url(#p09214e8173)" d="
M259.457 525.113
L253.352 526.749
L248.883 531.218
L247.248 537.322
L248.883 543.427
L253.352 547.896
L259.457 549.532
L265.562 547.896
L270.031 543.427
L271.666 537.322
L270.031 531.218
L265.562 526.749
z
" style="fill:#af0a0a;stroke:#000000;stroke-width:0.25;"/>
   </g>
   <g id="patch_102">
    <path clip-path="url(#p09214e8173)" d="
M242.779 508.435
L236.674 510.07
L232.205 514.539
L230.569 520.644
L232.205 526.749
L236.674 531.218
L242.779 532.853
L248.883 531.218
L253.352 526.749
L254.988 520.644
L253.352 514.539
L248.883 510.07
z
" style="fill:#af0a0a;stroke:#000000;stroke-width:0.25;"/>
   </g>
   <g id="patch_103">
    <path clip-path="url(#p09214e8173)" d="
M236.674 485.652
L230.569 487.287
L226.1 491.756
L224.465 497.861
L226.1 503.966
L230.569 508.435
L236.674 510.07
L242.779 508.435
L247.248 503.966
L248.883 497.861
L247.248 491.756
L242.779 487.287
z
" style="fill:#af0a0a;stroke:#000000;stroke-width:0.25;"/>
   </g>
   <g id="patch_104">
    <path clip-path="url(#p09214e8173)" d="
M242.779 462.868
L236.674 464.504
L232.205 468.973
L230.569 475.078
L232.205 481.183
L236.674 485.652
L242.779 487.287
L248.883 485.652
L253.352 481.183
L254.988 475.078
L253.352 468.973
L248.883 464.504
z
" style="fill:#af0a0a;stroke:#000000;stroke-width:0.25;"/>
   </g>
   <g id="patch_105">
    <path clip-path="url(#p09214e8173)" d="
M259.457 446.19
L253.352 447.826
L248.883 452.295
L247.248 458.4
L248.883 464.504
L253.352 468.973
L259.457 470.609
L265.562 468.973
L270.031 464.504
L271.666 458.4
L270.031 452.295
L265.562 447.826
z
" style="fill:#af0a0a;stroke:#000000;stroke-width:0.25;"/>
   </g>
   <g id="patch_106">
    <path clip-path="url(#p09214e8173)" d="
M282.24 531.218
L298.918 526.749
L311.128 514.539
L315.597 497.861
L311.128 481.183
L298.918 468.973
L282.24 464.504
L265.562 468.973
L253.352 481.183
L248.883 497.861
L253.352 514.539
L265.562 526.749
z
" style="fill:#af0a0a;stroke:#000000;stroke-width:0.25;"/>
   </g>
   <g id="patch_107">
    <path clip-path="url(#p09214e8173)" d="
M174.43 411.198
L168.325 412.833
L163.856 417.302
L162.22 423.407
L163.856 429.512
L168.325 433.981
L174.43 435.617
L180.534 433.981
L185.003 429.512
L186.639 423.407
L185.003 417.302
L180.534 412.833
z
" style="fill:#af0a0a;stroke:#000000;stroke-width:0.25;"/>
   </g>
   <g id="patch_108">
    <path clip-path="url(#p09214e8173)" d="
M197.213 417.302
L191.108 418.938
L186.639 423.407
L185.003 429.512
L186.639 435.617
L191.108 440.085
L197.213 441.721
L203.317 440.085
L207.786 435.617
L209.422 429.512
L207.786 423.407
L203.317 418.938
z
" style="fill:#af0a0a;stroke:#000000;stroke-width:0.25;"/>
   </g>
   <g id="patch_109">
    <path clip-path="url(#p09214e8173)" d="
M213.891 433.981
L207.786 435.617
L203.317 440.085
L201.682 446.19
L203.317 452.295
L207.786 456.764
L213.891 458.4
L219.996 456.764
L224.465 452.295
L226.1 446.19
L224.465 440.085
L219.996 435.617
z
" style="fill:#af0a0a;stroke:#000000;stroke-width:0.25;"/>
   </g>
   <g id="patch_110">
    <path clip-path="url(#p09214e8173)" d="
M219.996 456.764
L213.891 458.4
L209.422 462.868
L207.786 468.973
L209.422 475.078
L213.891 479.547
L219.996 481.183
L226.1 479.547
L230.569 475.078
L232.205 468.973
L230.569 462.868
L226.1 458.4
z
" style="fill:#af0a0a;stroke:#000000;stroke-width:0.25;"/>
   </g>
   <g id="patch_111">
    <path clip-path="url(#p09214e8173)" d="
M213.891 479.547
L207.786 481.183
L203.317 485.652
L201.682 491.756
L203.317 497.861
L207.786 502.33
L213.891 503.966
L219.996 502.33
L224.465 497.861
L226.1 491.756
L224.465 485.652
L219.996 481.183
z
" style="fill:#af0a0a;stroke:#000000;stroke-width:0.25;"/>
   </g>
   <g id="patch_112">
    <path clip-path="url(#p09214e8173)" d="
M197.213 496.225
L191.108 497.861
L186.639 502.33
L185.003 508.435
L186.639 514.539
L191.108 519.008
L197.213 520.644
L203.317 519.008
L207.786 514.539
L209.422 508.435
L207.786 502.33
L203.317 497.861
z
" style="fill:#af0a0a;stroke:#000000;stroke-width:0.25;"/>
   </g>
   <g id="patch_113">
    <path clip-path="url(#p09214e8173)" d="
M174.43 502.33
L168.325 503.966
L163.856 508.435
L162.22 514.539
L163.856 520.644
L168.325 525.113
L174.43 526.749
L180.534 525.113
L185.003 520.644
L186.639 514.539
L185.003 508.435
L180.534 503.966
z
" style="fill:#af0a0a;stroke:#000000;stroke-width:0.25;"/>
   </g>
   <g id="patch_114">
    <path clip-path="url(#p09214e8173)" d="
M151.647 496.225
L145.542 497.861
L141.073 502.33
L139.437 508.435
L141.073 514.539
L145.542 519.008
L151.647 520.644
L157.751 519.008
L162.22 514.539
L163.856 508.435
L162.22 502.33
L157.751 497.861
z
" style="fill:#af0a0a;stroke:#000000;stroke-width:0.25;"/>
   </g>
   <g id="patch_115">
    <path clip-path="url(#p09214e8173)" d="
M134.968 479.547
L128.863 481.183
L124.395 485.652
L122.759 491.756
L124.395 497.861
L128.863 502.33
L134.968 503.966
L141.073 502.33
L145.542 497.861
L147.178 491.756
L145.542 485.652
L141.073 481.183
z
" style="fill:#af0a0a;stroke:#000000;stroke-width:0.25;"/>
   </g>
   <g id="patch_116">
    <path clip-path="url(#p09214e8173)" d="
M128.863 456.764
L122.759 458.4
L118.29 462.868
L116.654 468.973
L118.29 475.078
L122.759 479.547
L128.863 481.183
L134.968 479.547
L139.437 475.078
L141.073 468.973
L139.437 462.868
L134.968 458.4
z
" style="fill:#af0a0a;stroke:#000000;stroke-width:0.25;"/>
   </g>
   <g id="patch_117">
    <path clip-path="url(#p09214e8173)" d="
M134.968 433.981
L128.863 435.617
L124.395 440.085
L122.759 446.19
L124.395 452.295
L128.863 456.764
L134.968 458.4
L141.073 456.764
L145.542 452.295
L147.178 446.19
L145.542 440.085
L141.073 435.617
z
" style="fill:#af0a0a;stroke:#000000;stroke-width:0.25;"/>
   </g>
   <g id="patch_118">
    <path clip-path="url(#p09214e8173)" d="
M151.647 417.302
L145.542 418.938
L141.073 423.407
L139.437 429.512
L141.073 435.617
L145.542 440.085
L151.647 441.721
L157.751 440.085
L162.22 435.617
L163.856 429.512
L162.22 423.407
L157.751 418.938
z
" style="fill:#af0a0a;stroke:#000000;stroke-width:0.25;"/>
   </g>
   <g id="patch_119">
    <path clip-path="url(#p09214e8173)" d="
M174.43 502.33
L191.108 497.861
L203.317 485.652
L207.786 468.973
L203.317 452.295
L191.108 440.085
L174.43 435.617
L157.751 440.085
L145.542 452.295
L141.073 468.973
L145.542 485.652
L157.751 497.861
z
" style="fill:#af0a0a;stroke:#000000;stroke-width:0.25;"/>
   </g>
   <g id="patch_120">
    <path clip-path="url(#p09214e8173)" d="
M95.5068 332.275
L89.4021 333.911
L84.9332 338.38
L83.2974 344.484
L84.9332 350.589
L89.4021 355.058
L95.5068 356.694
L101.612 355.058
L106.08 350.589
L107.716 344.484
L106.08 338.38
L101.612 333.911
z
" style="fill:#af0a0a;stroke:#000000;stroke-width:0.25;"/>
   </g>
   <g id="patch_121">
    <path clip-path="url(#p09214e8173)" d="
M118.29 338.38
L112.185 340.015
L107.716 344.484
L106.08 350.589
L107.716 356.694
L112.185 361.163
L118.29 362.798
L124.395 361.163
L128.863 356.694
L130.499 350.589
L128.863 344.484
L124.395 340.015
z
" style="fill:#af0a0a;stroke:#000000;stroke-width:0.25;"/>
   </g>
   <g id="patch_122">
    <path clip-path="url(#p09214e8173)" d="
M134.968 355.058
L128.863 356.694
L124.395 361.163
L122.759 367.267
L124.395 373.372
L128.863 377.841
L134.968 379.477
L141.073 377.841
L145.542 373.372
L147.178 367.267
L145.542 361.163
L141.073 356.694
z
" style="fill:#af0a0a;stroke:#000000;stroke-width:0.25;"/>
   </g>
   <g id="patch_123">
    <path clip-path="url(#p09214e8173)" d="
M141.073 377.841
L134.968 379.477
L130.499 383.946
L128.863 390.05
L130.499 396.155
L134.968 400.624
L141.073 402.26
L147.178 400.624
L151.647 396.155
L153.282 390.05
L151.647 383.946
L147.178 379.477
z
" style="fill:#af0a0a;stroke:#000000;stroke-width:0.25;"/>
   </g>
   <g id="patch_124">
    <path clip-path="url(#p09214e8173)" d="
M134.968 400.624
L128.863 402.26
L124.395 406.729
L122.759 412.833
L124.395 418.938
L128.863 423.407
L134.968 425.043
L141.073 423.407
L145.542 418.938
L147.178 412.833
L145.542 406.729
L141.073 402.26
z
" style="fill:#af0a0a;stroke:#000000;stroke-width:0.25;"/>
   </g>
   <g id="patch_125">
    <path clip-path="url(#p09214e8173)" d="
M118.29 417.302
L112.185 418.938
L107.716 423.407
L106.08 429.512
L107.716 435.617
L112.185 440.085
L118.29 441.721
L124.395 440.085
L128.863 435.617
L130.499 429.512
L128.863 423.407
L124.395 418.938
z
" style="fill:#af0a0a;stroke:#000000;stroke-width:0.25;"/>
   </g>
   <g id="patch_126">
    <path clip-path="url(#p09214e8173)" d="
M95.5068 423.407
L89.4021 425.043
L84.9332 429.512
L83.2974 435.617
L84.9332 441.721
L89.4021 446.19
L95.5068 447.826
L101.612 446.19
L106.08 441.721
L107.716 435.617
L106.08 429.512
L101.612 425.043
z
" style="fill:#af0a0a;stroke:#000000;stroke-width:0.25;"/>
   </g>
   <g id="patch_127">
    <path clip-path="url(#p09214e8173)" d="
M72.7238 417.302
L66.6191 418.938
L62.1502 423.407
L60.5144 429.512
L62.1502 435.617
L66.6191 440.085
L72.7238 441.721
L78.8285 440.085
L83.2974 435.617
L84.9332 429.512
L83.2974 423.407
L78.8285 418.938
z
" style="fill:#af0a0a;stroke:#000000;stroke-width:0.25;"/>
   </g>
   <g id="patch_128">
    <path clip-path="url(#p09214e8173)" d="
M56.0455 400.624
L49.9408 402.26
L45.4718 406.729
L43.8361 412.833
L45.4718 418.938
L49.9408 423.407
L56.0455 425.043
L62.1502 423.407
L66.6191 418.938
L68.2549 412.833
L66.6191 406.729
L62.1502 402.26
z
" style="fill:#af0a0a;stroke:#000000;stroke-width:0.25;"/>
   </g>
   <g id="patch_129">
    <path clip-path="url(#p09214e8173)" d="
M49.9408 377.841
L43.8361 379.477
L39.3671 383.946
L37.7314 390.05
L39.3671 396.155
L43.8361 400.624
L49.9408 402.26
L56.0455 400.624
L60.5144 396.155
L62.1502 390.05
L60.5144 383.946
L56.0455 379.477
z
" style="fill:#af0a0a;stroke:#000000;stroke-width:0.25;"/>
   </g>
   <g id="patch_130">
    <path clip-path="url(#p09214e8173)" d="
M56.0455 355.058
L49.9408 356.694
L45.4718 361.163
L43.8361 367.267
L45.4718 373.372
L49.9408 377.841
L56.0455 379.477
L62.1502 377.841
L66.6191 373.372
L68.2549 367.267
L66.6191 361.163
L62.1502 356.694
z
" style="fill:#af0a0a;stroke:#000000;stroke-width:0.25;"/>
   </g>
   <g id="patch_131">
    <path clip-path="url(#p09214e8173)" d="
M72.7238 338.38
L66.6191 340.015
L62.1502 344.484
L60.5144 350.589
L62.1502 356.694
L66.6191 361.163
L72.7238 362.798
L78.8285 361.163
L83.2974 356.694
L84.9332 350.589
L83.2974 344.484
L78.8285 340.015
z
" style="fill:#af0a0a;stroke:#000000;stroke-width:0.25;"/>
   </g>
   <g id="patch_132">
    <path clip-path="url(#p09214e8173)" d="
M95.5068 423.407
L112.185 418.938
L124.395 406.729
L128.863 390.05
L124.395 373.372
L112.185 361.163
L95.5068 356.694
L78.8285 361.163
L66.6191 373.372
L62.1502 390.05
L66.6191 406.729
L78.8285 418.938
z
" style="fill:#af0a0a;stroke:#000000;stroke-width:0.25;"/>
   </g>
   <g id="patch_133">
    <path clip-path="url(#p09214e8173)" d="
M66.6191 224.465
L60.5144 226.1
L56.0455 230.569
L54.4097 236.674
L56.0455 242.779
L60.5144 247.248
L66.6191 248.883
L72.7238 247.248
L77.1927 242.779
L78.8285 236.674
L77.1927 230.569
L72.7238 226.1
z
" style="fill:#af0a0a;stroke:#000000;stroke-width:0.25;"/>
   </g>
   <g id="patch_134">
    <path clip-path="url(#p09214e8173)" d="
M89.4021 230.569
L83.2974 232.205
L78.8285 236.674
L77.1927 242.779
L78.8285 248.883
L83.2974 253.352
L89.4021 254.988
L95.5068 253.352
L99.9758 248.883
L101.612 242.779
L99.9758 236.674
L95.5068 232.205
z
" style="fill:#af0a0a;stroke:#000000;stroke-width:0.25;"/>
   </g>
   <g id="patch_135">
    <path clip-path="url(#p09214e8173)" d="
M106.08 247.248
L99.9758 248.883
L95.5068 253.352
L93.8711 259.457
L95.5068 265.562
L99.9758 270.031
L106.08 271.666
L112.185 270.031
L116.654 265.562
L118.29 259.457
L116.654 253.352
L112.185 248.883
z
" style="fill:#af0a0a;stroke:#000000;stroke-width:0.25;"/>
   </g>
   <g id="patch_136">
    <path clip-path="url(#p09214e8173)" d="
M112.185 270.031
L106.08 271.666
L101.612 276.135
L99.9758 282.24
L101.612 288.345
L106.08 292.814
L112.185 294.449
L118.29 292.814
L122.759 288.345
L124.395 282.24
L122.759 276.135
L118.29 271.666
z
" style="fill:#af0a0a;stroke:#000000;stroke-width:0.25;"/>
   </g>
   <g id="patch_137">
    <path clip-path="url(#p09214e8173)" d="
M106.08 292.814
L99.9758 294.449
L95.5068 298.918
L93.8711 305.023
L95.5068 311.128
L99.9758 315.597
L106.08 317.232
L112.185 315.597
L116.654 311.128
L118.29 305.023
L116.654 298.918
L112.185 294.449
z
" style="fill:#af0a0a;stroke:#000000;stroke-width:0.25;"/>
   </g>
   <g id="patch_138">
    <path clip-path="url(#p09214e8173)" d="
M89.4021 309.492
L83.2974 311.128
L78.8285 315.597
L77.1927 321.701
L78.8285 327.806
L83.2974 332.275
L89.4021 333.911
L95.5068 332.275
L99.9758 327.806
L101.612 321.701
L99.9758 315.597
L95.5068 311.128
z
" style="fill:#af0a0a;stroke:#000000;stroke-width:0.25;"/>
   </g>
   <g id="patch_139">
    <path clip-path="url(#p09214e8173)" d="
M66.6191 315.597
L60.5144 317.232
L56.0455 321.701
L54.4097 327.806
L56.0455 333.911
L60.5144 338.38
L66.6191 340.015
L72.7238 338.38
L77.1927 333.911
L78.8285 327.806
L77.1927 321.701
L72.7238 317.232
z
" style="fill:#af0a0a;stroke:#000000;stroke-width:0.25;"/>
   </g>
   <g id="patch_140">
    <path clip-path="url(#p09214e8173)" d="
M43.8361 309.492
L37.7314 311.128
L33.2624 315.597
L31.6267 321.701
L33.2624 327.806
L37.7314 332.275
L43.8361 333.911
L49.9408 332.275
L54.4097 327.806
L56.0455 321.701
L54.4097 315.597
L49.9408 311.128
z
" style="fill:#af0a0a;stroke:#000000;stroke-width:0.25;"/>
   </g>
   <g id="patch_141">
    <path clip-path="url(#p09214e8173)" d="
M27.1577 292.814
L21.053 294.449
L16.5841 298.918
L14.9484 305.023
L16.5841 311.128
L21.053 315.597
L27.1577 317.232
L33.2624 315.597
L37.7314 311.128
L39.3671 305.023
L37.7314 298.918
L33.2624 294.449
z
" style="fill:#af0a0a;stroke:#000000;stroke-width:0.25;"/>
   </g>
   <g id="patch_142">
    <path clip-path="url(#p09214e8173)" d="
M21.053 270.031
L14.9484 271.666
L10.4794 276.135
L8.84366 282.24
L10.4794 288.345
L14.9484 292.814
L21.053 294.449
L27.1577 292.814
L31.6267 288.345
L33.2624 282.24
L31.6267 276.135
L27.1577 271.666
z
" style="fill:#af0a0a;stroke:#000000;stroke-width:0.25;"/>
   </g>
   <g id="patch_143">
    <path clip-path="url(#p09214e8173)" d="
M27.1577 247.248
L21.053 248.883
L16.5841 253.352
L14.9484 259.457
L16.5841 265.562
L21.053 270.031
L27.1577 271.666
L33.2624 270.031
L37.7314 265.562
L39.3671 259.457
L37.7314 253.352
L33.2624 248.883
z
" style="fill:#af0a0a;stroke:#000000;stroke-width:0.25;"/>
   </g>
   <g id="patch_144">
    <path clip-path="url(#p09214e8173)" d="
M43.8361 230.569
L37.7314 232.205
L33.2624 236.674
L31.6267 242.779
L33.2624 248.883
L37.7314 253.352
L43.8361 254.988
L49.9408 253.352
L54.4097 248.883
L56.0455 242.779
L54.4097 236.674
L49.9408 232.205
z
" style="fill:#af0a0a;stroke:#000000;stroke-width:0.25;"/>
   </g>
   <g id="patch_145">
    <path clip-path="url(#p09214e8173)" d="
M66.6191 315.597
L83.2974 311.128
L95.5068 298.918
L99.9758 282.24
L95.5068 265.562
L83.2974 253.352
L66.6191 248.883
L49.9408 253.352
L37.7314 265.562
L33.2624 282.24
L37.7314 298.918
L49.9408 311.128
z
" style="fill:#af0a0a;stroke:#000000;stroke-width:0.25;"/>
   </g>
   <g id="patch_146">
    <path clip-path="url(#p09214e8173)" d="
M95.5068 116.654
L89.4021 118.29
L84.9332 122.759
L83.2974 128.863
L84.9332 134.968
L89.4021 139.437
L95.5068 141.073
L101.612 139.437
L106.08 134.968
L107.716 128.863
L106.08 122.759
L101.612 118.29
z
" style="fill:#af0a0a;stroke:#000000;stroke-width:0.25;"/>
   </g>
   <g id="patch_147">
    <path clip-path="url(#p09214e8173)" d="
M118.29 122.759
L112.185 124.395
L107.716 128.863
L106.08 134.968
L107.716 141.073
L112.185 145.542
L118.29 147.178
L124.395 145.542
L128.863 141.073
L130.499 134.968
L128.863 128.863
L124.395 124.395
z
" style="fill:#af0a0a;stroke:#000000;stroke-width:0.25;"/>
   </g>
   <g id="patch_148">
    <path clip-path="url(#p09214e8173)" d="
M134.968 139.437
L128.863 141.073
L124.395 145.542
L122.759 151.647
L124.395 157.751
L128.863 162.22
L134.968 163.856
L141.073 162.22
L145.542 157.751
L147.178 151.647
L145.542 145.542
L141.073 141.073
z
" style="fill:#af0a0a;stroke:#000000;stroke-width:0.25;"/>
   </g>
   <g id="patch_149">
    <path clip-path="url(#p09214e8173)" d="
M141.073 162.22
L134.968 163.856
L130.499 168.325
L128.863 174.43
L130.499 180.534
L134.968 185.003
L141.073 186.639
L147.178 185.003
L151.647 180.534
L153.282 174.43
L151.647 168.325
L147.178 163.856
z
" style="fill:#af0a0a;stroke:#000000;stroke-width:0.25;"/>
   </g>
   <g id="patch_150">
    <path clip-path="url(#p09214e8173)" d="
M134.968 185.003
L128.863 186.639
L124.395 191.108
L122.759 197.213
L124.395 203.317
L128.863 207.786
L134.968 209.422
L141.073 207.786
L145.542 203.317
L147.178 197.213
L145.542 191.108
L141.073 186.639
z
" style="fill:#af0a0a;stroke:#000000;stroke-width:0.25;"/>
   </g>
   <g id="patch_151">
    <path clip-path="url(#p09214e8173)" d="
M118.29 201.682
L112.185 203.317
L107.716 207.786
L106.08 213.891
L107.716 219.996
L112.185 224.465
L118.29 226.1
L124.395 224.465
L128.863 219.996
L130.499 213.891
L128.863 207.786
L124.395 203.317
z
" style="fill:#af0a0a;stroke:#000000;stroke-width:0.25;"/>
   </g>
   <g id="patch_152">
    <path clip-path="url(#p09214e8173)" d="
M95.5068 207.786
L89.4021 209.422
L84.9332 213.891
L83.2974 219.996
L84.9332 226.1
L89.4021 230.569
L95.5068 232.205
L101.612 230.569
L106.08 226.1
L107.716 219.996
L106.08 213.891
L101.612 209.422
z
" style="fill:#af0a0a;stroke:#000000;stroke-width:0.25;"/>
   </g>
   <g id="patch_153">
    <path clip-path="url(#p09214e8173)" d="
M72.7238 201.682
L66.6191 203.317
L62.1502 207.786
L60.5144 213.891
L62.1502 219.996
L66.6191 224.465
L72.7238 226.1
L78.8285 224.465
L83.2974 219.996
L84.9332 213.891
L83.2974 207.786
L78.8285 203.317
z
" style="fill:#af0a0a;stroke:#000000;stroke-width:0.25;"/>
   </g>
   <g id="patch_154">
    <path clip-path="url(#p09214e8173)" d="
M56.0455 185.003
L49.9408 186.639
L45.4718 191.108
L43.8361 197.213
L45.4718 203.317
L49.9408 207.786
L56.0455 209.422
L62.1502 207.786
L66.6191 203.317
L68.2549 197.213
L66.6191 191.108
L62.1502 186.639
z
" style="fill:#af0a0a;stroke:#000000;stroke-width:0.25;"/>
   </g>
   <g id="patch_155">
    <path clip-path="url(#p09214e8173)" d="
M49.9408 162.22
L43.8361 163.856
L39.3671 168.325
L37.7314 174.43
L39.3671 180.534
L43.8361 185.003
L49.9408 186.639
L56.0455 185.003
L60.5144 180.534
L62.1502 174.43
L60.5144 168.325
L56.0455 163.856
z
" style="fill:#af0a0a;stroke:#000000;stroke-width:0.25;"/>
   </g>
   <g id="patch_156">
    <path clip-path="url(#p09214e8173)" d="
M56.0455 139.437
L49.9408 141.073
L45.4718 145.542
L43.8361 151.647
L45.4718 157.751
L49.9408 162.22
L56.0455 163.856
L62.1502 162.22
L66.6191 157.751
L68.2549 151.647
L66.6191 145.542
L62.1502 141.073
z
" style="fill:#af0a0a;stroke:#000000;stroke-width:0.25;"/>
   </g>
   <g id="patch_157">
    <path clip-path="url(#p09214e8173)" d="
M72.7238 122.759
L66.6191 124.395
L62.1502 128.863
L60.5144 134.968
L62.1502 141.073
L66.6191 145.542
L72.7238 147.178
L78.8285 145.542
L83.2974 141.073
L84.9332 134.968
L83.2974 128.863
L78.8285 124.395
z
" style="fill:#af0a0a;stroke:#000000;stroke-width:0.25;"/>
   </g>
   <g id="patch_158">
    <path clip-path="url(#p09214e8173)" d="
M95.5068 207.786
L112.185 203.317
L124.395 191.108
L128.863 174.43
L124.395 157.751
L112.185 145.542
L95.5068 141.073
L78.8285 145.542
L66.6191 157.751
L62.1502 174.43
L66.6191 191.108
L78.8285 203.317
z
" style="fill:#af0a0a;stroke:#000000;stroke-width:0.25;"/>
   </g>
   <g id="patch_159">
    <path clip-path="url(#p09214e8173)" d="
M174.43 37.7314
L168.325 39.3671
L163.856 43.8361
L162.22 49.9408
L163.856 56.0455
L168.325 60.5144
L174.43 62.1502
L180.534 60.5144
L185.003 56.0455
L186.639 49.9408
L185.003 43.8361
L180.534 39.3671
z
" style="fill:#af0a0a;stroke:#000000;stroke-width:0.25;"/>
   </g>
   <g id="patch_160">
    <path clip-path="url(#p09214e8173)" d="
M197.213 43.8361
L191.108 45.4718
L186.639 49.9408
L185.003 56.0455
L186.639 62.1502
L191.108 66.6191
L197.213 68.2549
L203.317 66.6191
L207.786 62.1502
L209.422 56.0455
L207.786 49.9408
L203.317 45.4718
z
" style="fill:#af0a0a;stroke:#000000;stroke-width:0.25;"/>
   </g>
   <g id="patch_161">
    <path clip-path="url(#p09214e8173)" d="
M213.891 60.5144
L207.786 62.1502
L203.317 66.6191
L201.682 72.7238
L203.317 78.8285
L207.786 83.2974
L213.891 84.9332
L219.996 83.2974
L224.465 78.8285
L226.1 72.7238
L224.465 66.6191
L219.996 62.1502
z
" style="fill:#af0a0a;stroke:#000000;stroke-width:0.25;"/>
   </g>
   <g id="patch_162">
    <path clip-path="url(#p09214e8173)" d="
M219.996 83.2974
L213.891 84.9332
L209.422 89.4021
L207.786 95.5068
L209.422 101.612
L213.891 106.08
L219.996 107.716
L226.1 106.08
L230.569 101.612
L232.205 95.5068
L230.569 89.4021
L226.1 84.9332
z
" style="fill:#af0a0a;stroke:#000000;stroke-width:0.25;"/>
   </g>
   <g id="patch_163">
    <path clip-path="url(#p09214e8173)" d="
M213.891 106.08
L207.786 107.716
L203.317 112.185
L201.682 118.29
L203.317 124.395
L207.786 128.863
L213.891 130.499
L219.996 128.863
L224.465 124.395
L226.1 118.29
L224.465 112.185
L219.996 107.716
z
" style="fill:#af0a0a;stroke:#000000;stroke-width:0.25;"/>
   </g>
   <g id="patch_164">
    <path clip-path="url(#p09214e8173)" d="
M197.213 122.759
L191.108 124.395
L186.639 128.863
L185.003 134.968
L186.639 141.073
L191.108 145.542
L197.213 147.178
L203.317 145.542
L207.786 141.073
L209.422 134.968
L207.786 128.863
L203.317 124.395
z
" style="fill:#af0a0a;stroke:#000000;stroke-width:0.25;"/>
   </g>
   <g id="patch_165">
    <path clip-path="url(#p09214e8173)" d="
M174.43 128.863
L168.325 130.499
L163.856 134.968
L162.22 141.073
L163.856 147.178
L168.325 151.647
L174.43 153.282
L180.534 151.647
L185.003 147.178
L186.639 141.073
L185.003 134.968
L180.534 130.499
z
" style="fill:#af0a0a;stroke:#000000;stroke-width:0.25;"/>
   </g>
   <g id="patch_166">
    <path clip-path="url(#p09214e8173)" d="
M151.647 122.759
L145.542 124.395
L141.073 128.863
L139.437 134.968
L141.073 141.073
L145.542 145.542
L151.647 147.178
L157.751 145.542
L162.22 141.073
L163.856 134.968
L162.22 128.863
L157.751 124.395
z
" style="fill:#af0a0a;stroke:#000000;stroke-width:0.25;"/>
   </g>
   <g id="patch_167">
    <path clip-path="url(#p09214e8173)" d="
M134.968 106.08
L128.863 107.716
L124.395 112.185
L122.759 118.29
L124.395 124.395
L128.863 128.863
L134.968 130.499
L141.073 128.863
L145.542 124.395
L147.178 118.29
L145.542 112.185
L141.073 107.716
z
" style="fill:#af0a0a;stroke:#000000;stroke-width:0.25;"/>
   </g>
   <g id="patch_168">
    <path clip-path="url(#p09214e8173)" d="
M128.863 83.2974
L122.759 84.9332
L118.29 89.4021
L116.654 95.5068
L118.29 101.612
L122.759 106.08
L128.863 107.716
L134.968 106.08
L139.437 101.612
L141.073 95.5068
L139.437 89.4021
L134.968 84.9332
z
" style="fill:#af0a0a;stroke:#000000;stroke-width:0.25;"/>
   </g>
   <g id="patch_169">
    <path clip-path="url(#p09214e8173)" d="
M134.968 60.5144
L128.863 62.1502
L124.395 66.6191
L122.759 72.7238
L124.395 78.8285
L128.863 83.2974
L134.968 84.9332
L141.073 83.2974
L145.542 78.8285
L147.178 72.7238
L145.542 66.6191
L141.073 62.1502
z
" style="fill:#af0a0a;stroke:#000000;stroke-width:0.25;"/>
   </g>
   <g id="patch_170">
    <path clip-path="url(#p09214e8173)" d="
M151.647 43.8361
L145.542 45.4718
L141.073 49.9408
L139.437 56.0455
L141.073 62.1502
L145.542 66.6191
L151.647 68.2549
L157.751 66.6191
L162.22 62.1502
L163.856 56.0455
L162.22 49.9408
L157.751 45.4718
z
" style="fill:#af0a0a;stroke:#000000;stroke-width:0.25;"/>
   </g>
   <g id="patch_171">
    <path clip-path="url(#p09214e8173)" d="
M174.43 128.863
L191.108 124.395
L203.317 112.185
L207.786 95.5068
L203.317 78.8285
L191.108 66.6191
L174.43 62.1502
L157.751 66.6191
L145.542 78.8285
L141.073 95.5068
L145.542 112.185
L157.751 124.395
z
" style="fill:#af0a0a;stroke:#000000;stroke-width:0.25;"/>
   </g>
   <g id="patch_172">
    <path clip-path="url(#p09214e8173)" d="
M282.24 440.085
L298.918 435.617
L311.128 423.407
L315.597 406.729
L311.128 390.05
L298.918 377.841
L282.24 373.372
L265.562 377.841
L253.352 390.05
L248.883 406.729
L253.352 423.407
L265.562 435.617
z
" style="fill:#af0a0a;stroke:#000000;stroke-width:0.25;"/>
   </g>
   <g id="patch_173">
    <path clip-path="url(#p09214e8173)" d="
M219.996 423.407
L236.674 418.938
L248.883 406.729
L253.352 390.05
L248.883 373.372
L236.674 361.163
L219.996 356.694
L203.317 361.163
L191.108 373.372
L186.639 390.05
L191.108 406.729
L203.317 418.938
z
" style="fill:#af0a0a;stroke:#000000;stroke-width:0.25;"/>
   </g>
   <g id="patch_174">
    <path clip-path="url(#p09214e8173)" d="
M174.43 377.841
L191.108 373.372
L203.317 361.163
L207.786 344.484
L203.317 327.806
L191.108 315.597
L174.43 311.128
L157.751 315.597
L145.542 327.806
L141.073 344.484
L145.542 361.163
L157.751 373.372
z
" style="fill:#af0a0a;stroke:#000000;stroke-width:0.25;"/>
   </g>
   <g id="patch_175">
    <path clip-path="url(#p09214e8173)" d="
M157.751 315.597
L174.43 311.128
L186.639 298.918
L191.108 282.24
L186.639 265.562
L174.43 253.352
L157.751 248.883
L141.073 253.352
L128.863 265.562
L124.395 282.24
L128.863 298.918
L141.073 311.128
z
" style="fill:#af0a0a;stroke:#000000;stroke-width:0.25;"/>
   </g>
   <g id="patch_176">
    <path clip-path="url(#p09214e8173)" d="
M174.43 253.352
L191.108 248.883
L203.317 236.674
L207.786 219.996
L203.317 203.317
L191.108 191.108
L174.43 186.639
L157.751 191.108
L145.542 203.317
L141.073 219.996
L145.542 236.674
L157.751 248.883
z
" style="fill:#af0a0a;stroke:#000000;stroke-width:0.25;"/>
   </g>
   <g id="patch_177">
    <path clip-path="url(#p09214e8173)" d="
M219.996 207.786
L236.674 203.317
L248.883 191.108
L253.352 174.43
L248.883 157.751
L236.674 145.542
L219.996 141.073
L203.317 145.542
L191.108 157.751
L186.639 174.43
L191.108 191.108
L203.317 203.317
z
" style="fill:#af0a0a;stroke:#000000;stroke-width:0.25;"/>
   </g>
   <g id="patch_178">
    <path clip-path="url(#p09214e8173)" d="
M282.24 191.108
L298.918 186.639
L311.128 174.43
L315.597 157.751
L311.128 141.073
L298.918 128.863
L282.24 124.395
L265.562 128.863
L253.352 141.073
L248.883 157.751
L253.352 174.43
L265.562 186.639
z
" style="fill:#af0a0a;stroke:#000000;stroke-width:0.25;"/>
   </g>
   <g id="patch_179">
    <path clip-path="url(#p09214e8173)" d="
M344.484 207.786
L361.163 203.317
L373.372 191.108
L377.841 174.43
L373.372 157.751
L361.163 145.542
L344.484 141.073
L327.806 145.542
L315.597 157.751
L311.128 174.43
L315.597 191.108
L327.806 203.317
z
" style="fill:#af0a0a;stroke:#000000;stroke-width:0.25;"/>
   </g>
   <g id="patch_180">
    <path clip-path="url(#p09214e8173)" d="
M390.05 253.352
L406.729 248.883
L418.938 236.674
L423.407 219.996
L418.938 203.317
L406.729 191.108
L390.05 186.639
L373.372 191.108
L361.163 203.317
L356.694 219.996
L361.163 236.674
L373.372 248.883
z
" style="fill:#af0a0a;stroke:#000000;stroke-width:0.25;"/>
   </g>
   <g id="patch_181">
    <path clip-path="url(#p09214e8173)" d="
M406.729 315.597
L423.407 311.128
L435.617 298.918
L440.085 282.24
L435.617 265.562
L423.407 253.352
L406.729 248.883
L390.05 253.352
L377.841 265.562
L373.372 282.24
L377.841 298.918
L390.05 311.128
z
" style="fill:#af0a0a;stroke:#000000;stroke-width:0.25;"/>
   </g>
   <g id="patch_182">
    <path clip-path="url(#p09214e8173)" d="
M390.05 377.841
L406.729 373.372
L418.938 361.163
L423.407 344.484
L418.938 327.806
L406.729 315.597
L390.05 311.128
L373.372 315.597
L361.163 327.806
L356.694 344.484
L361.163 361.163
L373.372 373.372
z
" style="fill:#af0a0a;stroke:#000000;stroke-width:0.25;"/>
   </g>
   <g id="patch_183">
    <path clip-path="url(#p09214e8173)" d="
M344.484 423.407
L361.163 418.938
L373.372 406.729
L377.841 390.05
L373.372 373.372
L361.163 361.163
L344.484 356.694
L327.806 361.163
L315.597 373.372
L311.128 390.05
L315.597 406.729
L327.806 418.938
z
" style="fill:#af0a0a;stroke:#000000;stroke-width:0.25;"/>
   </g>
   <g id="patch_184">
    <path clip-path="url(#p09214e8173)" d="
M282.24 191.108
L236.674 203.317
L203.317 236.674
L191.108 282.24
L203.317 327.806
L236.674 361.163
L282.24 373.372
L327.806 361.163
L361.163 327.806
L373.372 282.24
L361.163 236.674
L327.806 203.317
z
" style="fill:#af0a0a;stroke:#000000;stroke-width:0.25;"/>
   </g>
   <g id="matplotlib.axis_1"/>
   <g id="matplotlib.axis_2"/>
  </g>
 </g>
 <defs>
  <clipPath id="p09214e8173">
   <rect height="550.08" width="550.08" x="7.2" y="7.2"/>
  </clipPath>
 </defs>
</svg>
