<?xml version="1.0" encoding="utf-8" standalone="no"?>
<!DOCTYPE svg PUBLIC "-//W3C//DTD SVG 1.1//EN"
  "http://www.w3.org/Graphics/SVG/1.1/DTD/svg11.dtd">
<!-- Created with matplotlib (http://matplotlib.org/) -->
<svg height="564pt" version="1.1" viewBox="0 0 490 564" width="490pt" xmlns="http://www.w3.org/2000/svg" xmlns:xlink="http://www.w3.org/1999/xlink">
 <defs>
  <style type="text/css">
*{stroke-linecap:butt;stroke-linejoin:round;}
  </style>
 </defs>
 <g id="figure_1">
  <g id="patch_1">
   <path d="
M0 564.48
L490.783 564.48
L490.783 0
L0 0
z
" style="fill:none;"/>
  </g>
  <g id="axes_1">
   <g id="patch_2">
    <path clip-path="url(#pa57258f03e)" d="
M245.392 8.84366
L8.62345 145.542
L8.62345 418.938
L245.392 555.636
L482.16 418.938
L482.16 145.542
z
" style="fill:#bcd4e6;stroke:#000000;stroke-width:0.25;"/>
   </g>
   <g id="patch_3">
    <path clip-path="url(#pa57258f03e)" d="
M245.392 8.84366
L166.469 54.4097
L166.469 145.542
L245.392 191.108
L324.314 145.542
L324.314 54.4097
z
" style="fill:#eae2ac;stroke:#000000;stroke-width:0.25;"/>
   </g>
   <g id="patch_4">
    <path clip-path="url(#pa57258f03e)" d="
M403.237 99.9758
L324.314 145.542
L324.314 236.674
L403.237 282.24
L482.16 236.674
L482.16 145.542
z
" style="fill:#eae2ac;stroke:#000000;stroke-width:0.25;"/>
   </g>
   <g id="patch_5">
    <path clip-path="url(#pa57258f03e)" d="
M403.237 282.24
L324.314 327.806
L324.314 418.938
L403.237 464.504
L482.16 418.938
L482.16 327.806
z
" style="fill:#eae2ac;stroke:#000000;stroke-width:0.25;"/>
   </g>
   <g id="patch_6">
    <path clip-path="url(#pa57258f03e)" d="
M245.392 373.372
L166.469 418.938
L166.469 510.07
L245.392 555.636
L324.314 510.07
L324.314 418.938
z
" style="fill:#eae2ac;stroke:#000000;stroke-width:0.25;"/>
   </g>
   <g id="patch_7">
    <path clip-path="url(#pa57258f03e)" d="
M87.5462 282.24
L8.62345 327.806
L8.62345 418.938
L87.5462 464.504
L166.469 418.938
L166.469 327.806
z
" style="fill:#eae2ac;stroke:#000000;stroke-width:0.25;"/>
   </g>
   <g id="patch_8">
    <path clip-path="url(#pa57258f03e)" d="
M87.5462 99.9758
L8.62345 145.542
L8.62345 236.674
L87.5462 282.24
L166.469 236.674
L166.469 145.542
z
" style="fill:#eae2ac;stroke:#000000;stroke-width:0.25;"/>
   </g>
   <g id="patch_9">
    <path clip-path="url(#pa57258f03e)" d="
M245.392 373.372
L324.314 327.806
L324.314 236.674
L245.392 191.108
L166.469 236.674
L166.469 327.806
z
" style="fill:#eae2ac;stroke:#000000;stroke-width:0.25;"/>
   </g>
   <g id="patch_10">
    <path clip-path="url(#pa57258f03e)" d="
M245.392 8.84366
L219.084 24.0323
L219.084 54.4097
L245.392 69.5984
L271.699 54.4097
L271.699 24.0323
z
" style="fill:#af0a0a;stroke:#000000;stroke-width:0.25;"/>
   </g>
   <g id="patch_11">
    <path clip-path="url(#pa57258f03e)" d="
M298.007 39.221
L271.699 54.4097
L271.699 84.7871
L298.007 99.9758
L324.314 84.7871
L324.314 54.4097
z
" style="fill:#af0a0a;stroke:#000000;stroke-width:0.25;"/>
   </g>
   <g id="patch_12">
    <path clip-path="url(#pa57258f03e)" d="
M298.007 99.9758
L271.699 115.164
L271.699 145.542
L298.007 160.731
L324.314 145.542
L324.314 115.164
z
" style="fill:#af0a0a;stroke:#000000;stroke-width:0.25;"/>
   </g>
   <g id="patch_13">
    <path clip-path="url(#pa57258f03e)" d="
M245.392 130.353
L219.084 145.542
L219.084 175.919
L245.392 191.108
L271.699 175.919
L271.699 145.542
z
" style="fill:#af0a0a;stroke:#000000;stroke-width:0.25;"/>
   </g>
   <g id="patch_14">
    <path clip-path="url(#pa57258f03e)" d="
M192.776 99.9758
L166.469 115.164
L166.469 145.542
L192.776 160.731
L219.084 145.542
L219.084 115.164
z
" style="fill:#af0a0a;stroke:#000000;stroke-width:0.25;"/>
   </g>
   <g id="patch_15">
    <path clip-path="url(#pa57258f03e)" d="
M192.776 39.221
L166.469 54.4097
L166.469 84.7871
L192.776 99.9758
L219.084 84.7871
L219.084 54.4097
z
" style="fill:#af0a0a;stroke:#000000;stroke-width:0.25;"/>
   </g>
   <g id="patch_16">
    <path clip-path="url(#pa57258f03e)" d="
M245.392 130.353
L271.699 115.164
L271.699 84.7871
L245.392 69.5984
L219.084 84.7871
L219.084 115.164
z
" style="fill:#af0a0a;stroke:#000000;stroke-width:0.25;"/>
   </g>
   <g id="patch_17">
    <path clip-path="url(#pa57258f03e)" d="
M403.237 99.9758
L376.93 115.164
L376.93 145.542
L403.237 160.731
L429.545 145.542
L429.545 115.164
z
" style="fill:#af0a0a;stroke:#000000;stroke-width:0.25;"/>
   </g>
   <g id="patch_18">
    <path clip-path="url(#pa57258f03e)" d="
M455.852 130.353
L429.545 145.542
L429.545 175.919
L455.852 191.108
L482.16 175.919
L482.16 145.542
z
" style="fill:#af0a0a;stroke:#000000;stroke-width:0.25;"/>
   </g>
   <g id="patch_19">
    <path clip-path="url(#pa57258f03e)" d="
M455.852 191.108
L429.545 206.297
L429.545 236.674
L455.852 251.863
L482.16 236.674
L482.16 206.297
z
" style="fill:#af0a0a;stroke:#000000;stroke-width:0.25;"/>
   </g>
   <g id="patch_20">
    <path clip-path="url(#pa57258f03e)" d="
M403.237 221.485
L376.93 236.674
L376.93 267.051
L403.237 282.24
L429.545 267.051
L429.545 236.674
z
" style="fill:#af0a0a;stroke:#000000;stroke-width:0.25;"/>
   </g>
   <g id="patch_21">
    <path clip-path="url(#pa57258f03e)" d="
M350.622 191.108
L324.314 206.297
L324.314 236.674
L350.622 251.863
L376.93 236.674
L376.93 206.297
z
" style="fill:#af0a0a;stroke:#000000;stroke-width:0.25;"/>
   </g>
   <g id="patch_22">
    <path clip-path="url(#pa57258f03e)" d="
M350.622 130.353
L324.314 145.542
L324.314 175.919
L350.622 191.108
L376.93 175.919
L376.93 145.542
z
" style="fill:#af0a0a;stroke:#000000;stroke-width:0.25;"/>
   </g>
   <g id="patch_23">
    <path clip-path="url(#pa57258f03e)" d="
M403.237 221.485
L429.545 206.297
L429.545 175.919
L403.237 160.731
L376.93 175.919
L376.93 206.297
z
" style="fill:#af0a0a;stroke:#000000;stroke-width:0.25;"/>
   </g>
   <g id="patch_24">
    <path clip-path="url(#pa57258f03e)" d="
M403.237 282.24
L376.93 297.429
L376.93 327.806
L403.237 342.995
L429.545 327.806
L429.545 297.429
z
" style="fill:#af0a0a;stroke:#000000;stroke-width:0.25;"/>
   </g>
   <g id="patch_25">
    <path clip-path="url(#pa57258f03e)" d="
M455.852 312.617
L429.545 327.806
L429.545 358.183
L455.852 373.372
L482.16 358.183
L482.16 327.806
z
" style="fill:#af0a0a;stroke:#000000;stroke-width:0.25;"/>
   </g>
   <g id="patch_26">
    <path clip-path="url(#pa57258f03e)" d="
M455.852 373.372
L429.545 388.561
L429.545 418.938
L455.852 434.127
L482.16 418.938
L482.16 388.561
z
" style="fill:#af0a0a;stroke:#000000;stroke-width:0.25;"/>
   </g>
   <g id="patch_27">
    <path clip-path="url(#pa57258f03e)" d="
M403.237 403.749
L376.93 418.938
L376.93 449.316
L403.237 464.504
L429.545 449.316
L429.545 418.938
z
" style="fill:#af0a0a;stroke:#000000;stroke-width:0.25;"/>
   </g>
   <g id="patch_28">
    <path clip-path="url(#pa57258f03e)" d="
M350.622 373.372
L324.314 388.561
L324.314 418.938
L350.622 434.127
L376.93 418.938
L376.93 388.561
z
" style="fill:#af0a0a;stroke:#000000;stroke-width:0.25;"/>
   </g>
   <g id="patch_29">
    <path clip-path="url(#pa57258f03e)" d="
M350.622 312.617
L324.314 327.806
L324.314 358.183
L350.622 373.372
L376.93 358.183
L376.93 327.806
z
" style="fill:#af0a0a;stroke:#000000;stroke-width:0.25;"/>
   </g>
   <g id="patch_30">
    <path clip-path="url(#pa57258f03e)" d="
M403.237 403.749
L429.545 388.561
L429.545 358.183
L403.237 342.995
L376.93 358.183
L376.93 388.561
z
" style="fill:#af0a0a;stroke:#000000;stroke-width:0.25;"/>
   </g>
   <g id="patch_31">
    <path clip-path="url(#pa57258f03e)" d="
M245.392 373.372
L219.084 388.561
L219.084 418.938
L245.392 434.127
L271.699 418.938
L271.699 388.561
z
" style="fill:#af0a0a;stroke:#000000;stroke-width:0.25;"/>
   </g>
   <g id="patch_32">
    <path clip-path="url(#pa57258f03e)" d="
M298.007 403.749
L271.699 418.938
L271.699 449.316
L298.007 464.504
L324.314 449.316
L324.314 418.938
z
" style="fill:#af0a0a;stroke:#000000;stroke-width:0.25;"/>
   </g>
   <g id="patch_33">
    <path clip-path="url(#pa57258f03e)" d="
M298.007 464.504
L271.699 479.693
L271.699 510.07
L298.007 525.259
L324.314 510.07
L324.314 479.693
z
" style="fill:#af0a0a;stroke:#000000;stroke-width:0.25;"/>
   </g>
   <g id="patch_34">
    <path clip-path="url(#pa57258f03e)" d="
M245.392 494.882
L219.084 510.07
L219.084 540.448
L245.392 555.636
L271.699 540.448
L271.699 510.07
z
" style="fill:#af0a0a;stroke:#000000;stroke-width:0.25;"/>
   </g>
   <g id="patch_35">
    <path clip-path="url(#pa57258f03e)" d="
M192.776 464.504
L166.469 479.693
L166.469 510.07
L192.776 525.259
L219.084 510.07
L219.084 479.693
z
" style="fill:#af0a0a;stroke:#000000;stroke-width:0.25;"/>
   </g>
   <g id="patch_36">
    <path clip-path="url(#pa57258f03e)" d="
M192.776 403.749
L166.469 418.938
L166.469 449.316
L192.776 464.504
L219.084 449.316
L219.084 418.938
z
" style="fill:#af0a0a;stroke:#000000;stroke-width:0.25;"/>
   </g>
   <g id="patch_37">
    <path clip-path="url(#pa57258f03e)" d="
M245.392 494.882
L271.699 479.693
L271.699 449.316
L245.392 434.127
L219.084 449.316
L219.084 479.693
z
" style="fill:#af0a0a;stroke:#000000;stroke-width:0.25;"/>
   </g>
   <g id="patch_38">
    <path clip-path="url(#pa57258f03e)" d="
M87.5462 282.24
L61.2386 297.429
L61.2386 327.806
L87.5462 342.995
L113.854 327.806
L113.854 297.429
z
" style="fill:#af0a0a;stroke:#000000;stroke-width:0.25;"/>
   </g>
   <g id="patch_39">
    <path clip-path="url(#pa57258f03e)" d="
M140.161 312.617
L113.854 327.806
L113.854 358.183
L140.161 373.372
L166.469 358.183
L166.469 327.806
z
" style="fill:#af0a0a;stroke:#000000;stroke-width:0.25;"/>
   </g>
   <g id="patch_40">
    <path clip-path="url(#pa57258f03e)" d="
M140.161 373.372
L113.854 388.561
L113.854 418.938
L140.161 434.127
L166.469 418.938
L166.469 388.561
z
" style="fill:#af0a0a;stroke:#000000;stroke-width:0.25;"/>
   </g>
   <g id="patch_41">
    <path clip-path="url(#pa57258f03e)" d="
M87.5462 403.749
L61.2386 418.938
L61.2386 449.316
L87.5462 464.504
L113.854 449.316
L113.854 418.938
z
" style="fill:#af0a0a;stroke:#000000;stroke-width:0.25;"/>
   </g>
   <g id="patch_42">
    <path clip-path="url(#pa57258f03e)" d="
M34.931 373.372
L8.62345 388.561
L8.62345 418.938
L34.931 434.127
L61.2386 418.938
L61.2386 388.561
z
" style="fill:#af0a0a;stroke:#000000;stroke-width:0.25;"/>
   </g>
   <g id="patch_43">
    <path clip-path="url(#pa57258f03e)" d="
M34.931 312.617
L8.62345 327.806
L8.62345 358.183
L34.931 373.372
L61.2386 358.183
L61.2386 327.806
z
" style="fill:#af0a0a;stroke:#000000;stroke-width:0.25;"/>
   </g>
   <g id="patch_44">
    <path clip-path="url(#pa57258f03e)" d="
M87.5462 403.749
L113.854 388.561
L113.854 358.183
L87.5462 342.995
L61.2386 358.183
L61.2386 388.561
z
" style="fill:#af0a0a;stroke:#000000;stroke-width:0.25;"/>
   </g>
   <g id="patch_45">
    <path clip-path="url(#pa57258f03e)" d="
M87.5462 99.9758
L61.2386 115.164
L61.2386 145.542
L87.5462 160.731
L113.854 145.542
L113.854 115.164
z
" style="fill:#af0a0a;stroke:#000000;stroke-width:0.25;"/>
   </g>
   <g id="patch_46">
    <path clip-path="url(#pa57258f03e)" d="
M140.161 130.353
L113.854 145.542
L113.854 175.919
L140.161 191.108
L166.469 175.919
L166.469 145.542
z
" style="fill:#af0a0a;stroke:#000000;stroke-width:0.25;"/>
   </g>
   <g id="patch_47">
    <path clip-path="url(#pa57258f03e)" d="
M140.161 191.108
L113.854 206.297
L113.854 236.674
L140.161 251.863
L166.469 236.674
L166.469 206.297
z
" style="fill:#af0a0a;stroke:#000000;stroke-width:0.25;"/>
   </g>
   <g id="patch_48">
    <path clip-path="url(#pa57258f03e)" d="
M87.5462 221.485
L61.2386 236.674
L61.2386 267.051
L87.5462 282.24
L113.854 267.051
L113.854 236.674
z
" style="fill:#af0a0a;stroke:#000000;stroke-width:0.25;"/>
   </g>
   <g id="patch_49">
    <path clip-path="url(#pa57258f03e)" d="
M34.931 191.108
L8.62345 206.297
L8.62345 236.674
L34.931 251.863
L61.2386 236.674
L61.2386 206.297
z
" style="fill:#af0a0a;stroke:#000000;stroke-width:0.25;"/>
   </g>
   <g id="patch_50">
    <path clip-path="url(#pa57258f03e)" d="
M34.931 130.353
L8.62345 145.542
L8.62345 175.919
L34.931 191.108
L61.2386 175.919
L61.2386 145.542
z
" style="fill:#af0a0a;stroke:#000000;stroke-width:0.25;"/>
   </g>
   <g id="patch_51">
    <path clip-path="url(#pa57258f03e)" d="
M87.5462 221.485
L113.854 206.297
L113.854 175.919
L87.5462 160.731
L61.2386 175.919
L61.2386 206.297
z
" style="fill:#af0a0a;stroke:#000000;stroke-width:0.25;"/>
   </g>
   <g id="patch_52">
    <path clip-path="url(#pa57258f03e)" d="
M245.392 373.372
L271.699 358.183
L271.699 327.806
L245.392 312.617
L219.084 327.806
L219.084 358.183
z
" style="fill:#af0a0a;stroke:#000000;stroke-width:0.25;"/>
   </g>
   <g id="patch_53">
    <path clip-path="url(#pa57258f03e)" d="
M192.776 342.995
L219.084 327.806
L219.084 297.429
L192.776 282.24
L166.469 297.429
L166.469 327.806
z
" style="fill:#af0a0a;stroke:#000000;stroke-width:0.25;"/>
   </g>
   <g id="patch_54">
    <path clip-path="url(#pa57258f03e)" d="
M192.776 282.24
L219.084 267.051
L219.084 236.674
L192.776 221.485
L166.469 236.674
L166.469 267.051
z
" style="fill:#af0a0a;stroke:#000000;stroke-width:0.25;"/>
   </g>
   <g id="patch_55">
    <path clip-path="url(#pa57258f03e)" d="
M245.392 251.863
L271.699 236.674
L271.699 206.297
L245.392 191.108
L219.084 206.297
L219.084 236.674
z
" style="fill:#af0a0a;stroke:#000000;stroke-width:0.25;"/>
   </g>
   <g id="patch_56">
    <path clip-path="url(#pa57258f03e)" d="
M298.007 282.24
L324.314 267.051
L324.314 236.674
L298.007 221.485
L271.699 236.674
L271.699 267.051
z
" style="fill:#af0a0a;stroke:#000000;stroke-width:0.25;"/>
   </g>
   <g id="patch_57">
    <path clip-path="url(#pa57258f03e)" d="
M298.007 342.995
L324.314 327.806
L324.314 297.429
L298.007 282.24
L271.699 297.429
L271.699 327.806
z
" style="fill:#af0a0a;stroke:#000000;stroke-width:0.25;"/>
   </g>
   <g id="patch_58">
    <path clip-path="url(#pa57258f03e)" d="
M245.392 251.863
L219.084 267.051
L219.084 297.429
L245.392 312.617
L271.699 297.429
L271.699 267.051
z
" style="fill:#af0a0a;stroke:#000000;stroke-width:0.25;"/>
   </g>
   <g id="matplotlib.axis_1"/>
   <g id="matplotlib.axis_2"/>
  </g>
 </g>
 <defs>
  <clipPath id="pa57258f03e">
   <rect height="550.08" width="476.383254114" x="7.2" y="7.2"/>
  </clipPath>
 </defs>
</svg>
