<?xml version="1.0" encoding="utf-8" standalone="no"?>
<!DOCTYPE svg PUBLIC "-//W3C//DTD SVG 1.1//EN"
  "http://www.w3.org/Graphics/SVG/1.1/DTD/svg11.dtd">
<!-- Created with matplotlib (http://matplotlib.org/) -->
<svg height="564pt" version="1.1" viewBox="0 0 564 564" width="564pt" xmlns="http://www.w3.org/2000/svg" xmlns:xlink="http://www.w3.org/1999/xlink">
 <defs>
  <style type="text/css">
*{stroke-linecap:butt;stroke-linejoin:round;}
  </style>
 </defs>
 <g id="figure_1">
  <g id="patch_1">
   <path d="
M0 564.48
L564.48 564.48
L564.48 0
L0 0
z
" style="fill:none;"/>
  </g>
  <g id="axes_1">
   <g id="patch_2">
    <path clip-path="url(#p09214e8173)" d="
M282.24 8.84366
L88.9196 88.9196
L8.84366 282.24
L88.9196 475.56
L282.24 555.636
L475.56 475.56
L555.636 282.24
L475.56 88.9196
z
" style="fill:#bcd4e6;stroke:#000000;stroke-width:0.25;"/>
   </g>
   <g id="patch_3">
    <path clip-path="url(#p09214e8173)" d="
M282.24 8.84366
L225.618 32.2974
L202.164 88.9196
L225.618 145.542
L282.24 168.996
L338.862 145.542
L362.316 88.9196
L338.862 32.2974
z
" style="fill:#eae2ac;stroke:#000000;stroke-width:0.25;"/>
   </g>
   <g id="patch_4">
    <path clip-path="url(#p09214e8173)" d="
M418.938 65.4659
L362.316 88.9196
L338.862 145.542
L362.316 202.164
L418.938 225.618
L475.56 202.164
L499.014 145.542
L475.56 88.9196
z
" style="fill:#eae2ac;stroke:#000000;stroke-width:0.25;"/>
   </g>
   <g id="patch_5">
    <path clip-path="url(#p09214e8173)" d="
M475.56 202.164
L418.938 225.618
L395.484 282.24
L418.938 338.862
L475.56 362.316
L532.183 338.862
L555.636 282.24
L532.183 225.618
z
" style="fill:#eae2ac;stroke:#000000;stroke-width:0.25;"/>
   </g>
   <g id="patch_6">
    <path clip-path="url(#p09214e8173)" d="
M418.938 338.862
L362.316 362.316
L338.862 418.938
L362.316 475.56
L418.938 499.014
L475.56 475.56
L499.014 418.938
L475.56 362.316
z
" style="fill:#eae2ac;stroke:#000000;stroke-width:0.25;"/>
   </g>
   <g id="patch_7">
    <path clip-path="url(#p09214e8173)" d="
M282.24 395.484
L225.618 418.938
L202.164 475.56
L225.618 532.183
L282.24 555.636
L338.862 532.183
L362.316 475.56
L338.862 418.938
z
" style="fill:#eae2ac;stroke:#000000;stroke-width:0.25;"/>
   </g>
   <g id="patch_8">
    <path clip-path="url(#p09214e8173)" d="
M145.542 338.862
L88.9196 362.316
L65.4659 418.938
L88.9196 475.56
L145.542 499.014
L202.164 475.56
L225.618 418.938
L202.164 362.316
z
" style="fill:#eae2ac;stroke:#000000;stroke-width:0.25;"/>
   </g>
   <g id="patch_9">
    <path clip-path="url(#p09214e8173)" d="
M88.9196 202.164
L32.2974 225.618
L8.84366 282.24
L32.2974 338.862
L88.9196 362.316
L145.542 338.862
L168.996 282.24
L145.542 225.618
z
" style="fill:#eae2ac;stroke:#000000;stroke-width:0.25;"/>
   </g>
   <g id="patch_10">
    <path clip-path="url(#p09214e8173)" d="
M145.542 65.4659
L88.9196 88.9196
L65.4659 145.542
L88.9196 202.164
L145.542 225.618
L202.164 202.164
L225.618 145.542
L202.164 88.9196
z
" style="fill:#eae2ac;stroke:#000000;stroke-width:0.25;"/>
   </g>
   <g id="patch_11">
    <path clip-path="url(#p09214e8173)" d="
M282.24 395.484
L362.316 362.316
L395.484 282.24
L362.316 202.164
L282.24 168.996
L202.164 202.164
L168.996 282.24
L202.164 362.316
z
" style="fill:#eae2ac;stroke:#000000;stroke-width:0.25;"/>
   </g>
   <g id="patch_12">
    <path clip-path="url(#p09214e8173)" d="
M282.24 8.84366
L265.656 15.7131
L258.786 32.2974
L265.656 48.8816
L282.24 55.7511
L298.824 48.8816
L305.694 32.2974
L298.824 15.7131
z
" style="fill:#af0a0a;stroke:#000000;stroke-width:0.25;"/>
   </g>
   <g id="patch_13">
    <path clip-path="url(#p09214e8173)" d="
M322.278 25.4279
L305.694 32.2974
L298.824 48.8816
L305.694 65.4659
L322.278 72.3353
L338.862 65.4659
L345.732 48.8816
L338.862 32.2974
z
" style="fill:#af0a0a;stroke:#000000;stroke-width:0.25;"/>
   </g>
   <g id="patch_14">
    <path clip-path="url(#p09214e8173)" d="
M338.862 65.4659
L322.278 72.3353
L315.409 88.9196
L322.278 105.504
L338.862 112.373
L355.447 105.504
L362.316 88.9196
L355.447 72.3353
z
" style="fill:#af0a0a;stroke:#000000;stroke-width:0.25;"/>
   </g>
   <g id="patch_15">
    <path clip-path="url(#p09214e8173)" d="
M322.278 105.504
L305.694 112.373
L298.824 128.958
L305.694 145.542
L322.278 152.411
L338.862 145.542
L345.732 128.958
L338.862 112.373
z
" style="fill:#af0a0a;stroke:#000000;stroke-width:0.25;"/>
   </g>
   <g id="patch_16">
    <path clip-path="url(#p09214e8173)" d="
M282.24 122.088
L265.656 128.958
L258.786 145.542
L265.656 162.126
L282.24 168.996
L298.824 162.126
L305.694 145.542
L298.824 128.958
z
" style="fill:#af0a0a;stroke:#000000;stroke-width:0.25;"/>
   </g>
   <g id="patch_17">
    <path clip-path="url(#p09214e8173)" d="
M242.202 105.504
L225.618 112.373
L218.748 128.958
L225.618 145.542
L242.202 152.411
L258.786 145.542
L265.656 128.958
L258.786 112.373
z
" style="fill:#af0a0a;stroke:#000000;stroke-width:0.25;"/>
   </g>
   <g id="patch_18">
    <path clip-path="url(#p09214e8173)" d="
M225.618 65.4659
L209.033 72.3353
L202.164 88.9196
L209.033 105.504
L225.618 112.373
L242.202 105.504
L249.071 88.9196
L242.202 72.3353
z
" style="fill:#af0a0a;stroke:#000000;stroke-width:0.25;"/>
   </g>
   <g id="patch_19">
    <path clip-path="url(#p09214e8173)" d="
M242.202 25.4279
L225.618 32.2974
L218.748 48.8816
L225.618 65.4659
L242.202 72.3353
L258.786 65.4659
L265.656 48.8816
L258.786 32.2974
z
" style="fill:#af0a0a;stroke:#000000;stroke-width:0.25;"/>
   </g>
   <g id="patch_20">
    <path clip-path="url(#p09214e8173)" d="
M282.24 122.088
L305.694 112.373
L315.409 88.9196
L305.694 65.4659
L282.24 55.7511
L258.786 65.4659
L249.071 88.9196
L258.786 112.373
z
" style="fill:#af0a0a;stroke:#000000;stroke-width:0.25;"/>
   </g>
   <g id="patch_21">
    <path clip-path="url(#p09214e8173)" d="
M418.938 65.4659
L402.354 72.3353
L395.484 88.9196
L402.354 105.504
L418.938 112.373
L435.522 105.504
L442.392 88.9196
L435.522 72.3353
z
" style="fill:#af0a0a;stroke:#000000;stroke-width:0.25;"/>
   </g>
   <g id="patch_22">
    <path clip-path="url(#p09214e8173)" d="
M458.976 82.0502
L442.392 88.9196
L435.522 105.504
L442.392 122.088
L458.976 128.958
L475.56 122.088
L482.43 105.504
L475.56 88.9196
z
" style="fill:#af0a0a;stroke:#000000;stroke-width:0.25;"/>
   </g>
   <g id="patch_23">
    <path clip-path="url(#p09214e8173)" d="
M475.56 122.088
L458.976 128.958
L452.107 145.542
L458.976 162.126
L475.56 168.996
L492.145 162.126
L499.014 145.542
L492.145 128.958
z
" style="fill:#af0a0a;stroke:#000000;stroke-width:0.25;"/>
   </g>
   <g id="patch_24">
    <path clip-path="url(#p09214e8173)" d="
M458.976 162.126
L442.392 168.996
L435.522 185.58
L442.392 202.164
L458.976 209.033
L475.56 202.164
L482.43 185.58
L475.56 168.996
z
" style="fill:#af0a0a;stroke:#000000;stroke-width:0.25;"/>
   </g>
   <g id="patch_25">
    <path clip-path="url(#p09214e8173)" d="
M418.938 178.71
L402.354 185.58
L395.484 202.164
L402.354 218.748
L418.938 225.618
L435.522 218.748
L442.392 202.164
L435.522 185.58
z
" style="fill:#af0a0a;stroke:#000000;stroke-width:0.25;"/>
   </g>
   <g id="patch_26">
    <path clip-path="url(#p09214e8173)" d="
M378.9 162.126
L362.316 168.996
L355.447 185.58
L362.316 202.164
L378.9 209.033
L395.484 202.164
L402.354 185.58
L395.484 168.996
z
" style="fill:#af0a0a;stroke:#000000;stroke-width:0.25;"/>
   </g>
   <g id="patch_27">
    <path clip-path="url(#p09214e8173)" d="
M362.316 122.088
L345.732 128.958
L338.862 145.542
L345.732 162.126
L362.316 168.996
L378.9 162.126
L385.77 145.542
L378.9 128.958
z
" style="fill:#af0a0a;stroke:#000000;stroke-width:0.25;"/>
   </g>
   <g id="patch_28">
    <path clip-path="url(#p09214e8173)" d="
M378.9 82.0502
L362.316 88.9196
L355.447 105.504
L362.316 122.088
L378.9 128.958
L395.484 122.088
L402.354 105.504
L395.484 88.9196
z
" style="fill:#af0a0a;stroke:#000000;stroke-width:0.25;"/>
   </g>
   <g id="patch_29">
    <path clip-path="url(#p09214e8173)" d="
M418.938 178.71
L442.392 168.996
L452.107 145.542
L442.392 122.088
L418.938 112.373
L395.484 122.088
L385.77 145.542
L395.484 168.996
z
" style="fill:#af0a0a;stroke:#000000;stroke-width:0.25;"/>
   </g>
   <g id="patch_30">
    <path clip-path="url(#p09214e8173)" d="
M475.56 202.164
L458.976 209.033
L452.107 225.618
L458.976 242.202
L475.56 249.071
L492.145 242.202
L499.014 225.618
L492.145 209.033
z
" style="fill:#af0a0a;stroke:#000000;stroke-width:0.25;"/>
   </g>
   <g id="patch_31">
    <path clip-path="url(#p09214e8173)" d="
M515.598 218.748
L499.014 225.618
L492.145 242.202
L499.014 258.786
L515.598 265.656
L532.183 258.786
L539.052 242.202
L532.183 225.618
z
" style="fill:#af0a0a;stroke:#000000;stroke-width:0.25;"/>
   </g>
   <g id="patch_32">
    <path clip-path="url(#p09214e8173)" d="
M532.183 258.786
L515.598 265.656
L508.729 282.24
L515.598 298.824
L532.183 305.694
L548.767 298.824
L555.636 282.24
L548.767 265.656
z
" style="fill:#af0a0a;stroke:#000000;stroke-width:0.25;"/>
   </g>
   <g id="patch_33">
    <path clip-path="url(#p09214e8173)" d="
M515.598 298.824
L499.014 305.694
L492.145 322.278
L499.014 338.862
L515.598 345.732
L532.183 338.862
L539.052 322.278
L532.183 305.694
z
" style="fill:#af0a0a;stroke:#000000;stroke-width:0.25;"/>
   </g>
   <g id="patch_34">
    <path clip-path="url(#p09214e8173)" d="
M475.56 315.409
L458.976 322.278
L452.107 338.862
L458.976 355.447
L475.56 362.316
L492.145 355.447
L499.014 338.862
L492.145 322.278
z
" style="fill:#af0a0a;stroke:#000000;stroke-width:0.25;"/>
   </g>
   <g id="patch_35">
    <path clip-path="url(#p09214e8173)" d="
M435.522 298.824
L418.938 305.694
L412.069 322.278
L418.938 338.862
L435.522 345.732
L452.107 338.862
L458.976 322.278
L452.107 305.694
z
" style="fill:#af0a0a;stroke:#000000;stroke-width:0.25;"/>
   </g>
   <g id="patch_36">
    <path clip-path="url(#p09214e8173)" d="
M418.938 258.786
L402.354 265.656
L395.484 282.24
L402.354 298.824
L418.938 305.694
L435.522 298.824
L442.392 282.24
L435.522 265.656
z
" style="fill:#af0a0a;stroke:#000000;stroke-width:0.25;"/>
   </g>
   <g id="patch_37">
    <path clip-path="url(#p09214e8173)" d="
M435.522 218.748
L418.938 225.618
L412.069 242.202
L418.938 258.786
L435.522 265.656
L452.107 258.786
L458.976 242.202
L452.107 225.618
z
" style="fill:#af0a0a;stroke:#000000;stroke-width:0.25;"/>
   </g>
   <g id="patch_38">
    <path clip-path="url(#p09214e8173)" d="
M475.56 315.409
L499.014 305.694
L508.729 282.24
L499.014 258.786
L475.56 249.071
L452.107 258.786
L442.392 282.24
L452.107 305.694
z
" style="fill:#af0a0a;stroke:#000000;stroke-width:0.25;"/>
   </g>
   <g id="patch_39">
    <path clip-path="url(#p09214e8173)" d="
M418.938 338.862
L402.354 345.732
L395.484 362.316
L402.354 378.9
L418.938 385.77
L435.522 378.9
L442.392 362.316
L435.522 345.732
z
" style="fill:#af0a0a;stroke:#000000;stroke-width:0.25;"/>
   </g>
   <g id="patch_40">
    <path clip-path="url(#p09214e8173)" d="
M458.976 355.447
L442.392 362.316
L435.522 378.9
L442.392 395.484
L458.976 402.354
L475.56 395.484
L482.43 378.9
L475.56 362.316
z
" style="fill:#af0a0a;stroke:#000000;stroke-width:0.25;"/>
   </g>
   <g id="patch_41">
    <path clip-path="url(#p09214e8173)" d="
M475.56 395.484
L458.976 402.354
L452.107 418.938
L458.976 435.522
L475.56 442.392
L492.145 435.522
L499.014 418.938
L492.145 402.354
z
" style="fill:#af0a0a;stroke:#000000;stroke-width:0.25;"/>
   </g>
   <g id="patch_42">
    <path clip-path="url(#p09214e8173)" d="
M458.976 435.522
L442.392 442.392
L435.522 458.976
L442.392 475.56
L458.976 482.43
L475.56 475.56
L482.43 458.976
L475.56 442.392
z
" style="fill:#af0a0a;stroke:#000000;stroke-width:0.25;"/>
   </g>
   <g id="patch_43">
    <path clip-path="url(#p09214e8173)" d="
M418.938 452.107
L402.354 458.976
L395.484 475.56
L402.354 492.145
L418.938 499.014
L435.522 492.145
L442.392 475.56
L435.522 458.976
z
" style="fill:#af0a0a;stroke:#000000;stroke-width:0.25;"/>
   </g>
   <g id="patch_44">
    <path clip-path="url(#p09214e8173)" d="
M378.9 435.522
L362.316 442.392
L355.447 458.976
L362.316 475.56
L378.9 482.43
L395.484 475.56
L402.354 458.976
L395.484 442.392
z
" style="fill:#af0a0a;stroke:#000000;stroke-width:0.25;"/>
   </g>
   <g id="patch_45">
    <path clip-path="url(#p09214e8173)" d="
M362.316 395.484
L345.732 402.354
L338.862 418.938
L345.732 435.522
L362.316 442.392
L378.9 435.522
L385.77 418.938
L378.9 402.354
z
" style="fill:#af0a0a;stroke:#000000;stroke-width:0.25;"/>
   </g>
   <g id="patch_46">
    <path clip-path="url(#p09214e8173)" d="
M378.9 355.447
L362.316 362.316
L355.447 378.9
L362.316 395.484
L378.9 402.354
L395.484 395.484
L402.354 378.9
L395.484 362.316
z
" style="fill:#af0a0a;stroke:#000000;stroke-width:0.25;"/>
   </g>
   <g id="patch_47">
    <path clip-path="url(#p09214e8173)" d="
M418.938 452.107
L442.392 442.392
L452.107 418.938
L442.392 395.484
L418.938 385.77
L395.484 395.484
L385.77 418.938
L395.484 442.392
z
" style="fill:#af0a0a;stroke:#000000;stroke-width:0.25;"/>
   </g>
   <g id="patch_48">
    <path clip-path="url(#p09214e8173)" d="
M282.24 395.484
L265.656 402.354
L258.786 418.938
L265.656 435.522
L282.24 442.392
L298.824 435.522
L305.694 418.938
L298.824 402.354
z
" style="fill:#af0a0a;stroke:#000000;stroke-width:0.25;"/>
   </g>
   <g id="patch_49">
    <path clip-path="url(#p09214e8173)" d="
M322.278 412.069
L305.694 418.938
L298.824 435.522
L305.694 452.107
L322.278 458.976
L338.862 452.107
L345.732 435.522
L338.862 418.938
z
" style="fill:#af0a0a;stroke:#000000;stroke-width:0.25;"/>
   </g>
   <g id="patch_50">
    <path clip-path="url(#p09214e8173)" d="
M338.862 452.107
L322.278 458.976
L315.409 475.56
L322.278 492.145
L338.862 499.014
L355.447 492.145
L362.316 475.56
L355.447 458.976
z
" style="fill:#af0a0a;stroke:#000000;stroke-width:0.25;"/>
   </g>
   <g id="patch_51">
    <path clip-path="url(#p09214e8173)" d="
M322.278 492.145
L305.694 499.014
L298.824 515.598
L305.694 532.183
L322.278 539.052
L338.862 532.183
L345.732 515.598
L338.862 499.014
z
" style="fill:#af0a0a;stroke:#000000;stroke-width:0.25;"/>
   </g>
   <g id="patch_52">
    <path clip-path="url(#p09214e8173)" d="
M282.24 508.729
L265.656 515.598
L258.786 532.183
L265.656 548.767
L282.24 555.636
L298.824 548.767
L305.694 532.183
L298.824 515.598
z
" style="fill:#af0a0a;stroke:#000000;stroke-width:0.25;"/>
   </g>
   <g id="patch_53">
    <path clip-path="url(#p09214e8173)" d="
M242.202 492.145
L225.618 499.014
L218.748 515.598
L225.618 532.183
L242.202 539.052
L258.786 532.183
L265.656 515.598
L258.786 499.014
z
" style="fill:#af0a0a;stroke:#000000;stroke-width:0.25;"/>
   </g>
   <g id="patch_54">
    <path clip-path="url(#p09214e8173)" d="
M225.618 452.107
L209.033 458.976
L202.164 475.56
L209.033 492.145
L225.618 499.014
L242.202 492.145
L249.071 475.56
L242.202 458.976
z
" style="fill:#af0a0a;stroke:#000000;stroke-width:0.25;"/>
   </g>
   <g id="patch_55">
    <path clip-path="url(#p09214e8173)" d="
M242.202 412.069
L225.618 418.938
L218.748 435.522
L225.618 452.107
L242.202 458.976
L258.786 452.107
L265.656 435.522
L258.786 418.938
z
" style="fill:#af0a0a;stroke:#000000;stroke-width:0.25;"/>
   </g>
   <g id="patch_56">
    <path clip-path="url(#p09214e8173)" d="
M282.24 508.729
L305.694 499.014
L315.409 475.56
L305.694 452.107
L282.24 442.392
L258.786 452.107
L249.071 475.56
L258.786 499.014
z
" style="fill:#af0a0a;stroke:#000000;stroke-width:0.25;"/>
   </g>
   <g id="patch_57">
    <path clip-path="url(#p09214e8173)" d="
M145.542 338.862
L128.958 345.732
L122.088 362.316
L128.958 378.9
L145.542 385.77
L162.126 378.9
L168.996 362.316
L162.126 345.732
z
" style="fill:#af0a0a;stroke:#000000;stroke-width:0.25;"/>
   </g>
   <g id="patch_58">
    <path clip-path="url(#p09214e8173)" d="
M185.58 355.447
L168.996 362.316
L162.126 378.9
L168.996 395.484
L185.58 402.354
L202.164 395.484
L209.033 378.9
L202.164 362.316
z
" style="fill:#af0a0a;stroke:#000000;stroke-width:0.25;"/>
   </g>
   <g id="patch_59">
    <path clip-path="url(#p09214e8173)" d="
M202.164 395.484
L185.58 402.354
L178.71 418.938
L185.58 435.522
L202.164 442.392
L218.748 435.522
L225.618 418.938
L218.748 402.354
z
" style="fill:#af0a0a;stroke:#000000;stroke-width:0.25;"/>
   </g>
   <g id="patch_60">
    <path clip-path="url(#p09214e8173)" d="
M185.58 435.522
L168.996 442.392
L162.126 458.976
L168.996 475.56
L185.58 482.43
L202.164 475.56
L209.033 458.976
L202.164 442.392
z
" style="fill:#af0a0a;stroke:#000000;stroke-width:0.25;"/>
   </g>
   <g id="patch_61">
    <path clip-path="url(#p09214e8173)" d="
M145.542 452.107
L128.958 458.976
L122.088 475.56
L128.958 492.145
L145.542 499.014
L162.126 492.145
L168.996 475.56
L162.126 458.976
z
" style="fill:#af0a0a;stroke:#000000;stroke-width:0.25;"/>
   </g>
   <g id="patch_62">
    <path clip-path="url(#p09214e8173)" d="
M105.504 435.522
L88.9196 442.392
L82.0502 458.976
L88.9196 475.56
L105.504 482.43
L122.088 475.56
L128.958 458.976
L122.088 442.392
z
" style="fill:#af0a0a;stroke:#000000;stroke-width:0.25;"/>
   </g>
   <g id="patch_63">
    <path clip-path="url(#p09214e8173)" d="
M88.9196 395.484
L72.3353 402.354
L65.4659 418.938
L72.3353 435.522
L88.9196 442.392
L105.504 435.522
L112.373 418.938
L105.504 402.354
z
" style="fill:#af0a0a;stroke:#000000;stroke-width:0.25;"/>
   </g>
   <g id="patch_64">
    <path clip-path="url(#p09214e8173)" d="
M105.504 355.447
L88.9196 362.316
L82.0502 378.9
L88.9196 395.484
L105.504 402.354
L122.088 395.484
L128.958 378.9
L122.088 362.316
z
" style="fill:#af0a0a;stroke:#000000;stroke-width:0.25;"/>
   </g>
   <g id="patch_65">
    <path clip-path="url(#p09214e8173)" d="
M145.542 452.107
L168.996 442.392
L178.71 418.938
L168.996 395.484
L145.542 385.77
L122.088 395.484
L112.373 418.938
L122.088 442.392
z
" style="fill:#af0a0a;stroke:#000000;stroke-width:0.25;"/>
   </g>
   <g id="patch_66">
    <path clip-path="url(#p09214e8173)" d="
M88.9196 202.164
L72.3353 209.033
L65.4659 225.618
L72.3353 242.202
L88.9196 249.071
L105.504 242.202
L112.373 225.618
L105.504 209.033
z
" style="fill:#af0a0a;stroke:#000000;stroke-width:0.25;"/>
   </g>
   <g id="patch_67">
    <path clip-path="url(#p09214e8173)" d="
M128.958 218.748
L112.373 225.618
L105.504 242.202
L112.373 258.786
L128.958 265.656
L145.542 258.786
L152.411 242.202
L145.542 225.618
z
" style="fill:#af0a0a;stroke:#000000;stroke-width:0.25;"/>
   </g>
   <g id="patch_68">
    <path clip-path="url(#p09214e8173)" d="
M145.542 258.786
L128.958 265.656
L122.088 282.24
L128.958 298.824
L145.542 305.694
L162.126 298.824
L168.996 282.24
L162.126 265.656
z
" style="fill:#af0a0a;stroke:#000000;stroke-width:0.25;"/>
   </g>
   <g id="patch_69">
    <path clip-path="url(#p09214e8173)" d="
M128.958 298.824
L112.373 305.694
L105.504 322.278
L112.373 338.862
L128.958 345.732
L145.542 338.862
L152.411 322.278
L145.542 305.694
z
" style="fill:#af0a0a;stroke:#000000;stroke-width:0.25;"/>
   </g>
   <g id="patch_70">
    <path clip-path="url(#p09214e8173)" d="
M88.9196 315.409
L72.3353 322.278
L65.4659 338.862
L72.3353 355.447
L88.9196 362.316
L105.504 355.447
L112.373 338.862
L105.504 322.278
z
" style="fill:#af0a0a;stroke:#000000;stroke-width:0.25;"/>
   </g>
   <g id="patch_71">
    <path clip-path="url(#p09214e8173)" d="
M48.8816 298.824
L32.2974 305.694
L25.4279 322.278
L32.2974 338.862
L48.8816 345.732
L65.4659 338.862
L72.3353 322.278
L65.4659 305.694
z
" style="fill:#af0a0a;stroke:#000000;stroke-width:0.25;"/>
   </g>
   <g id="patch_72">
    <path clip-path="url(#p09214e8173)" d="
M32.2974 258.786
L15.7131 265.656
L8.84366 282.24
L15.7131 298.824
L32.2974 305.694
L48.8816 298.824
L55.7511 282.24
L48.8816 265.656
z
" style="fill:#af0a0a;stroke:#000000;stroke-width:0.25;"/>
   </g>
   <g id="patch_73">
    <path clip-path="url(#p09214e8173)" d="
M48.8816 218.748
L32.2974 225.618
L25.4279 242.202
L32.2974 258.786
L48.8816 265.656
L65.4659 258.786
L72.3353 242.202
L65.4659 225.618
z
" style="fill:#af0a0a;stroke:#000000;stroke-width:0.25;"/>
   </g>
   <g id="patch_74">
    <path clip-path="url(#p09214e8173)" d="
M88.9196 315.409
L112.373 305.694
L122.088 282.24
L112.373 258.786
L88.9196 249.071
L65.4659 258.786
L55.7511 282.24
L65.4659 305.694
z
" style="fill:#af0a0a;stroke:#000000;stroke-width:0.25;"/>
   </g>
   <g id="patch_75">
    <path clip-path="url(#p09214e8173)" d="
M145.542 65.4659
L128.958 72.3353
L122.088 88.9196
L128.958 105.504
L145.542 112.373
L162.126 105.504
L168.996 88.9196
L162.126 72.3353
z
" style="fill:#af0a0a;stroke:#000000;stroke-width:0.25;"/>
   </g>
   <g id="patch_76">
    <path clip-path="url(#p09214e8173)" d="
M185.58 82.0502
L168.996 88.9196
L162.126 105.504
L168.996 122.088
L185.58 128.958
L202.164 122.088
L209.033 105.504
L202.164 88.9196
z
" style="fill:#af0a0a;stroke:#000000;stroke-width:0.25;"/>
   </g>
   <g id="patch_77">
    <path clip-path="url(#p09214e8173)" d="
M202.164 122.088
L185.58 128.958
L178.71 145.542
L185.58 162.126
L202.164 168.996
L218.748 162.126
L225.618 145.542
L218.748 128.958
z
" style="fill:#af0a0a;stroke:#000000;stroke-width:0.25;"/>
   </g>
   <g id="patch_78">
    <path clip-path="url(#p09214e8173)" d="
M185.58 162.126
L168.996 168.996
L162.126 185.58
L168.996 202.164
L185.58 209.033
L202.164 202.164
L209.033 185.58
L202.164 168.996
z
" style="fill:#af0a0a;stroke:#000000;stroke-width:0.25;"/>
   </g>
   <g id="patch_79">
    <path clip-path="url(#p09214e8173)" d="
M145.542 178.71
L128.958 185.58
L122.088 202.164
L128.958 218.748
L145.542 225.618
L162.126 218.748
L168.996 202.164
L162.126 185.58
z
" style="fill:#af0a0a;stroke:#000000;stroke-width:0.25;"/>
   </g>
   <g id="patch_80">
    <path clip-path="url(#p09214e8173)" d="
M105.504 162.126
L88.9196 168.996
L82.0502 185.58
L88.9196 202.164
L105.504 209.033
L122.088 202.164
L128.958 185.58
L122.088 168.996
z
" style="fill:#af0a0a;stroke:#000000;stroke-width:0.25;"/>
   </g>
   <g id="patch_81">
    <path clip-path="url(#p09214e8173)" d="
M88.9196 122.088
L72.3353 128.958
L65.4659 145.542
L72.3353 162.126
L88.9196 168.996
L105.504 162.126
L112.373 145.542
L105.504 128.958
z
" style="fill:#af0a0a;stroke:#000000;stroke-width:0.25;"/>
   </g>
   <g id="patch_82">
    <path clip-path="url(#p09214e8173)" d="
M105.504 82.0502
L88.9196 88.9196
L82.0502 105.504
L88.9196 122.088
L105.504 128.958
L122.088 122.088
L128.958 105.504
L122.088 88.9196
z
" style="fill:#af0a0a;stroke:#000000;stroke-width:0.25;"/>
   </g>
   <g id="patch_83">
    <path clip-path="url(#p09214e8173)" d="
M145.542 178.71
L168.996 168.996
L178.71 145.542
L168.996 122.088
L145.542 112.373
L122.088 122.088
L112.373 145.542
L122.088 168.996
z
" style="fill:#af0a0a;stroke:#000000;stroke-width:0.25;"/>
   </g>
   <g id="patch_84">
    <path clip-path="url(#p09214e8173)" d="
M282.24 395.484
L305.694 385.77
L315.409 362.316
L305.694 338.862
L282.24 329.147
L258.786 338.862
L249.071 362.316
L258.786 385.77
z
" style="fill:#af0a0a;stroke:#000000;stroke-width:0.25;"/>
   </g>
   <g id="patch_85">
    <path clip-path="url(#p09214e8173)" d="
M225.618 372.031
L249.071 362.316
L258.786 338.862
L249.071 315.409
L225.618 305.694
L202.164 315.409
L192.449 338.862
L202.164 362.316
z
" style="fill:#af0a0a;stroke:#000000;stroke-width:0.25;"/>
   </g>
   <g id="patch_86">
    <path clip-path="url(#p09214e8173)" d="
M202.164 315.409
L225.618 305.694
L235.333 282.24
L225.618 258.786
L202.164 249.071
L178.71 258.786
L168.996 282.24
L178.71 305.694
z
" style="fill:#af0a0a;stroke:#000000;stroke-width:0.25;"/>
   </g>
   <g id="patch_87">
    <path clip-path="url(#p09214e8173)" d="
M225.618 258.786
L249.071 249.071
L258.786 225.618
L249.071 202.164
L225.618 192.449
L202.164 202.164
L192.449 225.618
L202.164 249.071
z
" style="fill:#af0a0a;stroke:#000000;stroke-width:0.25;"/>
   </g>
   <g id="patch_88">
    <path clip-path="url(#p09214e8173)" d="
M282.24 235.333
L305.694 225.618
L315.409 202.164
L305.694 178.71
L282.24 168.996
L258.786 178.71
L249.071 202.164
L258.786 225.618
z
" style="fill:#af0a0a;stroke:#000000;stroke-width:0.25;"/>
   </g>
   <g id="patch_89">
    <path clip-path="url(#p09214e8173)" d="
M338.862 258.786
L362.316 249.071
L372.031 225.618
L362.316 202.164
L338.862 192.449
L315.409 202.164
L305.694 225.618
L315.409 249.071
z
" style="fill:#af0a0a;stroke:#000000;stroke-width:0.25;"/>
   </g>
   <g id="patch_90">
    <path clip-path="url(#p09214e8173)" d="
M362.316 315.409
L385.77 305.694
L395.484 282.24
L385.77 258.786
L362.316 249.071
L338.862 258.786
L329.147 282.24
L338.862 305.694
z
" style="fill:#af0a0a;stroke:#000000;stroke-width:0.25;"/>
   </g>
   <g id="patch_91">
    <path clip-path="url(#p09214e8173)" d="
M338.862 372.031
L362.316 362.316
L372.031 338.862
L362.316 315.409
L338.862 305.694
L315.409 315.409
L305.694 338.862
L315.409 362.316
z
" style="fill:#af0a0a;stroke:#000000;stroke-width:0.25;"/>
   </g>
   <g id="patch_92">
    <path clip-path="url(#p09214e8173)" d="
M282.24 235.333
L249.071 249.071
L235.333 282.24
L249.071 315.409
L282.24 329.147
L315.409 315.409
L329.147 282.24
L315.409 249.071
z
" style="fill:#af0a0a;stroke:#000000;stroke-width:0.25;"/>
   </g>
   <g id="matplotlib.axis_1"/>
   <g id="matplotlib.axis_2"/>
  </g>
 </g>
 <defs>
  <clipPath id="p09214e8173">
   <rect height="550.08" width="550.08" x="7.2" y="7.2"/>
  </clipPath>
 </defs>
</svg>
