<?xml version="1.0" encoding="utf-8" standalone="no"?>
<!DOCTYPE svg PUBLIC "-//W3C//DTD SVG 1.1//EN"
  "http://www.w3.org/Graphics/SVG/1.1/DTD/svg11.dtd">
<!-- Created with matplotlib (http://matplotlib.org/) -->
<svg height="564pt" version="1.1" viewBox="0 0 490 564" width="490pt" xmlns="http://www.w3.org/2000/svg" xmlns:xlink="http://www.w3.org/1999/xlink">
 <defs>
  <style type="text/css">
*{stroke-linecap:butt;stroke-linejoin:round;}
  </style>
 </defs>
 <g id="figure_1">
  <g id="patch_1">
   <path d="
M0 564.48
L490.783 564.48
L490.783 0
L0 0
z
" style="fill:none;"/>
  </g>
  <g id="axes_1">
   <g id="patch_2">
    <path clip-path="url(#pb019acfbea)" d="
M245.392 8.29687
L8.14992 145.268
L8.14992 419.212
L245.392 556.183
L482.633 419.212
L482.633 145.268
z
" style="fill:#bcd4e6;stroke:#000000;stroke-width:0.25;"/>
   </g>
   <g id="patch_3">
    <path clip-path="url(#pb019acfbea)" d="
M245.392 8.29687
L166.311 53.9541
L166.311 145.268
L245.392 190.926
L324.472 145.268
L324.472 53.9541
z
" style="fill:#eae2ac;stroke:#000000;stroke-width:0.25;"/>
   </g>
   <g id="patch_4">
    <path clip-path="url(#pb019acfbea)" d="
M403.553 99.6112
L324.472 145.268
L324.472 236.583
L403.553 282.24
L482.633 236.583
L482.633 145.268
z
" style="fill:#eae2ac;stroke:#000000;stroke-width:0.25;"/>
   </g>
   <g id="patch_5">
    <path clip-path="url(#pb019acfbea)" d="
M403.553 282.24
L324.472 327.897
L324.472 419.212
L403.553 464.869
L482.633 419.212
L482.633 327.897
z
" style="fill:#eae2ac;stroke:#000000;stroke-width:0.25;"/>
   </g>
   <g id="patch_6">
    <path clip-path="url(#pb019acfbea)" d="
M245.392 373.554
L166.311 419.212
L166.311 510.526
L245.392 556.183
L324.472 510.526
L324.472 419.212
z
" style="fill:#eae2ac;stroke:#000000;stroke-width:0.25;"/>
   </g>
   <g id="patch_7">
    <path clip-path="url(#pb019acfbea)" d="
M87.2305 282.24
L8.14992 327.897
L8.14992 419.212
L87.2305 464.869
L166.311 419.212
L166.311 327.897
z
" style="fill:#eae2ac;stroke:#000000;stroke-width:0.25;"/>
   </g>
   <g id="patch_8">
    <path clip-path="url(#pb019acfbea)" d="
M87.2305 99.6112
L8.14992 145.268
L8.14992 236.583
L87.2305 282.24
L166.311 236.583
L166.311 145.268
z
" style="fill:#eae2ac;stroke:#000000;stroke-width:0.25;"/>
   </g>
   <g id="patch_9">
    <path clip-path="url(#pb019acfbea)" d="
M245.392 373.554
L324.472 327.897
L324.472 236.583
L245.392 190.926
L166.311 236.583
L166.311 327.897
z
" style="fill:#eae2ac;stroke:#000000;stroke-width:0.25;"/>
   </g>
   <g id="matplotlib.axis_1"/>
   <g id="matplotlib.axis_2"/>
  </g>
 </g>
 <defs>
  <clipPath id="pb019acfbea">
   <rect height="550.08" width="476.383254114" x="7.2" y="7.2"/>
  </clipPath>
 </defs>
</svg>
