<?xml version="1.0" encoding="utf-8" standalone="no"?>
<!DOCTYPE svg PUBLIC "-//W3C//DTD SVG 1.1//EN"
  "http://www.w3.org/Graphics/SVG/1.1/DTD/svg11.dtd">
<!-- Created with matplotlib (http://matplotlib.org/) -->
<svg height="558pt" version="1.1" viewBox="0 0 564 558" width="564pt" xmlns="http://www.w3.org/2000/svg" xmlns:xlink="http://www.w3.org/1999/xlink">
 <defs>
  <style type="text/css">
*{stroke-linecap:butt;stroke-linejoin:round;}
  </style>
 </defs>
 <g id="figure_1">
  <g id="patch_1">
   <path d="
M0 558.881
L564.48 558.881
L564.48 0
L0 0
z
" style="fill:none;"/>
  </g>
  <g id="axes_1">
   <g id="patch_2">
    <path clip-path="url(#pcfd58d5018)" d="
M282.24 8.82693
L132.911 52.6739
L30.9926 170.294
L8.84366 324.343
L73.4961 465.912
L204.423 550.054
L360.057 550.054
L490.984 465.912
L555.636 324.343
L533.487 170.294
L431.569 52.6739
z
" style="fill:#bcd4e6;stroke:#000000;stroke-width:0.25;"/>
   </g>
   <g id="patch_3">
    <path clip-path="url(#pcfd58d5018)" d="
M282.24 8.82693
L249.154 18.5419
L226.572 44.6024
L221.665 78.7344
L235.99 110.101
L264.998 128.744
L299.482 128.744
L328.49 110.101
L342.815 78.7344
L337.908 44.6024
L315.326 18.5419
z
" style="fill:#eae2ac;stroke:#000000;stroke-width:0.25;"/>
   </g>
   <g id="patch_4">
    <path clip-path="url(#pcfd58d5018)" d="
M398.483 42.9589
L365.397 52.6739
L342.815 78.7344
L337.908 112.866
L352.233 144.233
L381.241 162.876
L415.724 162.876
L444.733 144.233
L459.058 112.866
L454.151 78.7344
L431.569 52.6739
z
" style="fill:#eae2ac;stroke:#000000;stroke-width:0.25;"/>
   </g>
   <g id="patch_5">
    <path clip-path="url(#pcfd58d5018)" d="
M477.82 134.518
L444.733 144.233
L422.152 170.294
L417.244 204.426
L431.569 235.793
L460.578 254.436
L495.061 254.436
L524.07 235.793
L538.395 204.426
L533.487 170.294
L510.906 144.233
z
" style="fill:#eae2ac;stroke:#000000;stroke-width:0.25;"/>
   </g>
   <g id="patch_6">
    <path clip-path="url(#pcfd58d5018)" d="
M495.061 254.436
L461.975 264.151
L439.393 290.211
L434.486 324.343
L448.811 355.71
L477.82 374.353
L512.303 374.353
L541.312 355.71
L555.636 324.343
L550.729 290.211
L528.147 264.151
z
" style="fill:#eae2ac;stroke:#000000;stroke-width:0.25;"/>
   </g>
   <g id="patch_7">
    <path clip-path="url(#pcfd58d5018)" d="
M444.733 364.638
L411.647 374.353
L389.066 400.413
L384.158 434.545
L398.483 465.912
L427.492 484.555
L461.975 484.555
L490.984 465.912
L505.309 434.545
L500.401 400.413
L477.82 374.353
z
" style="fill:#eae2ac;stroke:#000000;stroke-width:0.25;"/>
   </g>
   <g id="patch_8">
    <path clip-path="url(#pcfd58d5018)" d="
M342.815 430.137
L309.729 439.852
L287.147 465.912
L282.24 500.044
L296.565 531.411
L325.574 550.054
L360.057 550.054
L389.066 531.411
L403.39 500.044
L398.483 465.912
L375.901 439.852
z
" style="fill:#eae2ac;stroke:#000000;stroke-width:0.25;"/>
   </g>
   <g id="patch_9">
    <path clip-path="url(#pcfd58d5018)" d="
M221.665 430.137
L188.579 439.852
L165.997 465.912
L161.09 500.044
L175.414 531.411
L204.423 550.054
L238.906 550.054
L267.915 531.411
L282.24 500.044
L277.333 465.912
L254.751 439.852
z
" style="fill:#eae2ac;stroke:#000000;stroke-width:0.25;"/>
   </g>
   <g id="patch_10">
    <path clip-path="url(#pcfd58d5018)" d="
M119.747 364.638
L86.6604 374.353
L64.0788 400.413
L59.1714 434.545
L73.4961 465.912
L102.505 484.555
L136.988 484.555
L165.997 465.912
L180.322 434.545
L175.414 400.413
L152.833 374.353
z
" style="fill:#eae2ac;stroke:#000000;stroke-width:0.25;"/>
   </g>
   <g id="patch_11">
    <path clip-path="url(#pcfd58d5018)" d="
M69.4189 254.436
L36.3327 264.151
L13.7511 290.211
L8.84366 324.343
L23.1684 355.71
L52.1774 374.353
L86.6604 374.353
L115.669 355.71
L129.994 324.343
L125.087 290.211
L102.505 264.151
z
" style="fill:#eae2ac;stroke:#000000;stroke-width:0.25;"/>
   </g>
   <g id="patch_12">
    <path clip-path="url(#pcfd58d5018)" d="
M86.6604 134.518
L53.5742 144.233
L30.9926 170.294
L26.0852 204.426
L40.4099 235.793
L69.4189 254.436
L103.902 254.436
L132.911 235.793
L147.236 204.426
L142.328 170.294
L119.747 144.233
z
" style="fill:#eae2ac;stroke:#000000;stroke-width:0.25;"/>
   </g>
   <g id="patch_13">
    <path clip-path="url(#pcfd58d5018)" d="
M165.997 42.9589
L132.911 52.6739
L110.329 78.7344
L105.422 112.866
L119.747 144.233
L148.756 162.876
L183.239 162.876
L212.247 144.233
L226.572 112.866
L221.665 78.7344
L199.083 52.6739
z
" style="fill:#eae2ac;stroke:#000000;stroke-width:0.25;"/>
   </g>
   <g id="patch_14">
    <path clip-path="url(#pcfd58d5018)" d="
M282.24 447.923
L370.304 422.065
L430.409 352.701
L443.471 261.853
L405.343 178.365
L328.131 128.744
L236.349 128.744
L159.137 178.365
L121.009 261.853
L134.071 352.701
L194.176 422.065
z
" style="fill:#eae2ac;stroke:#000000;stroke-width:0.25;"/>
   </g>
   <g id="patch_15">
    <path clip-path="url(#pcfd58d5018)" d="
M282.24 8.82693
L274.909 10.9794
L269.906 16.7535
L268.819 24.316
L271.992 31.2658
L278.42 35.3965
L286.06 35.3965
L292.488 31.2658
L295.661 24.316
L294.574 16.7535
L289.571 10.9794
z
" style="fill:#af0a0a;stroke:#000000;stroke-width:0.25;"/>
   </g>
   <g id="patch_16">
    <path clip-path="url(#pcfd58d5018)" d="
M307.995 16.3894
L300.665 18.5419
L295.661 24.316
L294.574 31.8785
L297.748 38.8283
L304.175 42.9589
L311.816 42.9589
L318.243 38.8283
L321.417 31.8785
L320.329 24.316
L315.326 18.5419
z
" style="fill:#af0a0a;stroke:#000000;stroke-width:0.25;"/>
   </g>
   <g id="patch_17">
    <path clip-path="url(#pcfd58d5018)" d="
M325.574 36.6758
L318.243 38.8283
L313.24 44.6024
L312.152 52.1649
L315.326 59.1147
L321.754 63.2454
L329.394 63.2454
L335.821 59.1147
L338.995 52.1649
L337.908 44.6024
L332.904 38.8283
z
" style="fill:#af0a0a;stroke:#000000;stroke-width:0.25;"/>
   </g>
   <g id="patch_18">
    <path clip-path="url(#pcfd58d5018)" d="
M329.394 63.2454
L322.063 65.3979
L317.06 71.172
L315.972 78.7344
L319.146 85.6843
L325.574 89.8149
L333.214 89.8149
L339.641 85.6843
L342.815 78.7344
L341.728 71.172
L336.725 65.3979
z
" style="fill:#af0a0a;stroke:#000000;stroke-width:0.25;"/>
   </g>
   <g id="patch_19">
    <path clip-path="url(#pcfd58d5018)" d="
M318.243 87.6624
L310.912 89.8149
L305.909 95.589
L304.822 103.151
L307.995 110.101
L314.423 114.232
L322.063 114.232
L328.49 110.101
L331.664 103.151
L330.577 95.589
L325.574 89.8149
z
" style="fill:#af0a0a;stroke:#000000;stroke-width:0.25;"/>
   </g>
   <g id="patch_20">
    <path clip-path="url(#pcfd58d5018)" d="
M295.661 102.175
L288.331 104.327
L283.327 110.101
L282.24 117.664
L285.414 124.614
L291.841 128.744
L299.482 128.744
L305.909 124.614
L309.083 117.664
L307.995 110.101
L302.992 104.327
z
" style="fill:#af0a0a;stroke:#000000;stroke-width:0.25;"/>
   </g>
   <g id="patch_21">
    <path clip-path="url(#pcfd58d5018)" d="
M268.819 102.175
L261.488 104.327
L256.485 110.101
L255.397 117.664
L258.571 124.614
L264.998 128.744
L272.639 128.744
L279.066 124.614
L282.24 117.664
L281.153 110.101
L276.149 104.327
z
" style="fill:#af0a0a;stroke:#000000;stroke-width:0.25;"/>
   </g>
   <g id="patch_22">
    <path clip-path="url(#pcfd58d5018)" d="
M246.237 87.6624
L238.906 89.8149
L233.903 95.589
L232.816 103.151
L235.99 110.101
L242.417 114.232
L250.057 114.232
L256.485 110.101
L259.658 103.151
L258.571 95.589
L253.568 89.8149
z
" style="fill:#af0a0a;stroke:#000000;stroke-width:0.25;"/>
   </g>
   <g id="patch_23">
    <path clip-path="url(#pcfd58d5018)" d="
M235.086 63.2454
L227.755 65.3979
L222.752 71.172
L221.665 78.7344
L224.839 85.6843
L231.266 89.8149
L238.906 89.8149
L245.334 85.6843
L248.508 78.7344
L247.42 71.172
L242.417 65.3979
z
" style="fill:#af0a0a;stroke:#000000;stroke-width:0.25;"/>
   </g>
   <g id="patch_24">
    <path clip-path="url(#pcfd58d5018)" d="
M238.906 36.6758
L231.576 38.8283
L226.572 44.6024
L225.485 52.1649
L228.659 59.1147
L235.086 63.2454
L242.726 63.2454
L249.154 59.1147
L252.328 52.1649
L251.24 44.6024
L246.237 38.8283
z
" style="fill:#af0a0a;stroke:#000000;stroke-width:0.25;"/>
   </g>
   <g id="patch_25">
    <path clip-path="url(#pcfd58d5018)" d="
M256.485 16.3894
L249.154 18.5419
L244.151 24.316
L243.063 31.8785
L246.237 38.8283
L252.664 42.9589
L260.305 42.9589
L266.732 38.8283
L269.906 31.8785
L268.819 24.316
L263.815 18.5419
z
" style="fill:#af0a0a;stroke:#000000;stroke-width:0.25;"/>
   </g>
   <g id="patch_26">
    <path clip-path="url(#pcfd58d5018)" d="
M282.24 106.116
L301.752 100.386
L315.069 85.0176
L317.963 64.8888
L309.515 46.3908
L292.408 35.3965
L272.072 35.3965
L254.965 46.3908
L246.517 64.8888
L249.411 85.0176
L262.728 100.386
z
" style="fill:#af0a0a;stroke:#000000;stroke-width:0.25;"/>
   </g>
   <g id="patch_27">
    <path clip-path="url(#pcfd58d5018)" d="
M398.483 42.9589
L391.152 45.1115
L386.149 50.8856
L385.062 58.448
L388.235 65.3979
L394.663 69.5285
L402.303 69.5285
L408.73 65.3979
L411.904 58.448
L410.817 50.8856
L405.814 45.1115
z
" style="fill:#af0a0a;stroke:#000000;stroke-width:0.25;"/>
   </g>
   <g id="patch_28">
    <path clip-path="url(#pcfd58d5018)" d="
M424.238 50.5214
L416.908 52.6739
L411.904 58.448
L410.817 66.0105
L413.991 72.9603
L420.418 77.091
L428.059 77.091
L434.486 72.9603
L437.66 66.0105
L436.572 58.448
L431.569 52.6739
z
" style="fill:#af0a0a;stroke:#000000;stroke-width:0.25;"/>
   </g>
   <g id="patch_29">
    <path clip-path="url(#pcfd58d5018)" d="
M441.817 70.8078
L434.486 72.9603
L429.483 78.7344
L428.395 86.2969
L431.569 93.2467
L437.997 97.3774
L445.637 97.3774
L452.064 93.2467
L455.238 86.2969
L454.151 78.7344
L449.147 72.9603
z
" style="fill:#af0a0a;stroke:#000000;stroke-width:0.25;"/>
   </g>
   <g id="patch_30">
    <path clip-path="url(#pcfd58d5018)" d="
M445.637 97.3774
L438.306 99.5299
L433.303 105.304
L432.215 112.866
L435.389 119.816
L441.817 123.947
L449.457 123.947
L455.884 119.816
L459.058 112.866
L457.971 105.304
L452.968 99.5299
z
" style="fill:#af0a0a;stroke:#000000;stroke-width:0.25;"/>
   </g>
   <g id="patch_31">
    <path clip-path="url(#pcfd58d5018)" d="
M434.486 121.794
L427.155 123.947
L422.152 129.721
L421.065 137.283
L424.238 144.233
L430.666 148.364
L438.306 148.364
L444.733 144.233
L447.907 137.283
L446.82 129.721
L441.817 123.947
z
" style="fill:#af0a0a;stroke:#000000;stroke-width:0.25;"/>
   </g>
   <g id="patch_32">
    <path clip-path="url(#pcfd58d5018)" d="
M411.904 136.307
L404.574 138.459
L399.57 144.233
L398.483 151.796
L401.657 158.746
L408.084 162.876
L415.724 162.876
L422.152 158.746
L425.326 151.796
L424.238 144.233
L419.235 138.459
z
" style="fill:#af0a0a;stroke:#000000;stroke-width:0.25;"/>
   </g>
   <g id="patch_33">
    <path clip-path="url(#pcfd58d5018)" d="
M385.062 136.307
L377.731 138.459
L372.728 144.233
L371.64 151.796
L374.814 158.746
L381.241 162.876
L388.882 162.876
L395.309 158.746
L398.483 151.796
L397.396 144.233
L392.392 138.459
z
" style="fill:#af0a0a;stroke:#000000;stroke-width:0.25;"/>
   </g>
   <g id="patch_34">
    <path clip-path="url(#pcfd58d5018)" d="
M362.48 121.794
L355.149 123.947
L350.146 129.721
L349.059 137.283
L352.233 144.233
L358.66 148.364
L366.3 148.364
L372.728 144.233
L375.901 137.283
L374.814 129.721
L369.811 123.947
z
" style="fill:#af0a0a;stroke:#000000;stroke-width:0.25;"/>
   </g>
   <g id="patch_35">
    <path clip-path="url(#pcfd58d5018)" d="
M351.329 97.3774
L343.998 99.5299
L338.995 105.304
L337.908 112.866
L341.082 119.816
L347.509 123.947
L355.149 123.947
L361.577 119.816
L364.751 112.866
L363.663 105.304
L358.66 99.5299
z
" style="fill:#af0a0a;stroke:#000000;stroke-width:0.25;"/>
   </g>
   <g id="patch_36">
    <path clip-path="url(#pcfd58d5018)" d="
M355.149 70.8078
L347.819 72.9603
L342.815 78.7344
L341.728 86.2969
L344.902 93.2467
L351.329 97.3774
L358.969 97.3774
L365.397 93.2467
L368.571 86.2969
L367.483 78.7344
L362.48 72.9603
z
" style="fill:#af0a0a;stroke:#000000;stroke-width:0.25;"/>
   </g>
   <g id="patch_37">
    <path clip-path="url(#pcfd58d5018)" d="
M372.728 50.5214
L365.397 52.6739
L360.393 58.448
L359.306 66.0105
L362.48 72.9603
L368.907 77.091
L376.548 77.091
L382.975 72.9603
L386.149 66.0105
L385.062 58.448
L380.058 52.6739
z
" style="fill:#af0a0a;stroke:#000000;stroke-width:0.25;"/>
   </g>
   <g id="patch_38">
    <path clip-path="url(#pcfd58d5018)" d="
M398.483 140.248
L417.995 134.518
L431.312 119.15
L434.206 99.0209
L425.758 80.5228
L408.651 69.5285
L388.315 69.5285
L371.208 80.5228
L362.76 99.0209
L365.654 119.15
L378.971 134.518
z
" style="fill:#af0a0a;stroke:#000000;stroke-width:0.25;"/>
   </g>
   <g id="patch_39">
    <path clip-path="url(#pcfd58d5018)" d="
M477.82 134.518
L470.489 136.671
L465.486 142.445
L464.398 150.007
L467.572 156.957
L474 161.088
L481.64 161.088
L488.067 156.957
L491.241 150.007
L490.154 142.445
L485.15 136.671
z
" style="fill:#af0a0a;stroke:#000000;stroke-width:0.25;"/>
   </g>
   <g id="patch_40">
    <path clip-path="url(#pcfd58d5018)" d="
M503.575 142.081
L496.244 144.233
L491.241 150.007
L490.154 157.57
L493.328 164.52
L499.755 168.65
L507.395 168.65
L513.823 164.52
L516.996 157.57
L515.909 150.007
L510.906 144.233
z
" style="fill:#af0a0a;stroke:#000000;stroke-width:0.25;"/>
   </g>
   <g id="patch_41">
    <path clip-path="url(#pcfd58d5018)" d="
M521.153 162.367
L513.823 164.52
L508.819 170.294
L507.732 177.856
L510.906 184.806
L517.333 188.937
L524.973 188.937
L531.401 184.806
L534.575 177.856
L533.487 170.294
L528.484 164.52
z
" style="fill:#af0a0a;stroke:#000000;stroke-width:0.25;"/>
   </g>
   <g id="patch_42">
    <path clip-path="url(#pcfd58d5018)" d="
M524.973 188.937
L517.643 191.089
L512.639 196.863
L511.552 204.426
L514.726 211.376
L521.153 215.506
L528.794 215.506
L535.221 211.376
L538.395 204.426
L537.308 196.863
L532.304 191.089
z
" style="fill:#af0a0a;stroke:#000000;stroke-width:0.25;"/>
   </g>
   <g id="patch_43">
    <path clip-path="url(#pcfd58d5018)" d="
M513.823 213.354
L506.492 215.506
L501.489 221.28
L500.401 228.843
L503.575 235.793
L510.002 239.923
L517.643 239.923
L524.07 235.793
L527.244 228.843
L526.157 221.28
L521.153 215.506
z
" style="fill:#af0a0a;stroke:#000000;stroke-width:0.25;"/>
   </g>
   <g id="patch_44">
    <path clip-path="url(#pcfd58d5018)" d="
M491.241 227.866
L483.91 230.019
L478.907 235.793
L477.82 243.355
L480.994 250.305
L487.421 254.436
L495.061 254.436
L501.489 250.305
L504.662 243.355
L503.575 235.793
L498.572 230.019
z
" style="fill:#af0a0a;stroke:#000000;stroke-width:0.25;"/>
   </g>
   <g id="patch_45">
    <path clip-path="url(#pcfd58d5018)" d="
M464.398 227.866
L457.067 230.019
L452.064 235.793
L450.977 243.355
L454.151 250.305
L460.578 254.436
L468.218 254.436
L474.646 250.305
L477.82 243.355
L476.732 235.793
L471.729 230.019
z
" style="fill:#af0a0a;stroke:#000000;stroke-width:0.25;"/>
   </g>
   <g id="patch_46">
    <path clip-path="url(#pcfd58d5018)" d="
M441.817 213.354
L434.486 215.506
L429.483 221.28
L428.395 228.843
L431.569 235.793
L437.997 239.923
L445.637 239.923
L452.064 235.793
L455.238 228.843
L454.151 221.28
L449.147 215.506
z
" style="fill:#af0a0a;stroke:#000000;stroke-width:0.25;"/>
   </g>
   <g id="patch_47">
    <path clip-path="url(#pcfd58d5018)" d="
M430.666 188.937
L423.335 191.089
L418.332 196.863
L417.244 204.426
L420.418 211.376
L426.846 215.506
L434.486 215.506
L440.913 211.376
L444.087 204.426
L443 196.863
L437.997 191.089
z
" style="fill:#af0a0a;stroke:#000000;stroke-width:0.25;"/>
   </g>
   <g id="patch_48">
    <path clip-path="url(#pcfd58d5018)" d="
M434.486 162.367
L427.155 164.52
L422.152 170.294
L421.065 177.856
L424.238 184.806
L430.666 188.937
L438.306 188.937
L444.733 184.806
L447.907 177.856
L446.82 170.294
L441.817 164.52
z
" style="fill:#af0a0a;stroke:#000000;stroke-width:0.25;"/>
   </g>
   <g id="patch_49">
    <path clip-path="url(#pcfd58d5018)" d="
M452.064 142.081
L444.733 144.233
L439.73 150.007
L438.643 157.57
L441.817 164.52
L448.244 168.65
L455.884 168.65
L462.312 164.52
L465.486 157.57
L464.398 150.007
L459.395 144.233
z
" style="fill:#af0a0a;stroke:#000000;stroke-width:0.25;"/>
   </g>
   <g id="patch_50">
    <path clip-path="url(#pcfd58d5018)" d="
M477.82 231.807
L497.332 226.078
L510.649 210.709
L513.543 190.58
L505.095 172.082
L487.987 161.088
L467.652 161.088
L450.544 172.082
L442.096 190.58
L444.991 210.709
L458.308 226.078
z
" style="fill:#af0a0a;stroke:#000000;stroke-width:0.25;"/>
   </g>
   <g id="patch_51">
    <path clip-path="url(#pcfd58d5018)" d="
M495.061 254.436
L487.73 256.588
L482.727 262.362
L481.64 269.925
L484.814 276.875
L491.241 281.005
L498.881 281.005
L505.309 276.875
L508.483 269.925
L507.395 262.362
L502.392 256.588
z
" style="fill:#af0a0a;stroke:#000000;stroke-width:0.25;"/>
   </g>
   <g id="patch_52">
    <path clip-path="url(#pcfd58d5018)" d="
M520.817 261.998
L513.486 264.151
L508.483 269.925
L507.395 277.487
L510.569 284.437
L516.996 288.568
L524.637 288.568
L531.064 284.437
L534.238 277.487
L533.151 269.925
L528.147 264.151
z
" style="fill:#af0a0a;stroke:#000000;stroke-width:0.25;"/>
   </g>
   <g id="patch_53">
    <path clip-path="url(#pcfd58d5018)" d="
M538.395 282.284
L531.064 284.437
L526.061 290.211
L524.973 297.774
L528.147 304.723
L534.575 308.854
L542.215 308.854
L548.642 304.723
L551.816 297.774
L550.729 290.211
L545.726 284.437
z
" style="fill:#af0a0a;stroke:#000000;stroke-width:0.25;"/>
   </g>
   <g id="patch_54">
    <path clip-path="url(#pcfd58d5018)" d="
M542.215 308.854
L534.884 311.007
L529.881 316.781
L528.794 324.343
L531.967 331.293
L538.395 335.424
L546.035 335.424
L552.462 331.293
L555.636 324.343
L554.549 316.781
L549.546 311.007
z
" style="fill:#af0a0a;stroke:#000000;stroke-width:0.25;"/>
   </g>
   <g id="patch_55">
    <path clip-path="url(#pcfd58d5018)" d="
M531.064 333.271
L523.733 335.424
L518.73 341.198
L517.643 348.76
L520.817 355.71
L527.244 359.841
L534.884 359.841
L541.312 355.71
L544.485 348.76
L543.398 341.198
L538.395 335.424
z
" style="fill:#af0a0a;stroke:#000000;stroke-width:0.25;"/>
   </g>
   <g id="patch_56">
    <path clip-path="url(#pcfd58d5018)" d="
M508.483 347.783
L501.152 349.936
L496.148 355.71
L495.061 363.272
L498.235 370.222
L504.662 374.353
L512.303 374.353
L518.73 370.222
L521.904 363.272
L520.817 355.71
L515.813 349.936
z
" style="fill:#af0a0a;stroke:#000000;stroke-width:0.25;"/>
   </g>
   <g id="patch_57">
    <path clip-path="url(#pcfd58d5018)" d="
M481.64 347.783
L474.309 349.936
L469.306 355.71
L468.218 363.272
L471.392 370.222
L477.82 374.353
L485.46 374.353
L491.887 370.222
L495.061 363.272
L493.974 355.71
L488.971 349.936
z
" style="fill:#af0a0a;stroke:#000000;stroke-width:0.25;"/>
   </g>
   <g id="patch_58">
    <path clip-path="url(#pcfd58d5018)" d="
M459.058 333.271
L451.727 335.424
L446.724 341.198
L445.637 348.76
L448.811 355.71
L455.238 359.841
L462.878 359.841
L469.306 355.71
L472.48 348.76
L471.392 341.198
L466.389 335.424
z
" style="fill:#af0a0a;stroke:#000000;stroke-width:0.25;"/>
   </g>
   <g id="patch_59">
    <path clip-path="url(#pcfd58d5018)" d="
M447.907 308.854
L440.577 311.007
L435.573 316.781
L434.486 324.343
L437.66 331.293
L444.087 335.424
L451.727 335.424
L458.155 331.293
L461.329 324.343
L460.241 316.781
L455.238 311.007
z
" style="fill:#af0a0a;stroke:#000000;stroke-width:0.25;"/>
   </g>
   <g id="patch_60">
    <path clip-path="url(#pcfd58d5018)" d="
M451.727 282.284
L444.397 284.437
L439.393 290.211
L438.306 297.774
L441.48 304.723
L447.907 308.854
L455.548 308.854
L461.975 304.723
L465.149 297.774
L464.061 290.211
L459.058 284.437
z
" style="fill:#af0a0a;stroke:#000000;stroke-width:0.25;"/>
   </g>
   <g id="patch_61">
    <path clip-path="url(#pcfd58d5018)" d="
M469.306 261.998
L461.975 264.151
L456.972 269.925
L455.884 277.487
L459.058 284.437
L465.486 288.568
L473.126 288.568
L479.553 284.437
L482.727 277.487
L481.64 269.925
L476.636 264.151
z
" style="fill:#af0a0a;stroke:#000000;stroke-width:0.25;"/>
   </g>
   <g id="patch_62">
    <path clip-path="url(#pcfd58d5018)" d="
M495.061 351.724
L514.573 345.995
L527.89 330.626
L530.784 310.498
L522.337 291.999
L505.229 281.005
L484.893 281.005
L467.786 291.999
L459.338 310.498
L462.232 330.626
L475.549 345.995
z
" style="fill:#af0a0a;stroke:#000000;stroke-width:0.25;"/>
   </g>
   <g id="patch_63">
    <path clip-path="url(#pcfd58d5018)" d="
M444.733 364.638
L437.403 366.79
L432.399 372.565
L431.312 380.127
L434.486 387.077
L440.913 391.207
L448.554 391.207
L454.981 387.077
L458.155 380.127
L457.067 372.565
L452.064 366.79
z
" style="fill:#af0a0a;stroke:#000000;stroke-width:0.25;"/>
   </g>
   <g id="patch_64">
    <path clip-path="url(#pcfd58d5018)" d="
M470.489 372.2
L463.158 374.353
L458.155 380.127
L457.067 387.689
L460.241 394.639
L466.669 398.77
L474.309 398.77
L480.736 394.639
L483.91 387.689
L482.823 380.127
L477.82 374.353
z
" style="fill:#af0a0a;stroke:#000000;stroke-width:0.25;"/>
   </g>
   <g id="patch_65">
    <path clip-path="url(#pcfd58d5018)" d="
M488.067 392.487
L480.736 394.639
L475.733 400.413
L474.646 407.976
L477.82 414.926
L484.247 419.056
L491.887 419.056
L498.315 414.926
L501.489 407.976
L500.401 400.413
L495.398 394.639
z
" style="fill:#af0a0a;stroke:#000000;stroke-width:0.25;"/>
   </g>
   <g id="patch_66">
    <path clip-path="url(#pcfd58d5018)" d="
M491.887 419.056
L484.556 421.209
L479.553 426.983
L478.466 434.545
L481.64 441.495
L488.067 445.626
L495.707 445.626
L502.135 441.495
L505.309 434.545
L504.221 426.983
L499.218 421.209
z
" style="fill:#af0a0a;stroke:#000000;stroke-width:0.25;"/>
   </g>
   <g id="patch_67">
    <path clip-path="url(#pcfd58d5018)" d="
M480.736 443.473
L473.406 445.626
L468.402 451.4
L467.315 458.962
L470.489 465.912
L476.916 470.043
L484.556 470.043
L490.984 465.912
L494.158 458.962
L493.07 451.4
L488.067 445.626
z
" style="fill:#af0a0a;stroke:#000000;stroke-width:0.25;"/>
   </g>
   <g id="patch_68">
    <path clip-path="url(#pcfd58d5018)" d="
M458.155 457.986
L450.824 460.138
L445.821 465.912
L444.733 473.475
L447.907 480.425
L454.335 484.555
L461.975 484.555
L468.402 480.425
L471.576 473.475
L470.489 465.912
L465.486 460.138
z
" style="fill:#af0a0a;stroke:#000000;stroke-width:0.25;"/>
   </g>
   <g id="patch_69">
    <path clip-path="url(#pcfd58d5018)" d="
M431.312 457.986
L423.981 460.138
L418.978 465.912
L417.891 473.475
L421.065 480.425
L427.492 484.555
L435.132 484.555
L441.56 480.425
L444.733 473.475
L443.646 465.912
L438.643 460.138
z
" style="fill:#af0a0a;stroke:#000000;stroke-width:0.25;"/>
   </g>
   <g id="patch_70">
    <path clip-path="url(#pcfd58d5018)" d="
M408.73 443.473
L401.4 445.626
L396.396 451.4
L395.309 458.962
L398.483 465.912
L404.91 470.043
L412.551 470.043
L418.978 465.912
L422.152 458.962
L421.065 451.4
L416.061 445.626
z
" style="fill:#af0a0a;stroke:#000000;stroke-width:0.25;"/>
   </g>
   <g id="patch_71">
    <path clip-path="url(#pcfd58d5018)" d="
M397.58 419.056
L390.249 421.209
L385.246 426.983
L384.158 434.545
L387.332 441.495
L393.759 445.626
L401.4 445.626
L407.827 441.495
L411.001 434.545
L409.914 426.983
L404.91 421.209
z
" style="fill:#af0a0a;stroke:#000000;stroke-width:0.25;"/>
   </g>
   <g id="patch_72">
    <path clip-path="url(#pcfd58d5018)" d="
M401.4 392.487
L394.069 394.639
L389.066 400.413
L387.978 407.976
L391.152 414.926
L397.58 419.056
L405.22 419.056
L411.647 414.926
L414.821 407.976
L413.734 400.413
L408.73 394.639
z
" style="fill:#af0a0a;stroke:#000000;stroke-width:0.25;"/>
   </g>
   <g id="patch_73">
    <path clip-path="url(#pcfd58d5018)" d="
M418.978 372.2
L411.647 374.353
L406.644 380.127
L405.557 387.689
L408.73 394.639
L415.158 398.77
L422.798 398.77
L429.225 394.639
L432.399 387.689
L431.312 380.127
L426.309 374.353
z
" style="fill:#af0a0a;stroke:#000000;stroke-width:0.25;"/>
   </g>
   <g id="patch_74">
    <path clip-path="url(#pcfd58d5018)" d="
M444.733 461.927
L464.245 456.197
L477.562 440.829
L480.457 420.7
L472.009 402.202
L454.901 391.207
L434.566 391.207
L417.458 402.202
L409.01 420.7
L411.904 440.829
L425.221 456.197
z
" style="fill:#af0a0a;stroke:#000000;stroke-width:0.25;"/>
   </g>
   <g id="patch_75">
    <path clip-path="url(#pcfd58d5018)" d="
M342.815 430.137
L335.484 432.289
L330.481 438.063
L329.394 445.626
L332.568 452.576
L338.995 456.706
L346.635 456.706
L353.063 452.576
L356.237 445.626
L355.149 438.063
L350.146 432.289
z
" style="fill:#af0a0a;stroke:#000000;stroke-width:0.25;"/>
   </g>
   <g id="patch_76">
    <path clip-path="url(#pcfd58d5018)" d="
M368.571 437.699
L361.24 439.852
L356.237 445.626
L355.149 453.188
L358.323 460.138
L364.751 464.269
L372.391 464.269
L378.818 460.138
L381.992 453.188
L380.905 445.626
L375.901 439.852
z
" style="fill:#af0a0a;stroke:#000000;stroke-width:0.25;"/>
   </g>
   <g id="patch_77">
    <path clip-path="url(#pcfd58d5018)" d="
M386.149 457.986
L378.818 460.138
L373.815 465.912
L372.728 473.475
L375.901 480.425
L382.329 484.555
L389.969 484.555
L396.396 480.425
L399.57 473.475
L398.483 465.912
L393.48 460.138
z
" style="fill:#af0a0a;stroke:#000000;stroke-width:0.25;"/>
   </g>
   <g id="patch_78">
    <path clip-path="url(#pcfd58d5018)" d="
M389.969 484.555
L382.638 486.708
L377.635 492.482
L376.548 500.044
L379.722 506.994
L386.149 511.125
L393.789 511.125
L400.217 506.994
L403.39 500.044
L402.303 492.482
L397.3 486.708
z
" style="fill:#af0a0a;stroke:#000000;stroke-width:0.25;"/>
   </g>
   <g id="patch_79">
    <path clip-path="url(#pcfd58d5018)" d="
M378.818 508.972
L371.487 511.125
L366.484 516.899
L365.397 524.461
L368.571 531.411
L374.998 535.542
L382.638 535.542
L389.066 531.411
L392.24 524.461
L391.152 516.899
L386.149 511.125
z
" style="fill:#af0a0a;stroke:#000000;stroke-width:0.25;"/>
   </g>
   <g id="patch_80">
    <path clip-path="url(#pcfd58d5018)" d="
M356.237 523.485
L348.906 525.637
L343.903 531.411
L342.815 538.974
L345.989 545.923
L352.416 550.054
L360.057 550.054
L366.484 545.923
L369.658 538.974
L368.571 531.411
L363.567 525.637
z
" style="fill:#af0a0a;stroke:#000000;stroke-width:0.25;"/>
   </g>
   <g id="patch_81">
    <path clip-path="url(#pcfd58d5018)" d="
M329.394 523.485
L322.063 525.637
L317.06 531.411
L315.972 538.974
L319.146 545.923
L325.574 550.054
L333.214 550.054
L339.641 545.923
L342.815 538.974
L341.728 531.411
L336.725 525.637
z
" style="fill:#af0a0a;stroke:#000000;stroke-width:0.25;"/>
   </g>
   <g id="patch_82">
    <path clip-path="url(#pcfd58d5018)" d="
M306.812 508.972
L299.482 511.125
L294.478 516.899
L293.391 524.461
L296.565 531.411
L302.992 535.542
L310.632 535.542
L317.06 531.411
L320.234 524.461
L319.146 516.899
L314.143 511.125
z
" style="fill:#af0a0a;stroke:#000000;stroke-width:0.25;"/>
   </g>
   <g id="patch_83">
    <path clip-path="url(#pcfd58d5018)" d="
M295.661 484.555
L288.331 486.708
L283.327 492.482
L282.24 500.044
L285.414 506.994
L291.841 511.125
L299.482 511.125
L305.909 506.994
L309.083 500.044
L307.995 492.482
L302.992 486.708
z
" style="fill:#af0a0a;stroke:#000000;stroke-width:0.25;"/>
   </g>
   <g id="patch_84">
    <path clip-path="url(#pcfd58d5018)" d="
M299.482 457.986
L292.151 460.138
L287.147 465.912
L286.06 473.475
L289.234 480.425
L295.661 484.555
L303.302 484.555
L309.729 480.425
L312.903 473.475
L311.816 465.912
L306.812 460.138
z
" style="fill:#af0a0a;stroke:#000000;stroke-width:0.25;"/>
   </g>
   <g id="patch_85">
    <path clip-path="url(#pcfd58d5018)" d="
M317.06 437.699
L309.729 439.852
L304.726 445.626
L303.638 453.188
L306.812 460.138
L313.24 464.269
L320.88 464.269
L327.307 460.138
L330.481 453.188
L329.394 445.626
L324.391 439.852
z
" style="fill:#af0a0a;stroke:#000000;stroke-width:0.25;"/>
   </g>
   <g id="patch_86">
    <path clip-path="url(#pcfd58d5018)" d="
M342.815 527.425
L362.327 521.696
L375.644 506.327
L378.538 486.199
L370.091 467.701
L352.983 456.706
L332.647 456.706
L315.54 467.701
L307.092 486.199
L309.986 506.327
L323.303 521.696
z
" style="fill:#af0a0a;stroke:#000000;stroke-width:0.25;"/>
   </g>
   <g id="patch_87">
    <path clip-path="url(#pcfd58d5018)" d="
M221.665 430.137
L214.334 432.289
L209.331 438.063
L208.243 445.626
L211.417 452.576
L217.845 456.706
L225.485 456.706
L231.912 452.576
L235.086 445.626
L233.999 438.063
L228.996 432.289
z
" style="fill:#af0a0a;stroke:#000000;stroke-width:0.25;"/>
   </g>
   <g id="patch_88">
    <path clip-path="url(#pcfd58d5018)" d="
M247.42 437.699
L240.089 439.852
L235.086 445.626
L233.999 453.188
L237.173 460.138
L243.6 464.269
L251.24 464.269
L257.668 460.138
L260.842 453.188
L259.754 445.626
L254.751 439.852
z
" style="fill:#af0a0a;stroke:#000000;stroke-width:0.25;"/>
   </g>
   <g id="patch_89">
    <path clip-path="url(#pcfd58d5018)" d="
M264.998 457.986
L257.668 460.138
L252.664 465.912
L251.577 473.475
L254.751 480.425
L261.178 484.555
L268.819 484.555
L275.246 480.425
L278.42 473.475
L277.333 465.912
L272.329 460.138
z
" style="fill:#af0a0a;stroke:#000000;stroke-width:0.25;"/>
   </g>
   <g id="patch_90">
    <path clip-path="url(#pcfd58d5018)" d="
M268.819 484.555
L261.488 486.708
L256.485 492.482
L255.397 500.044
L258.571 506.994
L264.998 511.125
L272.639 511.125
L279.066 506.994
L282.24 500.044
L281.153 492.482
L276.149 486.708
z
" style="fill:#af0a0a;stroke:#000000;stroke-width:0.25;"/>
   </g>
   <g id="patch_91">
    <path clip-path="url(#pcfd58d5018)" d="
M257.668 508.972
L250.337 511.125
L245.334 516.899
L244.246 524.461
L247.42 531.411
L253.848 535.542
L261.488 535.542
L267.915 531.411
L271.089 524.461
L270.002 516.899
L264.998 511.125
z
" style="fill:#af0a0a;stroke:#000000;stroke-width:0.25;"/>
   </g>
   <g id="patch_92">
    <path clip-path="url(#pcfd58d5018)" d="
M235.086 523.485
L227.755 525.637
L222.752 531.411
L221.665 538.974
L224.839 545.923
L231.266 550.054
L238.906 550.054
L245.334 545.923
L248.508 538.974
L247.42 531.411
L242.417 525.637
z
" style="fill:#af0a0a;stroke:#000000;stroke-width:0.25;"/>
   </g>
   <g id="patch_93">
    <path clip-path="url(#pcfd58d5018)" d="
M208.243 523.485
L200.913 525.637
L195.909 531.411
L194.822 538.974
L197.996 545.923
L204.423 550.054
L212.064 550.054
L218.491 545.923
L221.665 538.974
L220.577 531.411
L215.574 525.637
z
" style="fill:#af0a0a;stroke:#000000;stroke-width:0.25;"/>
   </g>
   <g id="patch_94">
    <path clip-path="url(#pcfd58d5018)" d="
M185.662 508.972
L178.331 511.125
L173.328 516.899
L172.24 524.461
L175.414 531.411
L181.842 535.542
L189.482 535.542
L195.909 531.411
L199.083 524.461
L197.996 516.899
L192.993 511.125
z
" style="fill:#af0a0a;stroke:#000000;stroke-width:0.25;"/>
   </g>
   <g id="patch_95">
    <path clip-path="url(#pcfd58d5018)" d="
M174.511 484.555
L167.18 486.708
L162.177 492.482
L161.09 500.044
L164.263 506.994
L170.691 511.125
L178.331 511.125
L184.758 506.994
L187.932 500.044
L186.845 492.482
L181.842 486.708
z
" style="fill:#af0a0a;stroke:#000000;stroke-width:0.25;"/>
   </g>
   <g id="patch_96">
    <path clip-path="url(#pcfd58d5018)" d="
M178.331 457.986
L171 460.138
L165.997 465.912
L164.91 473.475
L168.084 480.425
L174.511 484.555
L182.151 484.555
L188.579 480.425
L191.752 473.475
L190.665 465.912
L185.662 460.138
z
" style="fill:#af0a0a;stroke:#000000;stroke-width:0.25;"/>
   </g>
   <g id="patch_97">
    <path clip-path="url(#pcfd58d5018)" d="
M195.909 437.699
L188.579 439.852
L183.575 445.626
L182.488 453.188
L185.662 460.138
L192.089 464.269
L199.729 464.269
L206.157 460.138
L209.331 453.188
L208.243 445.626
L203.24 439.852
z
" style="fill:#af0a0a;stroke:#000000;stroke-width:0.25;"/>
   </g>
   <g id="patch_98">
    <path clip-path="url(#pcfd58d5018)" d="
M221.665 527.425
L241.177 521.696
L254.494 506.327
L257.388 486.199
L248.94 467.701
L231.833 456.706
L211.497 456.706
L194.389 467.701
L185.942 486.199
L188.836 506.327
L202.153 521.696
z
" style="fill:#af0a0a;stroke:#000000;stroke-width:0.25;"/>
   </g>
   <g id="patch_99">
    <path clip-path="url(#pcfd58d5018)" d="
M119.747 364.638
L112.416 366.79
L107.413 372.565
L106.325 380.127
L109.499 387.077
L115.926 391.207
L123.567 391.207
L129.994 387.077
L133.168 380.127
L132.081 372.565
L127.077 366.79
z
" style="fill:#af0a0a;stroke:#000000;stroke-width:0.25;"/>
   </g>
   <g id="patch_100">
    <path clip-path="url(#pcfd58d5018)" d="
M145.502 372.2
L138.171 374.353
L133.168 380.127
L132.081 387.689
L135.255 394.639
L141.682 398.77
L149.322 398.77
L155.75 394.639
L158.923 387.689
L157.836 380.127
L152.833 374.353
z
" style="fill:#af0a0a;stroke:#000000;stroke-width:0.25;"/>
   </g>
   <g id="patch_101">
    <path clip-path="url(#pcfd58d5018)" d="
M163.08 392.487
L155.75 394.639
L150.746 400.413
L149.659 407.976
L152.833 414.926
L159.26 419.056
L166.9 419.056
L173.328 414.926
L176.502 407.976
L175.414 400.413
L170.411 394.639
z
" style="fill:#af0a0a;stroke:#000000;stroke-width:0.25;"/>
   </g>
   <g id="patch_102">
    <path clip-path="url(#pcfd58d5018)" d="
M166.9 419.056
L159.57 421.209
L154.566 426.983
L153.479 434.545
L156.653 441.495
L163.08 445.626
L170.721 445.626
L177.148 441.495
L180.322 434.545
L179.234 426.983
L174.231 421.209
z
" style="fill:#af0a0a;stroke:#000000;stroke-width:0.25;"/>
   </g>
   <g id="patch_103">
    <path clip-path="url(#pcfd58d5018)" d="
M155.75 443.473
L148.419 445.626
L143.415 451.4
L142.328 458.962
L145.502 465.912
L151.929 470.043
L159.57 470.043
L165.997 465.912
L169.171 458.962
L168.084 451.4
L163.08 445.626
z
" style="fill:#af0a0a;stroke:#000000;stroke-width:0.25;"/>
   </g>
   <g id="patch_104">
    <path clip-path="url(#pcfd58d5018)" d="
M133.168 457.986
L125.837 460.138
L120.834 465.912
L119.747 473.475
L122.92 480.425
L129.348 484.555
L136.988 484.555
L143.415 480.425
L146.589 473.475
L145.502 465.912
L140.499 460.138
z
" style="fill:#af0a0a;stroke:#000000;stroke-width:0.25;"/>
   </g>
   <g id="patch_105">
    <path clip-path="url(#pcfd58d5018)" d="
M106.325 457.986
L98.9944 460.138
L93.9911 465.912
L92.9038 473.475
L96.0777 480.425
L102.505 484.555
L110.145 484.555
L116.573 480.425
L119.747 473.475
L118.659 465.912
L113.656 460.138
z
" style="fill:#af0a0a;stroke:#000000;stroke-width:0.25;"/>
   </g>
   <g id="patch_106">
    <path clip-path="url(#pcfd58d5018)" d="
M83.7436 443.473
L76.4129 445.626
L71.4096 451.4
L70.3222 458.962
L73.4961 465.912
L79.9235 470.043
L87.5638 470.043
L93.9911 465.912
L97.165 458.962
L96.0777 451.4
L91.0744 445.626
z
" style="fill:#af0a0a;stroke:#000000;stroke-width:0.25;"/>
   </g>
   <g id="patch_107">
    <path clip-path="url(#pcfd58d5018)" d="
M72.5927 419.056
L65.262 421.209
L60.2587 426.983
L59.1714 434.545
L62.3452 441.495
L68.7726 445.626
L76.4129 445.626
L82.8402 441.495
L86.0141 434.545
L84.9268 426.983
L79.9235 421.209
z
" style="fill:#af0a0a;stroke:#000000;stroke-width:0.25;"/>
   </g>
   <g id="patch_108">
    <path clip-path="url(#pcfd58d5018)" d="
M76.4129 392.487
L69.0821 394.639
L64.0788 400.413
L62.9915 407.976
L66.1654 414.926
L72.5927 419.056
L80.233 419.056
L86.6604 414.926
L89.8342 407.976
L88.7469 400.413
L83.7436 394.639
z
" style="fill:#af0a0a;stroke:#000000;stroke-width:0.25;"/>
   </g>
   <g id="patch_109">
    <path clip-path="url(#pcfd58d5018)" d="
M93.9911 372.2
L86.6604 374.353
L81.6571 380.127
L80.5698 387.689
L83.7436 394.639
L90.171 398.77
L97.8113 398.77
L104.239 394.639
L107.413 387.689
L106.325 380.127
L101.322 374.353
z
" style="fill:#af0a0a;stroke:#000000;stroke-width:0.25;"/>
   </g>
   <g id="patch_110">
    <path clip-path="url(#pcfd58d5018)" d="
M119.747 461.927
L139.259 456.197
L152.576 440.829
L155.47 420.7
L147.022 402.202
L129.914 391.207
L109.579 391.207
L92.4712 402.202
L84.0234 420.7
L86.9175 440.829
L100.235 456.197
z
" style="fill:#af0a0a;stroke:#000000;stroke-width:0.25;"/>
   </g>
   <g id="patch_111">
    <path clip-path="url(#pcfd58d5018)" d="
M69.4189 254.436
L62.0881 256.588
L57.0848 262.362
L55.9975 269.925
L59.1714 276.875
L65.5987 281.005
L73.239 281.005
L79.6664 276.875
L82.8402 269.925
L81.7529 262.362
L76.7496 256.588
z
" style="fill:#af0a0a;stroke:#000000;stroke-width:0.25;"/>
   </g>
   <g id="patch_112">
    <path clip-path="url(#pcfd58d5018)" d="
M95.1743 261.998
L87.8435 264.151
L82.8402 269.925
L81.7529 277.487
L84.9268 284.437
L91.3542 288.568
L98.9944 288.568
L105.422 284.437
L108.596 277.487
L107.508 269.925
L102.505 264.151
z
" style="fill:#af0a0a;stroke:#000000;stroke-width:0.25;"/>
   </g>
   <g id="patch_113">
    <path clip-path="url(#pcfd58d5018)" d="
M112.753 282.284
L105.422 284.437
L100.419 290.211
L99.3312 297.774
L102.505 304.723
L108.932 308.854
L116.573 308.854
L123 304.723
L126.174 297.774
L125.087 290.211
L120.083 284.437
z
" style="fill:#af0a0a;stroke:#000000;stroke-width:0.25;"/>
   </g>
   <g id="patch_114">
    <path clip-path="url(#pcfd58d5018)" d="
M116.573 308.854
L109.242 311.007
L104.239 316.781
L103.151 324.343
L106.325 331.293
L112.753 335.424
L120.393 335.424
L126.82 331.293
L129.994 324.343
L128.907 316.781
L123.903 311.007
z
" style="fill:#af0a0a;stroke:#000000;stroke-width:0.25;"/>
   </g>
   <g id="patch_115">
    <path clip-path="url(#pcfd58d5018)" d="
M105.422 333.271
L98.0911 335.424
L93.0878 341.198
L92.0004 348.76
L95.1743 355.71
L101.602 359.841
L109.242 359.841
L115.669 355.71
L118.843 348.76
L117.756 341.198
L112.753 335.424
z
" style="fill:#af0a0a;stroke:#000000;stroke-width:0.25;"/>
   </g>
   <g id="patch_116">
    <path clip-path="url(#pcfd58d5018)" d="
M82.8402 347.783
L75.5095 349.936
L70.5062 355.71
L69.4189 363.272
L72.5927 370.222
L79.0201 374.353
L86.6604 374.353
L93.0878 370.222
L96.2616 363.272
L95.1743 355.71
L90.171 349.936
z
" style="fill:#af0a0a;stroke:#000000;stroke-width:0.25;"/>
   </g>
   <g id="patch_117">
    <path clip-path="url(#pcfd58d5018)" d="
M55.9975 347.783
L48.6667 349.936
L43.6634 355.71
L42.5761 363.272
L45.75 370.222
L52.1774 374.353
L59.8176 374.353
L66.245 370.222
L69.4189 363.272
L68.3315 355.71
L63.3283 349.936
z
" style="fill:#af0a0a;stroke:#000000;stroke-width:0.25;"/>
   </g>
   <g id="patch_118">
    <path clip-path="url(#pcfd58d5018)" d="
M33.4159 333.271
L26.0852 335.424
L21.0819 341.198
L19.9945 348.76
L23.1684 355.71
L29.5958 359.841
L37.236 359.841
L43.6634 355.71
L46.8373 348.76
L45.75 341.198
L40.7467 335.424
z
" style="fill:#af0a0a;stroke:#000000;stroke-width:0.25;"/>
   </g>
   <g id="patch_119">
    <path clip-path="url(#pcfd58d5018)" d="
M22.265 308.854
L14.9343 311.007
L9.93098 316.781
L8.84366 324.343
L12.0175 331.293
L18.4449 335.424
L26.0852 335.424
L32.5125 331.293
L35.6864 324.343
L34.5991 316.781
L29.5958 311.007
z
" style="fill:#af0a0a;stroke:#000000;stroke-width:0.25;"/>
   </g>
   <g id="patch_120">
    <path clip-path="url(#pcfd58d5018)" d="
M26.0852 282.284
L18.7544 284.437
L13.7511 290.211
L12.6638 297.774
L15.8377 304.723
L22.265 308.854
L29.9053 308.854
L36.3327 304.723
L39.5065 297.774
L38.4192 290.211
L33.4159 284.437
z
" style="fill:#af0a0a;stroke:#000000;stroke-width:0.25;"/>
   </g>
   <g id="patch_121">
    <path clip-path="url(#pcfd58d5018)" d="
M43.6634 261.998
L36.3327 264.151
L31.3294 269.925
L30.2421 277.487
L33.4159 284.437
L39.8433 288.568
L47.4836 288.568
L53.9109 284.437
L57.0848 277.487
L55.9975 269.925
L50.9942 264.151
z
" style="fill:#af0a0a;stroke:#000000;stroke-width:0.25;"/>
   </g>
   <g id="patch_122">
    <path clip-path="url(#pcfd58d5018)" d="
M69.4189 351.724
L88.9309 345.995
L102.248 330.626
L105.142 310.498
L96.6942 291.999
L79.5867 281.005
L59.251 281.005
L42.1435 291.999
L33.6957 310.498
L36.5898 330.626
L49.9069 345.995
z
" style="fill:#af0a0a;stroke:#000000;stroke-width:0.25;"/>
   </g>
   <g id="patch_123">
    <path clip-path="url(#pcfd58d5018)" d="
M86.6604 134.518
L79.3296 136.671
L74.3263 142.445
L73.239 150.007
L76.4129 156.957
L82.8402 161.088
L90.4805 161.088
L96.9079 156.957
L100.082 150.007
L98.9944 142.445
L93.9911 136.671
z
" style="fill:#af0a0a;stroke:#000000;stroke-width:0.25;"/>
   </g>
   <g id="patch_124">
    <path clip-path="url(#pcfd58d5018)" d="
M112.416 142.081
L105.085 144.233
L100.082 150.007
L98.9944 157.57
L102.168 164.52
L108.596 168.65
L116.236 168.65
L122.663 164.52
L125.837 157.57
L124.75 150.007
L119.747 144.233
z
" style="fill:#af0a0a;stroke:#000000;stroke-width:0.25;"/>
   </g>
   <g id="patch_125">
    <path clip-path="url(#pcfd58d5018)" d="
M129.994 162.367
L122.663 164.52
L117.66 170.294
L116.573 177.856
L119.747 184.806
L126.174 188.937
L133.814 188.937
L140.242 184.806
L143.415 177.856
L142.328 170.294
L137.325 164.52
z
" style="fill:#af0a0a;stroke:#000000;stroke-width:0.25;"/>
   </g>
   <g id="patch_126">
    <path clip-path="url(#pcfd58d5018)" d="
M133.814 188.937
L126.483 191.089
L121.48 196.863
L120.393 204.426
L123.567 211.376
L129.994 215.506
L137.634 215.506
L144.062 211.376
L147.236 204.426
L146.148 196.863
L141.145 191.089
z
" style="fill:#af0a0a;stroke:#000000;stroke-width:0.25;"/>
   </g>
   <g id="patch_127">
    <path clip-path="url(#pcfd58d5018)" d="
M122.663 213.354
L115.333 215.506
L110.329 221.28
L109.242 228.843
L112.416 235.793
L118.843 239.923
L126.483 239.923
L132.911 235.793
L136.085 228.843
L134.997 221.28
L129.994 215.506
z
" style="fill:#af0a0a;stroke:#000000;stroke-width:0.25;"/>
   </g>
   <g id="patch_128">
    <path clip-path="url(#pcfd58d5018)" d="
M100.082 227.866
L92.751 230.019
L87.7477 235.793
L86.6604 243.355
L89.8342 250.305
L96.2616 254.436
L103.902 254.436
L110.329 250.305
L113.503 243.355
L112.416 235.793
L107.413 230.019
z
" style="fill:#af0a0a;stroke:#000000;stroke-width:0.25;"/>
   </g>
   <g id="patch_129">
    <path clip-path="url(#pcfd58d5018)" d="
M73.239 227.866
L65.9082 230.019
L60.9049 235.793
L59.8176 243.355
L62.9915 250.305
L69.4189 254.436
L77.0591 254.436
L83.4865 250.305
L86.6604 243.355
L85.5731 235.793
L80.5698 230.019
z
" style="fill:#af0a0a;stroke:#000000;stroke-width:0.25;"/>
   </g>
   <g id="patch_130">
    <path clip-path="url(#pcfd58d5018)" d="
M50.6574 213.354
L43.3267 215.506
L38.3234 221.28
L37.236 228.843
L40.4099 235.793
L46.8373 239.923
L54.4776 239.923
L60.9049 235.793
L64.0788 228.843
L62.9915 221.28
L57.9882 215.506
z
" style="fill:#af0a0a;stroke:#000000;stroke-width:0.25;"/>
   </g>
   <g id="patch_131">
    <path clip-path="url(#pcfd58d5018)" d="
M39.5065 188.937
L32.1758 191.089
L27.1725 196.863
L26.0852 204.426
L29.259 211.376
L35.6864 215.506
L43.3267 215.506
L49.754 211.376
L52.9279 204.426
L51.8406 196.863
L46.8373 191.089
z
" style="fill:#af0a0a;stroke:#000000;stroke-width:0.25;"/>
   </g>
   <g id="patch_132">
    <path clip-path="url(#pcfd58d5018)" d="
M43.3267 162.367
L35.9959 164.52
L30.9926 170.294
L29.9053 177.856
L33.0792 184.806
L39.5065 188.937
L47.1468 188.937
L53.5742 184.806
L56.748 177.856
L55.6607 170.294
L50.6574 164.52
z
" style="fill:#af0a0a;stroke:#000000;stroke-width:0.25;"/>
   </g>
   <g id="patch_133">
    <path clip-path="url(#pcfd58d5018)" d="
M60.9049 142.081
L53.5742 144.233
L48.5709 150.007
L47.4836 157.57
L50.6574 164.52
L57.0848 168.65
L64.7251 168.65
L71.1524 164.52
L74.3263 157.57
L73.239 150.007
L68.2357 144.233
z
" style="fill:#af0a0a;stroke:#000000;stroke-width:0.25;"/>
   </g>
   <g id="patch_134">
    <path clip-path="url(#pcfd58d5018)" d="
M86.6604 231.807
L106.172 226.078
L119.489 210.709
L122.384 190.58
L113.936 172.082
L96.8282 161.088
L76.4925 161.088
L59.385 172.082
L50.9372 190.58
L53.8313 210.709
L67.1484 226.078
z
" style="fill:#af0a0a;stroke:#000000;stroke-width:0.25;"/>
   </g>
   <g id="patch_135">
    <path clip-path="url(#pcfd58d5018)" d="
M165.997 42.9589
L158.666 45.1115
L153.663 50.8856
L152.576 58.448
L155.75 65.3979
L162.177 69.5285
L169.817 69.5285
L176.245 65.3979
L179.418 58.448
L178.331 50.8856
L173.328 45.1115
z
" style="fill:#af0a0a;stroke:#000000;stroke-width:0.25;"/>
   </g>
   <g id="patch_136">
    <path clip-path="url(#pcfd58d5018)" d="
M191.752 50.5214
L184.422 52.6739
L179.418 58.448
L178.331 66.0105
L181.505 72.9603
L187.932 77.091
L195.573 77.091
L202 72.9603
L205.174 66.0105
L204.087 58.448
L199.083 52.6739
z
" style="fill:#af0a0a;stroke:#000000;stroke-width:0.25;"/>
   </g>
   <g id="patch_137">
    <path clip-path="url(#pcfd58d5018)" d="
M209.331 70.8078
L202 72.9603
L196.997 78.7344
L195.909 86.2969
L199.083 93.2467
L205.511 97.3774
L213.151 97.3774
L219.578 93.2467
L222.752 86.2969
L221.665 78.7344
L216.661 72.9603
z
" style="fill:#af0a0a;stroke:#000000;stroke-width:0.25;"/>
   </g>
   <g id="patch_138">
    <path clip-path="url(#pcfd58d5018)" d="
M213.151 97.3774
L205.82 99.5299
L200.817 105.304
L199.729 112.866
L202.903 119.816
L209.331 123.947
L216.971 123.947
L223.398 119.816
L226.572 112.866
L225.485 105.304
L220.482 99.5299
z
" style="fill:#af0a0a;stroke:#000000;stroke-width:0.25;"/>
   </g>
   <g id="patch_139">
    <path clip-path="url(#pcfd58d5018)" d="
M202 121.794
L194.669 123.947
L189.666 129.721
L188.579 137.283
L191.752 144.233
L198.18 148.364
L205.82 148.364
L212.247 144.233
L215.421 137.283
L214.334 129.721
L209.331 123.947
z
" style="fill:#af0a0a;stroke:#000000;stroke-width:0.25;"/>
   </g>
   <g id="patch_140">
    <path clip-path="url(#pcfd58d5018)" d="
M179.418 136.307
L172.088 138.459
L167.084 144.233
L165.997 151.796
L169.171 158.746
L175.598 162.876
L183.239 162.876
L189.666 158.746
L192.84 151.796
L191.752 144.233
L186.749 138.459
z
" style="fill:#af0a0a;stroke:#000000;stroke-width:0.25;"/>
   </g>
   <g id="patch_141">
    <path clip-path="url(#pcfd58d5018)" d="
M152.576 136.307
L145.245 138.459
L140.242 144.233
L139.154 151.796
L142.328 158.746
L148.756 162.876
L156.396 162.876
L162.823 158.746
L165.997 151.796
L164.91 144.233
L159.906 138.459
z
" style="fill:#af0a0a;stroke:#000000;stroke-width:0.25;"/>
   </g>
   <g id="patch_142">
    <path clip-path="url(#pcfd58d5018)" d="
M129.994 121.794
L122.663 123.947
L117.66 129.721
L116.573 137.283
L119.747 144.233
L126.174 148.364
L133.814 148.364
L140.242 144.233
L143.415 137.283
L142.328 129.721
L137.325 123.947
z
" style="fill:#af0a0a;stroke:#000000;stroke-width:0.25;"/>
   </g>
   <g id="patch_143">
    <path clip-path="url(#pcfd58d5018)" d="
M118.843 97.3774
L111.512 99.5299
L106.509 105.304
L105.422 112.866
L108.596 119.816
L115.023 123.947
L122.663 123.947
L129.091 119.816
L132.265 112.866
L131.177 105.304
L126.174 99.5299
z
" style="fill:#af0a0a;stroke:#000000;stroke-width:0.25;"/>
   </g>
   <g id="patch_144">
    <path clip-path="url(#pcfd58d5018)" d="
M122.663 70.8078
L115.333 72.9603
L110.329 78.7344
L109.242 86.2969
L112.416 93.2467
L118.843 97.3774
L126.483 97.3774
L132.911 93.2467
L136.085 86.2969
L134.997 78.7344
L129.994 72.9603
z
" style="fill:#af0a0a;stroke:#000000;stroke-width:0.25;"/>
   </g>
   <g id="patch_145">
    <path clip-path="url(#pcfd58d5018)" d="
M140.242 50.5214
L132.911 52.6739
L127.908 58.448
L126.82 66.0105
L129.994 72.9603
L136.421 77.091
L144.062 77.091
L150.489 72.9603
L153.663 66.0105
L152.576 58.448
L147.572 52.6739
z
" style="fill:#af0a0a;stroke:#000000;stroke-width:0.25;"/>
   </g>
   <g id="patch_146">
    <path clip-path="url(#pcfd58d5018)" d="
M165.997 140.248
L185.509 134.518
L198.826 119.15
L201.72 99.0209
L193.272 80.5228
L176.165 69.5285
L155.829 69.5285
L138.722 80.5228
L130.274 99.0209
L133.168 119.15
L146.485 134.518
z
" style="fill:#af0a0a;stroke:#000000;stroke-width:0.25;"/>
   </g>
   <g id="patch_147">
    <path clip-path="url(#pcfd58d5018)" d="
M282.24 447.923
L301.752 442.194
L315.069 426.825
L317.963 406.697
L309.515 388.199
L292.408 377.204
L272.072 377.204
L254.965 388.199
L246.517 406.697
L249.411 426.825
L262.728 442.194
z
" style="fill:#af0a0a;stroke:#000000;stroke-width:0.25;"/>
   </g>
   <g id="patch_148">
    <path clip-path="url(#pcfd58d5018)" d="
M213.688 427.795
L233.2 422.065
L246.517 406.697
L249.411 386.568
L240.963 368.07
L223.856 357.075
L203.52 357.075
L186.412 368.07
L177.965 386.568
L180.859 406.697
L194.176 422.065
z
" style="fill:#af0a0a;stroke:#000000;stroke-width:0.25;"/>
   </g>
   <g id="patch_149">
    <path clip-path="url(#pcfd58d5018)" d="
M166.9 373.799
L186.412 368.07
L199.729 352.701
L202.624 332.572
L194.176 314.074
L177.068 303.08
L156.733 303.08
L139.625 314.074
L131.177 332.572
L134.071 352.701
L147.388 368.07
z
" style="fill:#af0a0a;stroke:#000000;stroke-width:0.25;"/>
   </g>
   <g id="patch_150">
    <path clip-path="url(#pcfd58d5018)" d="
M156.733 303.08
L176.245 297.351
L189.562 281.982
L192.456 261.853
L184.008 243.355
L166.9 232.361
L146.565 232.361
L129.457 243.355
L121.009 261.853
L123.903 281.982
L137.221 297.351
z
" style="fill:#af0a0a;stroke:#000000;stroke-width:0.25;"/>
   </g>
   <g id="patch_151">
    <path clip-path="url(#pcfd58d5018)" d="
M186.412 238.09
L205.924 232.361
L219.241 216.992
L222.136 196.863
L213.688 178.365
L196.58 167.371
L176.245 167.371
L159.137 178.365
L150.689 196.863
L153.583 216.992
L166.9 232.361
z
" style="fill:#af0a0a;stroke:#000000;stroke-width:0.25;"/>
   </g>
   <g id="patch_152">
    <path clip-path="url(#pcfd58d5018)" d="
M246.517 199.463
L266.029 193.734
L279.346 178.365
L282.24 158.237
L273.792 139.739
L256.685 128.744
L236.349 128.744
L219.241 139.739
L210.794 158.237
L213.688 178.365
L227.005 193.734
z
" style="fill:#af0a0a;stroke:#000000;stroke-width:0.25;"/>
   </g>
   <g id="patch_153">
    <path clip-path="url(#pcfd58d5018)" d="
M317.963 199.463
L337.475 193.734
L350.792 178.365
L353.686 158.237
L345.239 139.739
L328.131 128.744
L307.795 128.744
L290.688 139.739
L282.24 158.237
L285.134 178.365
L298.451 193.734
z
" style="fill:#af0a0a;stroke:#000000;stroke-width:0.25;"/>
   </g>
   <g id="patch_154">
    <path clip-path="url(#pcfd58d5018)" d="
M378.068 238.09
L397.58 232.361
L410.897 216.992
L413.791 196.863
L405.343 178.365
L388.235 167.371
L367.9 167.371
L350.792 178.365
L342.344 196.863
L345.239 216.992
L358.556 232.361
z
" style="fill:#af0a0a;stroke:#000000;stroke-width:0.25;"/>
   </g>
   <g id="patch_155">
    <path clip-path="url(#pcfd58d5018)" d="
M407.747 303.08
L427.259 297.351
L440.577 281.982
L443.471 261.853
L435.023 243.355
L417.915 232.361
L397.58 232.361
L380.472 243.355
L372.024 261.853
L374.918 281.982
L388.235 297.351
z
" style="fill:#af0a0a;stroke:#000000;stroke-width:0.25;"/>
   </g>
   <g id="patch_156">
    <path clip-path="url(#pcfd58d5018)" d="
M397.58 373.799
L417.092 368.07
L430.409 352.701
L433.303 332.572
L424.855 314.074
L407.747 303.08
L387.412 303.08
L370.304 314.074
L361.856 332.572
L364.751 352.701
L378.068 368.07
z
" style="fill:#af0a0a;stroke:#000000;stroke-width:0.25;"/>
   </g>
   <g id="patch_157">
    <path clip-path="url(#pcfd58d5018)" d="
M350.792 427.795
L370.304 422.065
L383.621 406.697
L386.515 386.568
L378.068 368.07
L360.96 357.075
L340.624 357.075
L323.517 368.07
L315.069 386.568
L317.963 406.697
L331.28 422.065
z
" style="fill:#af0a0a;stroke:#000000;stroke-width:0.25;"/>
   </g>
   <g id="patch_158">
    <path clip-path="url(#pcfd58d5018)" d="
M282.24 188.974
L230.306 204.223
L194.86 245.13
L187.157 298.706
L209.642 347.941
L255.177 377.204
L309.303 377.204
L354.838 347.941
L377.323 298.706
L369.62 245.13
L334.174 204.223
z
" style="fill:#af0a0a;stroke:#000000;stroke-width:0.25;"/>
   </g>
   <g id="matplotlib.axis_1"/>
   <g id="matplotlib.axis_2"/>
  </g>
 </g>
 <defs>
  <clipPath id="pcfd58d5018">
   <rect height="544.48097875" width="550.08" x="7.2" y="7.2"/>
  </clipPath>
 </defs>
</svg>
