<?xml version="1.0" encoding="utf-8" standalone="no"?>
<!DOCTYPE svg PUBLIC "-//W3C//DTD SVG 1.1//EN"
  "http://www.w3.org/Graphics/SVG/1.1/DTD/svg11.dtd">
<!-- Created with matplotlib (http://matplotlib.org/) -->
<svg height="558pt" version="1.1" viewBox="0 0 564 558" width="564pt" xmlns="http://www.w3.org/2000/svg" xmlns:xlink="http://www.w3.org/1999/xlink">
 <defs>
  <style type="text/css">
*{stroke-linecap:butt;stroke-linejoin:round;}
  </style>
 </defs>
 <g id="figure_1">
  <g id="patch_1">
   <path d="
M0 558.881
L564.48 558.881
L564.48 0
L0 0
z
" style="fill:none;"/>
  </g>
  <g id="axes_1">
   <g id="patch_2">
    <path clip-path="url(#pdf9764b5ca)" d="
M282.24 8.2857
L132.612 52.2204
L30.4901 170.076
L8.29687 324.433
L73.0786 466.285
L204.268 550.595
L360.212 550.595
L491.401 466.285
L556.183 324.433
L533.99 170.076
L431.868 52.2204
z
" style="fill:#bcd4e6;stroke:#000000;stroke-width:0.25;"/>
   </g>
   <g id="patch_3">
    <path clip-path="url(#pdf9764b5ca)" d="
M282.24 8.2857
L249.088 18.0201
L226.461 44.1328
L221.544 78.333
L235.897 109.763
L264.964 128.443
L299.516 128.443
L328.583 109.763
L342.936 78.333
L338.019 44.1328
L315.392 18.0201
z
" style="fill:#eae2ac;stroke:#000000;stroke-width:0.25;"/>
   </g>
   <g id="patch_4">
    <path clip-path="url(#pdf9764b5ca)" d="
M398.715 42.486
L365.563 52.2204
L342.936 78.333
L338.019 112.533
L352.373 143.963
L381.439 162.643
L415.991 162.643
L445.058 143.963
L459.412 112.533
L454.495 78.333
L431.868 52.2204
z
" style="fill:#eae2ac;stroke:#000000;stroke-width:0.25;"/>
   </g>
   <g id="patch_5">
    <path clip-path="url(#pdf9764b5ca)" d="
M478.211 134.228
L445.058 143.963
L422.432 170.076
L417.514 204.276
L431.868 235.705
L460.935 254.386
L495.487 254.386
L524.554 235.705
L538.907 204.276
L533.99 170.076
L511.363 143.963
z
" style="fill:#eae2ac;stroke:#000000;stroke-width:0.25;"/>
   </g>
   <g id="patch_6">
    <path clip-path="url(#pdf9764b5ca)" d="
M495.487 254.386
L462.334 264.12
L439.708 290.233
L434.79 324.433
L449.144 355.863
L478.211 374.543
L512.763 374.543
L541.83 355.863
L556.183 324.433
L551.266 290.233
L528.639 264.12
z
" style="fill:#eae2ac;stroke:#000000;stroke-width:0.25;"/>
   </g>
   <g id="patch_7">
    <path clip-path="url(#pdf9764b5ca)" d="
M445.058 364.808
L411.906 374.543
L389.279 400.655
L384.362 434.856
L398.715 466.285
L427.782 484.965
L462.334 484.965
L491.401 466.285
L505.755 434.856
L500.838 400.655
L478.211 374.543
z
" style="fill:#eae2ac;stroke:#000000;stroke-width:0.25;"/>
   </g>
   <g id="patch_8">
    <path clip-path="url(#pdf9764b5ca)" d="
M342.936 430.438
L309.784 440.173
L287.157 466.285
L282.24 500.485
L296.593 531.915
L325.66 550.595
L360.212 550.595
L389.279 531.915
L403.633 500.485
L398.715 466.285
L376.089 440.173
z
" style="fill:#eae2ac;stroke:#000000;stroke-width:0.25;"/>
   </g>
   <g id="patch_9">
    <path clip-path="url(#pdf9764b5ca)" d="
M221.544 430.438
L188.391 440.173
L165.765 466.285
L160.847 500.485
L175.201 531.915
L204.268 550.595
L238.82 550.595
L267.887 531.915
L282.24 500.485
L277.323 466.285
L254.696 440.173
z
" style="fill:#eae2ac;stroke:#000000;stroke-width:0.25;"/>
   </g>
   <g id="patch_10">
    <path clip-path="url(#pdf9764b5ca)" d="
M119.422 364.808
L86.2692 374.543
L63.6425 400.655
L58.7252 434.856
L73.0786 466.285
L102.146 484.965
L136.698 484.965
L165.765 466.285
L180.118 434.856
L175.201 400.655
L152.574 374.543
z
" style="fill:#eae2ac;stroke:#000000;stroke-width:0.25;"/>
   </g>
   <g id="patch_11">
    <path clip-path="url(#pdf9764b5ca)" d="
M68.9932 254.386
L35.8409 264.12
L13.2141 290.233
L8.29687 324.433
L22.6503 355.863
L51.7172 374.543
L86.2692 374.543
L115.336 355.863
L129.69 324.433
L124.772 290.233
L102.146 264.12
z
" style="fill:#eae2ac;stroke:#000000;stroke-width:0.25;"/>
   </g>
   <g id="patch_12">
    <path clip-path="url(#pdf9764b5ca)" d="
M86.2692 134.228
L53.1168 143.963
L30.4901 170.076
L25.5729 204.276
L39.9263 235.705
L68.9932 254.386
L103.545 254.386
L132.612 235.705
L146.966 204.276
L142.048 170.076
L119.422 143.963
z
" style="fill:#eae2ac;stroke:#000000;stroke-width:0.25;"/>
   </g>
   <g id="patch_13">
    <path clip-path="url(#pdf9764b5ca)" d="
M165.765 42.486
L132.612 52.2204
L109.985 78.333
L105.068 112.533
L119.422 143.963
L148.489 162.643
L183.041 162.643
L212.107 143.963
L226.461 112.533
L221.544 78.333
L198.917 52.2204
z
" style="fill:#eae2ac;stroke:#000000;stroke-width:0.25;"/>
   </g>
   <g id="patch_14">
    <path clip-path="url(#pdf9764b5ca)" d="
M282.24 448.26
L370.48 422.351
L430.705 352.848
L443.793 261.818
L405.589 178.163
L328.223 128.443
L236.257 128.443
L158.891 178.163
L120.687 261.818
L133.775 352.848
L194 422.351
z
" style="fill:#eae2ac;stroke:#000000;stroke-width:0.25;"/>
   </g>
   <g id="matplotlib.axis_1"/>
   <g id="matplotlib.axis_2"/>
  </g>
 </g>
 <defs>
  <clipPath id="pdf9764b5ca">
   <rect height="544.48097875" width="550.08" x="7.2" y="7.2"/>
  </clipPath>
 </defs>
</svg>
