<?xml version="1.0" encoding="utf-8" standalone="no"?>
<!DOCTYPE svg PUBLIC "-//W3C//DTD SVG 1.1//EN"
  "http://www.w3.org/Graphics/SVG/1.1/DTD/svg11.dtd">
<!-- Created with matplotlib (http://matplotlib.org/) -->
<svg height="550pt" version="1.1" viewBox="0 0 564 550" width="564pt" xmlns="http://www.w3.org/2000/svg" xmlns:xlink="http://www.w3.org/1999/xlink">
 <defs>
  <style type="text/css">
*{stroke-linecap:butt;stroke-linejoin:round;}
  </style>
 </defs>
 <g id="figure_1">
  <g id="patch_1">
   <path d="
M0 550.688
L564.48 550.688
L564.48 0
L0 0
z
" style="fill:none;"/>
  </g>
  <g id="axes_1">
   <g id="patch_2">
    <path clip-path="url(#pc813c8d37d)" d="
M282.24 8.26937
L62.5547 114.064
L8.29687 351.783
L160.324 542.419
L404.156 542.419
L556.183 351.783
L501.925 114.064
z
" style="fill:#bcd4e6;stroke:#000000;stroke-width:0.25;"/>
   </g>
   <g id="patch_3">
    <path clip-path="url(#pc813c8d37d)" d="
M282.24 8.26937
L214.582 40.8519
L197.871 114.064
L244.692 172.776
L319.788 172.776
L366.609 114.064
L349.898 40.8519
z
" style="fill:#eae2ac;stroke:#000000;stroke-width:0.25;"/>
   </g>
   <g id="patch_4">
    <path clip-path="url(#pc813c8d37d)" d="
M434.267 81.4817
L366.609 114.064
L349.898 187.277
L396.719 245.988
L471.815 245.988
L518.636 187.277
L501.925 114.064
z
" style="fill:#eae2ac;stroke:#000000;stroke-width:0.25;"/>
   </g>
   <g id="patch_5">
    <path clip-path="url(#pc813c8d37d)" d="
M471.815 245.988
L404.156 278.571
L387.446 351.783
L434.267 410.495
L509.362 410.495
L556.183 351.783
L539.473 278.571
z
" style="fill:#eae2ac;stroke:#000000;stroke-width:0.25;"/>
   </g>
   <g id="patch_6">
    <path clip-path="url(#pc813c8d37d)" d="
M366.609 377.912
L298.95 410.495
L282.24 483.707
L329.061 542.419
L404.156 542.419
L450.977 483.707
L434.267 410.495
z
" style="fill:#eae2ac;stroke:#000000;stroke-width:0.25;"/>
   </g>
   <g id="patch_7">
    <path clip-path="url(#pc813c8d37d)" d="
M197.871 377.912
L130.213 410.495
L113.503 483.707
L160.324 542.419
L235.419 542.419
L282.24 483.707
L265.53 410.495
z
" style="fill:#eae2ac;stroke:#000000;stroke-width:0.25;"/>
   </g>
   <g id="patch_8">
    <path clip-path="url(#pc813c8d37d)" d="
M92.6655 245.988
L25.0071 278.571
L8.29687 351.783
L55.1179 410.495
L130.213 410.495
L177.034 351.783
L160.324 278.571
z
" style="fill:#eae2ac;stroke:#000000;stroke-width:0.25;"/>
   </g>
   <g id="patch_9">
    <path clip-path="url(#pc813c8d37d)" d="
M130.213 81.4817
L62.5547 114.064
L45.8444 187.277
L92.6655 245.988
L167.761 245.988
L214.582 187.277
L197.871 114.064
z
" style="fill:#eae2ac;stroke:#000000;stroke-width:0.25;"/>
   </g>
   <g id="patch_10">
    <path clip-path="url(#pc813c8d37d)" d="
M282.24 418.542
L383.319 369.865
L408.283 260.489
L338.335 172.776
L226.145 172.776
L156.197 260.489
L181.161 369.865
z
" style="fill:#eae2ac;stroke:#000000;stroke-width:0.25;"/>
   </g>
   <g id="matplotlib.axis_1"/>
   <g id="matplotlib.axis_2"/>
  </g>
 </g>
 <defs>
  <clipPath id="pc813c8d37d">
   <rect height="536.288345933" width="550.08" x="7.2" y="7.2"/>
  </clipPath>
 </defs>
</svg>
