<?xml version="1.0" encoding="utf-8" standalone="no"?>
<!DOCTYPE svg PUBLIC "-//W3C//DTD SVG 1.1//EN"
  "http://www.w3.org/Graphics/SVG/1.1/DTD/svg11.dtd">
<!-- Created with matplotlib (http://matplotlib.org/) -->
<svg height="556pt" version="1.1" viewBox="0 0 564 556" width="564pt" xmlns="http://www.w3.org/2000/svg" xmlns:xlink="http://www.w3.org/1999/xlink">
 <defs>
  <style type="text/css">
*{stroke-linecap:butt;stroke-linejoin:round;}
  </style>
 </defs>
 <g id="figure_1">
  <g id="patch_1">
   <path d="
M0 556.123
L564.48 556.123
L564.48 0
L0 0
z
" style="fill:none;"/>
  </g>
  <g id="axes_1">
   <g id="patch_2">
    <path clip-path="url(#pfcc5eb3d25)" d="
M282.24 8.81869
L103.793 73.768
L8.84366 238.225
L41.8193 425.24
L187.29 547.304
L377.19 547.304
L522.661 425.24
L555.636 238.225
L460.687 73.768
z
" style="fill:#bcd4e6;stroke:#000000;stroke-width:0.25;"/>
   </g>
   <g id="patch_3">
    <path clip-path="url(#pfcc5eb3d25)" d="
M282.24 8.81869
L236.241 25.5609
L211.766 67.9535
L220.266 116.161
L257.765 147.626
L306.715 147.626
L344.214 116.161
L352.714 67.9535
L328.239 25.5609
z
" style="fill:#eae2ac;stroke:#000000;stroke-width:0.25;"/>
   </g>
   <g id="patch_4">
    <path clip-path="url(#pfcc5eb3d25)" d="
M414.688 57.0258
L368.689 73.768
L344.214 116.161
L352.714 164.368
L390.213 195.833
L439.163 195.833
L476.662 164.368
L485.162 116.161
L460.687 73.768
z
" style="fill:#eae2ac;stroke:#000000;stroke-width:0.25;"/>
   </g>
   <g id="patch_5">
    <path clip-path="url(#pfcc5eb3d25)" d="
M485.162 179.091
L439.163 195.833
L414.688 238.225
L423.188 286.433
L460.687 317.898
L509.638 317.898
L547.136 286.433
L555.636 238.225
L531.161 195.833
z
" style="fill:#eae2ac;stroke:#000000;stroke-width:0.25;"/>
   </g>
   <g id="patch_6">
    <path clip-path="url(#pfcc5eb3d25)" d="
M460.687 317.898
L414.688 334.64
L390.213 377.032
L398.713 425.24
L436.211 456.705
L485.162 456.705
L522.661 425.24
L531.161 377.032
L506.686 334.64
z
" style="fill:#eae2ac;stroke:#000000;stroke-width:0.25;"/>
   </g>
   <g id="patch_7">
    <path clip-path="url(#pfcc5eb3d25)" d="
M352.714 408.497
L306.715 425.24
L282.24 467.632
L290.74 515.839
L328.239 547.304
L377.19 547.304
L414.688 515.839
L423.188 467.632
L398.713 425.24
z
" style="fill:#eae2ac;stroke:#000000;stroke-width:0.25;"/>
   </g>
   <g id="patch_8">
    <path clip-path="url(#pfcc5eb3d25)" d="
M211.766 408.497
L165.767 425.24
L141.292 467.632
L149.792 515.839
L187.29 547.304
L236.241 547.304
L273.74 515.839
L282.24 467.632
L257.765 425.24
z
" style="fill:#eae2ac;stroke:#000000;stroke-width:0.25;"/>
   </g>
   <g id="patch_9">
    <path clip-path="url(#pfcc5eb3d25)" d="
M103.793 317.898
L57.7945 334.64
L33.3191 377.032
L41.8193 425.24
L79.3178 456.705
L128.269 456.705
L165.767 425.24
L174.267 377.032
L149.792 334.64
z
" style="fill:#eae2ac;stroke:#000000;stroke-width:0.25;"/>
   </g>
   <g id="patch_10">
    <path clip-path="url(#pfcc5eb3d25)" d="
M79.3178 179.091
L33.3191 195.833
L8.84366 238.225
L17.3439 286.433
L54.8424 317.898
L103.793 317.898
L141.292 286.433
L149.792 238.225
L125.317 195.833
z
" style="fill:#eae2ac;stroke:#000000;stroke-width:0.25;"/>
   </g>
   <g id="patch_11">
    <path clip-path="url(#pfcc5eb3d25)" d="
M149.792 57.0258
L103.793 73.768
L79.3178 116.161
L87.818 164.368
L125.317 195.833
L174.267 195.833
L211.766 164.368
L220.266 116.161
L195.791 73.768
z
" style="fill:#eae2ac;stroke:#000000;stroke-width:0.25;"/>
   </g>
   <g id="patch_12">
    <path clip-path="url(#pfcc5eb3d25)" d="
M282.24 434.148
L377.19 399.589
L427.711 312.083
L410.165 212.575
L332.762 147.626
L231.718 147.626
L154.315 212.575
L136.769 312.083
L187.29 399.589
z
" style="fill:#eae2ac;stroke:#000000;stroke-width:0.25;"/>
   </g>
   <g id="patch_13">
    <path clip-path="url(#pfcc5eb3d25)" d="
M282.24 8.81869
L270.383 13.1344
L264.074 24.062
L266.265 36.4885
L275.931 44.5993
L288.549 44.5993
L298.215 36.4885
L300.406 24.062
L294.097 13.1344
z
" style="fill:#af0a0a;stroke:#000000;stroke-width:0.25;"/>
   </g>
   <g id="patch_14">
    <path clip-path="url(#pfcc5eb3d25)" d="
M316.382 21.2452
L304.524 25.5609
L298.215 36.4885
L300.406 48.915
L310.072 57.0258
L322.691 57.0258
L332.357 48.915
L334.548 36.4885
L328.239 25.5609
z
" style="fill:#af0a0a;stroke:#000000;stroke-width:0.25;"/>
   </g>
   <g id="patch_15">
    <path clip-path="url(#pfcc5eb3d25)" d="
M334.548 52.7102
L322.691 57.0258
L316.382 67.9535
L318.573 80.38
L328.239 88.4908
L340.857 88.4908
L350.523 80.38
L352.714 67.9535
L346.405 57.0258
z
" style="fill:#af0a0a;stroke:#000000;stroke-width:0.25;"/>
   </g>
   <g id="patch_16">
    <path clip-path="url(#pfcc5eb3d25)" d="
M328.239 88.4908
L316.382 92.8065
L310.072 103.734
L312.264 116.161
L321.93 124.271
L334.548 124.271
L344.214 116.161
L346.405 103.734
L340.096 92.8065
z
" style="fill:#af0a0a;stroke:#000000;stroke-width:0.25;"/>
   </g>
   <g id="patch_17">
    <path clip-path="url(#pfcc5eb3d25)" d="
M300.406 111.845
L288.549 116.161
L282.24 127.088
L284.431 139.515
L294.097 147.626
L306.715 147.626
L316.382 139.515
L318.573 127.088
L312.264 116.161
z
" style="fill:#af0a0a;stroke:#000000;stroke-width:0.25;"/>
   </g>
   <g id="patch_18">
    <path clip-path="url(#pfcc5eb3d25)" d="
M264.074 111.845
L252.216 116.161
L245.907 127.088
L248.098 139.515
L257.765 147.626
L270.383 147.626
L280.049 139.515
L282.24 127.088
L275.931 116.161
z
" style="fill:#af0a0a;stroke:#000000;stroke-width:0.25;"/>
   </g>
   <g id="patch_19">
    <path clip-path="url(#pfcc5eb3d25)" d="
M236.241 88.4908
L224.384 92.8065
L218.075 103.734
L220.266 116.161
L229.932 124.271
L242.55 124.271
L252.216 116.161
L254.408 103.734
L248.098 92.8065
z
" style="fill:#af0a0a;stroke:#000000;stroke-width:0.25;"/>
   </g>
   <g id="patch_20">
    <path clip-path="url(#pfcc5eb3d25)" d="
M229.932 52.7102
L218.075 57.0258
L211.766 67.9535
L213.957 80.38
L223.623 88.4908
L236.241 88.4908
L245.907 80.38
L248.098 67.9535
L241.789 57.0258
z
" style="fill:#af0a0a;stroke:#000000;stroke-width:0.25;"/>
   </g>
   <g id="patch_21">
    <path clip-path="url(#pfcc5eb3d25)" d="
M248.098 21.2452
L236.241 25.5609
L229.932 36.4885
L232.123 48.915
L241.789 57.0258
L254.408 57.0258
L264.074 48.915
L266.265 36.4885
L259.956 25.5609
z
" style="fill:#af0a0a;stroke:#000000;stroke-width:0.25;"/>
   </g>
   <g id="patch_22">
    <path clip-path="url(#pfcc5eb3d25)" d="
M282.24 118.457
L306.715 109.549
L319.739 86.992
L315.216 61.3415
L295.263 44.5993
L269.217 44.5993
L249.264 61.3415
L244.741 86.992
L257.765 109.549
z
" style="fill:#af0a0a;stroke:#000000;stroke-width:0.25;"/>
   </g>
   <g id="patch_23">
    <path clip-path="url(#pfcc5eb3d25)" d="
M414.688 57.0258
L402.831 61.3415
L396.522 72.2692
L398.713 84.6957
L408.379 92.8065
L420.997 92.8065
L430.663 84.6957
L432.854 72.2692
L426.545 61.3415
z
" style="fill:#af0a0a;stroke:#000000;stroke-width:0.25;"/>
   </g>
   <g id="patch_24">
    <path clip-path="url(#pfcc5eb3d25)" d="
M448.83 69.4523
L436.972 73.768
L430.663 84.6957
L432.854 97.1222
L442.52 105.233
L455.139 105.233
L464.805 97.1222
L466.996 84.6957
L460.687 73.768
z
" style="fill:#af0a0a;stroke:#000000;stroke-width:0.25;"/>
   </g>
   <g id="patch_25">
    <path clip-path="url(#pfcc5eb3d25)" d="
M466.996 100.917
L455.139 105.233
L448.83 116.161
L451.021 128.587
L460.687 136.698
L473.305 136.698
L482.971 128.587
L485.162 116.161
L478.853 105.233
z
" style="fill:#af0a0a;stroke:#000000;stroke-width:0.25;"/>
   </g>
   <g id="patch_26">
    <path clip-path="url(#pfcc5eb3d25)" d="
M460.687 136.698
L448.83 141.014
L442.52 151.941
L444.712 164.368
L454.378 172.479
L466.996 172.479
L476.662 164.368
L478.853 151.941
L472.544 141.014
z
" style="fill:#af0a0a;stroke:#000000;stroke-width:0.25;"/>
   </g>
   <g id="patch_27">
    <path clip-path="url(#pfcc5eb3d25)" d="
M432.854 160.052
L420.997 164.368
L414.688 175.295
L416.879 187.722
L426.545 195.833
L439.163 195.833
L448.83 187.722
L451.021 175.295
L444.712 164.368
z
" style="fill:#af0a0a;stroke:#000000;stroke-width:0.25;"/>
   </g>
   <g id="patch_28">
    <path clip-path="url(#pfcc5eb3d25)" d="
M396.522 160.052
L384.665 164.368
L378.355 175.295
L380.547 187.722
L390.213 195.833
L402.831 195.833
L412.497 187.722
L414.688 175.295
L408.379 164.368
z
" style="fill:#af0a0a;stroke:#000000;stroke-width:0.25;"/>
   </g>
   <g id="patch_29">
    <path clip-path="url(#pfcc5eb3d25)" d="
M368.689 136.698
L356.832 141.014
L350.523 151.941
L352.714 164.368
L362.38 172.479
L374.998 172.479
L384.665 164.368
L386.856 151.941
L380.547 141.014
z
" style="fill:#af0a0a;stroke:#000000;stroke-width:0.25;"/>
   </g>
   <g id="patch_30">
    <path clip-path="url(#pfcc5eb3d25)" d="
M362.38 100.917
L350.523 105.233
L344.214 116.161
L346.405 128.587
L356.071 136.698
L368.689 136.698
L378.355 128.587
L380.547 116.161
L374.237 105.233
z
" style="fill:#af0a0a;stroke:#000000;stroke-width:0.25;"/>
   </g>
   <g id="patch_31">
    <path clip-path="url(#pfcc5eb3d25)" d="
M380.547 69.4523
L368.689 73.768
L362.38 84.6957
L364.571 97.1222
L374.237 105.233
L386.856 105.233
L396.522 97.1222
L398.713 84.6957
L392.404 73.768
z
" style="fill:#af0a0a;stroke:#000000;stroke-width:0.25;"/>
   </g>
   <g id="patch_32">
    <path clip-path="url(#pfcc5eb3d25)" d="
M414.688 166.664
L439.163 157.756
L452.187 135.199
L447.664 109.549
L427.711 92.8065
L401.665 92.8065
L381.712 109.549
L377.19 135.199
L390.213 157.756
z
" style="fill:#af0a0a;stroke:#000000;stroke-width:0.25;"/>
   </g>
   <g id="patch_33">
    <path clip-path="url(#pfcc5eb3d25)" d="
M485.162 179.091
L473.305 183.406
L466.996 194.334
L469.187 206.76
L478.853 214.871
L491.471 214.871
L501.137 206.76
L503.329 194.334
L497.019 183.406
z
" style="fill:#af0a0a;stroke:#000000;stroke-width:0.25;"/>
   </g>
   <g id="patch_34">
    <path clip-path="url(#pfcc5eb3d25)" d="
M519.304 191.517
L507.446 195.833
L501.137 206.76
L503.329 219.187
L512.995 227.298
L525.613 227.298
L535.279 219.187
L537.47 206.76
L531.161 195.833
z
" style="fill:#af0a0a;stroke:#000000;stroke-width:0.25;"/>
   </g>
   <g id="patch_35">
    <path clip-path="url(#pfcc5eb3d25)" d="
M537.47 222.982
L525.613 227.298
L519.304 238.225
L521.495 250.652
L531.161 258.763
L543.779 258.763
L553.445 250.652
L555.636 238.225
L549.327 227.298
z
" style="fill:#af0a0a;stroke:#000000;stroke-width:0.25;"/>
   </g>
   <g id="patch_36">
    <path clip-path="url(#pfcc5eb3d25)" d="
M531.161 258.763
L519.304 263.078
L512.995 274.006
L515.186 286.433
L524.852 294.543
L537.47 294.543
L547.136 286.433
L549.327 274.006
L543.018 263.078
z
" style="fill:#af0a0a;stroke:#000000;stroke-width:0.25;"/>
   </g>
   <g id="patch_37">
    <path clip-path="url(#pfcc5eb3d25)" d="
M503.329 282.117
L491.471 286.433
L485.162 297.36
L487.353 309.787
L497.019 317.898
L509.638 317.898
L519.304 309.787
L521.495 297.36
L515.186 286.433
z
" style="fill:#af0a0a;stroke:#000000;stroke-width:0.25;"/>
   </g>
   <g id="patch_38">
    <path clip-path="url(#pfcc5eb3d25)" d="
M466.996 282.117
L455.139 286.433
L448.83 297.36
L451.021 309.787
L460.687 317.898
L473.305 317.898
L482.971 309.787
L485.162 297.36
L478.853 286.433
z
" style="fill:#af0a0a;stroke:#000000;stroke-width:0.25;"/>
   </g>
   <g id="patch_39">
    <path clip-path="url(#pfcc5eb3d25)" d="
M439.163 258.763
L427.306 263.078
L420.997 274.006
L423.188 286.433
L432.854 294.543
L445.473 294.543
L455.139 286.433
L457.33 274.006
L451.021 263.078
z
" style="fill:#af0a0a;stroke:#000000;stroke-width:0.25;"/>
   </g>
   <g id="patch_40">
    <path clip-path="url(#pfcc5eb3d25)" d="
M432.854 222.982
L420.997 227.298
L414.688 238.225
L416.879 250.652
L426.545 258.763
L439.163 258.763
L448.83 250.652
L451.021 238.225
L444.712 227.298
z
" style="fill:#af0a0a;stroke:#000000;stroke-width:0.25;"/>
   </g>
   <g id="patch_41">
    <path clip-path="url(#pfcc5eb3d25)" d="
M451.021 191.517
L439.163 195.833
L432.854 206.76
L435.046 219.187
L444.712 227.298
L457.33 227.298
L466.996 219.187
L469.187 206.76
L462.878 195.833
z
" style="fill:#af0a0a;stroke:#000000;stroke-width:0.25;"/>
   </g>
   <g id="patch_42">
    <path clip-path="url(#pfcc5eb3d25)" d="
M485.162 288.729
L509.638 279.821
L522.661 257.264
L518.138 231.613
L498.185 214.871
L472.139 214.871
L452.187 231.613
L447.664 257.264
L460.687 279.821
z
" style="fill:#af0a0a;stroke:#000000;stroke-width:0.25;"/>
   </g>
   <g id="patch_43">
    <path clip-path="url(#pfcc5eb3d25)" d="
M460.687 317.898
L448.83 322.213
L442.52 333.141
L444.712 345.567
L454.378 353.678
L466.996 353.678
L476.662 345.567
L478.853 333.141
L472.544 322.213
z
" style="fill:#af0a0a;stroke:#000000;stroke-width:0.25;"/>
   </g>
   <g id="patch_44">
    <path clip-path="url(#pfcc5eb3d25)" d="
M494.828 330.324
L482.971 334.64
L476.662 345.567
L478.853 357.994
L488.519 366.105
L501.137 366.105
L510.803 357.994
L512.995 345.567
L506.686 334.64
z
" style="fill:#af0a0a;stroke:#000000;stroke-width:0.25;"/>
   </g>
   <g id="patch_45">
    <path clip-path="url(#pfcc5eb3d25)" d="
M512.995 361.789
L501.137 366.105
L494.828 377.032
L497.019 389.459
L506.686 397.57
L519.304 397.57
L528.97 389.459
L531.161 377.032
L524.852 366.105
z
" style="fill:#af0a0a;stroke:#000000;stroke-width:0.25;"/>
   </g>
   <g id="patch_46">
    <path clip-path="url(#pfcc5eb3d25)" d="
M506.686 397.57
L494.828 401.885
L488.519 412.813
L490.71 425.24
L500.376 433.35
L512.995 433.35
L522.661 425.24
L524.852 412.813
L518.543 401.885
z
" style="fill:#af0a0a;stroke:#000000;stroke-width:0.25;"/>
   </g>
   <g id="patch_47">
    <path clip-path="url(#pfcc5eb3d25)" d="
M478.853 420.924
L466.996 425.24
L460.687 436.167
L462.878 448.594
L472.544 456.705
L485.162 456.705
L494.828 448.594
L497.019 436.167
L490.71 425.24
z
" style="fill:#af0a0a;stroke:#000000;stroke-width:0.25;"/>
   </g>
   <g id="patch_48">
    <path clip-path="url(#pfcc5eb3d25)" d="
M442.52 420.924
L430.663 425.24
L424.354 436.167
L426.545 448.594
L436.211 456.705
L448.83 456.705
L458.496 448.594
L460.687 436.167
L454.378 425.24
z
" style="fill:#af0a0a;stroke:#000000;stroke-width:0.25;"/>
   </g>
   <g id="patch_49">
    <path clip-path="url(#pfcc5eb3d25)" d="
M414.688 397.57
L402.831 401.885
L396.522 412.813
L398.713 425.24
L408.379 433.35
L420.997 433.35
L430.663 425.24
L432.854 412.813
L426.545 401.885
z
" style="fill:#af0a0a;stroke:#000000;stroke-width:0.25;"/>
   </g>
   <g id="patch_50">
    <path clip-path="url(#pfcc5eb3d25)" d="
M408.379 361.789
L396.522 366.105
L390.213 377.032
L392.404 389.459
L402.07 397.57
L414.688 397.57
L424.354 389.459
L426.545 377.032
L420.236 366.105
z
" style="fill:#af0a0a;stroke:#000000;stroke-width:0.25;"/>
   </g>
   <g id="patch_51">
    <path clip-path="url(#pfcc5eb3d25)" d="
M426.545 330.324
L414.688 334.64
L408.379 345.567
L410.57 357.994
L420.236 366.105
L432.854 366.105
L442.52 357.994
L444.712 345.567
L438.403 334.64
z
" style="fill:#af0a0a;stroke:#000000;stroke-width:0.25;"/>
   </g>
   <g id="patch_52">
    <path clip-path="url(#pfcc5eb3d25)" d="
M460.687 427.536
L485.162 418.628
L498.185 396.071
L493.662 370.42
L473.71 353.678
L447.664 353.678
L427.711 370.42
L423.188 396.071
L436.211 418.628
z
" style="fill:#af0a0a;stroke:#000000;stroke-width:0.25;"/>
   </g>
   <g id="patch_53">
    <path clip-path="url(#pfcc5eb3d25)" d="
M352.714 408.497
L340.857 412.813
L334.548 423.741
L336.739 436.167
L346.405 444.278
L359.023 444.278
L368.689 436.167
L370.88 423.741
L364.571 412.813
z
" style="fill:#af0a0a;stroke:#000000;stroke-width:0.25;"/>
   </g>
   <g id="patch_54">
    <path clip-path="url(#pfcc5eb3d25)" d="
M386.856 420.924
L374.998 425.24
L368.689 436.167
L370.88 448.594
L380.547 456.705
L393.165 456.705
L402.831 448.594
L405.022 436.167
L398.713 425.24
z
" style="fill:#af0a0a;stroke:#000000;stroke-width:0.25;"/>
   </g>
   <g id="patch_55">
    <path clip-path="url(#pfcc5eb3d25)" d="
M405.022 452.389
L393.165 456.705
L386.856 467.632
L389.047 480.059
L398.713 488.17
L411.331 488.17
L420.997 480.059
L423.188 467.632
L416.879 456.705
z
" style="fill:#af0a0a;stroke:#000000;stroke-width:0.25;"/>
   </g>
   <g id="patch_56">
    <path clip-path="url(#pfcc5eb3d25)" d="
M398.713 488.17
L386.856 492.485
L380.547 503.413
L382.738 515.839
L392.404 523.95
L405.022 523.95
L414.688 515.839
L416.879 503.413
L410.57 492.485
z
" style="fill:#af0a0a;stroke:#000000;stroke-width:0.25;"/>
   </g>
   <g id="patch_57">
    <path clip-path="url(#pfcc5eb3d25)" d="
M370.88 511.524
L359.023 515.839
L352.714 526.767
L354.905 539.194
L364.571 547.304
L377.19 547.304
L386.856 539.194
L389.047 526.767
L382.738 515.839
z
" style="fill:#af0a0a;stroke:#000000;stroke-width:0.25;"/>
   </g>
   <g id="patch_58">
    <path clip-path="url(#pfcc5eb3d25)" d="
M334.548 511.524
L322.691 515.839
L316.382 526.767
L318.573 539.194
L328.239 547.304
L340.857 547.304
L350.523 539.194
L352.714 526.767
L346.405 515.839
z
" style="fill:#af0a0a;stroke:#000000;stroke-width:0.25;"/>
   </g>
   <g id="patch_59">
    <path clip-path="url(#pfcc5eb3d25)" d="
M306.715 488.17
L294.858 492.485
L288.549 503.413
L290.74 515.839
L300.406 523.95
L313.025 523.95
L322.691 515.839
L324.882 503.413
L318.573 492.485
z
" style="fill:#af0a0a;stroke:#000000;stroke-width:0.25;"/>
   </g>
   <g id="patch_60">
    <path clip-path="url(#pfcc5eb3d25)" d="
M300.406 452.389
L288.549 456.705
L282.24 467.632
L284.431 480.059
L294.097 488.17
L306.715 488.17
L316.382 480.059
L318.573 467.632
L312.264 456.705
z
" style="fill:#af0a0a;stroke:#000000;stroke-width:0.25;"/>
   </g>
   <g id="patch_61">
    <path clip-path="url(#pfcc5eb3d25)" d="
M318.573 420.924
L306.715 425.24
L300.406 436.167
L302.597 448.594
L312.264 456.705
L324.882 456.705
L334.548 448.594
L336.739 436.167
L330.43 425.24
z
" style="fill:#af0a0a;stroke:#000000;stroke-width:0.25;"/>
   </g>
   <g id="patch_62">
    <path clip-path="url(#pfcc5eb3d25)" d="
M352.714 518.136
L377.19 509.227
L390.213 486.671
L385.69 461.02
L365.737 444.278
L339.691 444.278
L319.739 461.02
L315.216 486.671
L328.239 509.227
z
" style="fill:#af0a0a;stroke:#000000;stroke-width:0.25;"/>
   </g>
   <g id="patch_63">
    <path clip-path="url(#pfcc5eb3d25)" d="
M211.766 408.497
L199.909 412.813
L193.6 423.741
L195.791 436.167
L205.457 444.278
L218.075 444.278
L227.741 436.167
L229.932 423.741
L223.623 412.813
z
" style="fill:#af0a0a;stroke:#000000;stroke-width:0.25;"/>
   </g>
   <g id="patch_64">
    <path clip-path="url(#pfcc5eb3d25)" d="
M245.907 420.924
L234.05 425.24
L227.741 436.167
L229.932 448.594
L239.598 456.705
L252.216 456.705
L261.883 448.594
L264.074 436.167
L257.765 425.24
z
" style="fill:#af0a0a;stroke:#000000;stroke-width:0.25;"/>
   </g>
   <g id="patch_65">
    <path clip-path="url(#pfcc5eb3d25)" d="
M264.074 452.389
L252.216 456.705
L245.907 467.632
L248.098 480.059
L257.765 488.17
L270.383 488.17
L280.049 480.059
L282.24 467.632
L275.931 456.705
z
" style="fill:#af0a0a;stroke:#000000;stroke-width:0.25;"/>
   </g>
   <g id="patch_66">
    <path clip-path="url(#pfcc5eb3d25)" d="
M257.765 488.17
L245.907 492.485
L239.598 503.413
L241.789 515.839
L251.455 523.95
L264.074 523.95
L273.74 515.839
L275.931 503.413
L269.622 492.485
z
" style="fill:#af0a0a;stroke:#000000;stroke-width:0.25;"/>
   </g>
   <g id="patch_67">
    <path clip-path="url(#pfcc5eb3d25)" d="
M229.932 511.524
L218.075 515.839
L211.766 526.767
L213.957 539.194
L223.623 547.304
L236.241 547.304
L245.907 539.194
L248.098 526.767
L241.789 515.839
z
" style="fill:#af0a0a;stroke:#000000;stroke-width:0.25;"/>
   </g>
   <g id="patch_68">
    <path clip-path="url(#pfcc5eb3d25)" d="
M193.6 511.524
L181.742 515.839
L175.433 526.767
L177.624 539.194
L187.29 547.304
L199.909 547.304
L209.575 539.194
L211.766 526.767
L205.457 515.839
z
" style="fill:#af0a0a;stroke:#000000;stroke-width:0.25;"/>
   </g>
   <g id="patch_69">
    <path clip-path="url(#pfcc5eb3d25)" d="
M165.767 488.17
L153.91 492.485
L147.601 503.413
L149.792 515.839
L159.458 523.95
L172.076 523.95
L181.742 515.839
L183.933 503.413
L177.624 492.485
z
" style="fill:#af0a0a;stroke:#000000;stroke-width:0.25;"/>
   </g>
   <g id="patch_70">
    <path clip-path="url(#pfcc5eb3d25)" d="
M159.458 452.389
L147.601 456.705
L141.292 467.632
L143.483 480.059
L153.149 488.17
L165.767 488.17
L175.433 480.059
L177.624 467.632
L171.315 456.705
z
" style="fill:#af0a0a;stroke:#000000;stroke-width:0.25;"/>
   </g>
   <g id="patch_71">
    <path clip-path="url(#pfcc5eb3d25)" d="
M177.624 420.924
L165.767 425.24
L159.458 436.167
L161.649 448.594
L171.315 456.705
L183.933 456.705
L193.6 448.594
L195.791 436.167
L189.482 425.24
z
" style="fill:#af0a0a;stroke:#000000;stroke-width:0.25;"/>
   </g>
   <g id="patch_72">
    <path clip-path="url(#pfcc5eb3d25)" d="
M211.766 518.136
L236.241 509.227
L249.264 486.671
L244.741 461.02
L224.789 444.278
L198.743 444.278
L178.79 461.02
L174.267 486.671
L187.29 509.227
z
" style="fill:#af0a0a;stroke:#000000;stroke-width:0.25;"/>
   </g>
   <g id="patch_73">
    <path clip-path="url(#pfcc5eb3d25)" d="
M103.793 317.898
L91.936 322.213
L85.6269 333.141
L87.818 345.567
L97.4841 353.678
L110.102 353.678
L119.768 345.567
L121.96 333.141
L115.65 322.213
z
" style="fill:#af0a0a;stroke:#000000;stroke-width:0.25;"/>
   </g>
   <g id="patch_74">
    <path clip-path="url(#pfcc5eb3d25)" d="
M137.935 330.324
L126.077 334.64
L119.768 345.567
L121.96 357.994
L131.626 366.105
L144.244 366.105
L153.91 357.994
L156.101 345.567
L149.792 334.64
z
" style="fill:#af0a0a;stroke:#000000;stroke-width:0.25;"/>
   </g>
   <g id="patch_75">
    <path clip-path="url(#pfcc5eb3d25)" d="
M156.101 361.789
L144.244 366.105
L137.935 377.032
L140.126 389.459
L149.792 397.57
L162.41 397.57
L172.076 389.459
L174.267 377.032
L167.958 366.105
z
" style="fill:#af0a0a;stroke:#000000;stroke-width:0.25;"/>
   </g>
   <g id="patch_76">
    <path clip-path="url(#pfcc5eb3d25)" d="
M149.792 397.57
L137.935 401.885
L131.626 412.813
L133.817 425.24
L143.483 433.35
L156.101 433.35
L165.767 425.24
L167.958 412.813
L161.649 401.885
z
" style="fill:#af0a0a;stroke:#000000;stroke-width:0.25;"/>
   </g>
   <g id="patch_77">
    <path clip-path="url(#pfcc5eb3d25)" d="
M121.96 420.924
L110.102 425.24
L103.793 436.167
L105.984 448.594
L115.65 456.705
L128.269 456.705
L137.935 448.594
L140.126 436.167
L133.817 425.24
z
" style="fill:#af0a0a;stroke:#000000;stroke-width:0.25;"/>
   </g>
   <g id="patch_78">
    <path clip-path="url(#pfcc5eb3d25)" d="
M85.6269 420.924
L73.7697 425.24
L67.4606 436.167
L69.6517 448.594
L79.3178 456.705
L91.936 456.705
L101.602 448.594
L103.793 436.167
L97.4841 425.24
z
" style="fill:#af0a0a;stroke:#000000;stroke-width:0.25;"/>
   </g>
   <g id="patch_79">
    <path clip-path="url(#pfcc5eb3d25)" d="
M57.7945 397.57
L45.9373 401.885
L39.6282 412.813
L41.8193 425.24
L51.4854 433.35
L64.1036 433.35
L73.7697 425.24
L75.9608 412.813
L69.6517 401.885
z
" style="fill:#af0a0a;stroke:#000000;stroke-width:0.25;"/>
   </g>
   <g id="patch_80">
    <path clip-path="url(#pfcc5eb3d25)" d="
M51.4854 361.789
L39.6282 366.105
L33.3191 377.032
L35.5102 389.459
L45.1763 397.57
L57.7945 397.57
L67.4606 389.459
L69.6517 377.032
L63.3426 366.105
z
" style="fill:#af0a0a;stroke:#000000;stroke-width:0.25;"/>
   </g>
   <g id="patch_81">
    <path clip-path="url(#pfcc5eb3d25)" d="
M69.6517 330.324
L57.7945 334.64
L51.4854 345.567
L53.6765 357.994
L63.3426 366.105
L75.9608 366.105
L85.6269 357.994
L87.818 345.567
L81.5089 334.64
z
" style="fill:#af0a0a;stroke:#000000;stroke-width:0.25;"/>
   </g>
   <g id="patch_82">
    <path clip-path="url(#pfcc5eb3d25)" d="
M103.793 427.536
L128.269 418.628
L141.292 396.071
L136.769 370.42
L116.816 353.678
L90.7701 353.678
L70.8176 370.42
L66.2947 396.071
L79.3178 418.628
z
" style="fill:#af0a0a;stroke:#000000;stroke-width:0.25;"/>
   </g>
   <g id="patch_83">
    <path clip-path="url(#pfcc5eb3d25)" d="
M79.3178 179.091
L67.4606 183.406
L61.1515 194.334
L63.3426 206.76
L73.0087 214.871
L85.6269 214.871
L95.293 206.76
L97.4841 194.334
L91.175 183.406
z
" style="fill:#af0a0a;stroke:#000000;stroke-width:0.25;"/>
   </g>
   <g id="patch_84">
    <path clip-path="url(#pfcc5eb3d25)" d="
M113.459 191.517
L101.602 195.833
L95.293 206.76
L97.4841 219.187
L107.15 227.298
L119.768 227.298
L129.434 219.187
L131.626 206.76
L125.317 195.833
z
" style="fill:#af0a0a;stroke:#000000;stroke-width:0.25;"/>
   </g>
   <g id="patch_85">
    <path clip-path="url(#pfcc5eb3d25)" d="
M131.626 222.982
L119.768 227.298
L113.459 238.225
L115.65 250.652
L125.317 258.763
L137.935 258.763
L147.601 250.652
L149.792 238.225
L143.483 227.298
z
" style="fill:#af0a0a;stroke:#000000;stroke-width:0.25;"/>
   </g>
   <g id="patch_86">
    <path clip-path="url(#pfcc5eb3d25)" d="
M125.317 258.763
L113.459 263.078
L107.15 274.006
L109.341 286.433
L119.007 294.543
L131.626 294.543
L141.292 286.433
L143.483 274.006
L137.174 263.078
z
" style="fill:#af0a0a;stroke:#000000;stroke-width:0.25;"/>
   </g>
   <g id="patch_87">
    <path clip-path="url(#pfcc5eb3d25)" d="
M97.4841 282.117
L85.6269 286.433
L79.3178 297.36
L81.5089 309.787
L91.175 317.898
L103.793 317.898
L113.459 309.787
L115.65 297.36
L109.341 286.433
z
" style="fill:#af0a0a;stroke:#000000;stroke-width:0.25;"/>
   </g>
   <g id="patch_88">
    <path clip-path="url(#pfcc5eb3d25)" d="
M61.1515 282.117
L49.2943 286.433
L42.9852 297.36
L45.1763 309.787
L54.8424 317.898
L67.4606 317.898
L77.1267 309.787
L79.3178 297.36
L73.0087 286.433
z
" style="fill:#af0a0a;stroke:#000000;stroke-width:0.25;"/>
   </g>
   <g id="patch_89">
    <path clip-path="url(#pfcc5eb3d25)" d="
M33.3191 258.763
L21.4619 263.078
L15.1528 274.006
L17.3439 286.433
L27.01 294.543
L39.6282 294.543
L49.2943 286.433
L51.4854 274.006
L45.1763 263.078
z
" style="fill:#af0a0a;stroke:#000000;stroke-width:0.25;"/>
   </g>
   <g id="patch_90">
    <path clip-path="url(#pfcc5eb3d25)" d="
M27.01 222.982
L15.1528 227.298
L8.84366 238.225
L11.0348 250.652
L20.7009 258.763
L33.3191 258.763
L42.9852 250.652
L45.1763 238.225
L38.8672 227.298
z
" style="fill:#af0a0a;stroke:#000000;stroke-width:0.25;"/>
   </g>
   <g id="patch_91">
    <path clip-path="url(#pfcc5eb3d25)" d="
M45.1763 191.517
L33.3191 195.833
L27.01 206.76
L29.2011 219.187
L38.8672 227.298
L51.4854 227.298
L61.1515 219.187
L63.3426 206.76
L57.0335 195.833
z
" style="fill:#af0a0a;stroke:#000000;stroke-width:0.25;"/>
   </g>
   <g id="patch_92">
    <path clip-path="url(#pfcc5eb3d25)" d="
M79.3178 288.729
L103.793 279.821
L116.816 257.264
L112.293 231.613
L92.3409 214.871
L66.2947 214.871
L46.3422 231.613
L41.8193 257.264
L54.8424 279.821
z
" style="fill:#af0a0a;stroke:#000000;stroke-width:0.25;"/>
   </g>
   <g id="patch_93">
    <path clip-path="url(#pfcc5eb3d25)" d="
M149.792 57.0258
L137.935 61.3415
L131.626 72.2692
L133.817 84.6957
L143.483 92.8065
L156.101 92.8065
L165.767 84.6957
L167.958 72.2692
L161.649 61.3415
z
" style="fill:#af0a0a;stroke:#000000;stroke-width:0.25;"/>
   </g>
   <g id="patch_94">
    <path clip-path="url(#pfcc5eb3d25)" d="
M183.933 69.4523
L172.076 73.768
L165.767 84.6957
L167.958 97.1222
L177.624 105.233
L190.243 105.233
L199.909 97.1222
L202.1 84.6957
L195.791 73.768
z
" style="fill:#af0a0a;stroke:#000000;stroke-width:0.25;"/>
   </g>
   <g id="patch_95">
    <path clip-path="url(#pfcc5eb3d25)" d="
M202.1 100.917
L190.243 105.233
L183.933 116.161
L186.125 128.587
L195.791 136.698
L208.409 136.698
L218.075 128.587
L220.266 116.161
L213.957 105.233
z
" style="fill:#af0a0a;stroke:#000000;stroke-width:0.25;"/>
   </g>
   <g id="patch_96">
    <path clip-path="url(#pfcc5eb3d25)" d="
M195.791 136.698
L183.933 141.014
L177.624 151.941
L179.815 164.368
L189.482 172.479
L202.1 172.479
L211.766 164.368
L213.957 151.941
L207.648 141.014
z
" style="fill:#af0a0a;stroke:#000000;stroke-width:0.25;"/>
   </g>
   <g id="patch_97">
    <path clip-path="url(#pfcc5eb3d25)" d="
M167.958 160.052
L156.101 164.368
L149.792 175.295
L151.983 187.722
L161.649 195.833
L174.267 195.833
L183.933 187.722
L186.125 175.295
L179.815 164.368
z
" style="fill:#af0a0a;stroke:#000000;stroke-width:0.25;"/>
   </g>
   <g id="patch_98">
    <path clip-path="url(#pfcc5eb3d25)" d="
M131.626 160.052
L119.768 164.368
L113.459 175.295
L115.65 187.722
L125.317 195.833
L137.935 195.833
L147.601 187.722
L149.792 175.295
L143.483 164.368
z
" style="fill:#af0a0a;stroke:#000000;stroke-width:0.25;"/>
   </g>
   <g id="patch_99">
    <path clip-path="url(#pfcc5eb3d25)" d="
M103.793 136.698
L91.936 141.014
L85.6269 151.941
L87.818 164.368
L97.4841 172.479
L110.102 172.479
L119.768 164.368
L121.96 151.941
L115.65 141.014
z
" style="fill:#af0a0a;stroke:#000000;stroke-width:0.25;"/>
   </g>
   <g id="patch_100">
    <path clip-path="url(#pfcc5eb3d25)" d="
M97.4841 100.917
L85.6269 105.233
L79.3178 116.161
L81.5089 128.587
L91.175 136.698
L103.793 136.698
L113.459 128.587
L115.65 116.161
L109.341 105.233
z
" style="fill:#af0a0a;stroke:#000000;stroke-width:0.25;"/>
   </g>
   <g id="patch_101">
    <path clip-path="url(#pfcc5eb3d25)" d="
M115.65 69.4523
L103.793 73.768
L97.4841 84.6957
L99.6752 97.1222
L109.341 105.233
L121.96 105.233
L131.626 97.1222
L133.817 84.6957
L127.508 73.768
z
" style="fill:#af0a0a;stroke:#000000;stroke-width:0.25;"/>
   </g>
   <g id="patch_102">
    <path clip-path="url(#pfcc5eb3d25)" d="
M149.792 166.664
L174.267 157.756
L187.29 135.199
L182.768 109.549
L162.815 92.8065
L136.769 92.8065
L116.816 109.549
L112.293 135.199
L125.317 157.756
z
" style="fill:#af0a0a;stroke:#000000;stroke-width:0.25;"/>
   </g>
   <g id="patch_103">
    <path clip-path="url(#pfcc5eb3d25)" d="
M282.24 434.148
L306.715 425.24
L319.739 402.683
L315.216 377.032
L295.263 360.29
L269.217 360.29
L249.264 377.032
L244.741 402.683
L257.765 425.24
z
" style="fill:#af0a0a;stroke:#000000;stroke-width:0.25;"/>
   </g>
   <g id="patch_104">
    <path clip-path="url(#pfcc5eb3d25)" d="
M211.766 408.497
L236.241 399.589
L249.264 377.032
L244.741 351.382
L224.789 334.64
L198.743 334.64
L178.79 351.382
L174.267 377.032
L187.29 399.589
z
" style="fill:#af0a0a;stroke:#000000;stroke-width:0.25;"/>
   </g>
   <g id="patch_105">
    <path clip-path="url(#pfcc5eb3d25)" d="
M174.267 343.548
L198.743 334.64
L211.766 312.083
L207.243 286.433
L187.29 269.69
L161.244 269.69
L141.292 286.433
L136.769 312.083
L149.792 334.64
z
" style="fill:#af0a0a;stroke:#000000;stroke-width:0.25;"/>
   </g>
   <g id="patch_106">
    <path clip-path="url(#pfcc5eb3d25)" d="
M187.29 269.69
L211.766 260.782
L224.789 238.225
L220.266 212.575
L200.314 195.833
L174.267 195.833
L154.315 212.575
L149.792 238.225
L162.815 260.782
z
" style="fill:#af0a0a;stroke:#000000;stroke-width:0.25;"/>
   </g>
   <g id="patch_107">
    <path clip-path="url(#pfcc5eb3d25)" d="
M244.741 221.483
L269.217 212.575
L282.24 190.018
L277.717 164.368
L257.765 147.626
L231.718 147.626
L211.766 164.368
L207.243 190.018
L220.266 212.575
z
" style="fill:#af0a0a;stroke:#000000;stroke-width:0.25;"/>
   </g>
   <g id="patch_108">
    <path clip-path="url(#pfcc5eb3d25)" d="
M319.739 221.483
L344.214 212.575
L357.237 190.018
L352.714 164.368
L332.762 147.626
L306.715 147.626
L286.763 164.368
L282.24 190.018
L295.263 212.575
z
" style="fill:#af0a0a;stroke:#000000;stroke-width:0.25;"/>
   </g>
   <g id="patch_109">
    <path clip-path="url(#pfcc5eb3d25)" d="
M377.19 269.69
L401.665 260.782
L414.688 238.225
L410.165 212.575
L390.213 195.833
L364.166 195.833
L344.214 212.575
L339.691 238.225
L352.714 260.782
z
" style="fill:#af0a0a;stroke:#000000;stroke-width:0.25;"/>
   </g>
   <g id="patch_110">
    <path clip-path="url(#pfcc5eb3d25)" d="
M390.213 343.548
L414.688 334.64
L427.711 312.083
L423.188 286.433
L403.236 269.69
L377.19 269.69
L357.237 286.433
L352.714 312.083
L365.737 334.64
z
" style="fill:#af0a0a;stroke:#000000;stroke-width:0.25;"/>
   </g>
   <g id="patch_111">
    <path clip-path="url(#pfcc5eb3d25)" d="
M352.714 408.497
L377.19 399.589
L390.213 377.032
L385.69 351.382
L365.737 334.64
L339.691 334.64
L319.739 351.382
L315.216 377.032
L328.239 399.589
z
" style="fill:#af0a0a;stroke:#000000;stroke-width:0.25;"/>
   </g>
   <g id="patch_112">
    <path clip-path="url(#pfcc5eb3d25)" d="
M282.24 207.835
L231.718 226.223
L204.836 272.784
L214.172 325.731
L255.358 360.29
L309.122 360.29
L350.308 325.731
L359.644 272.784
L332.762 226.223
z
" style="fill:#af0a0a;stroke:#000000;stroke-width:0.25;"/>
   </g>
   <g id="matplotlib.axis_1"/>
   <g id="matplotlib.axis_2"/>
  </g>
 </g>
 <defs>
  <clipPath id="pfcc5eb3d25">
   <rect height="541.723048777" width="550.08" x="7.2" y="7.2"/>
  </clipPath>
 </defs>
</svg>
