<?xml version="1.0" encoding="utf-8" standalone="no"?>
<!DOCTYPE svg PUBLIC "-//W3C//DTD SVG 1.1//EN"
  "http://www.w3.org/Graphics/SVG/1.1/DTD/svg11.dtd">
<!-- Created with matplotlib (http://matplotlib.org/) -->
<svg height="564pt" version="1.1" viewBox="0 0 537 564" width="537pt" xmlns="http://www.w3.org/2000/svg" xmlns:xlink="http://www.w3.org/1999/xlink">
 <defs>
  <style type="text/css">
*{stroke-linecap:butt;stroke-linejoin:round;}
  </style>
 </defs>
 <g id="figure_1">
  <g id="patch_1">
   <path d="
M0 564.48
L537.557 564.48
L537.557 0
L0 0
z
" style="fill:none;"/>
  </g>
  <g id="axes_1">
   <g id="patch_2">
    <path clip-path="url(#p26abfc3274)" d="
M268.779 8.84366
L108.08 61.0577
L8.76321 197.756
L8.76321 366.724
L108.08 503.422
L268.779 555.636
L429.477 503.422
L528.794 366.724
L528.794 197.756
L429.477 61.0577
z
" style="fill:#bcd4e6;stroke:#000000;stroke-width:0.25;"/>
   </g>
   <g id="patch_3">
    <path clip-path="url(#p26abfc3274)" d="
M268.779 8.84366
L230.843 21.1697
L207.397 53.4398
L207.397 93.3278
L230.843 125.598
L268.779 137.924
L306.714 125.598
L330.16 93.3278
L330.16 53.4398
L306.714 21.1697
z
" style="fill:#eae2ac;stroke:#000000;stroke-width:0.25;"/>
   </g>
   <g id="patch_4">
    <path clip-path="url(#p26abfc3274)" d="
M391.541 48.7316
L353.605 61.0577
L330.16 93.3278
L330.16 133.216
L353.605 165.486
L391.541 177.812
L429.477 165.486
L452.922 133.216
L452.922 93.3278
L429.477 61.0577
z
" style="fill:#eae2ac;stroke:#000000;stroke-width:0.25;"/>
   </g>
   <g id="patch_5">
    <path clip-path="url(#p26abfc3274)" d="
M467.413 153.16
L429.477 165.486
L406.031 197.756
L406.031 237.644
L429.477 269.914
L467.413 282.24
L505.348 269.914
L528.794 237.644
L528.794 197.756
L505.348 165.486
z
" style="fill:#eae2ac;stroke:#000000;stroke-width:0.25;"/>
   </g>
   <g id="patch_6">
    <path clip-path="url(#p26abfc3274)" d="
M467.413 282.24
L429.477 294.566
L406.031 326.836
L406.031 366.724
L429.477 398.994
L467.413 411.32
L505.348 398.994
L528.794 366.724
L528.794 326.836
L505.348 294.566
z
" style="fill:#eae2ac;stroke:#000000;stroke-width:0.25;"/>
   </g>
   <g id="patch_7">
    <path clip-path="url(#p26abfc3274)" d="
M391.541 386.668
L353.605 398.994
L330.16 431.264
L330.16 471.152
L353.605 503.422
L391.541 515.748
L429.477 503.422
L452.922 471.152
L452.922 431.264
L429.477 398.994
z
" style="fill:#eae2ac;stroke:#000000;stroke-width:0.25;"/>
   </g>
   <g id="patch_8">
    <path clip-path="url(#p26abfc3274)" d="
M268.779 426.556
L230.843 438.882
L207.397 471.152
L207.397 511.04
L230.843 543.31
L268.779 555.636
L306.714 543.31
L330.16 511.04
L330.16 471.152
L306.714 438.882
z
" style="fill:#eae2ac;stroke:#000000;stroke-width:0.25;"/>
   </g>
   <g id="patch_9">
    <path clip-path="url(#p26abfc3274)" d="
M146.016 386.668
L108.08 398.994
L84.6347 431.264
L84.6347 471.152
L108.08 503.422
L146.016 515.748
L183.952 503.422
L207.397 471.152
L207.397 431.264
L183.952 398.994
z
" style="fill:#eae2ac;stroke:#000000;stroke-width:0.25;"/>
   </g>
   <g id="patch_10">
    <path clip-path="url(#p26abfc3274)" d="
M70.1445 282.24
L32.2088 294.566
L8.76321 326.836
L8.76321 366.724
L32.2088 398.994
L70.1445 411.32
L108.08 398.994
L131.526 366.724
L131.526 326.836
L108.08 294.566
z
" style="fill:#eae2ac;stroke:#000000;stroke-width:0.25;"/>
   </g>
   <g id="patch_11">
    <path clip-path="url(#p26abfc3274)" d="
M70.1445 153.16
L32.2088 165.486
L8.76321 197.756
L8.76321 237.644
L32.2088 269.914
L70.1445 282.24
L108.08 269.914
L131.526 237.644
L131.526 197.756
L108.08 165.486
z
" style="fill:#eae2ac;stroke:#000000;stroke-width:0.25;"/>
   </g>
   <g id="patch_12">
    <path clip-path="url(#p26abfc3274)" d="
M146.016 48.7316
L108.08 61.0577
L84.6347 93.3278
L84.6347 133.216
L108.08 165.486
L146.016 177.812
L183.952 165.486
L207.397 133.216
L207.397 93.3278
L183.952 61.0577
z
" style="fill:#eae2ac;stroke:#000000;stroke-width:0.25;"/>
   </g>
   <g id="patch_13">
    <path clip-path="url(#p26abfc3274)" d="
M268.779 8.84366
L259.823 11.7535
L254.288 19.3714
L254.288 28.7877
L259.823 36.4056
L268.779 39.3154
L277.734 36.4056
L283.269 28.7877
L283.269 19.3714
L277.734 11.7535
z
" style="fill:#af0a0a;stroke:#000000;stroke-width:0.25;"/>
   </g>
   <g id="patch_14">
    <path clip-path="url(#p26abfc3274)" d="
M297.759 18.2599
L288.803 21.1697
L283.269 28.7877
L283.269 38.2039
L288.803 45.8219
L297.759 48.7316
L306.714 45.8219
L312.249 38.2039
L312.249 28.7877
L306.714 21.1697
z
" style="fill:#af0a0a;stroke:#000000;stroke-width:0.25;"/>
   </g>
   <g id="patch_15">
    <path clip-path="url(#p26abfc3274)" d="
M315.67 42.9121
L306.714 45.8219
L301.18 53.4398
L301.18 62.8561
L306.714 70.474
L315.67 73.3838
L324.625 70.474
L330.16 62.8561
L330.16 53.4398
L324.625 45.8219
z
" style="fill:#af0a0a;stroke:#000000;stroke-width:0.25;"/>
   </g>
   <g id="patch_16">
    <path clip-path="url(#p26abfc3274)" d="
M315.67 73.3838
L306.714 76.2936
L301.18 83.9115
L301.18 93.3278
L306.714 100.946
L315.67 103.855
L324.625 100.946
L330.16 93.3278
L330.16 83.9115
L324.625 76.2936
z
" style="fill:#af0a0a;stroke:#000000;stroke-width:0.25;"/>
   </g>
   <g id="patch_17">
    <path clip-path="url(#p26abfc3274)" d="
M297.759 98.0359
L288.803 100.946
L283.269 108.564
L283.269 117.98
L288.803 125.598
L297.759 128.508
L306.714 125.598
L312.249 117.98
L312.249 108.564
L306.714 100.946
z
" style="fill:#af0a0a;stroke:#000000;stroke-width:0.25;"/>
   </g>
   <g id="patch_18">
    <path clip-path="url(#p26abfc3274)" d="
M268.779 107.452
L259.823 110.362
L254.288 117.98
L254.288 127.396
L259.823 135.014
L268.779 137.924
L277.734 135.014
L283.269 127.396
L283.269 117.98
L277.734 110.362
z
" style="fill:#af0a0a;stroke:#000000;stroke-width:0.25;"/>
   </g>
   <g id="patch_19">
    <path clip-path="url(#p26abfc3274)" d="
M239.798 98.0359
L230.843 100.946
L225.308 108.564
L225.308 117.98
L230.843 125.598
L239.798 128.508
L248.754 125.598
L254.288 117.98
L254.288 108.564
L248.754 100.946
z
" style="fill:#af0a0a;stroke:#000000;stroke-width:0.25;"/>
   </g>
   <g id="patch_20">
    <path clip-path="url(#p26abfc3274)" d="
M221.887 73.3838
L212.932 76.2936
L207.397 83.9115
L207.397 93.3278
L212.932 100.946
L221.887 103.855
L230.843 100.946
L236.378 93.3278
L236.378 83.9115
L230.843 76.2936
z
" style="fill:#af0a0a;stroke:#000000;stroke-width:0.25;"/>
   </g>
   <g id="patch_21">
    <path clip-path="url(#p26abfc3274)" d="
M221.887 42.9121
L212.932 45.8219
L207.397 53.4398
L207.397 62.8561
L212.932 70.474
L221.887 73.3838
L230.843 70.474
L236.378 62.8561
L236.378 53.4398
L230.843 45.8219
z
" style="fill:#af0a0a;stroke:#000000;stroke-width:0.25;"/>
   </g>
   <g id="patch_22">
    <path clip-path="url(#p26abfc3274)" d="
M239.798 18.2599
L230.843 21.1697
L225.308 28.7877
L225.308 38.2039
L230.843 45.8219
L239.798 48.7316
L248.754 45.8219
L254.288 38.2039
L254.288 28.7877
L248.754 21.1697
z
" style="fill:#af0a0a;stroke:#000000;stroke-width:0.25;"/>
   </g>
   <g id="patch_23">
    <path clip-path="url(#p26abfc3274)" d="
M391.541 48.7316
L382.586 51.6414
L377.051 59.2594
L377.051 68.6756
L382.586 76.2936
L391.541 79.2034
L400.497 76.2936
L406.031 68.6756
L406.031 59.2594
L400.497 51.6414
z
" style="fill:#af0a0a;stroke:#000000;stroke-width:0.25;"/>
   </g>
   <g id="patch_24">
    <path clip-path="url(#p26abfc3274)" d="
M420.522 58.1479
L411.566 61.0577
L406.031 68.6756
L406.031 78.0919
L411.566 85.7098
L420.522 88.6196
L429.477 85.7098
L435.012 78.0919
L435.012 68.6756
L429.477 61.0577
z
" style="fill:#af0a0a;stroke:#000000;stroke-width:0.25;"/>
   </g>
   <g id="patch_25">
    <path clip-path="url(#p26abfc3274)" d="
M438.432 82.8001
L429.477 85.7098
L423.942 93.3278
L423.942 102.744
L429.477 110.362
L438.432 113.272
L447.388 110.362
L452.922 102.744
L452.922 93.3278
L447.388 85.7098
z
" style="fill:#af0a0a;stroke:#000000;stroke-width:0.25;"/>
   </g>
   <g id="patch_26">
    <path clip-path="url(#p26abfc3274)" d="
M438.432 113.272
L429.477 116.182
L423.942 123.799
L423.942 133.216
L429.477 140.834
L438.432 143.743
L447.388 140.834
L452.922 133.216
L452.922 123.799
L447.388 116.182
z
" style="fill:#af0a0a;stroke:#000000;stroke-width:0.25;"/>
   </g>
   <g id="patch_27">
    <path clip-path="url(#p26abfc3274)" d="
M420.522 137.924
L411.566 140.834
L406.031 148.452
L406.031 157.868
L411.566 165.486
L420.522 168.396
L429.477 165.486
L435.012 157.868
L435.012 148.452
L429.477 140.834
z
" style="fill:#af0a0a;stroke:#000000;stroke-width:0.25;"/>
   </g>
   <g id="patch_28">
    <path clip-path="url(#p26abfc3274)" d="
M391.541 147.34
L382.586 150.25
L377.051 157.868
L377.051 167.284
L382.586 174.902
L391.541 177.812
L400.497 174.902
L406.031 167.284
L406.031 157.868
L400.497 150.25
z
" style="fill:#af0a0a;stroke:#000000;stroke-width:0.25;"/>
   </g>
   <g id="patch_29">
    <path clip-path="url(#p26abfc3274)" d="
M362.561 137.924
L353.605 140.834
L348.071 148.452
L348.071 157.868
L353.605 165.486
L362.561 168.396
L371.516 165.486
L377.051 157.868
L377.051 148.452
L371.516 140.834
z
" style="fill:#af0a0a;stroke:#000000;stroke-width:0.25;"/>
   </g>
   <g id="patch_30">
    <path clip-path="url(#p26abfc3274)" d="
M344.65 113.272
L335.695 116.182
L330.16 123.799
L330.16 133.216
L335.695 140.834
L344.65 143.743
L353.605 140.834
L359.14 133.216
L359.14 123.799
L353.605 116.182
z
" style="fill:#af0a0a;stroke:#000000;stroke-width:0.25;"/>
   </g>
   <g id="patch_31">
    <path clip-path="url(#p26abfc3274)" d="
M344.65 82.8001
L335.695 85.7098
L330.16 93.3278
L330.16 102.744
L335.695 110.362
L344.65 113.272
L353.605 110.362
L359.14 102.744
L359.14 93.3278
L353.605 85.7098
z
" style="fill:#af0a0a;stroke:#000000;stroke-width:0.25;"/>
   </g>
   <g id="patch_32">
    <path clip-path="url(#p26abfc3274)" d="
M362.561 58.1479
L353.605 61.0577
L348.071 68.6756
L348.071 78.0919
L353.605 85.7098
L362.561 88.6196
L371.516 85.7098
L377.051 78.0919
L377.051 68.6756
L371.516 61.0577
z
" style="fill:#af0a0a;stroke:#000000;stroke-width:0.25;"/>
   </g>
   <g id="patch_33">
    <path clip-path="url(#p26abfc3274)" d="
M467.413 153.16
L458.457 156.07
L452.922 163.687
L452.922 173.104
L458.457 180.722
L467.413 183.631
L476.368 180.722
L481.903 173.104
L481.903 163.687
L476.368 156.07
z
" style="fill:#af0a0a;stroke:#000000;stroke-width:0.25;"/>
   </g>
   <g id="patch_34">
    <path clip-path="url(#p26abfc3274)" d="
M496.393 162.576
L487.438 165.486
L481.903 173.104
L481.903 182.52
L487.438 190.138
L496.393 193.048
L505.348 190.138
L510.883 182.52
L510.883 173.104
L505.348 165.486
z
" style="fill:#af0a0a;stroke:#000000;stroke-width:0.25;"/>
   </g>
   <g id="patch_35">
    <path clip-path="url(#p26abfc3274)" d="
M514.304 187.228
L505.348 190.138
L499.814 197.756
L499.814 207.172
L505.348 214.79
L514.304 217.7
L523.259 214.79
L528.794 207.172
L528.794 197.756
L523.259 190.138
z
" style="fill:#af0a0a;stroke:#000000;stroke-width:0.25;"/>
   </g>
   <g id="patch_36">
    <path clip-path="url(#p26abfc3274)" d="
M514.304 217.7
L505.348 220.61
L499.814 228.228
L499.814 237.644
L505.348 245.262
L514.304 248.172
L523.259 245.262
L528.794 237.644
L528.794 228.228
L523.259 220.61
z
" style="fill:#af0a0a;stroke:#000000;stroke-width:0.25;"/>
   </g>
   <g id="patch_37">
    <path clip-path="url(#p26abfc3274)" d="
M496.393 242.352
L487.438 245.262
L481.903 252.88
L481.903 262.296
L487.438 269.914
L496.393 272.824
L505.348 269.914
L510.883 262.296
L510.883 252.88
L505.348 245.262
z
" style="fill:#af0a0a;stroke:#000000;stroke-width:0.25;"/>
   </g>
   <g id="patch_38">
    <path clip-path="url(#p26abfc3274)" d="
M467.413 251.768
L458.457 254.678
L452.922 262.296
L452.922 271.712
L458.457 279.33
L467.413 282.24
L476.368 279.33
L481.903 271.712
L481.903 262.296
L476.368 254.678
z
" style="fill:#af0a0a;stroke:#000000;stroke-width:0.25;"/>
   </g>
   <g id="patch_39">
    <path clip-path="url(#p26abfc3274)" d="
M438.432 242.352
L429.477 245.262
L423.942 252.88
L423.942 262.296
L429.477 269.914
L438.432 272.824
L447.388 269.914
L452.922 262.296
L452.922 252.88
L447.388 245.262
z
" style="fill:#af0a0a;stroke:#000000;stroke-width:0.25;"/>
   </g>
   <g id="patch_40">
    <path clip-path="url(#p26abfc3274)" d="
M420.522 217.7
L411.566 220.61
L406.031 228.228
L406.031 237.644
L411.566 245.262
L420.522 248.172
L429.477 245.262
L435.012 237.644
L435.012 228.228
L429.477 220.61
z
" style="fill:#af0a0a;stroke:#000000;stroke-width:0.25;"/>
   </g>
   <g id="patch_41">
    <path clip-path="url(#p26abfc3274)" d="
M420.522 187.228
L411.566 190.138
L406.031 197.756
L406.031 207.172
L411.566 214.79
L420.522 217.7
L429.477 214.79
L435.012 207.172
L435.012 197.756
L429.477 190.138
z
" style="fill:#af0a0a;stroke:#000000;stroke-width:0.25;"/>
   </g>
   <g id="patch_42">
    <path clip-path="url(#p26abfc3274)" d="
M438.432 162.576
L429.477 165.486
L423.942 173.104
L423.942 182.52
L429.477 190.138
L438.432 193.048
L447.388 190.138
L452.922 182.52
L452.922 173.104
L447.388 165.486
z
" style="fill:#af0a0a;stroke:#000000;stroke-width:0.25;"/>
   </g>
   <g id="patch_43">
    <path clip-path="url(#p26abfc3274)" d="
M467.413 282.24
L458.457 285.15
L452.922 292.768
L452.922 302.184
L458.457 309.802
L467.413 312.712
L476.368 309.802
L481.903 302.184
L481.903 292.768
L476.368 285.15
z
" style="fill:#af0a0a;stroke:#000000;stroke-width:0.25;"/>
   </g>
   <g id="patch_44">
    <path clip-path="url(#p26abfc3274)" d="
M496.393 291.656
L487.438 294.566
L481.903 302.184
L481.903 311.6
L487.438 319.218
L496.393 322.128
L505.348 319.218
L510.883 311.6
L510.883 302.184
L505.348 294.566
z
" style="fill:#af0a0a;stroke:#000000;stroke-width:0.25;"/>
   </g>
   <g id="patch_45">
    <path clip-path="url(#p26abfc3274)" d="
M514.304 316.308
L505.348 319.218
L499.814 326.836
L499.814 336.252
L505.348 343.87
L514.304 346.78
L523.259 343.87
L528.794 336.252
L528.794 326.836
L523.259 319.218
z
" style="fill:#af0a0a;stroke:#000000;stroke-width:0.25;"/>
   </g>
   <g id="patch_46">
    <path clip-path="url(#p26abfc3274)" d="
M514.304 346.78
L505.348 349.69
L499.814 357.308
L499.814 366.724
L505.348 374.342
L514.304 377.252
L523.259 374.342
L528.794 366.724
L528.794 357.308
L523.259 349.69
z
" style="fill:#af0a0a;stroke:#000000;stroke-width:0.25;"/>
   </g>
   <g id="patch_47">
    <path clip-path="url(#p26abfc3274)" d="
M496.393 371.432
L487.438 374.342
L481.903 381.96
L481.903 391.376
L487.438 398.994
L496.393 401.904
L505.348 398.994
L510.883 391.376
L510.883 381.96
L505.348 374.342
z
" style="fill:#af0a0a;stroke:#000000;stroke-width:0.25;"/>
   </g>
   <g id="patch_48">
    <path clip-path="url(#p26abfc3274)" d="
M467.413 380.849
L458.457 383.758
L452.922 391.376
L452.922 400.793
L458.457 408.41
L467.413 411.32
L476.368 408.41
L481.903 400.793
L481.903 391.376
L476.368 383.758
z
" style="fill:#af0a0a;stroke:#000000;stroke-width:0.25;"/>
   </g>
   <g id="patch_49">
    <path clip-path="url(#p26abfc3274)" d="
M438.432 371.432
L429.477 374.342
L423.942 381.96
L423.942 391.376
L429.477 398.994
L438.432 401.904
L447.388 398.994
L452.922 391.376
L452.922 381.96
L447.388 374.342
z
" style="fill:#af0a0a;stroke:#000000;stroke-width:0.25;"/>
   </g>
   <g id="patch_50">
    <path clip-path="url(#p26abfc3274)" d="
M420.522 346.78
L411.566 349.69
L406.031 357.308
L406.031 366.724
L411.566 374.342
L420.522 377.252
L429.477 374.342
L435.012 366.724
L435.012 357.308
L429.477 349.69
z
" style="fill:#af0a0a;stroke:#000000;stroke-width:0.25;"/>
   </g>
   <g id="patch_51">
    <path clip-path="url(#p26abfc3274)" d="
M420.522 316.308
L411.566 319.218
L406.031 326.836
L406.031 336.252
L411.566 343.87
L420.522 346.78
L429.477 343.87
L435.012 336.252
L435.012 326.836
L429.477 319.218
z
" style="fill:#af0a0a;stroke:#000000;stroke-width:0.25;"/>
   </g>
   <g id="patch_52">
    <path clip-path="url(#p26abfc3274)" d="
M438.432 291.656
L429.477 294.566
L423.942 302.184
L423.942 311.6
L429.477 319.218
L438.432 322.128
L447.388 319.218
L452.922 311.6
L452.922 302.184
L447.388 294.566
z
" style="fill:#af0a0a;stroke:#000000;stroke-width:0.25;"/>
   </g>
   <g id="patch_53">
    <path clip-path="url(#p26abfc3274)" d="
M391.541 386.668
L382.586 389.578
L377.051 397.196
L377.051 406.612
L382.586 414.23
L391.541 417.14
L400.497 414.23
L406.031 406.612
L406.031 397.196
L400.497 389.578
z
" style="fill:#af0a0a;stroke:#000000;stroke-width:0.25;"/>
   </g>
   <g id="patch_54">
    <path clip-path="url(#p26abfc3274)" d="
M420.522 396.084
L411.566 398.994
L406.031 406.612
L406.031 416.028
L411.566 423.646
L420.522 426.556
L429.477 423.646
L435.012 416.028
L435.012 406.612
L429.477 398.994
z
" style="fill:#af0a0a;stroke:#000000;stroke-width:0.25;"/>
   </g>
   <g id="patch_55">
    <path clip-path="url(#p26abfc3274)" d="
M438.432 420.737
L429.477 423.646
L423.942 431.264
L423.942 440.681
L429.477 448.298
L438.432 451.208
L447.388 448.298
L452.922 440.681
L452.922 431.264
L447.388 423.646
z
" style="fill:#af0a0a;stroke:#000000;stroke-width:0.25;"/>
   </g>
   <g id="patch_56">
    <path clip-path="url(#p26abfc3274)" d="
M438.432 451.208
L429.477 454.118
L423.942 461.736
L423.942 471.152
L429.477 478.77
L438.432 481.68
L447.388 478.77
L452.922 471.152
L452.922 461.736
L447.388 454.118
z
" style="fill:#af0a0a;stroke:#000000;stroke-width:0.25;"/>
   </g>
   <g id="patch_57">
    <path clip-path="url(#p26abfc3274)" d="
M420.522 475.86
L411.566 478.77
L406.031 486.388
L406.031 495.804
L411.566 503.422
L420.522 506.332
L429.477 503.422
L435.012 495.804
L435.012 486.388
L429.477 478.77
z
" style="fill:#af0a0a;stroke:#000000;stroke-width:0.25;"/>
   </g>
   <g id="patch_58">
    <path clip-path="url(#p26abfc3274)" d="
M391.541 485.277
L382.586 488.186
L377.051 495.804
L377.051 505.221
L382.586 512.839
L391.541 515.748
L400.497 512.839
L406.031 505.221
L406.031 495.804
L400.497 488.186
z
" style="fill:#af0a0a;stroke:#000000;stroke-width:0.25;"/>
   </g>
   <g id="patch_59">
    <path clip-path="url(#p26abfc3274)" d="
M362.561 475.86
L353.605 478.77
L348.071 486.388
L348.071 495.804
L353.605 503.422
L362.561 506.332
L371.516 503.422
L377.051 495.804
L377.051 486.388
L371.516 478.77
z
" style="fill:#af0a0a;stroke:#000000;stroke-width:0.25;"/>
   </g>
   <g id="patch_60">
    <path clip-path="url(#p26abfc3274)" d="
M344.65 451.208
L335.695 454.118
L330.16 461.736
L330.16 471.152
L335.695 478.77
L344.65 481.68
L353.605 478.77
L359.14 471.152
L359.14 461.736
L353.605 454.118
z
" style="fill:#af0a0a;stroke:#000000;stroke-width:0.25;"/>
   </g>
   <g id="patch_61">
    <path clip-path="url(#p26abfc3274)" d="
M344.65 420.737
L335.695 423.646
L330.16 431.264
L330.16 440.681
L335.695 448.298
L344.65 451.208
L353.605 448.298
L359.14 440.681
L359.14 431.264
L353.605 423.646
z
" style="fill:#af0a0a;stroke:#000000;stroke-width:0.25;"/>
   </g>
   <g id="patch_62">
    <path clip-path="url(#p26abfc3274)" d="
M362.561 396.084
L353.605 398.994
L348.071 406.612
L348.071 416.028
L353.605 423.646
L362.561 426.556
L371.516 423.646
L377.051 416.028
L377.051 406.612
L371.516 398.994
z
" style="fill:#af0a0a;stroke:#000000;stroke-width:0.25;"/>
   </g>
   <g id="patch_63">
    <path clip-path="url(#p26abfc3274)" d="
M268.779 426.556
L259.823 429.466
L254.288 437.084
L254.288 446.5
L259.823 454.118
L268.779 457.028
L277.734 454.118
L283.269 446.5
L283.269 437.084
L277.734 429.466
z
" style="fill:#af0a0a;stroke:#000000;stroke-width:0.25;"/>
   </g>
   <g id="patch_64">
    <path clip-path="url(#p26abfc3274)" d="
M297.759 435.972
L288.803 438.882
L283.269 446.5
L283.269 455.916
L288.803 463.534
L297.759 466.444
L306.714 463.534
L312.249 455.916
L312.249 446.5
L306.714 438.882
z
" style="fill:#af0a0a;stroke:#000000;stroke-width:0.25;"/>
   </g>
   <g id="patch_65">
    <path clip-path="url(#p26abfc3274)" d="
M315.67 460.625
L306.714 463.534
L301.18 471.152
L301.18 480.569
L306.714 488.186
L315.67 491.096
L324.625 488.186
L330.16 480.569
L330.16 471.152
L324.625 463.534
z
" style="fill:#af0a0a;stroke:#000000;stroke-width:0.25;"/>
   </g>
   <g id="patch_66">
    <path clip-path="url(#p26abfc3274)" d="
M315.67 491.096
L306.714 494.006
L301.18 501.624
L301.18 511.04
L306.714 518.658
L315.67 521.568
L324.625 518.658
L330.16 511.04
L330.16 501.624
L324.625 494.006
z
" style="fill:#af0a0a;stroke:#000000;stroke-width:0.25;"/>
   </g>
   <g id="patch_67">
    <path clip-path="url(#p26abfc3274)" d="
M297.759 515.748
L288.803 518.658
L283.269 526.276
L283.269 535.692
L288.803 543.31
L297.759 546.22
L306.714 543.31
L312.249 535.692
L312.249 526.276
L306.714 518.658
z
" style="fill:#af0a0a;stroke:#000000;stroke-width:0.25;"/>
   </g>
   <g id="patch_68">
    <path clip-path="url(#p26abfc3274)" d="
M268.779 525.165
L259.823 528.074
L254.288 535.692
L254.288 545.109
L259.823 552.727
L268.779 555.636
L277.734 552.727
L283.269 545.109
L283.269 535.692
L277.734 528.074
z
" style="fill:#af0a0a;stroke:#000000;stroke-width:0.25;"/>
   </g>
   <g id="patch_69">
    <path clip-path="url(#p26abfc3274)" d="
M239.798 515.748
L230.843 518.658
L225.308 526.276
L225.308 535.692
L230.843 543.31
L239.798 546.22
L248.754 543.31
L254.288 535.692
L254.288 526.276
L248.754 518.658
z
" style="fill:#af0a0a;stroke:#000000;stroke-width:0.25;"/>
   </g>
   <g id="patch_70">
    <path clip-path="url(#p26abfc3274)" d="
M221.887 491.096
L212.932 494.006
L207.397 501.624
L207.397 511.04
L212.932 518.658
L221.887 521.568
L230.843 518.658
L236.378 511.04
L236.378 501.624
L230.843 494.006
z
" style="fill:#af0a0a;stroke:#000000;stroke-width:0.25;"/>
   </g>
   <g id="patch_71">
    <path clip-path="url(#p26abfc3274)" d="
M221.887 460.625
L212.932 463.534
L207.397 471.152
L207.397 480.569
L212.932 488.186
L221.887 491.096
L230.843 488.186
L236.378 480.569
L236.378 471.152
L230.843 463.534
z
" style="fill:#af0a0a;stroke:#000000;stroke-width:0.25;"/>
   </g>
   <g id="patch_72">
    <path clip-path="url(#p26abfc3274)" d="
M239.798 435.972
L230.843 438.882
L225.308 446.5
L225.308 455.916
L230.843 463.534
L239.798 466.444
L248.754 463.534
L254.288 455.916
L254.288 446.5
L248.754 438.882
z
" style="fill:#af0a0a;stroke:#000000;stroke-width:0.25;"/>
   </g>
   <g id="patch_73">
    <path clip-path="url(#p26abfc3274)" d="
M146.016 386.668
L137.061 389.578
L131.526 397.196
L131.526 406.612
L137.061 414.23
L146.016 417.14
L154.971 414.23
L160.506 406.612
L160.506 397.196
L154.971 389.578
z
" style="fill:#af0a0a;stroke:#000000;stroke-width:0.25;"/>
   </g>
   <g id="patch_74">
    <path clip-path="url(#p26abfc3274)" d="
M174.996 396.084
L166.041 398.994
L160.506 406.612
L160.506 416.028
L166.041 423.646
L174.996 426.556
L183.952 423.646
L189.486 416.028
L189.486 406.612
L183.952 398.994
z
" style="fill:#af0a0a;stroke:#000000;stroke-width:0.25;"/>
   </g>
   <g id="patch_75">
    <path clip-path="url(#p26abfc3274)" d="
M192.907 420.737
L183.952 423.646
L178.417 431.264
L178.417 440.681
L183.952 448.298
L192.907 451.208
L201.863 448.298
L207.397 440.681
L207.397 431.264
L201.863 423.646
z
" style="fill:#af0a0a;stroke:#000000;stroke-width:0.25;"/>
   </g>
   <g id="patch_76">
    <path clip-path="url(#p26abfc3274)" d="
M192.907 451.208
L183.952 454.118
L178.417 461.736
L178.417 471.152
L183.952 478.77
L192.907 481.68
L201.863 478.77
L207.397 471.152
L207.397 461.736
L201.863 454.118
z
" style="fill:#af0a0a;stroke:#000000;stroke-width:0.25;"/>
   </g>
   <g id="patch_77">
    <path clip-path="url(#p26abfc3274)" d="
M174.996 475.86
L166.041 478.77
L160.506 486.388
L160.506 495.804
L166.041 503.422
L174.996 506.332
L183.952 503.422
L189.486 495.804
L189.486 486.388
L183.952 478.77
z
" style="fill:#af0a0a;stroke:#000000;stroke-width:0.25;"/>
   </g>
   <g id="patch_78">
    <path clip-path="url(#p26abfc3274)" d="
M146.016 485.277
L137.061 488.186
L131.526 495.804
L131.526 505.221
L137.061 512.839
L146.016 515.748
L154.971 512.839
L160.506 505.221
L160.506 495.804
L154.971 488.186
z
" style="fill:#af0a0a;stroke:#000000;stroke-width:0.25;"/>
   </g>
   <g id="patch_79">
    <path clip-path="url(#p26abfc3274)" d="
M117.036 475.86
L108.08 478.77
L102.545 486.388
L102.545 495.804
L108.08 503.422
L117.036 506.332
L125.991 503.422
L131.526 495.804
L131.526 486.388
L125.991 478.77
z
" style="fill:#af0a0a;stroke:#000000;stroke-width:0.25;"/>
   </g>
   <g id="patch_80">
    <path clip-path="url(#p26abfc3274)" d="
M99.1248 451.208
L90.1694 454.118
L84.6347 461.736
L84.6347 471.152
L90.1694 478.77
L99.1248 481.68
L108.08 478.77
L113.615 471.152
L113.615 461.736
L108.08 454.118
z
" style="fill:#af0a0a;stroke:#000000;stroke-width:0.25;"/>
   </g>
   <g id="patch_81">
    <path clip-path="url(#p26abfc3274)" d="
M99.1248 420.737
L90.1694 423.646
L84.6347 431.264
L84.6347 440.681
L90.1694 448.298
L99.1248 451.208
L108.08 448.298
L113.615 440.681
L113.615 431.264
L108.08 423.646
z
" style="fill:#af0a0a;stroke:#000000;stroke-width:0.25;"/>
   </g>
   <g id="patch_82">
    <path clip-path="url(#p26abfc3274)" d="
M117.036 396.084
L108.08 398.994
L102.545 406.612
L102.545 416.028
L108.08 423.646
L117.036 426.556
L125.991 423.646
L131.526 416.028
L131.526 406.612
L125.991 398.994
z
" style="fill:#af0a0a;stroke:#000000;stroke-width:0.25;"/>
   </g>
   <g id="patch_83">
    <path clip-path="url(#p26abfc3274)" d="
M70.1445 282.24
L61.1891 285.15
L55.6544 292.768
L55.6544 302.184
L61.1891 309.802
L70.1445 312.712
L79.0999 309.802
L84.6347 302.184
L84.6347 292.768
L79.0999 285.15
z
" style="fill:#af0a0a;stroke:#000000;stroke-width:0.25;"/>
   </g>
   <g id="patch_84">
    <path clip-path="url(#p26abfc3274)" d="
M99.1248 291.656
L90.1694 294.566
L84.6347 302.184
L84.6347 311.6
L90.1694 319.218
L99.1248 322.128
L108.08 319.218
L113.615 311.6
L113.615 302.184
L108.08 294.566
z
" style="fill:#af0a0a;stroke:#000000;stroke-width:0.25;"/>
   </g>
   <g id="patch_85">
    <path clip-path="url(#p26abfc3274)" d="
M117.036 316.308
L108.08 319.218
L102.545 326.836
L102.545 336.252
L108.08 343.87
L117.036 346.78
L125.991 343.87
L131.526 336.252
L131.526 326.836
L125.991 319.218
z
" style="fill:#af0a0a;stroke:#000000;stroke-width:0.25;"/>
   </g>
   <g id="patch_86">
    <path clip-path="url(#p26abfc3274)" d="
M117.036 346.78
L108.08 349.69
L102.545 357.308
L102.545 366.724
L108.08 374.342
L117.036 377.252
L125.991 374.342
L131.526 366.724
L131.526 357.308
L125.991 349.69
z
" style="fill:#af0a0a;stroke:#000000;stroke-width:0.25;"/>
   </g>
   <g id="patch_87">
    <path clip-path="url(#p26abfc3274)" d="
M99.1248 371.432
L90.1694 374.342
L84.6347 381.96
L84.6347 391.376
L90.1694 398.994
L99.1248 401.904
L108.08 398.994
L113.615 391.376
L113.615 381.96
L108.08 374.342
z
" style="fill:#af0a0a;stroke:#000000;stroke-width:0.25;"/>
   </g>
   <g id="patch_88">
    <path clip-path="url(#p26abfc3274)" d="
M70.1445 380.849
L61.1891 383.758
L55.6544 391.376
L55.6544 400.793
L61.1891 408.41
L70.1445 411.32
L79.0999 408.41
L84.6347 400.793
L84.6347 391.376
L79.0999 383.758
z
" style="fill:#af0a0a;stroke:#000000;stroke-width:0.25;"/>
   </g>
   <g id="patch_89">
    <path clip-path="url(#p26abfc3274)" d="
M41.1642 371.432
L32.2088 374.342
L26.674 381.96
L26.674 391.376
L32.2088 398.994
L41.1642 401.904
L50.1196 398.994
L55.6544 391.376
L55.6544 381.96
L50.1196 374.342
z
" style="fill:#af0a0a;stroke:#000000;stroke-width:0.25;"/>
   </g>
   <g id="patch_90">
    <path clip-path="url(#p26abfc3274)" d="
M23.2534 346.78
L14.298 349.69
L8.76321 357.308
L8.76321 366.724
L14.298 374.342
L23.2534 377.252
L32.2088 374.342
L37.7435 366.724
L37.7435 357.308
L32.2088 349.69
z
" style="fill:#af0a0a;stroke:#000000;stroke-width:0.25;"/>
   </g>
   <g id="patch_91">
    <path clip-path="url(#p26abfc3274)" d="
M23.2534 316.308
L14.298 319.218
L8.76321 326.836
L8.76321 336.252
L14.298 343.87
L23.2534 346.78
L32.2088 343.87
L37.7435 336.252
L37.7435 326.836
L32.2088 319.218
z
" style="fill:#af0a0a;stroke:#000000;stroke-width:0.25;"/>
   </g>
   <g id="patch_92">
    <path clip-path="url(#p26abfc3274)" d="
M41.1642 291.656
L32.2088 294.566
L26.674 302.184
L26.674 311.6
L32.2088 319.218
L41.1642 322.128
L50.1196 319.218
L55.6544 311.6
L55.6544 302.184
L50.1196 294.566
z
" style="fill:#af0a0a;stroke:#000000;stroke-width:0.25;"/>
   </g>
   <g id="patch_93">
    <path clip-path="url(#p26abfc3274)" d="
M70.1445 153.16
L61.1891 156.07
L55.6544 163.687
L55.6544 173.104
L61.1891 180.722
L70.1445 183.631
L79.0999 180.722
L84.6347 173.104
L84.6347 163.687
L79.0999 156.07
z
" style="fill:#af0a0a;stroke:#000000;stroke-width:0.25;"/>
   </g>
   <g id="patch_94">
    <path clip-path="url(#p26abfc3274)" d="
M99.1248 162.576
L90.1694 165.486
L84.6347 173.104
L84.6347 182.52
L90.1694 190.138
L99.1248 193.048
L108.08 190.138
L113.615 182.52
L113.615 173.104
L108.08 165.486
z
" style="fill:#af0a0a;stroke:#000000;stroke-width:0.25;"/>
   </g>
   <g id="patch_95">
    <path clip-path="url(#p26abfc3274)" d="
M117.036 187.228
L108.08 190.138
L102.545 197.756
L102.545 207.172
L108.08 214.79
L117.036 217.7
L125.991 214.79
L131.526 207.172
L131.526 197.756
L125.991 190.138
z
" style="fill:#af0a0a;stroke:#000000;stroke-width:0.25;"/>
   </g>
   <g id="patch_96">
    <path clip-path="url(#p26abfc3274)" d="
M117.036 217.7
L108.08 220.61
L102.545 228.228
L102.545 237.644
L108.08 245.262
L117.036 248.172
L125.991 245.262
L131.526 237.644
L131.526 228.228
L125.991 220.61
z
" style="fill:#af0a0a;stroke:#000000;stroke-width:0.25;"/>
   </g>
   <g id="patch_97">
    <path clip-path="url(#p26abfc3274)" d="
M99.1248 242.352
L90.1694 245.262
L84.6347 252.88
L84.6347 262.296
L90.1694 269.914
L99.1248 272.824
L108.08 269.914
L113.615 262.296
L113.615 252.88
L108.08 245.262
z
" style="fill:#af0a0a;stroke:#000000;stroke-width:0.25;"/>
   </g>
   <g id="patch_98">
    <path clip-path="url(#p26abfc3274)" d="
M70.1445 251.768
L61.1891 254.678
L55.6544 262.296
L55.6544 271.712
L61.1891 279.33
L70.1445 282.24
L79.0999 279.33
L84.6347 271.712
L84.6347 262.296
L79.0999 254.678
z
" style="fill:#af0a0a;stroke:#000000;stroke-width:0.25;"/>
   </g>
   <g id="patch_99">
    <path clip-path="url(#p26abfc3274)" d="
M41.1642 242.352
L32.2088 245.262
L26.674 252.88
L26.674 262.296
L32.2088 269.914
L41.1642 272.824
L50.1196 269.914
L55.6544 262.296
L55.6544 252.88
L50.1196 245.262
z
" style="fill:#af0a0a;stroke:#000000;stroke-width:0.25;"/>
   </g>
   <g id="patch_100">
    <path clip-path="url(#p26abfc3274)" d="
M23.2534 217.7
L14.298 220.61
L8.76321 228.228
L8.76321 237.644
L14.298 245.262
L23.2534 248.172
L32.2088 245.262
L37.7435 237.644
L37.7435 228.228
L32.2088 220.61
z
" style="fill:#af0a0a;stroke:#000000;stroke-width:0.25;"/>
   </g>
   <g id="patch_101">
    <path clip-path="url(#p26abfc3274)" d="
M23.2534 187.228
L14.298 190.138
L8.76321 197.756
L8.76321 207.172
L14.298 214.79
L23.2534 217.7
L32.2088 214.79
L37.7435 207.172
L37.7435 197.756
L32.2088 190.138
z
" style="fill:#af0a0a;stroke:#000000;stroke-width:0.25;"/>
   </g>
   <g id="patch_102">
    <path clip-path="url(#p26abfc3274)" d="
M41.1642 162.576
L32.2088 165.486
L26.674 173.104
L26.674 182.52
L32.2088 190.138
L41.1642 193.048
L50.1196 190.138
L55.6544 182.52
L55.6544 173.104
L50.1196 165.486
z
" style="fill:#af0a0a;stroke:#000000;stroke-width:0.25;"/>
   </g>
   <g id="patch_103">
    <path clip-path="url(#p26abfc3274)" d="
M146.016 48.7316
L137.061 51.6414
L131.526 59.2594
L131.526 68.6756
L137.061 76.2936
L146.016 79.2034
L154.971 76.2936
L160.506 68.6756
L160.506 59.2594
L154.971 51.6414
z
" style="fill:#af0a0a;stroke:#000000;stroke-width:0.25;"/>
   </g>
   <g id="patch_104">
    <path clip-path="url(#p26abfc3274)" d="
M174.996 58.1479
L166.041 61.0577
L160.506 68.6756
L160.506 78.0919
L166.041 85.7098
L174.996 88.6196
L183.952 85.7098
L189.486 78.0919
L189.486 68.6756
L183.952 61.0577
z
" style="fill:#af0a0a;stroke:#000000;stroke-width:0.25;"/>
   </g>
   <g id="patch_105">
    <path clip-path="url(#p26abfc3274)" d="
M192.907 82.8001
L183.952 85.7098
L178.417 93.3278
L178.417 102.744
L183.952 110.362
L192.907 113.272
L201.863 110.362
L207.397 102.744
L207.397 93.3278
L201.863 85.7098
z
" style="fill:#af0a0a;stroke:#000000;stroke-width:0.25;"/>
   </g>
   <g id="patch_106">
    <path clip-path="url(#p26abfc3274)" d="
M192.907 113.272
L183.952 116.182
L178.417 123.799
L178.417 133.216
L183.952 140.834
L192.907 143.743
L201.863 140.834
L207.397 133.216
L207.397 123.799
L201.863 116.182
z
" style="fill:#af0a0a;stroke:#000000;stroke-width:0.25;"/>
   </g>
   <g id="patch_107">
    <path clip-path="url(#p26abfc3274)" d="
M174.996 137.924
L166.041 140.834
L160.506 148.452
L160.506 157.868
L166.041 165.486
L174.996 168.396
L183.952 165.486
L189.486 157.868
L189.486 148.452
L183.952 140.834
z
" style="fill:#af0a0a;stroke:#000000;stroke-width:0.25;"/>
   </g>
   <g id="patch_108">
    <path clip-path="url(#p26abfc3274)" d="
M146.016 147.34
L137.061 150.25
L131.526 157.868
L131.526 167.284
L137.061 174.902
L146.016 177.812
L154.971 174.902
L160.506 167.284
L160.506 157.868
L154.971 150.25
z
" style="fill:#af0a0a;stroke:#000000;stroke-width:0.25;"/>
   </g>
   <g id="patch_109">
    <path clip-path="url(#p26abfc3274)" d="
M117.036 137.924
L108.08 140.834
L102.545 148.452
L102.545 157.868
L108.08 165.486
L117.036 168.396
L125.991 165.486
L131.526 157.868
L131.526 148.452
L125.991 140.834
z
" style="fill:#af0a0a;stroke:#000000;stroke-width:0.25;"/>
   </g>
   <g id="patch_110">
    <path clip-path="url(#p26abfc3274)" d="
M99.1248 113.272
L90.1694 116.182
L84.6347 123.799
L84.6347 133.216
L90.1694 140.834
L99.1248 143.743
L108.08 140.834
L113.615 133.216
L113.615 123.799
L108.08 116.182
z
" style="fill:#af0a0a;stroke:#000000;stroke-width:0.25;"/>
   </g>
   <g id="patch_111">
    <path clip-path="url(#p26abfc3274)" d="
M99.1248 82.8001
L90.1694 85.7098
L84.6347 93.3278
L84.6347 102.744
L90.1694 110.362
L99.1248 113.272
L108.08 110.362
L113.615 102.744
L113.615 93.3278
L108.08 85.7098
z
" style="fill:#af0a0a;stroke:#000000;stroke-width:0.25;"/>
   </g>
   <g id="patch_112">
    <path clip-path="url(#p26abfc3274)" d="
M117.036 58.1479
L108.08 61.0577
L102.545 68.6756
L102.545 78.0919
L108.08 85.7098
L117.036 88.6196
L125.991 85.7098
L131.526 78.0919
L131.526 68.6756
L125.991 61.0577
z
" style="fill:#af0a0a;stroke:#000000;stroke-width:0.25;"/>
   </g>
   <g id="matplotlib.axis_1"/>
   <g id="matplotlib.axis_2"/>
  </g>
 </g>
 <defs>
  <clipPath id="p26abfc3274">
   <rect height="550.08" width="523.157168484" x="7.2" y="7.2"/>
  </clipPath>
 </defs>
</svg>
