<?xml version="1.0" encoding="utf-8" standalone="no"?>
<!DOCTYPE svg PUBLIC "-//W3C//DTD SVG 1.1//EN"
  "http://www.w3.org/Graphics/SVG/1.1/DTD/svg11.dtd">
<!-- Created with matplotlib (http://matplotlib.org/) -->
<svg height="490pt" version="1.1" viewBox="0 0 564 490" width="564pt" xmlns="http://www.w3.org/2000/svg" xmlns:xlink="http://www.w3.org/1999/xlink">
 <defs>
  <style type="text/css">
*{stroke-linecap:butt;stroke-linejoin:round;}
  </style>
 </defs>
 <g id="figure_1">
  <g id="patch_1">
   <path d="
M0 490.783
L564.48 490.783
L564.48 0
L0 0
z
" style="fill:none;"/>
  </g>
  <g id="axes_1">
   <g id="patch_2">
    <path clip-path="url(#pe261f8ed7f)" d="
M282.24 8.62345
L8.84366 482.16
L555.636 482.16
z
" style="fill:#bcd4e6;stroke:#000000;stroke-width:0.25;"/>
   </g>
   <g id="patch_3">
    <path clip-path="url(#pe261f8ed7f)" d="
M282.24 8.62345
L145.542 245.392
L418.938 245.392
z
" style="fill:#eae2ac;stroke:#000000;stroke-width:0.25;"/>
   </g>
   <g id="patch_4">
    <path clip-path="url(#pe261f8ed7f)" d="
M418.938 245.392
L282.24 482.16
L555.636 482.16
z
" style="fill:#eae2ac;stroke:#000000;stroke-width:0.25;"/>
   </g>
   <g id="patch_5">
    <path clip-path="url(#pe261f8ed7f)" d="
M145.542 245.392
L8.84366 482.16
L282.24 482.16
z
" style="fill:#eae2ac;stroke:#000000;stroke-width:0.25;"/>
   </g>
   <g id="patch_6">
    <path clip-path="url(#pe261f8ed7f)" d="
M282.24 8.62345
L213.891 127.008
L350.589 127.008
z
" style="fill:#af0a0a;stroke:#000000;stroke-width:0.25;"/>
   </g>
   <g id="patch_7">
    <path clip-path="url(#pe261f8ed7f)" d="
M350.589 127.008
L282.24 245.392
L418.938 245.392
z
" style="fill:#af0a0a;stroke:#000000;stroke-width:0.25;"/>
   </g>
   <g id="patch_8">
    <path clip-path="url(#pe261f8ed7f)" d="
M213.891 127.008
L145.542 245.392
L282.24 245.392
z
" style="fill:#af0a0a;stroke:#000000;stroke-width:0.25;"/>
   </g>
   <g id="patch_9">
    <path clip-path="url(#pe261f8ed7f)" d="
M418.938 245.392
L350.589 363.776
L487.287 363.776
z
" style="fill:#af0a0a;stroke:#000000;stroke-width:0.25;"/>
   </g>
   <g id="patch_10">
    <path clip-path="url(#pe261f8ed7f)" d="
M487.287 363.776
L418.938 482.16
L555.636 482.16
z
" style="fill:#af0a0a;stroke:#000000;stroke-width:0.25;"/>
   </g>
   <g id="patch_11">
    <path clip-path="url(#pe261f8ed7f)" d="
M350.589 363.776
L282.24 482.16
L418.938 482.16
z
" style="fill:#af0a0a;stroke:#000000;stroke-width:0.25;"/>
   </g>
   <g id="patch_12">
    <path clip-path="url(#pe261f8ed7f)" d="
M145.542 245.392
L77.1927 363.776
L213.891 363.776
z
" style="fill:#af0a0a;stroke:#000000;stroke-width:0.25;"/>
   </g>
   <g id="patch_13">
    <path clip-path="url(#pe261f8ed7f)" d="
M213.891 363.776
L145.542 482.16
L282.24 482.16
z
" style="fill:#af0a0a;stroke:#000000;stroke-width:0.25;"/>
   </g>
   <g id="patch_14">
    <path clip-path="url(#pe261f8ed7f)" d="
M77.1927 363.776
L8.84366 482.16
L145.542 482.16
z
" style="fill:#af0a0a;stroke:#000000;stroke-width:0.25;"/>
   </g>
   <g id="matplotlib.axis_1"/>
   <g id="matplotlib.axis_2"/>
  </g>
 </g>
 <defs>
  <clipPath id="pe261f8ed7f">
   <rect height="476.383254114" width="550.08" x="7.2" y="7.2"/>
  </clipPath>
 </defs>
</svg>
