<?xml version="1.0" encoding="utf-8" standalone="no"?>
<!DOCTYPE svg PUBLIC "-//W3C//DTD SVG 1.1//EN"
  "http://www.w3.org/Graphics/SVG/1.1/DTD/svg11.dtd">
<!-- Created with matplotlib (http://matplotlib.org/) -->
<svg height="564pt" version="1.1" viewBox="0 0 564 564" width="564pt" xmlns="http://www.w3.org/2000/svg" xmlns:xlink="http://www.w3.org/1999/xlink">
 <defs>
  <style type="text/css">
*{stroke-linecap:butt;stroke-linejoin:round;}
  </style>
 </defs>
 <g id="figure_1">
  <g id="patch_1">
   <path d="
M0 564.48
L564.48 564.48
L564.48 0
L0 0
z
" style="fill:none;"/>
  </g>
  <g id="axes_1">
   <g id="patch_2">
    <path clip-path="url(#p09214e8173)" d="
M282.24 8.29687
L145.268 44.9983
L44.9983 145.268
L8.29687 282.24
L44.9983 419.212
L145.268 519.482
L282.24 556.183
L419.212 519.482
L519.482 419.212
L556.183 282.24
L519.482 145.268
L419.212 44.9983
z
" style="fill:#bcd4e6;stroke:#000000;stroke-width:0.25;"/>
   </g>
   <g id="patch_3">
    <path clip-path="url(#p09214e8173)" d="
M282.24 8.29687
L253.295 16.0528
L232.105 37.2424
L224.349 66.1879
L232.105 95.1334
L253.295 116.323
L282.24 124.079
L311.185 116.323
L332.375 95.1334
L340.131 66.1879
L332.375 37.2424
L311.185 16.0528
z
" style="fill:#eae2ac;stroke:#000000;stroke-width:0.25;"/>
   </g>
   <g id="patch_4">
    <path clip-path="url(#p09214e8173)" d="
M390.266 37.2424
L361.321 44.9983
L340.131 66.1879
L332.375 95.1334
L340.131 124.079
L361.321 145.268
L390.266 153.024
L419.212 145.268
L440.401 124.079
L448.157 95.1334
L440.401 66.1879
L419.212 44.9983
z
" style="fill:#eae2ac;stroke:#000000;stroke-width:0.25;"/>
   </g>
   <g id="patch_5">
    <path clip-path="url(#p09214e8173)" d="
M469.347 116.323
L440.401 124.079
L419.212 145.268
L411.456 174.214
L419.212 203.159
L440.401 224.349
L469.347 232.105
L498.292 224.349
L519.482 203.159
L527.238 174.214
L519.482 145.268
L498.292 124.079
z
" style="fill:#eae2ac;stroke:#000000;stroke-width:0.25;"/>
   </g>
   <g id="patch_6">
    <path clip-path="url(#p09214e8173)" d="
M498.292 224.349
L469.347 232.105
L448.157 253.295
L440.401 282.24
L448.157 311.185
L469.347 332.375
L498.292 340.131
L527.238 332.375
L548.427 311.185
L556.183 282.24
L548.427 253.295
L527.238 232.105
z
" style="fill:#eae2ac;stroke:#000000;stroke-width:0.25;"/>
   </g>
   <g id="patch_7">
    <path clip-path="url(#p09214e8173)" d="
M469.347 332.375
L440.401 340.131
L419.212 361.321
L411.456 390.266
L419.212 419.212
L440.401 440.401
L469.347 448.157
L498.292 440.401
L519.482 419.212
L527.238 390.266
L519.482 361.321
L498.292 340.131
z
" style="fill:#eae2ac;stroke:#000000;stroke-width:0.25;"/>
   </g>
   <g id="patch_8">
    <path clip-path="url(#p09214e8173)" d="
M390.266 411.456
L361.321 419.212
L340.131 440.401
L332.375 469.347
L340.131 498.292
L361.321 519.482
L390.266 527.238
L419.212 519.482
L440.401 498.292
L448.157 469.347
L440.401 440.401
L419.212 419.212
z
" style="fill:#eae2ac;stroke:#000000;stroke-width:0.25;"/>
   </g>
   <g id="patch_9">
    <path clip-path="url(#p09214e8173)" d="
M282.24 440.401
L253.295 448.157
L232.105 469.347
L224.349 498.292
L232.105 527.238
L253.295 548.427
L282.24 556.183
L311.185 548.427
L332.375 527.238
L340.131 498.292
L332.375 469.347
L311.185 448.157
z
" style="fill:#eae2ac;stroke:#000000;stroke-width:0.25;"/>
   </g>
   <g id="patch_10">
    <path clip-path="url(#p09214e8173)" d="
M174.214 411.456
L145.268 419.212
L124.079 440.401
L116.323 469.347
L124.079 498.292
L145.268 519.482
L174.214 527.238
L203.159 519.482
L224.349 498.292
L232.105 469.347
L224.349 440.401
L203.159 419.212
z
" style="fill:#eae2ac;stroke:#000000;stroke-width:0.25;"/>
   </g>
   <g id="patch_11">
    <path clip-path="url(#p09214e8173)" d="
M95.1334 332.375
L66.1879 340.131
L44.9983 361.321
L37.2424 390.266
L44.9983 419.212
L66.1879 440.401
L95.1334 448.157
L124.079 440.401
L145.268 419.212
L153.024 390.266
L145.268 361.321
L124.079 340.131
z
" style="fill:#eae2ac;stroke:#000000;stroke-width:0.25;"/>
   </g>
   <g id="patch_12">
    <path clip-path="url(#p09214e8173)" d="
M66.1879 224.349
L37.2424 232.105
L16.0528 253.295
L8.29687 282.24
L16.0528 311.185
L37.2424 332.375
L66.1879 340.131
L95.1334 332.375
L116.323 311.185
L124.079 282.24
L116.323 253.295
L95.1334 232.105
z
" style="fill:#eae2ac;stroke:#000000;stroke-width:0.25;"/>
   </g>
   <g id="patch_13">
    <path clip-path="url(#p09214e8173)" d="
M95.1334 116.323
L66.1879 124.079
L44.9983 145.268
L37.2424 174.214
L44.9983 203.159
L66.1879 224.349
L95.1334 232.105
L124.079 224.349
L145.268 203.159
L153.024 174.214
L145.268 145.268
L124.079 124.079
z
" style="fill:#eae2ac;stroke:#000000;stroke-width:0.25;"/>
   </g>
   <g id="patch_14">
    <path clip-path="url(#p09214e8173)" d="
M174.214 37.2424
L145.268 44.9983
L124.079 66.1879
L116.323 95.1334
L124.079 124.079
L145.268 145.268
L174.214 153.024
L203.159 145.268
L224.349 124.079
L232.105 95.1334
L224.349 66.1879
L203.159 44.9983
z
" style="fill:#eae2ac;stroke:#000000;stroke-width:0.25;"/>
   </g>
   <g id="matplotlib.axis_1"/>
   <g id="matplotlib.axis_2"/>
  </g>
 </g>
 <defs>
  <clipPath id="p09214e8173">
   <rect height="550.08" width="550.08" x="7.2" y="7.2"/>
  </clipPath>
 </defs>
</svg>
