<?xml version="1.0" encoding="utf-8" standalone="no"?>
<!DOCTYPE svg PUBLIC "-//W3C//DTD SVG 1.1//EN"
  "http://www.w3.org/Graphics/SVG/1.1/DTD/svg11.dtd">
<!-- Created with matplotlib (http://matplotlib.org/) -->
<svg height="537pt" version="1.1" viewBox="0 0 564 537" width="564pt" xmlns="http://www.w3.org/2000/svg" xmlns:xlink="http://www.w3.org/1999/xlink">
 <defs>
  <style type="text/css">
*{stroke-linecap:butt;stroke-linejoin:round;}
  </style>
 </defs>
 <g id="figure_1">
  <g id="patch_1">
   <path d="
M0 537.557
L564.48 537.557
L564.48 0
L0 0
z
" style="fill:none;"/>
  </g>
  <g id="axes_1">
   <g id="patch_2">
    <path clip-path="url(#p5bd08335cf)" d="
M282.24 9.28221
L9.38936 207.52
L113.609 528.275
L450.871 528.275
L555.091 207.52
z
" style="fill:#bcd4e6;stroke:#000000;stroke-width:0.25;"/>
   </g>
   <g id="patch_3">
    <path clip-path="url(#p5bd08335cf)" d="
M373.19 75.3614
L282.24 141.441
L316.98 248.359
L429.401 248.359
L464.14 141.441
z
" style="fill:#eae2ac;stroke:#000000;stroke-width:0.25;"/>
   </g>
   <g id="patch_4">
    <path clip-path="url(#p5bd08335cf)" d="
M429.401 248.359
L338.45 314.438
L373.19 421.357
L485.611 421.357
L520.351 314.438
z
" style="fill:#eae2ac;stroke:#000000;stroke-width:0.25;"/>
   </g>
   <g id="patch_5">
    <path clip-path="url(#p5bd08335cf)" d="
M282.24 355.277
L191.29 421.357
L226.03 528.275
L338.45 528.275
L373.19 421.357
z
" style="fill:#eae2ac;stroke:#000000;stroke-width:0.25;"/>
   </g>
   <g id="patch_6">
    <path clip-path="url(#p5bd08335cf)" d="
M135.079 248.359
L44.1293 314.438
L78.8691 421.357
L191.29 421.357
L226.03 314.438
z
" style="fill:#eae2ac;stroke:#000000;stroke-width:0.25;"/>
   </g>
   <g id="patch_7">
    <path clip-path="url(#p5bd08335cf)" d="
M191.29 75.3614
L100.34 141.441
L135.079 248.359
L247.5 248.359
L282.24 141.441
z
" style="fill:#eae2ac;stroke:#000000;stroke-width:0.25;"/>
   </g>
   <g id="patch_8">
    <path clip-path="url(#p5bd08335cf)" d="
M403.507 97.3878
L373.19 119.414
L384.77 155.054
L422.244 155.054
L433.824 119.414
z
" style="fill:#af0a0a;stroke:#000000;stroke-width:0.25;"/>
   </g>
   <g id="patch_9">
    <path clip-path="url(#p5bd08335cf)" d="
M422.244 155.054
L391.927 177.08
L403.507 212.72
L440.98 212.72
L452.56 177.08
z
" style="fill:#af0a0a;stroke:#000000;stroke-width:0.25;"/>
   </g>
   <g id="patch_10">
    <path clip-path="url(#p5bd08335cf)" d="
M373.19 190.693
L342.873 212.72
L354.453 248.359
L391.927 248.359
L403.507 212.72
z
" style="fill:#af0a0a;stroke:#000000;stroke-width:0.25;"/>
   </g>
   <g id="patch_11">
    <path clip-path="url(#p5bd08335cf)" d="
M324.137 155.054
L293.82 177.08
L305.4 212.72
L342.873 212.72
L354.453 177.08
z
" style="fill:#af0a0a;stroke:#000000;stroke-width:0.25;"/>
   </g>
   <g id="patch_12">
    <path clip-path="url(#p5bd08335cf)" d="
M342.873 97.3878
L312.557 119.414
L324.137 155.054
L361.61 155.054
L373.19 119.414
z
" style="fill:#af0a0a;stroke:#000000;stroke-width:0.25;"/>
   </g>
   <g id="patch_13">
    <path clip-path="url(#p5bd08335cf)" d="
M459.717 270.385
L429.401 292.412
L440.98 328.051
L478.454 328.051
L490.034 292.412
z
" style="fill:#af0a0a;stroke:#000000;stroke-width:0.25;"/>
   </g>
   <g id="patch_14">
    <path clip-path="url(#p5bd08335cf)" d="
M478.454 328.051
L448.137 350.078
L459.717 385.717
L497.191 385.717
L508.771 350.078
z
" style="fill:#af0a0a;stroke:#000000;stroke-width:0.25;"/>
   </g>
   <g id="patch_15">
    <path clip-path="url(#p5bd08335cf)" d="
M429.401 363.691
L399.084 385.717
L410.664 421.357
L448.137 421.357
L459.717 385.717
z
" style="fill:#af0a0a;stroke:#000000;stroke-width:0.25;"/>
   </g>
   <g id="patch_16">
    <path clip-path="url(#p5bd08335cf)" d="
M380.347 328.051
L350.03 350.078
L361.61 385.717
L399.084 385.717
L410.664 350.078
z
" style="fill:#af0a0a;stroke:#000000;stroke-width:0.25;"/>
   </g>
   <g id="patch_17">
    <path clip-path="url(#p5bd08335cf)" d="
M399.084 270.385
L368.767 292.412
L380.347 328.051
L417.821 328.051
L429.401 292.412
z
" style="fill:#af0a0a;stroke:#000000;stroke-width:0.25;"/>
   </g>
   <g id="patch_18">
    <path clip-path="url(#p5bd08335cf)" d="
M312.557 377.304
L282.24 399.33
L293.82 434.97
L331.294 434.97
L342.873 399.33
z
" style="fill:#af0a0a;stroke:#000000;stroke-width:0.25;"/>
   </g>
   <g id="patch_19">
    <path clip-path="url(#p5bd08335cf)" d="
M331.294 434.97
L300.977 456.996
L312.557 492.635
L350.03 492.635
L361.61 456.996
z
" style="fill:#af0a0a;stroke:#000000;stroke-width:0.25;"/>
   </g>
   <g id="patch_20">
    <path clip-path="url(#p5bd08335cf)" d="
M282.24 470.609
L251.923 492.635
L263.503 528.275
L300.977 528.275
L312.557 492.635
z
" style="fill:#af0a0a;stroke:#000000;stroke-width:0.25;"/>
   </g>
   <g id="patch_21">
    <path clip-path="url(#p5bd08335cf)" d="
M233.186 434.97
L202.87 456.996
L214.45 492.635
L251.923 492.635
L263.503 456.996
z
" style="fill:#af0a0a;stroke:#000000;stroke-width:0.25;"/>
   </g>
   <g id="patch_22">
    <path clip-path="url(#p5bd08335cf)" d="
M251.923 377.304
L221.607 399.33
L233.186 434.97
L270.66 434.97
L282.24 399.33
z
" style="fill:#af0a0a;stroke:#000000;stroke-width:0.25;"/>
   </g>
   <g id="patch_23">
    <path clip-path="url(#p5bd08335cf)" d="
M165.396 270.385
L135.079 292.412
L146.659 328.051
L184.133 328.051
L195.713 292.412
z
" style="fill:#af0a0a;stroke:#000000;stroke-width:0.25;"/>
   </g>
   <g id="patch_24">
    <path clip-path="url(#p5bd08335cf)" d="
M184.133 328.051
L153.816 350.078
L165.396 385.717
L202.87 385.717
L214.45 350.078
z
" style="fill:#af0a0a;stroke:#000000;stroke-width:0.25;"/>
   </g>
   <g id="patch_25">
    <path clip-path="url(#p5bd08335cf)" d="
M135.079 363.691
L104.763 385.717
L116.343 421.357
L153.816 421.357
L165.396 385.717
z
" style="fill:#af0a0a;stroke:#000000;stroke-width:0.25;"/>
   </g>
   <g id="patch_26">
    <path clip-path="url(#p5bd08335cf)" d="
M86.026 328.051
L55.7092 350.078
L67.2892 385.717
L104.763 385.717
L116.343 350.078
z
" style="fill:#af0a0a;stroke:#000000;stroke-width:0.25;"/>
   </g>
   <g id="patch_27">
    <path clip-path="url(#p5bd08335cf)" d="
M104.763 270.385
L74.446 292.412
L86.026 328.051
L123.5 328.051
L135.079 292.412
z
" style="fill:#af0a0a;stroke:#000000;stroke-width:0.25;"/>
   </g>
   <g id="patch_28">
    <path clip-path="url(#p5bd08335cf)" d="
M221.607 97.3878
L191.29 119.414
L202.87 155.054
L240.343 155.054
L251.923 119.414
z
" style="fill:#af0a0a;stroke:#000000;stroke-width:0.25;"/>
   </g>
   <g id="patch_29">
    <path clip-path="url(#p5bd08335cf)" d="
M240.343 155.054
L210.027 177.08
L221.607 212.72
L259.08 212.72
L270.66 177.08
z
" style="fill:#af0a0a;stroke:#000000;stroke-width:0.25;"/>
   </g>
   <g id="patch_30">
    <path clip-path="url(#p5bd08335cf)" d="
M191.29 190.693
L160.973 212.72
L172.553 248.359
L210.027 248.359
L221.607 212.72
z
" style="fill:#af0a0a;stroke:#000000;stroke-width:0.25;"/>
   </g>
   <g id="patch_31">
    <path clip-path="url(#p5bd08335cf)" d="
M142.236 155.054
L111.92 177.08
L123.5 212.72
L160.973 212.72
L172.553 177.08
z
" style="fill:#af0a0a;stroke:#000000;stroke-width:0.25;"/>
   </g>
   <g id="patch_32">
    <path clip-path="url(#p5bd08335cf)" d="
M160.973 97.3878
L130.656 119.414
L142.236 155.054
L179.71 155.054
L191.29 119.414
z
" style="fill:#af0a0a;stroke:#000000;stroke-width:0.25;"/>
   </g>
   <g id="patch_33">
    <path clip-path="url(#p5bd08335cf)" d="
M413.613 104.73
L403.507 112.072
L407.367 123.952
L419.858 123.952
L423.718 112.072
z
" style="fill:#dcdcdc;stroke:#000000;stroke-width:0.25;"/>
   </g>
   <g id="patch_34">
    <path clip-path="url(#p5bd08335cf)" d="
M419.858 123.952
L409.753 131.294
L413.613 143.174
L426.104 143.174
L429.964 131.294
z
" style="fill:#dcdcdc;stroke:#000000;stroke-width:0.25;"/>
   </g>
   <g id="patch_35">
    <path clip-path="url(#p5bd08335cf)" d="
M403.507 135.832
L393.401 143.174
L397.261 155.054
L409.753 155.054
L413.613 143.174
z
" style="fill:#dcdcdc;stroke:#000000;stroke-width:0.25;"/>
   </g>
   <g id="patch_36">
    <path clip-path="url(#p5bd08335cf)" d="
M387.156 123.952
L377.05 131.294
L380.91 143.174
L393.401 143.174
L397.261 131.294
z
" style="fill:#dcdcdc;stroke:#000000;stroke-width:0.25;"/>
   </g>
   <g id="patch_37">
    <path clip-path="url(#p5bd08335cf)" d="
M393.401 104.73
L383.296 112.072
L387.156 123.952
L399.647 123.952
L403.507 112.072
z
" style="fill:#dcdcdc;stroke:#000000;stroke-width:0.25;"/>
   </g>
   <g id="patch_38">
    <path clip-path="url(#p5bd08335cf)" d="
M432.349 162.396
L422.244 169.738
L426.104 181.618
L438.595 181.618
L442.455 169.738
z
" style="fill:#dcdcdc;stroke:#000000;stroke-width:0.25;"/>
   </g>
   <g id="patch_39">
    <path clip-path="url(#p5bd08335cf)" d="
M438.595 181.618
L428.489 188.96
L432.349 200.84
L444.84 200.84
L448.7 188.96
z
" style="fill:#dcdcdc;stroke:#000000;stroke-width:0.25;"/>
   </g>
   <g id="patch_40">
    <path clip-path="url(#p5bd08335cf)" d="
M422.244 193.498
L412.138 200.84
L415.998 212.72
L428.489 212.72
L432.349 200.84
z
" style="fill:#dcdcdc;stroke:#000000;stroke-width:0.25;"/>
   </g>
   <g id="patch_41">
    <path clip-path="url(#p5bd08335cf)" d="
M405.893 181.618
L395.787 188.96
L399.647 200.84
L412.138 200.84
L415.998 188.96
z
" style="fill:#dcdcdc;stroke:#000000;stroke-width:0.25;"/>
   </g>
   <g id="patch_42">
    <path clip-path="url(#p5bd08335cf)" d="
M412.138 162.396
L402.033 169.738
L405.893 181.618
L418.384 181.618
L422.244 169.738
z
" style="fill:#dcdcdc;stroke:#000000;stroke-width:0.25;"/>
   </g>
   <g id="patch_43">
    <path clip-path="url(#p5bd08335cf)" d="
M383.296 198.035
L373.19 205.377
L377.05 217.257
L389.541 217.257
L393.401 205.377
z
" style="fill:#dcdcdc;stroke:#000000;stroke-width:0.25;"/>
   </g>
   <g id="patch_44">
    <path clip-path="url(#p5bd08335cf)" d="
M389.541 217.257
L379.436 224.599
L383.296 236.479
L395.787 236.479
L399.647 224.599
z
" style="fill:#dcdcdc;stroke:#000000;stroke-width:0.25;"/>
   </g>
   <g id="patch_45">
    <path clip-path="url(#p5bd08335cf)" d="
M373.19 229.137
L363.085 236.479
L366.945 248.359
L379.436 248.359
L383.296 236.479
z
" style="fill:#dcdcdc;stroke:#000000;stroke-width:0.25;"/>
   </g>
   <g id="patch_46">
    <path clip-path="url(#p5bd08335cf)" d="
M356.839 217.257
L346.733 224.599
L350.593 236.479
L363.085 236.479
L366.945 224.599
z
" style="fill:#dcdcdc;stroke:#000000;stroke-width:0.25;"/>
   </g>
   <g id="patch_47">
    <path clip-path="url(#p5bd08335cf)" d="
M363.085 198.035
L352.979 205.377
L356.839 217.257
L369.33 217.257
L373.19 205.377
z
" style="fill:#dcdcdc;stroke:#000000;stroke-width:0.25;"/>
   </g>
   <g id="patch_48">
    <path clip-path="url(#p5bd08335cf)" d="
M334.242 162.396
L324.137 169.738
L327.997 181.618
L340.488 181.618
L344.348 169.738
z
" style="fill:#dcdcdc;stroke:#000000;stroke-width:0.25;"/>
   </g>
   <g id="patch_49">
    <path clip-path="url(#p5bd08335cf)" d="
M340.488 181.618
L330.382 188.96
L334.242 200.84
L346.733 200.84
L350.593 188.96
z
" style="fill:#dcdcdc;stroke:#000000;stroke-width:0.25;"/>
   </g>
   <g id="patch_50">
    <path clip-path="url(#p5bd08335cf)" d="
M324.137 193.498
L314.031 200.84
L317.891 212.72
L330.382 212.72
L334.242 200.84
z
" style="fill:#dcdcdc;stroke:#000000;stroke-width:0.25;"/>
   </g>
   <g id="patch_51">
    <path clip-path="url(#p5bd08335cf)" d="
M307.786 181.618
L297.68 188.96
L301.54 200.84
L314.031 200.84
L317.891 188.96
z
" style="fill:#dcdcdc;stroke:#000000;stroke-width:0.25;"/>
   </g>
   <g id="patch_52">
    <path clip-path="url(#p5bd08335cf)" d="
M314.031 162.396
L303.926 169.738
L307.786 181.618
L320.277 181.618
L324.137 169.738
z
" style="fill:#dcdcdc;stroke:#000000;stroke-width:0.25;"/>
   </g>
   <g id="patch_53">
    <path clip-path="url(#p5bd08335cf)" d="
M352.979 104.73
L342.873 112.072
L346.733 123.952
L359.225 123.952
L363.085 112.072
z
" style="fill:#dcdcdc;stroke:#000000;stroke-width:0.25;"/>
   </g>
   <g id="patch_54">
    <path clip-path="url(#p5bd08335cf)" d="
M359.225 123.952
L349.119 131.294
L352.979 143.174
L365.47 143.174
L369.33 131.294
z
" style="fill:#dcdcdc;stroke:#000000;stroke-width:0.25;"/>
   </g>
   <g id="patch_55">
    <path clip-path="url(#p5bd08335cf)" d="
M342.873 135.832
L332.768 143.174
L336.628 155.054
L349.119 155.054
L352.979 143.174
z
" style="fill:#dcdcdc;stroke:#000000;stroke-width:0.25;"/>
   </g>
   <g id="patch_56">
    <path clip-path="url(#p5bd08335cf)" d="
M326.522 123.952
L316.417 131.294
L320.277 143.174
L332.768 143.174
L336.628 131.294
z
" style="fill:#dcdcdc;stroke:#000000;stroke-width:0.25;"/>
   </g>
   <g id="patch_57">
    <path clip-path="url(#p5bd08335cf)" d="
M332.768 104.73
L322.662 112.072
L326.522 123.952
L339.013 123.952
L342.873 112.072
z
" style="fill:#dcdcdc;stroke:#000000;stroke-width:0.25;"/>
   </g>
   <g id="patch_58">
    <path clip-path="url(#p5bd08335cf)" d="
M469.823 277.728
L459.717 285.07
L463.577 296.949
L476.068 296.949
L479.928 285.07
z
" style="fill:#dcdcdc;stroke:#000000;stroke-width:0.25;"/>
   </g>
   <g id="patch_59">
    <path clip-path="url(#p5bd08335cf)" d="
M476.068 296.949
L465.963 304.292
L469.823 316.171
L482.314 316.171
L486.174 304.292
z
" style="fill:#dcdcdc;stroke:#000000;stroke-width:0.25;"/>
   </g>
   <g id="patch_60">
    <path clip-path="url(#p5bd08335cf)" d="
M459.717 308.829
L449.612 316.171
L453.472 328.051
L465.963 328.051
L469.823 316.171
z
" style="fill:#dcdcdc;stroke:#000000;stroke-width:0.25;"/>
   </g>
   <g id="patch_61">
    <path clip-path="url(#p5bd08335cf)" d="
M443.366 296.949
L433.261 304.292
L437.121 316.171
L449.612 316.171
L453.472 304.292
z
" style="fill:#dcdcdc;stroke:#000000;stroke-width:0.25;"/>
   </g>
   <g id="patch_62">
    <path clip-path="url(#p5bd08335cf)" d="
M449.612 277.728
L439.506 285.07
L443.366 296.949
L455.857 296.949
L459.717 285.07
z
" style="fill:#dcdcdc;stroke:#000000;stroke-width:0.25;"/>
   </g>
   <g id="patch_63">
    <path clip-path="url(#p5bd08335cf)" d="
M488.56 335.393
L478.454 342.736
L482.314 354.615
L494.805 354.615
L498.665 342.736
z
" style="fill:#dcdcdc;stroke:#000000;stroke-width:0.25;"/>
   </g>
   <g id="patch_64">
    <path clip-path="url(#p5bd08335cf)" d="
M494.805 354.615
L484.7 361.957
L488.56 373.837
L501.051 373.837
L504.911 361.957
z
" style="fill:#dcdcdc;stroke:#000000;stroke-width:0.25;"/>
   </g>
   <g id="patch_65">
    <path clip-path="url(#p5bd08335cf)" d="
M478.454 366.495
L468.348 373.837
L472.208 385.717
L484.7 385.717
L488.56 373.837
z
" style="fill:#dcdcdc;stroke:#000000;stroke-width:0.25;"/>
   </g>
   <g id="patch_66">
    <path clip-path="url(#p5bd08335cf)" d="
M462.103 354.615
L451.997 361.957
L455.857 373.837
L468.348 373.837
L472.208 361.957
z
" style="fill:#dcdcdc;stroke:#000000;stroke-width:0.25;"/>
   </g>
   <g id="patch_67">
    <path clip-path="url(#p5bd08335cf)" d="
M468.348 335.393
L458.243 342.736
L462.103 354.615
L474.594 354.615
L478.454 342.736
z
" style="fill:#dcdcdc;stroke:#000000;stroke-width:0.25;"/>
   </g>
   <g id="patch_68">
    <path clip-path="url(#p5bd08335cf)" d="
M439.506 371.033
L429.401 378.375
L433.261 390.255
L445.752 390.255
L449.612 378.375
z
" style="fill:#dcdcdc;stroke:#000000;stroke-width:0.25;"/>
   </g>
   <g id="patch_69">
    <path clip-path="url(#p5bd08335cf)" d="
M445.752 390.255
L435.646 397.597
L439.506 409.477
L451.997 409.477
L455.857 397.597
z
" style="fill:#dcdcdc;stroke:#000000;stroke-width:0.25;"/>
   </g>
   <g id="patch_70">
    <path clip-path="url(#p5bd08335cf)" d="
M429.401 402.135
L419.295 409.477
L423.155 421.357
L435.646 421.357
L439.506 409.477
z
" style="fill:#dcdcdc;stroke:#000000;stroke-width:0.25;"/>
   </g>
   <g id="patch_71">
    <path clip-path="url(#p5bd08335cf)" d="
M413.049 390.255
L402.944 397.597
L406.804 409.477
L419.295 409.477
L423.155 397.597
z
" style="fill:#dcdcdc;stroke:#000000;stroke-width:0.25;"/>
   </g>
   <g id="patch_72">
    <path clip-path="url(#p5bd08335cf)" d="
M419.295 371.033
L409.189 378.375
L413.049 390.255
L425.541 390.255
L429.401 378.375
z
" style="fill:#dcdcdc;stroke:#000000;stroke-width:0.25;"/>
   </g>
   <g id="patch_73">
    <path clip-path="url(#p5bd08335cf)" d="
M390.453 335.393
L380.347 342.736
L384.207 354.615
L396.698 354.615
L400.558 342.736
z
" style="fill:#dcdcdc;stroke:#000000;stroke-width:0.25;"/>
   </g>
   <g id="patch_74">
    <path clip-path="url(#p5bd08335cf)" d="
M396.698 354.615
L386.593 361.957
L390.453 373.837
L402.944 373.837
L406.804 361.957
z
" style="fill:#dcdcdc;stroke:#000000;stroke-width:0.25;"/>
   </g>
   <g id="patch_75">
    <path clip-path="url(#p5bd08335cf)" d="
M380.347 366.495
L370.241 373.837
L374.101 385.717
L386.593 385.717
L390.453 373.837
z
" style="fill:#dcdcdc;stroke:#000000;stroke-width:0.25;"/>
   </g>
   <g id="patch_76">
    <path clip-path="url(#p5bd08335cf)" d="
M363.996 354.615
L353.89 361.957
L357.75 373.837
L370.241 373.837
L374.101 361.957
z
" style="fill:#dcdcdc;stroke:#000000;stroke-width:0.25;"/>
   </g>
   <g id="patch_77">
    <path clip-path="url(#p5bd08335cf)" d="
M370.241 335.393
L360.136 342.736
L363.996 354.615
L376.487 354.615
L380.347 342.736
z
" style="fill:#dcdcdc;stroke:#000000;stroke-width:0.25;"/>
   </g>
   <g id="patch_78">
    <path clip-path="url(#p5bd08335cf)" d="
M409.189 277.728
L399.084 285.07
L402.944 296.949
L415.435 296.949
L419.295 285.07
z
" style="fill:#dcdcdc;stroke:#000000;stroke-width:0.25;"/>
   </g>
   <g id="patch_79">
    <path clip-path="url(#p5bd08335cf)" d="
M415.435 296.949
L405.329 304.292
L409.189 316.171
L421.681 316.171
L425.541 304.292
z
" style="fill:#dcdcdc;stroke:#000000;stroke-width:0.25;"/>
   </g>
   <g id="patch_80">
    <path clip-path="url(#p5bd08335cf)" d="
M399.084 308.829
L388.978 316.171
L392.838 328.051
L405.329 328.051
L409.189 316.171
z
" style="fill:#dcdcdc;stroke:#000000;stroke-width:0.25;"/>
   </g>
   <g id="patch_81">
    <path clip-path="url(#p5bd08335cf)" d="
M382.733 296.949
L372.627 304.292
L376.487 316.171
L388.978 316.171
L392.838 304.292
z
" style="fill:#dcdcdc;stroke:#000000;stroke-width:0.25;"/>
   </g>
   <g id="patch_82">
    <path clip-path="url(#p5bd08335cf)" d="
M388.978 277.728
L378.873 285.07
L382.733 296.949
L395.224 296.949
L399.084 285.07
z
" style="fill:#dcdcdc;stroke:#000000;stroke-width:0.25;"/>
   </g>
   <g id="patch_83">
    <path clip-path="url(#p5bd08335cf)" d="
M322.662 384.646
L312.557 391.988
L316.417 403.868
L328.908 403.868
L332.768 391.988
z
" style="fill:#dcdcdc;stroke:#000000;stroke-width:0.25;"/>
   </g>
   <g id="patch_84">
    <path clip-path="url(#p5bd08335cf)" d="
M328.908 403.868
L318.802 411.21
L322.662 423.09
L335.153 423.09
L339.013 411.21
z
" style="fill:#dcdcdc;stroke:#000000;stroke-width:0.25;"/>
   </g>
   <g id="patch_85">
    <path clip-path="url(#p5bd08335cf)" d="
M312.557 415.748
L302.451 423.09
L306.311 434.97
L318.802 434.97
L322.662 423.09
z
" style="fill:#dcdcdc;stroke:#000000;stroke-width:0.25;"/>
   </g>
   <g id="patch_86">
    <path clip-path="url(#p5bd08335cf)" d="
M296.206 403.868
L286.1 411.21
L289.96 423.09
L302.451 423.09
L306.311 411.21
z
" style="fill:#dcdcdc;stroke:#000000;stroke-width:0.25;"/>
   </g>
   <g id="patch_87">
    <path clip-path="url(#p5bd08335cf)" d="
M302.451 384.646
L292.346 391.988
L296.206 403.868
L308.697 403.868
L312.557 391.988
z
" style="fill:#dcdcdc;stroke:#000000;stroke-width:0.25;"/>
   </g>
   <g id="patch_88">
    <path clip-path="url(#p5bd08335cf)" d="
M341.399 442.312
L331.294 449.654
L335.153 461.534
L347.645 461.534
L351.505 449.654
z
" style="fill:#dcdcdc;stroke:#000000;stroke-width:0.25;"/>
   </g>
   <g id="patch_89">
    <path clip-path="url(#p5bd08335cf)" d="
M347.645 461.534
L337.539 468.876
L341.399 480.756
L353.89 480.756
L357.75 468.876
z
" style="fill:#dcdcdc;stroke:#000000;stroke-width:0.25;"/>
   </g>
   <g id="patch_90">
    <path clip-path="url(#p5bd08335cf)" d="
M331.294 473.414
L321.188 480.756
L325.048 492.635
L337.539 492.635
L341.399 480.756
z
" style="fill:#dcdcdc;stroke:#000000;stroke-width:0.25;"/>
   </g>
   <g id="patch_91">
    <path clip-path="url(#p5bd08335cf)" d="
M314.942 461.534
L304.837 468.876
L308.697 480.756
L321.188 480.756
L325.048 468.876
z
" style="fill:#dcdcdc;stroke:#000000;stroke-width:0.25;"/>
   </g>
   <g id="patch_92">
    <path clip-path="url(#p5bd08335cf)" d="
M321.188 442.312
L311.082 449.654
L314.942 461.534
L327.434 461.534
L331.294 449.654
z
" style="fill:#dcdcdc;stroke:#000000;stroke-width:0.25;"/>
   </g>
   <g id="patch_93">
    <path clip-path="url(#p5bd08335cf)" d="
M292.346 477.951
L282.24 485.293
L286.1 497.173
L298.591 497.173
L302.451 485.293
z
" style="fill:#dcdcdc;stroke:#000000;stroke-width:0.25;"/>
   </g>
   <g id="patch_94">
    <path clip-path="url(#p5bd08335cf)" d="
M298.591 497.173
L288.486 504.515
L292.346 516.395
L304.837 516.395
L308.697 504.515
z
" style="fill:#dcdcdc;stroke:#000000;stroke-width:0.25;"/>
   </g>
   <g id="patch_95">
    <path clip-path="url(#p5bd08335cf)" d="
M282.24 509.053
L272.134 516.395
L275.994 528.275
L288.486 528.275
L292.346 516.395
z
" style="fill:#dcdcdc;stroke:#000000;stroke-width:0.25;"/>
   </g>
   <g id="patch_96">
    <path clip-path="url(#p5bd08335cf)" d="
M265.889 497.173
L255.783 504.515
L259.643 516.395
L272.134 516.395
L275.994 504.515
z
" style="fill:#dcdcdc;stroke:#000000;stroke-width:0.25;"/>
   </g>
   <g id="patch_97">
    <path clip-path="url(#p5bd08335cf)" d="
M272.134 477.951
L262.029 485.293
L265.889 497.173
L278.38 497.173
L282.24 485.293
z
" style="fill:#dcdcdc;stroke:#000000;stroke-width:0.25;"/>
   </g>
   <g id="patch_98">
    <path clip-path="url(#p5bd08335cf)" d="
M243.292 442.312
L233.186 449.654
L237.046 461.534
L249.538 461.534
L253.398 449.654
z
" style="fill:#dcdcdc;stroke:#000000;stroke-width:0.25;"/>
   </g>
   <g id="patch_99">
    <path clip-path="url(#p5bd08335cf)" d="
M249.538 461.534
L239.432 468.876
L243.292 480.756
L255.783 480.756
L259.643 468.876
z
" style="fill:#dcdcdc;stroke:#000000;stroke-width:0.25;"/>
   </g>
   <g id="patch_100">
    <path clip-path="url(#p5bd08335cf)" d="
M233.186 473.414
L223.081 480.756
L226.941 492.635
L239.432 492.635
L243.292 480.756
z
" style="fill:#dcdcdc;stroke:#000000;stroke-width:0.25;"/>
   </g>
   <g id="patch_101">
    <path clip-path="url(#p5bd08335cf)" d="
M216.835 461.534
L206.73 468.876
L210.59 480.756
L223.081 480.756
L226.941 468.876
z
" style="fill:#dcdcdc;stroke:#000000;stroke-width:0.25;"/>
   </g>
   <g id="patch_102">
    <path clip-path="url(#p5bd08335cf)" d="
M223.081 442.312
L212.975 449.654
L216.835 461.534
L229.327 461.534
L233.186 449.654
z
" style="fill:#dcdcdc;stroke:#000000;stroke-width:0.25;"/>
   </g>
   <g id="patch_103">
    <path clip-path="url(#p5bd08335cf)" d="
M262.029 384.646
L251.923 391.988
L255.783 403.868
L268.274 403.868
L272.134 391.988
z
" style="fill:#dcdcdc;stroke:#000000;stroke-width:0.25;"/>
   </g>
   <g id="patch_104">
    <path clip-path="url(#p5bd08335cf)" d="
M268.274 403.868
L258.169 411.21
L262.029 423.09
L274.52 423.09
L278.38 411.21
z
" style="fill:#dcdcdc;stroke:#000000;stroke-width:0.25;"/>
   </g>
   <g id="patch_105">
    <path clip-path="url(#p5bd08335cf)" d="
M251.923 415.748
L241.818 423.09
L245.678 434.97
L258.169 434.97
L262.029 423.09
z
" style="fill:#dcdcdc;stroke:#000000;stroke-width:0.25;"/>
   </g>
   <g id="patch_106">
    <path clip-path="url(#p5bd08335cf)" d="
M235.572 403.868
L225.467 411.21
L229.327 423.09
L241.818 423.09
L245.678 411.21
z
" style="fill:#dcdcdc;stroke:#000000;stroke-width:0.25;"/>
   </g>
   <g id="patch_107">
    <path clip-path="url(#p5bd08335cf)" d="
M241.818 384.646
L231.712 391.988
L235.572 403.868
L248.063 403.868
L251.923 391.988
z
" style="fill:#dcdcdc;stroke:#000000;stroke-width:0.25;"/>
   </g>
   <g id="patch_108">
    <path clip-path="url(#p5bd08335cf)" d="
M175.502 277.728
L165.396 285.07
L169.256 296.949
L181.747 296.949
L185.607 285.07
z
" style="fill:#dcdcdc;stroke:#000000;stroke-width:0.25;"/>
   </g>
   <g id="patch_109">
    <path clip-path="url(#p5bd08335cf)" d="
M181.747 296.949
L171.642 304.292
L175.502 316.171
L187.993 316.171
L191.853 304.292
z
" style="fill:#dcdcdc;stroke:#000000;stroke-width:0.25;"/>
   </g>
   <g id="patch_110">
    <path clip-path="url(#p5bd08335cf)" d="
M165.396 308.829
L155.291 316.171
L159.151 328.051
L171.642 328.051
L175.502 316.171
z
" style="fill:#dcdcdc;stroke:#000000;stroke-width:0.25;"/>
   </g>
   <g id="patch_111">
    <path clip-path="url(#p5bd08335cf)" d="
M149.045 296.949
L138.939 304.292
L142.799 316.171
L155.291 316.171
L159.151 304.292
z
" style="fill:#dcdcdc;stroke:#000000;stroke-width:0.25;"/>
   </g>
   <g id="patch_112">
    <path clip-path="url(#p5bd08335cf)" d="
M155.291 277.728
L145.185 285.07
L149.045 296.949
L161.536 296.949
L165.396 285.07
z
" style="fill:#dcdcdc;stroke:#000000;stroke-width:0.25;"/>
   </g>
   <g id="patch_113">
    <path clip-path="url(#p5bd08335cf)" d="
M194.239 335.393
L184.133 342.736
L187.993 354.615
L200.484 354.615
L204.344 342.736
z
" style="fill:#dcdcdc;stroke:#000000;stroke-width:0.25;"/>
   </g>
   <g id="patch_114">
    <path clip-path="url(#p5bd08335cf)" d="
M200.484 354.615
L190.379 361.957
L194.239 373.837
L206.73 373.837
L210.59 361.957
z
" style="fill:#dcdcdc;stroke:#000000;stroke-width:0.25;"/>
   </g>
   <g id="patch_115">
    <path clip-path="url(#p5bd08335cf)" d="
M184.133 366.495
L174.027 373.837
L177.887 385.717
L190.379 385.717
L194.239 373.837
z
" style="fill:#dcdcdc;stroke:#000000;stroke-width:0.25;"/>
   </g>
   <g id="patch_116">
    <path clip-path="url(#p5bd08335cf)" d="
M167.782 354.615
L157.676 361.957
L161.536 373.837
L174.027 373.837
L177.887 361.957
z
" style="fill:#dcdcdc;stroke:#000000;stroke-width:0.25;"/>
   </g>
   <g id="patch_117">
    <path clip-path="url(#p5bd08335cf)" d="
M174.027 335.393
L163.922 342.736
L167.782 354.615
L180.273 354.615
L184.133 342.736
z
" style="fill:#dcdcdc;stroke:#000000;stroke-width:0.25;"/>
   </g>
   <g id="patch_118">
    <path clip-path="url(#p5bd08335cf)" d="
M145.185 371.033
L135.079 378.375
L138.939 390.255
L151.431 390.255
L155.291 378.375
z
" style="fill:#dcdcdc;stroke:#000000;stroke-width:0.25;"/>
   </g>
   <g id="patch_119">
    <path clip-path="url(#p5bd08335cf)" d="
M151.431 390.255
L141.325 397.597
L145.185 409.477
L157.676 409.477
L161.536 397.597
z
" style="fill:#dcdcdc;stroke:#000000;stroke-width:0.25;"/>
   </g>
   <g id="patch_120">
    <path clip-path="url(#p5bd08335cf)" d="
M135.079 402.135
L124.974 409.477
L128.834 421.357
L141.325 421.357
L145.185 409.477
z
" style="fill:#dcdcdc;stroke:#000000;stroke-width:0.25;"/>
   </g>
   <g id="patch_121">
    <path clip-path="url(#p5bd08335cf)" d="
M118.728 390.255
L108.623 397.597
L112.483 409.477
L124.974 409.477
L128.834 397.597
z
" style="fill:#dcdcdc;stroke:#000000;stroke-width:0.25;"/>
   </g>
   <g id="patch_122">
    <path clip-path="url(#p5bd08335cf)" d="
M124.974 371.033
L114.868 378.375
L118.728 390.255
L131.219 390.255
L135.079 378.375
z
" style="fill:#dcdcdc;stroke:#000000;stroke-width:0.25;"/>
   </g>
   <g id="patch_123">
    <path clip-path="url(#p5bd08335cf)" d="
M96.1315 335.393
L86.026 342.736
L89.8859 354.615
L102.377 354.615
L106.237 342.736
z
" style="fill:#dcdcdc;stroke:#000000;stroke-width:0.25;"/>
   </g>
   <g id="patch_124">
    <path clip-path="url(#p5bd08335cf)" d="
M102.377 354.615
L92.2715 361.957
L96.1315 373.837
L108.623 373.837
L112.483 361.957
z
" style="fill:#dcdcdc;stroke:#000000;stroke-width:0.25;"/>
   </g>
   <g id="patch_125">
    <path clip-path="url(#p5bd08335cf)" d="
M86.026 366.495
L75.9204 373.837
L79.7804 385.717
L92.2715 385.717
L96.1315 373.837
z
" style="fill:#dcdcdc;stroke:#000000;stroke-width:0.25;"/>
   </g>
   <g id="patch_126">
    <path clip-path="url(#p5bd08335cf)" d="
M69.6748 354.615
L59.5692 361.957
L63.4292 373.837
L75.9204 373.837
L79.7804 361.957
z
" style="fill:#dcdcdc;stroke:#000000;stroke-width:0.25;"/>
   </g>
   <g id="patch_127">
    <path clip-path="url(#p5bd08335cf)" d="
M75.9204 335.393
L65.8148 342.736
L69.6748 354.615
L82.166 354.615
L86.026 342.736
z
" style="fill:#dcdcdc;stroke:#000000;stroke-width:0.25;"/>
   </g>
   <g id="patch_128">
    <path clip-path="url(#p5bd08335cf)" d="
M114.868 277.728
L104.763 285.07
L108.623 296.949
L121.114 296.949
L124.974 285.07
z
" style="fill:#dcdcdc;stroke:#000000;stroke-width:0.25;"/>
   </g>
   <g id="patch_129">
    <path clip-path="url(#p5bd08335cf)" d="
M121.114 296.949
L111.008 304.292
L114.868 316.171
L127.359 316.171
L131.219 304.292
z
" style="fill:#dcdcdc;stroke:#000000;stroke-width:0.25;"/>
   </g>
   <g id="patch_130">
    <path clip-path="url(#p5bd08335cf)" d="
M104.763 308.829
L94.6571 316.171
L98.5171 328.051
L111.008 328.051
L114.868 316.171
z
" style="fill:#dcdcdc;stroke:#000000;stroke-width:0.25;"/>
   </g>
   <g id="patch_131">
    <path clip-path="url(#p5bd08335cf)" d="
M88.4116 296.949
L78.306 304.292
L82.166 316.171
L94.6571 316.171
L98.5171 304.292
z
" style="fill:#dcdcdc;stroke:#000000;stroke-width:0.25;"/>
   </g>
   <g id="patch_132">
    <path clip-path="url(#p5bd08335cf)" d="
M94.6571 277.728
L84.5516 285.07
L88.4116 296.949
L100.903 296.949
L104.763 285.07
z
" style="fill:#dcdcdc;stroke:#000000;stroke-width:0.25;"/>
   </g>
   <g id="patch_133">
    <path clip-path="url(#p5bd08335cf)" d="
M231.712 104.73
L221.607 112.072
L225.467 123.952
L237.958 123.952
L241.818 112.072
z
" style="fill:#dcdcdc;stroke:#000000;stroke-width:0.25;"/>
   </g>
   <g id="patch_134">
    <path clip-path="url(#p5bd08335cf)" d="
M237.958 123.952
L227.852 131.294
L231.712 143.174
L244.203 143.174
L248.063 131.294
z
" style="fill:#dcdcdc;stroke:#000000;stroke-width:0.25;"/>
   </g>
   <g id="patch_135">
    <path clip-path="url(#p5bd08335cf)" d="
M221.607 135.832
L211.501 143.174
L215.361 155.054
L227.852 155.054
L231.712 143.174
z
" style="fill:#dcdcdc;stroke:#000000;stroke-width:0.25;"/>
   </g>
   <g id="patch_136">
    <path clip-path="url(#p5bd08335cf)" d="
M205.255 123.952
L195.15 131.294
L199.01 143.174
L211.501 143.174
L215.361 131.294
z
" style="fill:#dcdcdc;stroke:#000000;stroke-width:0.25;"/>
   </g>
   <g id="patch_137">
    <path clip-path="url(#p5bd08335cf)" d="
M211.501 104.73
L201.395 112.072
L205.255 123.952
L217.747 123.952
L221.607 112.072
z
" style="fill:#dcdcdc;stroke:#000000;stroke-width:0.25;"/>
   </g>
   <g id="patch_138">
    <path clip-path="url(#p5bd08335cf)" d="
M250.449 162.396
L240.343 169.738
L244.203 181.618
L256.694 181.618
L260.554 169.738
z
" style="fill:#dcdcdc;stroke:#000000;stroke-width:0.25;"/>
   </g>
   <g id="patch_139">
    <path clip-path="url(#p5bd08335cf)" d="
M256.694 181.618
L246.589 188.96
L250.449 200.84
L262.94 200.84
L266.8 188.96
z
" style="fill:#dcdcdc;stroke:#000000;stroke-width:0.25;"/>
   </g>
   <g id="patch_140">
    <path clip-path="url(#p5bd08335cf)" d="
M240.343 193.498
L230.238 200.84
L234.098 212.72
L246.589 212.72
L250.449 200.84
z
" style="fill:#dcdcdc;stroke:#000000;stroke-width:0.25;"/>
   </g>
   <g id="patch_141">
    <path clip-path="url(#p5bd08335cf)" d="
M223.992 181.618
L213.887 188.96
L217.747 200.84
L230.238 200.84
L234.098 188.96
z
" style="fill:#dcdcdc;stroke:#000000;stroke-width:0.25;"/>
   </g>
   <g id="patch_142">
    <path clip-path="url(#p5bd08335cf)" d="
M230.238 162.396
L220.132 169.738
L223.992 181.618
L236.483 181.618
L240.343 169.738
z
" style="fill:#dcdcdc;stroke:#000000;stroke-width:0.25;"/>
   </g>
   <g id="patch_143">
    <path clip-path="url(#p5bd08335cf)" d="
M201.395 198.035
L191.29 205.377
L195.15 217.257
L207.641 217.257
L211.501 205.377
z
" style="fill:#dcdcdc;stroke:#000000;stroke-width:0.25;"/>
   </g>
   <g id="patch_144">
    <path clip-path="url(#p5bd08335cf)" d="
M207.641 217.257
L197.535 224.599
L201.395 236.479
L213.887 236.479
L217.747 224.599
z
" style="fill:#dcdcdc;stroke:#000000;stroke-width:0.25;"/>
   </g>
   <g id="patch_145">
    <path clip-path="url(#p5bd08335cf)" d="
M191.29 229.137
L181.184 236.479
L185.044 248.359
L197.535 248.359
L201.395 236.479
z
" style="fill:#dcdcdc;stroke:#000000;stroke-width:0.25;"/>
   </g>
   <g id="patch_146">
    <path clip-path="url(#p5bd08335cf)" d="
M174.939 217.257
L164.833 224.599
L168.693 236.479
L181.184 236.479
L185.044 224.599
z
" style="fill:#dcdcdc;stroke:#000000;stroke-width:0.25;"/>
   </g>
   <g id="patch_147">
    <path clip-path="url(#p5bd08335cf)" d="
M181.184 198.035
L171.079 205.377
L174.939 217.257
L187.43 217.257
L191.29 205.377
z
" style="fill:#dcdcdc;stroke:#000000;stroke-width:0.25;"/>
   </g>
   <g id="patch_148">
    <path clip-path="url(#p5bd08335cf)" d="
M152.342 162.396
L142.236 169.738
L146.096 181.618
L158.587 181.618
L162.447 169.738
z
" style="fill:#dcdcdc;stroke:#000000;stroke-width:0.25;"/>
   </g>
   <g id="patch_149">
    <path clip-path="url(#p5bd08335cf)" d="
M158.587 181.618
L148.482 188.96
L152.342 200.84
L164.833 200.84
L168.693 188.96
z
" style="fill:#dcdcdc;stroke:#000000;stroke-width:0.25;"/>
   </g>
   <g id="patch_150">
    <path clip-path="url(#p5bd08335cf)" d="
M142.236 193.498
L132.131 200.84
L135.991 212.72
L148.482 212.72
L152.342 200.84
z
" style="fill:#dcdcdc;stroke:#000000;stroke-width:0.25;"/>
   </g>
   <g id="patch_151">
    <path clip-path="url(#p5bd08335cf)" d="
M125.885 181.618
L115.78 188.96
L119.64 200.84
L132.131 200.84
L135.991 188.96
z
" style="fill:#dcdcdc;stroke:#000000;stroke-width:0.25;"/>
   </g>
   <g id="patch_152">
    <path clip-path="url(#p5bd08335cf)" d="
M132.131 162.396
L122.025 169.738
L125.885 181.618
L138.376 181.618
L142.236 169.738
z
" style="fill:#dcdcdc;stroke:#000000;stroke-width:0.25;"/>
   </g>
   <g id="patch_153">
    <path clip-path="url(#p5bd08335cf)" d="
M171.079 104.73
L160.973 112.072
L164.833 123.952
L177.324 123.952
L181.184 112.072
z
" style="fill:#dcdcdc;stroke:#000000;stroke-width:0.25;"/>
   </g>
   <g id="patch_154">
    <path clip-path="url(#p5bd08335cf)" d="
M177.324 123.952
L167.219 131.294
L171.079 143.174
L183.57 143.174
L187.43 131.294
z
" style="fill:#dcdcdc;stroke:#000000;stroke-width:0.25;"/>
   </g>
   <g id="patch_155">
    <path clip-path="url(#p5bd08335cf)" d="
M160.973 135.832
L150.867 143.174
L154.727 155.054
L167.219 155.054
L171.079 143.174
z
" style="fill:#dcdcdc;stroke:#000000;stroke-width:0.25;"/>
   </g>
   <g id="patch_156">
    <path clip-path="url(#p5bd08335cf)" d="
M144.622 123.952
L134.516 131.294
L138.376 143.174
L150.867 143.174
L154.727 131.294
z
" style="fill:#dcdcdc;stroke:#000000;stroke-width:0.25;"/>
   </g>
   <g id="patch_157">
    <path clip-path="url(#p5bd08335cf)" d="
M150.867 104.73
L140.762 112.072
L144.622 123.952
L157.113 123.952
L160.973 112.072
z
" style="fill:#dcdcdc;stroke:#000000;stroke-width:0.25;"/>
   </g>
   <g id="matplotlib.axis_1"/>
   <g id="matplotlib.axis_2"/>
  </g>
 </g>
 <defs>
  <clipPath id="p5bd08335cf">
   <rect height="523.157168484" width="550.08" x="7.2" y="7.2"/>
  </clipPath>
 </defs>
</svg>
