<?xml version="1.0" encoding="utf-8" standalone="no"?>
<!DOCTYPE svg PUBLIC "-//W3C//DTD SVG 1.1//EN"
  "http://www.w3.org/Graphics/SVG/1.1/DTD/svg11.dtd">
<!-- Created with matplotlib (http://matplotlib.org/) -->
<svg height="537pt" version="1.1" viewBox="0 0 564 537" width="564pt" xmlns="http://www.w3.org/2000/svg" xmlns:xlink="http://www.w3.org/1999/xlink">
 <defs>
  <style type="text/css">
*{stroke-linecap:butt;stroke-linejoin:round;}
  </style>
 </defs>
 <g id="figure_1">
  <g id="patch_1">
   <path d="
M0 537.557
L564.48 537.557
L564.48 0
L0 0
z
" style="fill:none;"/>
  </g>
  <g id="axes_1">
   <g id="patch_2">
    <path clip-path="url(#pfb4cb891fd)" d="
M282.24 8.24318
L8.29687 207.275
L112.934 529.314
L451.546 529.314
L556.183 207.275
z
" style="fill:#bcd4e6;stroke:#000000;stroke-width:0.25;"/>
   </g>
   <g id="patch_3">
    <path clip-path="url(#pfb4cb891fd)" d="
M373.554 74.587
L282.24 140.931
L317.119 248.277
L429.99 248.277
L464.869 140.931
z
" style="fill:#eae2ac;stroke:#000000;stroke-width:0.25;"/>
   </g>
   <g id="patch_4">
    <path clip-path="url(#pfb4cb891fd)" d="
M429.99 248.277
L338.675 314.621
L373.554 421.967
L486.425 421.967
L521.304 314.621
z
" style="fill:#eae2ac;stroke:#000000;stroke-width:0.25;"/>
   </g>
   <g id="patch_5">
    <path clip-path="url(#pfb4cb891fd)" d="
M282.24 355.624
L190.926 421.967
L225.805 529.314
L338.675 529.314
L373.554 421.967
z
" style="fill:#eae2ac;stroke:#000000;stroke-width:0.25;"/>
   </g>
   <g id="patch_6">
    <path clip-path="url(#pfb4cb891fd)" d="
M134.49 248.277
L43.1759 314.621
L78.0548 421.967
L190.926 421.967
L225.805 314.621
z
" style="fill:#eae2ac;stroke:#000000;stroke-width:0.25;"/>
   </g>
   <g id="patch_7">
    <path clip-path="url(#pfb4cb891fd)" d="
M190.926 74.587
L99.6112 140.931
L134.49 248.277
L247.361 248.277
L282.24 140.931
z
" style="fill:#eae2ac;stroke:#000000;stroke-width:0.25;"/>
   </g>
   <g id="matplotlib.axis_1"/>
   <g id="matplotlib.axis_2"/>
  </g>
 </g>
 <defs>
  <clipPath id="pfb4cb891fd">
   <rect height="523.157168484" width="550.08" x="7.2" y="7.2"/>
  </clipPath>
 </defs>
</svg>
