<?xml version="1.0" encoding="utf-8" standalone="no"?>
<!DOCTYPE svg PUBLIC "-//W3C//DTD SVG 1.1//EN"
  "http://www.w3.org/Graphics/SVG/1.1/DTD/svg11.dtd">
<!-- Created with matplotlib (http://matplotlib.org/) -->
<svg height="558pt" version="1.1" viewBox="0 0 564 558" width="564pt" xmlns="http://www.w3.org/2000/svg" xmlns:xlink="http://www.w3.org/1999/xlink">
 <defs>
  <style type="text/css">
*{stroke-linecap:butt;stroke-linejoin:round;}
  </style>
 </defs>
 <g id="figure_1">
  <g id="patch_1">
   <path d="
M0 558.881
L564.48 558.881
L564.48 0
L0 0
z
" style="fill:none;"/>
  </g>
  <g id="axes_1">
   <g id="patch_2">
    <path clip-path="url(#pcfd58d5018)" d="
M282.24 8.82693
L132.911 52.6739
L30.9926 170.294
L8.84366 324.343
L73.4961 465.912
L204.423 550.054
L360.057 550.054
L490.984 465.912
L555.636 324.343
L533.487 170.294
L431.569 52.6739
z
" style="fill:#bcd4e6;stroke:#000000;stroke-width:0.25;"/>
   </g>
   <g id="patch_3">
    <path clip-path="url(#pcfd58d5018)" d="
M340.888 26.0475
L308.854 35.4534
L286.991 60.6847
L282.24 93.7307
L296.109 124.1
L324.195 142.149
L357.581 142.149
L385.667 124.1
L399.536 93.7307
L394.784 60.6847
L372.921 35.4534
z
" style="fill:#eae2ac;stroke:#000000;stroke-width:0.25;"/>
   </g>
   <g id="patch_4">
    <path clip-path="url(#pcfd58d5018)" d="
M439.563 89.4623
L407.53 98.8682
L385.667 124.1
L380.915 157.146
L394.784 187.514
L422.87 205.564
L456.256 205.564
L484.342 187.514
L498.211 157.146
L493.46 124.1
L471.597 98.8682
z
" style="fill:#eae2ac;stroke:#000000;stroke-width:0.25;"/>
   </g>
   <g id="patch_5">
    <path clip-path="url(#pcfd58d5018)" d="
M488.29 196.158
L456.256 205.564
L434.393 230.795
L429.642 263.841
L443.511 294.21
L471.597 312.26
L504.983 312.26
L533.069 294.21
L546.938 263.841
L542.186 230.795
L520.323 205.564
z
" style="fill:#eae2ac;stroke:#000000;stroke-width:0.25;"/>
   </g>
   <g id="patch_6">
    <path clip-path="url(#pcfd58d5018)" d="
M471.597 312.26
L439.563 321.666
L417.7 346.897
L412.949 379.943
L426.818 410.312
L454.904 428.362
L488.29 428.362
L516.376 410.312
L530.245 379.943
L525.493 346.897
L503.63 321.666
z
" style="fill:#eae2ac;stroke:#000000;stroke-width:0.25;"/>
   </g>
   <g id="patch_7">
    <path clip-path="url(#pcfd58d5018)" d="
M394.784 400.906
L362.751 410.312
L340.888 435.543
L336.137 468.589
L350.006 498.958
L378.091 517.008
L411.477 517.008
L439.563 498.958
L453.432 468.589
L448.681 435.543
L426.818 410.312
z
" style="fill:#eae2ac;stroke:#000000;stroke-width:0.25;"/>
   </g>
   <g id="patch_8">
    <path clip-path="url(#pcfd58d5018)" d="
M282.24 433.952
L250.207 443.358
L228.343 468.589
L223.592 501.635
L237.461 532.004
L265.547 550.054
L298.933 550.054
L327.019 532.004
L340.888 501.635
L336.137 468.589
L314.273 443.358
z
" style="fill:#eae2ac;stroke:#000000;stroke-width:0.25;"/>
   </g>
   <g id="patch_9">
    <path clip-path="url(#pcfd58d5018)" d="
M169.696 400.906
L137.662 410.312
L115.799 435.543
L111.048 468.589
L124.917 498.958
L153.003 517.008
L186.389 517.008
L214.474 498.958
L228.343 468.589
L223.592 435.543
L201.729 410.312
z
" style="fill:#eae2ac;stroke:#000000;stroke-width:0.25;"/>
   </g>
   <g id="patch_10">
    <path clip-path="url(#pcfd58d5018)" d="
M92.8833 312.26
L60.8498 321.666
L38.9867 346.897
L34.2354 379.943
L48.1044 410.312
L76.1903 428.362
L109.576 428.362
L137.662 410.312
L151.531 379.943
L146.78 346.897
L124.917 321.666
z
" style="fill:#eae2ac;stroke:#000000;stroke-width:0.25;"/>
   </g>
   <g id="patch_11">
    <path clip-path="url(#pcfd58d5018)" d="
M76.1903 196.158
L44.1569 205.564
L22.2938 230.795
L17.5425 263.841
L31.4115 294.21
L59.4974 312.26
L92.8833 312.26
L120.969 294.21
L134.838 263.841
L130.087 230.795
L108.224 205.564
z
" style="fill:#eae2ac;stroke:#000000;stroke-width:0.25;"/>
   </g>
   <g id="patch_12">
    <path clip-path="url(#pcfd58d5018)" d="
M124.917 89.4623
L92.8833 98.8682
L71.0202 124.1
L66.2689 157.146
L80.1379 187.514
L108.224 205.564
L141.61 205.564
L169.696 187.514
L183.565 157.146
L178.813 124.1
L156.95 98.8682
z
" style="fill:#eae2ac;stroke:#000000;stroke-width:0.25;"/>
   </g>
   <g id="patch_13">
    <path clip-path="url(#pcfd58d5018)" d="
M223.592 26.0475
L191.559 35.4534
L169.696 60.6847
L164.944 93.7307
L178.813 124.1
L206.899 142.149
L240.285 142.149
L268.371 124.1
L282.24 93.7307
L277.489 60.6847
L255.626 35.4534
z
" style="fill:#eae2ac;stroke:#000000;stroke-width:0.25;"/>
   </g>
   <g id="patch_14">
    <path clip-path="url(#pcfd58d5018)" d="
M353.469 29.7416
L346.597 31.7593
L341.907 37.1718
L340.888 44.2607
L343.863 50.7753
L349.888 54.6473
L357.05 54.6473
L363.075 50.7753
L366.05 44.2607
L365.03 37.1718
L360.34 31.7593
z
" style="fill:#af0a0a;stroke:#000000;stroke-width:0.25;"/>
   </g>
   <g id="patch_15">
    <path clip-path="url(#pcfd58d5018)" d="
M374.636 43.3451
L367.764 45.3628
L363.075 50.7753
L362.055 57.8642
L365.03 64.3788
L371.055 68.2507
L378.217 68.2507
L384.242 64.3788
L387.217 57.8642
L386.198 50.7753
L381.508 45.3628
z
" style="fill:#af0a0a;stroke:#000000;stroke-width:0.25;"/>
   </g>
   <g id="patch_16">
    <path clip-path="url(#pcfd58d5018)" d="
M385.089 66.233
L378.217 68.2507
L373.527 73.6633
L372.508 80.7522
L375.483 87.2668
L381.508 91.1387
L388.67 91.1387
L394.695 87.2668
L397.67 80.7522
L396.65 73.6633
L391.96 68.2507
z
" style="fill:#af0a0a;stroke:#000000;stroke-width:0.25;"/>
   </g>
   <g id="patch_17">
    <path clip-path="url(#pcfd58d5018)" d="
M381.508 91.1387
L374.636 93.1564
L369.946 98.5689
L368.927 105.658
L371.902 112.172
L377.927 116.044
L385.089 116.044
L391.114 112.172
L394.089 105.658
L393.07 98.5689
L388.38 93.1564
z
" style="fill:#af0a0a;stroke:#000000;stroke-width:0.25;"/>
   </g>
   <g id="patch_18">
    <path clip-path="url(#pcfd58d5018)" d="
M365.03 110.155
L358.159 112.172
L353.469 117.585
L352.45 124.674
L355.425 131.188
L361.45 135.06
L368.611 135.06
L374.636 131.188
L377.611 124.674
L376.592 117.585
L371.902 112.172
z
" style="fill:#af0a0a;stroke:#000000;stroke-width:0.25;"/>
   </g>
   <g id="patch_19">
    <path clip-path="url(#pcfd58d5018)" d="
M340.888 117.244
L334.016 119.261
L329.326 124.674
L328.307 131.763
L331.282 138.277
L337.307 142.149
L344.469 142.149
L350.494 138.277
L353.469 131.763
L352.45 124.674
L347.76 119.261
z
" style="fill:#af0a0a;stroke:#000000;stroke-width:0.25;"/>
   </g>
   <g id="patch_20">
    <path clip-path="url(#pcfd58d5018)" d="
M316.745 110.155
L309.874 112.172
L305.184 117.585
L304.164 124.674
L307.14 131.188
L313.164 135.06
L320.326 135.06
L326.351 131.188
L329.326 124.674
L328.307 117.585
L323.617 112.172
z
" style="fill:#af0a0a;stroke:#000000;stroke-width:0.25;"/>
   </g>
   <g id="patch_21">
    <path clip-path="url(#pcfd58d5018)" d="
M300.268 91.1387
L293.396 93.1564
L288.706 98.5689
L287.687 105.658
L290.662 112.172
L296.687 116.044
L303.849 116.044
L309.874 112.172
L312.849 105.658
L311.829 98.5689
L307.14 93.1564
z
" style="fill:#af0a0a;stroke:#000000;stroke-width:0.25;"/>
   </g>
   <g id="patch_22">
    <path clip-path="url(#pcfd58d5018)" d="
M296.687 66.233
L289.815 68.2507
L285.125 73.6633
L284.106 80.7522
L287.081 87.2668
L293.106 91.1387
L300.268 91.1387
L306.293 87.2668
L309.268 80.7522
L308.249 73.6633
L303.559 68.2507
z
" style="fill:#af0a0a;stroke:#000000;stroke-width:0.25;"/>
   </g>
   <g id="patch_23">
    <path clip-path="url(#pcfd58d5018)" d="
M307.14 43.3451
L300.268 45.3628
L295.578 50.7753
L294.559 57.8642
L297.534 64.3788
L303.559 68.2507
L310.72 68.2507
L316.745 64.3788
L319.72 57.8642
L318.701 50.7753
L314.011 45.3628
z
" style="fill:#af0a0a;stroke:#000000;stroke-width:0.25;"/>
   </g>
   <g id="patch_24">
    <path clip-path="url(#pcfd58d5018)" d="
M328.307 29.7416
L321.435 31.7593
L316.745 37.1718
L315.726 44.2607
L318.701 50.7753
L324.726 54.6473
L331.888 54.6473
L337.913 50.7753
L340.888 44.2607
L339.869 37.1718
L335.179 31.7593
z
" style="fill:#af0a0a;stroke:#000000;stroke-width:0.25;"/>
   </g>
   <g id="patch_25">
    <path clip-path="url(#pcfd58d5018)" d="
M452.144 93.1564
L445.272 95.1741
L440.583 100.587
L439.563 107.676
L442.538 114.19
L448.563 118.062
L455.725 118.062
L461.75 114.19
L464.725 107.676
L463.706 100.587
L459.016 95.1741
z
" style="fill:#af0a0a;stroke:#000000;stroke-width:0.25;"/>
   </g>
   <g id="patch_26">
    <path clip-path="url(#pcfd58d5018)" d="
M473.312 106.76
L466.44 108.778
L461.75 114.19
L460.731 121.279
L463.706 127.794
L469.731 131.666
L476.893 131.666
L482.917 127.794
L485.893 121.279
L484.873 114.19
L480.183 108.778
z
" style="fill:#af0a0a;stroke:#000000;stroke-width:0.25;"/>
   </g>
   <g id="patch_27">
    <path clip-path="url(#pcfd58d5018)" d="
M483.764 129.648
L476.893 131.666
L472.203 137.078
L471.183 144.167
L474.158 150.682
L480.183 154.554
L487.345 154.554
L493.37 150.682
L496.345 144.167
L495.326 137.078
L490.636 131.666
z
" style="fill:#af0a0a;stroke:#000000;stroke-width:0.25;"/>
   </g>
   <g id="patch_28">
    <path clip-path="url(#pcfd58d5018)" d="
M480.183 154.554
L473.312 156.571
L468.622 161.984
L467.602 169.073
L470.578 175.587
L476.602 179.459
L483.764 179.459
L489.789 175.587
L492.764 169.073
L491.745 161.984
L487.055 156.571
z
" style="fill:#af0a0a;stroke:#000000;stroke-width:0.25;"/>
   </g>
   <g id="patch_29">
    <path clip-path="url(#pcfd58d5018)" d="
M463.706 173.57
L456.834 175.587
L452.144 181
L451.125 188.089
L454.1 194.603
L460.125 198.475
L467.287 198.475
L473.312 194.603
L476.287 188.089
L475.267 181
L470.578 175.587
z
" style="fill:#af0a0a;stroke:#000000;stroke-width:0.25;"/>
   </g>
   <g id="patch_30">
    <path clip-path="url(#pcfd58d5018)" d="
M439.563 180.658
L432.692 182.676
L428.002 188.089
L426.982 195.178
L429.957 201.692
L435.982 205.564
L443.144 205.564
L449.169 201.692
L452.144 195.178
L451.125 188.089
L446.435 182.676
z
" style="fill:#af0a0a;stroke:#000000;stroke-width:0.25;"/>
   </g>
   <g id="patch_31">
    <path clip-path="url(#pcfd58d5018)" d="
M415.421 173.57
L408.549 175.587
L403.859 181
L402.84 188.089
L405.815 194.603
L411.84 198.475
L419.002 198.475
L425.026 194.603
L428.002 188.089
L426.982 181
L422.292 175.587
z
" style="fill:#af0a0a;stroke:#000000;stroke-width:0.25;"/>
   </g>
   <g id="patch_32">
    <path clip-path="url(#pcfd58d5018)" d="
M398.943 154.554
L392.072 156.571
L387.382 161.984
L386.362 169.073
L389.337 175.587
L395.362 179.459
L402.524 179.459
L408.549 175.587
L411.524 169.073
L410.505 161.984
L405.815 156.571
z
" style="fill:#af0a0a;stroke:#000000;stroke-width:0.25;"/>
   </g>
   <g id="patch_33">
    <path clip-path="url(#pcfd58d5018)" d="
M395.362 129.648
L388.491 131.666
L383.801 137.078
L382.781 144.167
L385.757 150.682
L391.781 154.554
L398.943 154.554
L404.968 150.682
L407.943 144.167
L406.924 137.078
L402.234 131.666
z
" style="fill:#af0a0a;stroke:#000000;stroke-width:0.25;"/>
   </g>
   <g id="patch_34">
    <path clip-path="url(#pcfd58d5018)" d="
M405.815 106.76
L398.943 108.778
L394.253 114.19
L393.234 121.279
L396.209 127.794
L402.234 131.666
L409.396 131.666
L415.421 127.794
L418.396 121.279
L417.377 114.19
L412.687 108.778
z
" style="fill:#af0a0a;stroke:#000000;stroke-width:0.25;"/>
   </g>
   <g id="patch_35">
    <path clip-path="url(#pcfd58d5018)" d="
M426.982 93.1564
L420.111 95.1741
L415.421 100.587
L414.401 107.676
L417.377 114.19
L423.401 118.062
L430.563 118.062
L436.588 114.19
L439.563 107.676
L438.544 100.587
L433.854 95.1741
z
" style="fill:#af0a0a;stroke:#000000;stroke-width:0.25;"/>
   </g>
   <g id="patch_36">
    <path clip-path="url(#pcfd58d5018)" d="
M500.871 199.852
L493.999 201.87
L489.309 207.283
L488.29 214.371
L491.265 220.886
L497.29 224.758
L504.451 224.758
L510.476 220.886
L513.451 214.371
L512.432 207.283
L507.742 201.87
z
" style="fill:#af0a0a;stroke:#000000;stroke-width:0.25;"/>
   </g>
   <g id="patch_37">
    <path clip-path="url(#pcfd58d5018)" d="
M522.038 213.456
L515.166 215.474
L510.476 220.886
L509.457 227.975
L512.432 234.49
L518.457 238.362
L525.619 238.362
L531.644 234.49
L534.619 227.975
L533.6 220.886
L528.91 215.474
z
" style="fill:#af0a0a;stroke:#000000;stroke-width:0.25;"/>
   </g>
   <g id="patch_38">
    <path clip-path="url(#pcfd58d5018)" d="
M532.491 236.344
L525.619 238.362
L520.929 243.774
L519.91 250.863
L522.885 257.378
L528.91 261.249
L536.071 261.249
L542.096 257.378
L545.071 250.863
L544.052 243.774
L539.362 238.362
z
" style="fill:#af0a0a;stroke:#000000;stroke-width:0.25;"/>
   </g>
   <g id="patch_39">
    <path clip-path="url(#pcfd58d5018)" d="
M528.91 261.249
L522.038 263.267
L517.348 268.68
L516.329 275.769
L519.304 282.283
L525.329 286.155
L532.491 286.155
L538.515 282.283
L541.491 275.769
L540.471 268.68
L535.781 263.267
z
" style="fill:#af0a0a;stroke:#000000;stroke-width:0.25;"/>
   </g>
   <g id="patch_40">
    <path clip-path="url(#pcfd58d5018)" d="
M512.432 280.265
L505.561 282.283
L500.871 287.696
L499.851 294.785
L502.826 301.299
L508.851 305.171
L516.013 305.171
L522.038 301.299
L525.013 294.785
L523.994 287.696
L519.304 282.283
z
" style="fill:#af0a0a;stroke:#000000;stroke-width:0.25;"/>
   </g>
   <g id="patch_41">
    <path clip-path="url(#pcfd58d5018)" d="
M488.29 287.354
L481.418 289.372
L476.728 294.785
L475.709 301.874
L478.684 308.388
L484.709 312.26
L491.871 312.26
L497.895 308.388
L500.871 301.874
L499.851 294.785
L495.161 289.372
z
" style="fill:#af0a0a;stroke:#000000;stroke-width:0.25;"/>
   </g>
   <g id="patch_42">
    <path clip-path="url(#pcfd58d5018)" d="
M464.147 280.265
L457.275 282.283
L452.585 287.696
L451.566 294.785
L454.541 301.299
L460.566 305.171
L467.728 305.171
L473.753 301.299
L476.728 294.785
L475.709 287.696
L471.019 282.283
z
" style="fill:#af0a0a;stroke:#000000;stroke-width:0.25;"/>
   </g>
   <g id="patch_43">
    <path clip-path="url(#pcfd58d5018)" d="
M447.67 261.249
L440.798 263.267
L436.108 268.68
L435.089 275.769
L438.064 282.283
L444.089 286.155
L451.251 286.155
L457.275 282.283
L460.251 275.769
L459.231 268.68
L454.541 263.267
z
" style="fill:#af0a0a;stroke:#000000;stroke-width:0.25;"/>
   </g>
   <g id="patch_44">
    <path clip-path="url(#pcfd58d5018)" d="
M444.089 236.344
L437.217 238.362
L432.527 243.774
L431.508 250.863
L434.483 257.378
L440.508 261.249
L447.67 261.249
L453.695 257.378
L456.67 250.863
L455.65 243.774
L450.96 238.362
z
" style="fill:#af0a0a;stroke:#000000;stroke-width:0.25;"/>
   </g>
   <g id="patch_45">
    <path clip-path="url(#pcfd58d5018)" d="
M454.541 213.456
L447.67 215.474
L442.98 220.886
L441.96 227.975
L444.936 234.49
L450.96 238.362
L458.122 238.362
L464.147 234.49
L467.122 227.975
L466.103 220.886
L461.413 215.474
z
" style="fill:#af0a0a;stroke:#000000;stroke-width:0.25;"/>
   </g>
   <g id="patch_46">
    <path clip-path="url(#pcfd58d5018)" d="
M475.709 199.852
L468.837 201.87
L464.147 207.283
L463.128 214.371
L466.103 220.886
L472.128 224.758
L479.29 224.758
L485.315 220.886
L488.29 214.371
L487.27 207.283
L482.58 201.87
z
" style="fill:#af0a0a;stroke:#000000;stroke-width:0.25;"/>
   </g>
   <g id="patch_47">
    <path clip-path="url(#pcfd58d5018)" d="
M484.178 315.954
L477.306 317.972
L472.616 323.384
L471.597 330.473
L474.572 336.988
L480.597 340.86
L487.759 340.86
L493.783 336.988
L496.759 330.473
L495.739 323.384
L491.049 317.972
z
" style="fill:#af0a0a;stroke:#000000;stroke-width:0.25;"/>
   </g>
   <g id="patch_48">
    <path clip-path="url(#pcfd58d5018)" d="
M505.345 329.558
L498.473 331.575
L493.783 336.988
L492.764 344.077
L495.739 350.591
L501.764 354.463
L508.926 354.463
L514.951 350.591
L517.926 344.077
L516.907 336.988
L512.217 331.575
z
" style="fill:#af0a0a;stroke:#000000;stroke-width:0.25;"/>
   </g>
   <g id="patch_49">
    <path clip-path="url(#pcfd58d5018)" d="
M515.798 352.446
L508.926 354.463
L504.236 359.876
L503.217 366.965
L506.192 373.479
L512.217 377.351
L519.379 377.351
L525.403 373.479
L528.379 366.965
L527.359 359.876
L522.669 354.463
z
" style="fill:#af0a0a;stroke:#000000;stroke-width:0.25;"/>
   </g>
   <g id="patch_50">
    <path clip-path="url(#pcfd58d5018)" d="
M512.217 377.351
L505.345 379.369
L500.655 384.782
L499.636 391.87
L502.611 398.385
L508.636 402.257
L515.798 402.257
L521.823 398.385
L524.798 391.87
L523.778 384.782
L519.088 379.369
z
" style="fill:#af0a0a;stroke:#000000;stroke-width:0.25;"/>
   </g>
   <g id="patch_51">
    <path clip-path="url(#pcfd58d5018)" d="
M495.739 396.367
L488.868 398.385
L484.178 403.798
L483.158 410.886
L486.134 417.401
L492.158 421.273
L499.32 421.273
L505.345 417.401
L508.32 410.886
L507.301 403.798
L502.611 398.385
z
" style="fill:#af0a0a;stroke:#000000;stroke-width:0.25;"/>
   </g>
   <g id="patch_52">
    <path clip-path="url(#pcfd58d5018)" d="
M471.597 403.456
L464.725 405.474
L460.035 410.886
L459.016 417.975
L461.991 424.49
L468.016 428.362
L475.178 428.362
L481.203 424.49
L484.178 417.975
L483.158 410.886
L478.468 405.474
z
" style="fill:#af0a0a;stroke:#000000;stroke-width:0.25;"/>
   </g>
   <g id="patch_53">
    <path clip-path="url(#pcfd58d5018)" d="
M447.454 396.367
L440.583 398.385
L435.893 403.798
L434.873 410.886
L437.848 417.401
L443.873 421.273
L451.035 421.273
L457.06 417.401
L460.035 410.886
L459.016 403.798
L454.326 398.385
z
" style="fill:#af0a0a;stroke:#000000;stroke-width:0.25;"/>
   </g>
   <g id="patch_54">
    <path clip-path="url(#pcfd58d5018)" d="
M430.977 377.351
L424.105 379.369
L419.415 384.782
L418.396 391.87
L421.371 398.385
L427.396 402.257
L434.558 402.257
L440.583 398.385
L443.558 391.87
L442.538 384.782
L437.848 379.369
z
" style="fill:#af0a0a;stroke:#000000;stroke-width:0.25;"/>
   </g>
   <g id="patch_55">
    <path clip-path="url(#pcfd58d5018)" d="
M427.396 352.446
L420.524 354.463
L415.834 359.876
L414.815 366.965
L417.79 373.479
L423.815 377.351
L430.977 377.351
L437.002 373.479
L439.977 366.965
L438.957 359.876
L434.268 354.463
z
" style="fill:#af0a0a;stroke:#000000;stroke-width:0.25;"/>
   </g>
   <g id="patch_56">
    <path clip-path="url(#pcfd58d5018)" d="
M437.848 329.558
L430.977 331.575
L426.287 336.988
L425.268 344.077
L428.243 350.591
L434.268 354.463
L441.429 354.463
L447.454 350.591
L450.429 344.077
L449.41 336.988
L444.72 331.575
z
" style="fill:#af0a0a;stroke:#000000;stroke-width:0.25;"/>
   </g>
   <g id="patch_57">
    <path clip-path="url(#pcfd58d5018)" d="
M459.016 315.954
L452.144 317.972
L447.454 323.384
L446.435 330.473
L449.41 336.988
L455.435 340.86
L462.597 340.86
L468.622 336.988
L471.597 330.473
L470.578 323.384
L465.888 317.972
z
" style="fill:#af0a0a;stroke:#000000;stroke-width:0.25;"/>
   </g>
   <g id="patch_58">
    <path clip-path="url(#pcfd58d5018)" d="
M407.365 404.6
L400.494 406.618
L395.804 412.031
L394.784 419.119
L397.76 425.634
L403.784 429.506
L410.946 429.506
L416.971 425.634
L419.946 419.119
L418.927 412.031
L414.237 406.618
z
" style="fill:#af0a0a;stroke:#000000;stroke-width:0.25;"/>
   </g>
   <g id="patch_59">
    <path clip-path="url(#pcfd58d5018)" d="
M428.533 418.204
L421.661 420.222
L416.971 425.634
L415.952 432.723
L418.927 439.238
L424.952 443.109
L432.114 443.109
L438.139 439.238
L441.114 432.723
L440.094 425.634
L435.404 420.222
z
" style="fill:#af0a0a;stroke:#000000;stroke-width:0.25;"/>
   </g>
   <g id="patch_60">
    <path clip-path="url(#pcfd58d5018)" d="
M438.985 441.092
L432.114 443.109
L427.424 448.522
L426.404 455.611
L429.38 462.125
L435.404 465.997
L442.566 465.997
L448.591 462.125
L451.566 455.611
L450.547 448.522
L445.857 443.109
z
" style="fill:#af0a0a;stroke:#000000;stroke-width:0.25;"/>
   </g>
   <g id="patch_61">
    <path clip-path="url(#pcfd58d5018)" d="
M435.404 465.997
L428.533 468.015
L423.843 473.428
L422.824 480.517
L425.799 487.031
L431.824 490.903
L438.985 490.903
L445.01 487.031
L447.985 480.517
L446.966 473.428
L442.276 468.015
z
" style="fill:#af0a0a;stroke:#000000;stroke-width:0.25;"/>
   </g>
   <g id="patch_62">
    <path clip-path="url(#pcfd58d5018)" d="
M418.927 485.013
L412.055 487.031
L407.365 492.444
L406.346 499.533
L409.321 506.047
L415.346 509.919
L422.508 509.919
L428.533 506.047
L431.508 499.533
L430.489 492.444
L425.799 487.031
z
" style="fill:#af0a0a;stroke:#000000;stroke-width:0.25;"/>
   </g>
   <g id="patch_63">
    <path clip-path="url(#pcfd58d5018)" d="
M394.784 492.102
L387.913 494.12
L383.223 499.533
L382.204 506.621
L385.179 513.136
L391.204 517.008
L398.365 517.008
L404.39 513.136
L407.365 506.621
L406.346 499.533
L401.656 494.12
z
" style="fill:#af0a0a;stroke:#000000;stroke-width:0.25;"/>
   </g>
   <g id="patch_64">
    <path clip-path="url(#pcfd58d5018)" d="
M370.642 485.013
L363.77 487.031
L359.08 492.444
L358.061 499.533
L361.036 506.047
L367.061 509.919
L374.223 509.919
L380.248 506.047
L383.223 499.533
L382.204 492.444
L377.514 487.031
z
" style="fill:#af0a0a;stroke:#000000;stroke-width:0.25;"/>
   </g>
   <g id="patch_65">
    <path clip-path="url(#pcfd58d5018)" d="
M354.164 465.997
L347.293 468.015
L342.603 473.428
L341.583 480.517
L344.559 487.031
L350.583 490.903
L357.745 490.903
L363.77 487.031
L366.745 480.517
L365.726 473.428
L361.036 468.015
z
" style="fill:#af0a0a;stroke:#000000;stroke-width:0.25;"/>
   </g>
   <g id="patch_66">
    <path clip-path="url(#pcfd58d5018)" d="
M350.583 441.092
L343.712 443.109
L339.022 448.522
L338.003 455.611
L340.978 462.125
L347.003 465.997
L354.164 465.997
L360.189 462.125
L363.164 455.611
L362.145 448.522
L357.455 443.109
z
" style="fill:#af0a0a;stroke:#000000;stroke-width:0.25;"/>
   </g>
   <g id="patch_67">
    <path clip-path="url(#pcfd58d5018)" d="
M361.036 418.204
L354.164 420.222
L349.474 425.634
L348.455 432.723
L351.43 439.238
L357.455 443.109
L364.617 443.109
L370.642 439.238
L373.617 432.723
L372.598 425.634
L367.908 420.222
z
" style="fill:#af0a0a;stroke:#000000;stroke-width:0.25;"/>
   </g>
   <g id="patch_68">
    <path clip-path="url(#pcfd58d5018)" d="
M382.204 404.6
L375.332 406.618
L370.642 412.031
L369.623 419.119
L372.598 425.634
L378.623 429.506
L385.784 429.506
L391.809 425.634
L394.784 419.119
L393.765 412.031
L389.075 406.618
z
" style="fill:#af0a0a;stroke:#000000;stroke-width:0.25;"/>
   </g>
   <g id="patch_69">
    <path clip-path="url(#pcfd58d5018)" d="
M294.821 437.646
L287.949 439.664
L283.259 445.077
L282.24 452.165
L285.215 458.68
L291.24 462.552
L298.402 462.552
L304.427 458.68
L307.402 452.165
L306.383 445.077
L301.693 439.664
z
" style="fill:#af0a0a;stroke:#000000;stroke-width:0.25;"/>
   </g>
   <g id="patch_70">
    <path clip-path="url(#pcfd58d5018)" d="
M315.988 451.25
L309.117 453.268
L304.427 458.68
L303.407 465.769
L306.383 472.284
L312.407 476.155
L319.569 476.155
L325.594 472.284
L328.569 465.769
L327.55 458.68
L322.86 453.268
z
" style="fill:#af0a0a;stroke:#000000;stroke-width:0.25;"/>
   </g>
   <g id="patch_71">
    <path clip-path="url(#pcfd58d5018)" d="
M326.441 474.138
L319.569 476.155
L314.879 481.568
L313.86 488.657
L316.835 495.172
L322.86 499.043
L330.022 499.043
L336.047 495.172
L339.022 488.657
L338.003 481.568
L333.313 476.155
z
" style="fill:#af0a0a;stroke:#000000;stroke-width:0.25;"/>
   </g>
   <g id="patch_72">
    <path clip-path="url(#pcfd58d5018)" d="
M322.86 499.043
L315.988 501.061
L311.298 506.474
L310.279 513.563
L313.254 520.077
L319.279 523.949
L326.441 523.949
L332.466 520.077
L335.441 513.563
L334.422 506.474
L329.732 501.061
z
" style="fill:#af0a0a;stroke:#000000;stroke-width:0.25;"/>
   </g>
   <g id="patch_73">
    <path clip-path="url(#pcfd58d5018)" d="
M306.383 518.059
L299.511 520.077
L294.821 525.49
L293.802 532.579
L296.777 539.093
L302.802 542.965
L309.963 542.965
L315.988 539.093
L318.963 532.579
L317.944 525.49
L313.254 520.077
z
" style="fill:#af0a0a;stroke:#000000;stroke-width:0.25;"/>
   </g>
   <g id="patch_74">
    <path clip-path="url(#pcfd58d5018)" d="
M282.24 525.148
L275.368 527.166
L270.678 532.579
L269.659 539.667
L272.634 546.182
L278.659 550.054
L285.821 550.054
L291.846 546.182
L294.821 539.667
L293.802 532.579
L289.112 527.166
z
" style="fill:#af0a0a;stroke:#000000;stroke-width:0.25;"/>
   </g>
   <g id="patch_75">
    <path clip-path="url(#pcfd58d5018)" d="
M258.097 518.059
L251.226 520.077
L246.536 525.49
L245.517 532.579
L248.492 539.093
L254.517 542.965
L261.678 542.965
L267.703 539.093
L270.678 532.579
L269.659 525.49
L264.969 520.077
z
" style="fill:#af0a0a;stroke:#000000;stroke-width:0.25;"/>
   </g>
   <g id="patch_76">
    <path clip-path="url(#pcfd58d5018)" d="
M241.62 499.043
L234.748 501.061
L230.058 506.474
L229.039 513.563
L232.014 520.077
L238.039 523.949
L245.201 523.949
L251.226 520.077
L254.201 513.563
L253.182 506.474
L248.492 501.061
z
" style="fill:#af0a0a;stroke:#000000;stroke-width:0.25;"/>
   </g>
   <g id="patch_77">
    <path clip-path="url(#pcfd58d5018)" d="
M238.039 474.138
L231.167 476.155
L226.477 481.568
L225.458 488.657
L228.433 495.172
L234.458 499.043
L241.62 499.043
L247.645 495.172
L250.62 488.657
L249.601 481.568
L244.911 476.155
z
" style="fill:#af0a0a;stroke:#000000;stroke-width:0.25;"/>
   </g>
   <g id="patch_78">
    <path clip-path="url(#pcfd58d5018)" d="
M248.492 451.25
L241.62 453.268
L236.93 458.68
L235.911 465.769
L238.886 472.284
L244.911 476.155
L252.073 476.155
L258.097 472.284
L261.073 465.769
L260.053 458.68
L255.363 453.268
z
" style="fill:#af0a0a;stroke:#000000;stroke-width:0.25;"/>
   </g>
   <g id="patch_79">
    <path clip-path="url(#pcfd58d5018)" d="
M269.659 437.646
L262.787 439.664
L258.097 445.077
L257.078 452.165
L260.053 458.68
L266.078 462.552
L273.24 462.552
L279.265 458.68
L282.24 452.165
L281.221 445.077
L276.531 439.664
z
" style="fill:#af0a0a;stroke:#000000;stroke-width:0.25;"/>
   </g>
   <g id="patch_80">
    <path clip-path="url(#pcfd58d5018)" d="
M182.276 404.6
L175.405 406.618
L170.715 412.031
L169.696 419.119
L172.671 425.634
L178.696 429.506
L185.857 429.506
L191.882 425.634
L194.857 419.119
L193.838 412.031
L189.148 406.618
z
" style="fill:#af0a0a;stroke:#000000;stroke-width:0.25;"/>
   </g>
   <g id="patch_81">
    <path clip-path="url(#pcfd58d5018)" d="
M203.444 418.204
L196.572 420.222
L191.882 425.634
L190.863 432.723
L193.838 439.238
L199.863 443.109
L207.025 443.109
L213.05 439.238
L216.025 432.723
L215.006 425.634
L210.316 420.222
z
" style="fill:#af0a0a;stroke:#000000;stroke-width:0.25;"/>
   </g>
   <g id="patch_82">
    <path clip-path="url(#pcfd58d5018)" d="
M213.897 441.092
L207.025 443.109
L202.335 448.522
L201.316 455.611
L204.291 462.125
L210.316 465.997
L217.477 465.997
L223.502 462.125
L226.477 455.611
L225.458 448.522
L220.768 443.109
z
" style="fill:#af0a0a;stroke:#000000;stroke-width:0.25;"/>
   </g>
   <g id="patch_83">
    <path clip-path="url(#pcfd58d5018)" d="
M210.316 465.997
L203.444 468.015
L198.754 473.428
L197.735 480.517
L200.71 487.031
L206.735 490.903
L213.897 490.903
L219.921 487.031
L222.897 480.517
L221.877 473.428
L217.187 468.015
z
" style="fill:#af0a0a;stroke:#000000;stroke-width:0.25;"/>
   </g>
   <g id="patch_84">
    <path clip-path="url(#pcfd58d5018)" d="
M193.838 485.013
L186.966 487.031
L182.276 492.444
L181.257 499.533
L184.232 506.047
L190.257 509.919
L197.419 509.919
L203.444 506.047
L206.419 499.533
L205.4 492.444
L200.71 487.031
z
" style="fill:#af0a0a;stroke:#000000;stroke-width:0.25;"/>
   </g>
   <g id="patch_85">
    <path clip-path="url(#pcfd58d5018)" d="
M169.696 492.102
L162.824 494.12
L158.134 499.533
L157.115 506.621
L160.09 513.136
L166.115 517.008
L173.276 517.008
L179.301 513.136
L182.276 506.621
L181.257 499.533
L176.567 494.12
z
" style="fill:#af0a0a;stroke:#000000;stroke-width:0.25;"/>
   </g>
   <g id="patch_86">
    <path clip-path="url(#pcfd58d5018)" d="
M145.553 485.013
L138.681 487.031
L133.991 492.444
L132.972 499.533
L135.947 506.047
L141.972 509.919
L149.134 509.919
L155.159 506.047
L158.134 499.533
L157.115 492.444
L152.425 487.031
z
" style="fill:#af0a0a;stroke:#000000;stroke-width:0.25;"/>
   </g>
   <g id="patch_87">
    <path clip-path="url(#pcfd58d5018)" d="
M129.076 465.997
L122.204 468.015
L117.514 473.428
L116.495 480.517
L119.47 487.031
L125.495 490.903
L132.656 490.903
L138.681 487.031
L141.656 480.517
L140.637 473.428
L135.947 468.015
z
" style="fill:#af0a0a;stroke:#000000;stroke-width:0.25;"/>
   </g>
   <g id="patch_88">
    <path clip-path="url(#pcfd58d5018)" d="
M125.495 441.092
L118.623 443.109
L113.933 448.522
L112.914 455.611
L115.889 462.125
L121.914 465.997
L129.076 465.997
L135.1 462.125
L138.076 455.611
L137.056 448.522
L132.366 443.109
z
" style="fill:#af0a0a;stroke:#000000;stroke-width:0.25;"/>
   </g>
   <g id="patch_89">
    <path clip-path="url(#pcfd58d5018)" d="
M135.947 418.204
L129.076 420.222
L124.386 425.634
L123.366 432.723
L126.341 439.238
L132.366 443.109
L139.528 443.109
L145.553 439.238
L148.528 432.723
L147.509 425.634
L142.819 420.222
z
" style="fill:#af0a0a;stroke:#000000;stroke-width:0.25;"/>
   </g>
   <g id="patch_90">
    <path clip-path="url(#pcfd58d5018)" d="
M157.115 404.6
L150.243 406.618
L145.553 412.031
L144.534 419.119
L147.509 425.634
L153.534 429.506
L160.696 429.506
L166.72 425.634
L169.696 419.119
L168.676 412.031
L163.986 406.618
z
" style="fill:#af0a0a;stroke:#000000;stroke-width:0.25;"/>
   </g>
   <g id="patch_91">
    <path clip-path="url(#pcfd58d5018)" d="
M105.464 315.954
L98.5925 317.972
L93.9025 323.384
L92.8833 330.473
L95.8584 336.988
L101.883 340.86
L109.045 340.86
L115.07 336.988
L118.045 330.473
L117.026 323.384
L112.336 317.972
z
" style="fill:#af0a0a;stroke:#000000;stroke-width:0.25;"/>
   </g>
   <g id="patch_92">
    <path clip-path="url(#pcfd58d5018)" d="
M126.632 329.558
L119.76 331.575
L115.07 336.988
L114.051 344.077
L117.026 350.591
L123.051 354.463
L130.212 354.463
L136.237 350.591
L139.212 344.077
L138.193 336.988
L133.503 331.575
z
" style="fill:#af0a0a;stroke:#000000;stroke-width:0.25;"/>
   </g>
   <g id="patch_93">
    <path clip-path="url(#pcfd58d5018)" d="
M137.084 352.446
L130.212 354.463
L125.523 359.876
L124.503 366.965
L127.478 373.479
L133.503 377.351
L140.665 377.351
L146.69 373.479
L149.665 366.965
L148.646 359.876
L143.956 354.463
z
" style="fill:#af0a0a;stroke:#000000;stroke-width:0.25;"/>
   </g>
   <g id="patch_94">
    <path clip-path="url(#pcfd58d5018)" d="
M133.503 377.351
L126.632 379.369
L121.942 384.782
L120.922 391.87
L123.897 398.385
L129.922 402.257
L137.084 402.257
L143.109 398.385
L146.084 391.87
L145.065 384.782
L140.375 379.369
z
" style="fill:#af0a0a;stroke:#000000;stroke-width:0.25;"/>
   </g>
   <g id="patch_95">
    <path clip-path="url(#pcfd58d5018)" d="
M117.026 396.367
L110.154 398.385
L105.464 403.798
L104.445 410.886
L107.42 417.401
L113.445 421.273
L120.607 421.273
L126.632 417.401
L129.607 410.886
L128.587 403.798
L123.897 398.385
z
" style="fill:#af0a0a;stroke:#000000;stroke-width:0.25;"/>
   </g>
   <g id="patch_96">
    <path clip-path="url(#pcfd58d5018)" d="
M92.8833 403.456
L86.0116 405.474
L81.3216 410.886
L80.3024 417.975
L83.2775 424.49
L89.3024 428.362
L96.4641 428.362
L102.489 424.49
L105.464 417.975
L104.445 410.886
L99.7549 405.474
z
" style="fill:#af0a0a;stroke:#000000;stroke-width:0.25;"/>
   </g>
   <g id="patch_97">
    <path clip-path="url(#pcfd58d5018)" d="
M68.7407 396.367
L61.869 398.385
L57.179 403.798
L56.1598 410.886
L59.1349 417.401
L65.1598 421.273
L72.3216 421.273
L78.3465 417.401
L81.3216 410.886
L80.3024 403.798
L75.6124 398.385
z
" style="fill:#af0a0a;stroke:#000000;stroke-width:0.25;"/>
   </g>
   <g id="patch_98">
    <path clip-path="url(#pcfd58d5018)" d="
M52.2632 377.351
L45.3915 379.369
L40.7016 384.782
L39.6823 391.87
L42.6574 398.385
L48.6823 402.257
L55.8441 402.257
L61.869 398.385
L64.8441 391.87
L63.8249 384.782
L59.1349 379.369
z
" style="fill:#af0a0a;stroke:#000000;stroke-width:0.25;"/>
   </g>
   <g id="patch_99">
    <path clip-path="url(#pcfd58d5018)" d="
M48.6823 352.446
L41.8106 354.463
L37.1207 359.876
L36.1014 366.965
L39.0766 373.479
L45.1014 377.351
L52.2632 377.351
L58.2881 373.479
L61.2632 366.965
L60.244 359.876
L55.554 354.463
z
" style="fill:#af0a0a;stroke:#000000;stroke-width:0.25;"/>
   </g>
   <g id="patch_100">
    <path clip-path="url(#pcfd58d5018)" d="
M59.1349 329.558
L52.2632 331.575
L47.5733 336.988
L46.554 344.077
L49.5291 350.591
L55.554 354.463
L62.7158 354.463
L68.7407 350.591
L71.7158 344.077
L70.6966 336.988
L66.0066 331.575
z
" style="fill:#af0a0a;stroke:#000000;stroke-width:0.25;"/>
   </g>
   <g id="patch_101">
    <path clip-path="url(#pcfd58d5018)" d="
M80.3024 315.954
L73.4307 317.972
L68.7407 323.384
L67.7215 330.473
L70.6966 336.988
L76.7215 340.86
L83.8833 340.86
L89.9081 336.988
L92.8833 330.473
L91.864 323.384
L87.174 317.972
z
" style="fill:#af0a0a;stroke:#000000;stroke-width:0.25;"/>
   </g>
   <g id="patch_102">
    <path clip-path="url(#pcfd58d5018)" d="
M88.7712 199.852
L81.8995 201.87
L77.2096 207.283
L76.1903 214.371
L79.1654 220.886
L85.1903 224.758
L92.3521 224.758
L98.377 220.886
L101.352 214.371
L100.333 207.283
L95.6429 201.87
z
" style="fill:#af0a0a;stroke:#000000;stroke-width:0.25;"/>
   </g>
   <g id="patch_103">
    <path clip-path="url(#pcfd58d5018)" d="
M109.939 213.456
L103.067 215.474
L98.377 220.886
L97.3578 227.975
L100.333 234.49
L106.358 238.362
L113.52 238.362
L119.544 234.49
L122.52 227.975
L121.5 220.886
L116.81 215.474
z
" style="fill:#af0a0a;stroke:#000000;stroke-width:0.25;"/>
   </g>
   <g id="patch_104">
    <path clip-path="url(#pcfd58d5018)" d="
M120.391 236.344
L113.52 238.362
L108.83 243.774
L107.81 250.863
L110.785 257.378
L116.81 261.249
L123.972 261.249
L129.997 257.378
L132.972 250.863
L131.953 243.774
L127.263 238.362
z
" style="fill:#af0a0a;stroke:#000000;stroke-width:0.25;"/>
   </g>
   <g id="patch_105">
    <path clip-path="url(#pcfd58d5018)" d="
M116.81 261.249
L109.939 263.267
L105.249 268.68
L104.229 275.769
L107.205 282.283
L113.229 286.155
L120.391 286.155
L126.416 282.283
L129.391 275.769
L128.372 268.68
L123.682 263.267
z
" style="fill:#af0a0a;stroke:#000000;stroke-width:0.25;"/>
   </g>
   <g id="patch_106">
    <path clip-path="url(#pcfd58d5018)" d="
M100.333 280.265
L93.4612 282.283
L88.7712 287.696
L87.752 294.785
L90.7271 301.299
L96.752 305.171
L103.914 305.171
L109.939 301.299
L112.914 294.785
L111.895 287.696
L107.205 282.283
z
" style="fill:#af0a0a;stroke:#000000;stroke-width:0.25;"/>
   </g>
   <g id="patch_107">
    <path clip-path="url(#pcfd58d5018)" d="
M76.1903 287.354
L69.3186 289.372
L64.6287 294.785
L63.6094 301.874
L66.5846 308.388
L72.6094 312.26
L79.7712 312.26
L85.7961 308.388
L88.7712 301.874
L87.752 294.785
L83.062 289.372
z
" style="fill:#af0a0a;stroke:#000000;stroke-width:0.25;"/>
   </g>
   <g id="patch_108">
    <path clip-path="url(#pcfd58d5018)" d="
M52.0478 280.265
L45.1761 282.283
L40.4861 287.696
L39.4669 294.785
L42.442 301.299
L48.4669 305.171
L55.6287 305.171
L61.6536 301.299
L64.6287 294.785
L63.6094 287.696
L58.9195 282.283
z
" style="fill:#af0a0a;stroke:#000000;stroke-width:0.25;"/>
   </g>
   <g id="patch_109">
    <path clip-path="url(#pcfd58d5018)" d="
M35.5703 261.249
L28.6986 263.267
L24.0086 268.68
L22.9894 275.769
L25.9645 282.283
L31.9894 286.155
L39.1512 286.155
L45.1761 282.283
L48.1512 275.769
L47.132 268.68
L42.442 263.267
z
" style="fill:#af0a0a;stroke:#000000;stroke-width:0.25;"/>
   </g>
   <g id="patch_110">
    <path clip-path="url(#pcfd58d5018)" d="
M31.9894 236.344
L25.1177 238.362
L20.4277 243.774
L19.4085 250.863
L22.3836 257.378
L28.4085 261.249
L35.5703 261.249
L41.5952 257.378
L44.5703 250.863
L43.5511 243.774
L38.8611 238.362
z
" style="fill:#af0a0a;stroke:#000000;stroke-width:0.25;"/>
   </g>
   <g id="patch_111">
    <path clip-path="url(#pcfd58d5018)" d="
M42.442 213.456
L35.5703 215.474
L30.8803 220.886
L29.8611 227.975
L32.8362 234.49
L38.8611 238.362
L46.0229 238.362
L52.0478 234.49
L55.0229 227.975
L54.0037 220.886
L49.3137 215.474
z
" style="fill:#af0a0a;stroke:#000000;stroke-width:0.25;"/>
   </g>
   <g id="patch_112">
    <path clip-path="url(#pcfd58d5018)" d="
M63.6094 199.852
L56.7378 201.87
L52.0478 207.283
L51.0285 214.371
L54.0037 220.886
L60.0285 224.758
L67.1903 224.758
L73.2152 220.886
L76.1903 214.371
L75.1711 207.283
L70.4811 201.87
z
" style="fill:#af0a0a;stroke:#000000;stroke-width:0.25;"/>
   </g>
   <g id="patch_113">
    <path clip-path="url(#pcfd58d5018)" d="
M137.498 93.1564
L130.626 95.1741
L125.936 100.587
L124.917 107.676
L127.892 114.19
L133.917 118.062
L141.079 118.062
L147.103 114.19
L150.079 107.676
L149.059 100.587
L144.369 95.1741
z
" style="fill:#af0a0a;stroke:#000000;stroke-width:0.25;"/>
   </g>
   <g id="patch_114">
    <path clip-path="url(#pcfd58d5018)" d="
M158.665 106.76
L151.793 108.778
L147.103 114.19
L146.084 121.279
L149.059 127.794
L155.084 131.666
L162.246 131.666
L168.271 127.794
L171.246 121.279
L170.227 114.19
L165.537 108.778
z
" style="fill:#af0a0a;stroke:#000000;stroke-width:0.25;"/>
   </g>
   <g id="patch_115">
    <path clip-path="url(#pcfd58d5018)" d="
M169.118 129.648
L162.246 131.666
L157.556 137.078
L156.537 144.167
L159.512 150.682
L165.537 154.554
L172.699 154.554
L178.723 150.682
L181.699 144.167
L180.679 137.078
L175.989 131.666
z
" style="fill:#af0a0a;stroke:#000000;stroke-width:0.25;"/>
   </g>
   <g id="patch_116">
    <path clip-path="url(#pcfd58d5018)" d="
M165.537 154.554
L158.665 156.571
L153.975 161.984
L152.956 169.073
L155.931 175.587
L161.956 179.459
L169.118 179.459
L175.143 175.587
L178.118 169.073
L177.098 161.984
L172.408 156.571
z
" style="fill:#af0a0a;stroke:#000000;stroke-width:0.25;"/>
   </g>
   <g id="patch_117">
    <path clip-path="url(#pcfd58d5018)" d="
M149.059 173.57
L142.188 175.587
L137.498 181
L136.478 188.089
L139.454 194.603
L145.478 198.475
L152.64 198.475
L158.665 194.603
L161.64 188.089
L160.621 181
L155.931 175.587
z
" style="fill:#af0a0a;stroke:#000000;stroke-width:0.25;"/>
   </g>
   <g id="patch_118">
    <path clip-path="url(#pcfd58d5018)" d="
M124.917 180.658
L118.045 182.676
L113.355 188.089
L112.336 195.178
L115.311 201.692
L121.336 205.564
L128.498 205.564
L134.523 201.692
L137.498 195.178
L136.478 188.089
L131.788 182.676
z
" style="fill:#af0a0a;stroke:#000000;stroke-width:0.25;"/>
   </g>
   <g id="patch_119">
    <path clip-path="url(#pcfd58d5018)" d="
M100.774 173.57
L93.9025 175.587
L89.2125 181
L88.1933 188.089
L91.1684 194.603
L97.1933 198.475
L104.355 198.475
L110.38 194.603
L113.355 188.089
L112.336 181
L107.646 175.587
z
" style="fill:#af0a0a;stroke:#000000;stroke-width:0.25;"/>
   </g>
   <g id="patch_120">
    <path clip-path="url(#pcfd58d5018)" d="
M84.2967 154.554
L77.425 156.571
L72.735 161.984
L71.7158 169.073
L74.6909 175.587
L80.7158 179.459
L87.8776 179.459
L93.9025 175.587
L96.8776 169.073
L95.8584 161.984
L91.1684 156.571
z
" style="fill:#af0a0a;stroke:#000000;stroke-width:0.25;"/>
   </g>
   <g id="patch_121">
    <path clip-path="url(#pcfd58d5018)" d="
M80.7158 129.648
L73.8441 131.666
L69.1541 137.078
L68.1349 144.167
L71.11 150.682
L77.1349 154.554
L84.2967 154.554
L90.3216 150.682
L93.2967 144.167
L92.2775 137.078
L87.5875 131.666
z
" style="fill:#af0a0a;stroke:#000000;stroke-width:0.25;"/>
   </g>
   <g id="patch_122">
    <path clip-path="url(#pcfd58d5018)" d="
M91.1684 106.76
L84.2967 108.778
L79.6067 114.19
L78.5875 121.279
L81.5626 127.794
L87.5875 131.666
L94.7493 131.666
L100.774 127.794
L103.749 121.279
L102.73 114.19
L98.0401 108.778
z
" style="fill:#af0a0a;stroke:#000000;stroke-width:0.25;"/>
   </g>
   <g id="patch_123">
    <path clip-path="url(#pcfd58d5018)" d="
M112.336 93.1564
L105.464 95.1741
L100.774 100.587
L99.7549 107.676
L102.73 114.19
L108.755 118.062
L115.917 118.062
L121.942 114.19
L124.917 107.676
L123.897 100.587
L119.208 95.1741
z
" style="fill:#af0a0a;stroke:#000000;stroke-width:0.25;"/>
   </g>
   <g id="patch_124">
    <path clip-path="url(#pcfd58d5018)" d="
M236.173 29.7416
L229.301 31.7593
L224.611 37.1718
L223.592 44.2607
L226.567 50.7753
L232.592 54.6473
L239.754 54.6473
L245.779 50.7753
L248.754 44.2607
L247.735 37.1718
L243.045 31.7593
z
" style="fill:#af0a0a;stroke:#000000;stroke-width:0.25;"/>
   </g>
   <g id="patch_125">
    <path clip-path="url(#pcfd58d5018)" d="
M257.34 43.3451
L250.469 45.3628
L245.779 50.7753
L244.76 57.8642
L247.735 64.3788
L253.76 68.2507
L260.921 68.2507
L266.946 64.3788
L269.921 57.8642
L268.902 50.7753
L264.212 45.3628
z
" style="fill:#af0a0a;stroke:#000000;stroke-width:0.25;"/>
   </g>
   <g id="patch_126">
    <path clip-path="url(#pcfd58d5018)" d="
M267.793 66.233
L260.921 68.2507
L256.231 73.6633
L255.212 80.7522
L258.187 87.2668
L264.212 91.1387
L271.374 91.1387
L277.399 87.2668
L280.374 80.7522
L279.355 73.6633
L274.665 68.2507
z
" style="fill:#af0a0a;stroke:#000000;stroke-width:0.25;"/>
   </g>
   <g id="patch_127">
    <path clip-path="url(#pcfd58d5018)" d="
M264.212 91.1387
L257.34 93.1564
L252.651 98.5689
L251.631 105.658
L254.606 112.172
L260.631 116.044
L267.793 116.044
L273.818 112.172
L276.793 105.658
L275.774 98.5689
L271.084 93.1564
z
" style="fill:#af0a0a;stroke:#000000;stroke-width:0.25;"/>
   </g>
   <g id="patch_128">
    <path clip-path="url(#pcfd58d5018)" d="
M247.735 110.155
L240.863 112.172
L236.173 117.585
L235.154 124.674
L238.129 131.188
L244.154 135.06
L251.316 135.06
L257.34 131.188
L260.316 124.674
L259.296 117.585
L254.606 112.172
z
" style="fill:#af0a0a;stroke:#000000;stroke-width:0.25;"/>
   </g>
   <g id="patch_129">
    <path clip-path="url(#pcfd58d5018)" d="
M223.592 117.244
L216.72 119.261
L212.03 124.674
L211.011 131.763
L213.986 138.277
L220.011 142.149
L227.173 142.149
L233.198 138.277
L236.173 131.763
L235.154 124.674
L230.464 119.261
z
" style="fill:#af0a0a;stroke:#000000;stroke-width:0.25;"/>
   </g>
   <g id="patch_130">
    <path clip-path="url(#pcfd58d5018)" d="
M199.45 110.155
L192.578 112.172
L187.888 117.585
L186.869 124.674
L189.844 131.188
L195.869 135.06
L203.03 135.06
L209.055 131.188
L212.03 124.674
L211.011 117.585
L206.321 112.172
z
" style="fill:#af0a0a;stroke:#000000;stroke-width:0.25;"/>
   </g>
   <g id="patch_131">
    <path clip-path="url(#pcfd58d5018)" d="
M182.972 91.1387
L176.1 93.1564
L171.41 98.5689
L170.391 105.658
L173.366 112.172
L179.391 116.044
L186.553 116.044
L192.578 112.172
L195.553 105.658
L194.534 98.5689
L189.844 93.1564
z
" style="fill:#af0a0a;stroke:#000000;stroke-width:0.25;"/>
   </g>
   <g id="patch_132">
    <path clip-path="url(#pcfd58d5018)" d="
M179.391 66.233
L172.52 68.2507
L167.83 73.6633
L166.81 80.7522
L169.785 87.2668
L175.81 91.1387
L182.972 91.1387
L188.997 87.2668
L191.972 80.7522
L190.953 73.6633
L186.263 68.2507
z
" style="fill:#af0a0a;stroke:#000000;stroke-width:0.25;"/>
   </g>
   <g id="patch_133">
    <path clip-path="url(#pcfd58d5018)" d="
M189.844 43.3451
L182.972 45.3628
L178.282 50.7753
L177.263 57.8642
L180.238 64.3788
L186.263 68.2507
L193.425 68.2507
L199.45 64.3788
L202.425 57.8642
L201.405 50.7753
L196.716 45.3628
z
" style="fill:#af0a0a;stroke:#000000;stroke-width:0.25;"/>
   </g>
   <g id="patch_134">
    <path clip-path="url(#pcfd58d5018)" d="
M211.011 29.7416
L204.14 31.7593
L199.45 37.1718
L198.43 44.2607
L201.405 50.7753
L207.43 54.6473
L214.592 54.6473
L220.617 50.7753
L223.592 44.2607
L222.573 37.1718
L217.883 31.7593
z
" style="fill:#af0a0a;stroke:#000000;stroke-width:0.25;"/>
   </g>
   <g id="matplotlib.axis_1"/>
   <g id="matplotlib.axis_2"/>
  </g>
 </g>
 <defs>
  <clipPath id="pcfd58d5018">
   <rect height="544.48097875" width="550.08" x="7.2" y="7.2"/>
  </clipPath>
 </defs>
</svg>
