<?xml version="1.0" encoding="utf-8" standalone="no"?>
<!DOCTYPE svg PUBLIC "-//W3C//DTD SVG 1.1//EN"
  "http://www.w3.org/Graphics/SVG/1.1/DTD/svg11.dtd">
<!-- Created with matplotlib (http://matplotlib.org/) -->
<svg height="564pt" version="1.1" viewBox="0 0 564 564" width="564pt" xmlns="http://www.w3.org/2000/svg" xmlns:xlink="http://www.w3.org/1999/xlink">
 <defs>
  <style type="text/css">
*{stroke-linecap:butt;stroke-linejoin:round;}
  </style>
 </defs>
 <g id="figure_1">
  <g id="patch_1">
   <path d="
M0 564.48
L564.48 564.48
L564.48 0
L0 0
z
" style="fill:none;"/>
  </g>
  <g id="axes_1">
   <g id="patch_2">
    <path clip-path="url(#p09214e8173)" d="
M282.24 8.84366
L145.542 45.4718
L45.4718 145.542
L8.84366 282.24
L45.4718 418.938
L145.542 519.008
L282.24 555.636
L418.938 519.008
L519.008 418.938
L555.636 282.24
L519.008 145.542
L418.938 45.4718
z
" style="fill:#bcd4e6;stroke:#000000;stroke-width:0.25;"/>
   </g>
   <g id="patch_3">
    <path clip-path="url(#p09214e8173)" d="
M336.919 23.4949
L309.58 30.8206
L289.566 50.8346
L282.24 78.1742
L289.566 105.514
L309.58 125.528
L336.919 132.853
L364.259 125.528
L384.273 105.514
L391.599 78.1742
L384.273 50.8346
L364.259 30.8206
z
" style="fill:#eae2ac;stroke:#000000;stroke-width:0.25;"/>
   </g>
   <g id="patch_4">
    <path clip-path="url(#p09214e8173)" d="
M431.627 78.1742
L404.287 85.4998
L384.273 105.514
L376.947 132.853
L384.273 160.193
L404.287 180.207
L431.627 187.533
L458.966 180.207
L478.98 160.193
L486.306 132.853
L478.98 105.514
L458.966 85.4998
z
" style="fill:#eae2ac;stroke:#000000;stroke-width:0.25;"/>
   </g>
   <g id="patch_5">
    <path clip-path="url(#p09214e8173)" d="
M486.306 172.881
L458.966 180.207
L438.952 200.221
L431.627 227.561
L438.952 254.9
L458.966 274.914
L486.306 282.24
L513.645 274.914
L533.659 254.9
L540.985 227.561
L533.659 200.221
L513.645 180.207
z
" style="fill:#eae2ac;stroke:#000000;stroke-width:0.25;"/>
   </g>
   <g id="patch_6">
    <path clip-path="url(#p09214e8173)" d="
M486.306 282.24
L458.966 289.566
L438.952 309.58
L431.627 336.919
L438.952 364.259
L458.966 384.273
L486.306 391.599
L513.645 384.273
L533.659 364.259
L540.985 336.919
L533.659 309.58
L513.645 289.566
z
" style="fill:#eae2ac;stroke:#000000;stroke-width:0.25;"/>
   </g>
   <g id="patch_7">
    <path clip-path="url(#p09214e8173)" d="
M431.627 376.947
L404.287 384.273
L384.273 404.287
L376.947 431.627
L384.273 458.966
L404.287 478.98
L431.627 486.306
L458.966 478.98
L478.98 458.966
L486.306 431.627
L478.98 404.287
L458.966 384.273
z
" style="fill:#eae2ac;stroke:#000000;stroke-width:0.25;"/>
   </g>
   <g id="patch_8">
    <path clip-path="url(#p09214e8173)" d="
M336.919 431.627
L309.58 438.952
L289.566 458.966
L282.24 486.306
L289.566 513.645
L309.58 533.659
L336.919 540.985
L364.259 533.659
L384.273 513.645
L391.599 486.306
L384.273 458.966
L364.259 438.952
z
" style="fill:#eae2ac;stroke:#000000;stroke-width:0.25;"/>
   </g>
   <g id="patch_9">
    <path clip-path="url(#p09214e8173)" d="
M227.561 431.627
L200.221 438.952
L180.207 458.966
L172.881 486.306
L180.207 513.645
L200.221 533.659
L227.561 540.985
L254.9 533.659
L274.914 513.645
L282.24 486.306
L274.914 458.966
L254.9 438.952
z
" style="fill:#eae2ac;stroke:#000000;stroke-width:0.25;"/>
   </g>
   <g id="patch_10">
    <path clip-path="url(#p09214e8173)" d="
M132.853 376.947
L105.514 384.273
L85.4998 404.287
L78.1742 431.627
L85.4998 458.966
L105.514 478.98
L132.853 486.306
L160.193 478.98
L180.207 458.966
L187.533 431.627
L180.207 404.287
L160.193 384.273
z
" style="fill:#eae2ac;stroke:#000000;stroke-width:0.25;"/>
   </g>
   <g id="patch_11">
    <path clip-path="url(#p09214e8173)" d="
M78.1742 282.24
L50.8346 289.566
L30.8206 309.58
L23.4949 336.919
L30.8206 364.259
L50.8346 384.273
L78.1742 391.599
L105.514 384.273
L125.528 364.259
L132.853 336.919
L125.528 309.58
L105.514 289.566
z
" style="fill:#eae2ac;stroke:#000000;stroke-width:0.25;"/>
   </g>
   <g id="patch_12">
    <path clip-path="url(#p09214e8173)" d="
M78.1742 172.881
L50.8346 180.207
L30.8206 200.221
L23.4949 227.561
L30.8206 254.9
L50.8346 274.914
L78.1742 282.24
L105.514 274.914
L125.528 254.9
L132.853 227.561
L125.528 200.221
L105.514 180.207
z
" style="fill:#eae2ac;stroke:#000000;stroke-width:0.25;"/>
   </g>
   <g id="patch_13">
    <path clip-path="url(#p09214e8173)" d="
M132.853 78.1742
L105.514 85.4998
L85.4998 105.514
L78.1742 132.853
L85.4998 160.193
L105.514 180.207
L132.853 187.533
L160.193 180.207
L180.207 160.193
L187.533 132.853
L180.207 105.514
L160.193 85.4998
z
" style="fill:#eae2ac;stroke:#000000;stroke-width:0.25;"/>
   </g>
   <g id="patch_14">
    <path clip-path="url(#p09214e8173)" d="
M227.561 23.4949
L200.221 30.8206
L180.207 50.8346
L172.881 78.1742
L180.207 105.514
L200.221 125.528
L227.561 132.853
L254.9 125.528
L274.914 105.514
L282.24 78.1742
L274.914 50.8346
L254.9 30.8206
z
" style="fill:#eae2ac;stroke:#000000;stroke-width:0.25;"/>
   </g>
   <g id="patch_15">
    <path clip-path="url(#p09214e8173)" d="
M347.855 26.4252
L342.387 27.8903
L338.384 31.8931
L336.919 37.361
L338.384 42.829
L342.387 46.8318
L347.855 48.2969
L353.323 46.8318
L357.326 42.829
L358.791 37.361
L357.326 31.8931
L353.323 27.8903
z
" style="fill:#af0a0a;stroke:#000000;stroke-width:0.25;"/>
   </g>
   <g id="patch_16">
    <path clip-path="url(#p09214e8173)" d="
M366.797 37.361
L361.329 38.8262
L357.326 42.829
L355.861 48.2969
L357.326 53.7648
L361.329 57.7676
L366.797 59.2327
L372.265 57.7676
L376.267 53.7648
L377.732 48.2969
L376.267 42.829
L372.265 38.8262
z
" style="fill:#af0a0a;stroke:#000000;stroke-width:0.25;"/>
   </g>
   <g id="patch_17">
    <path clip-path="url(#p09214e8173)" d="
M377.732 56.3025
L372.265 57.7676
L368.262 61.7704
L366.797 67.2383
L368.262 72.7063
L372.265 76.7091
L377.732 78.1742
L383.2 76.7091
L387.203 72.7063
L388.668 67.2383
L387.203 61.7704
L383.2 57.7676
z
" style="fill:#af0a0a;stroke:#000000;stroke-width:0.25;"/>
   </g>
   <g id="patch_18">
    <path clip-path="url(#p09214e8173)" d="
M377.732 78.1742
L372.265 79.6393
L368.262 83.6421
L366.797 89.11
L368.262 94.578
L372.265 98.5808
L377.732 100.046
L383.2 98.5808
L387.203 94.578
L388.668 89.11
L387.203 83.6421
L383.2 79.6393
z
" style="fill:#af0a0a;stroke:#000000;stroke-width:0.25;"/>
   </g>
   <g id="patch_19">
    <path clip-path="url(#p09214e8173)" d="
M366.797 97.1156
L361.329 98.5808
L357.326 102.584
L355.861 108.052
L357.326 113.519
L361.329 117.522
L366.797 118.987
L372.265 117.522
L376.267 113.519
L377.732 108.052
L376.267 102.584
L372.265 98.5808
z
" style="fill:#af0a0a;stroke:#000000;stroke-width:0.25;"/>
   </g>
   <g id="patch_20">
    <path clip-path="url(#p09214e8173)" d="
M347.855 108.052
L342.387 109.517
L338.384 113.519
L336.919 118.987
L338.384 124.455
L342.387 128.458
L347.855 129.923
L353.323 128.458
L357.326 124.455
L358.791 118.987
L357.326 113.519
L353.323 109.517
z
" style="fill:#af0a0a;stroke:#000000;stroke-width:0.25;"/>
   </g>
   <g id="patch_21">
    <path clip-path="url(#p09214e8173)" d="
M325.983 108.052
L320.515 109.517
L316.513 113.519
L315.048 118.987
L316.513 124.455
L320.515 128.458
L325.983 129.923
L331.451 128.458
L335.454 124.455
L336.919 118.987
L335.454 113.519
L331.451 109.517
z
" style="fill:#af0a0a;stroke:#000000;stroke-width:0.25;"/>
   </g>
   <g id="patch_22">
    <path clip-path="url(#p09214e8173)" d="
M307.042 97.1156
L301.574 98.5808
L297.571 102.584
L296.106 108.052
L297.571 113.519
L301.574 117.522
L307.042 118.987
L312.51 117.522
L316.513 113.519
L317.978 108.052
L316.513 102.584
L312.51 98.5808
z
" style="fill:#af0a0a;stroke:#000000;stroke-width:0.25;"/>
   </g>
   <g id="patch_23">
    <path clip-path="url(#p09214e8173)" d="
M296.106 78.1742
L290.638 79.6393
L286.635 83.6421
L285.17 89.11
L286.635 94.578
L290.638 98.5808
L296.106 100.046
L301.574 98.5808
L305.577 94.578
L307.042 89.11
L305.577 83.6421
L301.574 79.6393
z
" style="fill:#af0a0a;stroke:#000000;stroke-width:0.25;"/>
   </g>
   <g id="patch_24">
    <path clip-path="url(#p09214e8173)" d="
M296.106 56.3025
L290.638 57.7676
L286.635 61.7704
L285.17 67.2383
L286.635 72.7063
L290.638 76.7091
L296.106 78.1742
L301.574 76.7091
L305.577 72.7063
L307.042 67.2383
L305.577 61.7704
L301.574 57.7676
z
" style="fill:#af0a0a;stroke:#000000;stroke-width:0.25;"/>
   </g>
   <g id="patch_25">
    <path clip-path="url(#p09214e8173)" d="
M307.042 37.361
L301.574 38.8262
L297.571 42.829
L296.106 48.2969
L297.571 53.7648
L301.574 57.7676
L307.042 59.2327
L312.51 57.7676
L316.513 53.7648
L317.978 48.2969
L316.513 42.829
L312.51 38.8262
z
" style="fill:#af0a0a;stroke:#000000;stroke-width:0.25;"/>
   </g>
   <g id="patch_26">
    <path clip-path="url(#p09214e8173)" d="
M325.983 26.4252
L320.515 27.8903
L316.513 31.8931
L315.048 37.361
L316.513 42.829
L320.515 46.8318
L325.983 48.2969
L331.451 46.8318
L335.454 42.829
L336.919 37.361
L335.454 31.8931
L331.451 27.8903
z
" style="fill:#af0a0a;stroke:#000000;stroke-width:0.25;"/>
   </g>
   <g id="patch_27">
    <path clip-path="url(#p09214e8173)" d="
M442.562 81.1044
L437.094 82.5696
L433.092 86.5724
L431.627 92.0403
L433.092 97.5082
L437.094 101.511
L442.562 102.976
L448.03 101.511
L452.033 97.5082
L453.498 92.0403
L452.033 86.5724
L448.03 82.5696
z
" style="fill:#af0a0a;stroke:#000000;stroke-width:0.25;"/>
   </g>
   <g id="patch_28">
    <path clip-path="url(#p09214e8173)" d="
M461.504 92.0403
L456.036 93.5054
L452.033 97.5082
L450.568 102.976
L452.033 108.444
L456.036 112.447
L461.504 113.912
L466.972 112.447
L470.975 108.444
L472.44 102.976
L470.975 97.5082
L466.972 93.5054
z
" style="fill:#af0a0a;stroke:#000000;stroke-width:0.25;"/>
   </g>
   <g id="patch_29">
    <path clip-path="url(#p09214e8173)" d="
M472.44 110.982
L466.972 112.447
L462.969 116.45
L461.504 121.918
L462.969 127.386
L466.972 131.388
L472.44 132.853
L477.908 131.388
L481.91 127.386
L483.376 121.918
L481.91 116.45
L477.908 112.447
z
" style="fill:#af0a0a;stroke:#000000;stroke-width:0.25;"/>
   </g>
   <g id="patch_30">
    <path clip-path="url(#p09214e8173)" d="
M472.44 132.853
L466.972 134.319
L462.969 138.321
L461.504 143.789
L462.969 149.257
L466.972 153.26
L472.44 154.725
L477.908 153.26
L481.91 149.257
L483.376 143.789
L481.91 138.321
L477.908 134.319
z
" style="fill:#af0a0a;stroke:#000000;stroke-width:0.25;"/>
   </g>
   <g id="patch_31">
    <path clip-path="url(#p09214e8173)" d="
M461.504 151.795
L456.036 153.26
L452.033 157.263
L450.568 162.731
L452.033 168.199
L456.036 172.201
L461.504 173.667
L466.972 172.201
L470.975 168.199
L472.44 162.731
L470.975 157.263
L466.972 153.26
z
" style="fill:#af0a0a;stroke:#000000;stroke-width:0.25;"/>
   </g>
   <g id="patch_32">
    <path clip-path="url(#p09214e8173)" d="
M442.562 162.731
L437.094 164.196
L433.092 168.199
L431.627 173.667
L433.092 179.135
L437.094 183.137
L442.562 184.602
L448.03 183.137
L452.033 179.135
L453.498 173.667
L452.033 168.199
L448.03 164.196
z
" style="fill:#af0a0a;stroke:#000000;stroke-width:0.25;"/>
   </g>
   <g id="patch_33">
    <path clip-path="url(#p09214e8173)" d="
M420.691 162.731
L415.223 164.196
L411.22 168.199
L409.755 173.667
L411.22 179.135
L415.223 183.137
L420.691 184.602
L426.159 183.137
L430.161 179.135
L431.627 173.667
L430.161 168.199
L426.159 164.196
z
" style="fill:#af0a0a;stroke:#000000;stroke-width:0.25;"/>
   </g>
   <g id="patch_34">
    <path clip-path="url(#p09214e8173)" d="
M401.749 151.795
L396.281 153.26
L392.279 157.263
L390.813 162.731
L392.279 168.199
L396.281 172.201
L401.749 173.667
L407.217 172.201
L411.22 168.199
L412.685 162.731
L411.22 157.263
L407.217 153.26
z
" style="fill:#af0a0a;stroke:#000000;stroke-width:0.25;"/>
   </g>
   <g id="patch_35">
    <path clip-path="url(#p09214e8173)" d="
M390.813 132.853
L385.345 134.319
L381.343 138.321
L379.878 143.789
L381.343 149.257
L385.345 153.26
L390.813 154.725
L396.281 153.26
L400.284 149.257
L401.749 143.789
L400.284 138.321
L396.281 134.319
z
" style="fill:#af0a0a;stroke:#000000;stroke-width:0.25;"/>
   </g>
   <g id="patch_36">
    <path clip-path="url(#p09214e8173)" d="
M390.813 110.982
L385.345 112.447
L381.343 116.45
L379.878 121.918
L381.343 127.386
L385.345 131.388
L390.813 132.853
L396.281 131.388
L400.284 127.386
L401.749 121.918
L400.284 116.45
L396.281 112.447
z
" style="fill:#af0a0a;stroke:#000000;stroke-width:0.25;"/>
   </g>
   <g id="patch_37">
    <path clip-path="url(#p09214e8173)" d="
M401.749 92.0403
L396.281 93.5054
L392.279 97.5082
L390.813 102.976
L392.279 108.444
L396.281 112.447
L401.749 113.912
L407.217 112.447
L411.22 108.444
L412.685 102.976
L411.22 97.5082
L407.217 93.5054
z
" style="fill:#af0a0a;stroke:#000000;stroke-width:0.25;"/>
   </g>
   <g id="patch_38">
    <path clip-path="url(#p09214e8173)" d="
M420.691 81.1044
L415.223 82.5696
L411.22 86.5724
L409.755 92.0403
L411.22 97.5082
L415.223 101.511
L420.691 102.976
L426.159 101.511
L430.161 97.5082
L431.627 92.0403
L430.161 86.5724
L426.159 82.5696
z
" style="fill:#af0a0a;stroke:#000000;stroke-width:0.25;"/>
   </g>
   <g id="patch_39">
    <path clip-path="url(#p09214e8173)" d="
M497.242 175.812
L491.774 177.277
L487.771 181.28
L486.306 186.748
L487.771 192.215
L491.774 196.218
L497.242 197.683
L502.71 196.218
L506.712 192.215
L508.178 186.748
L506.712 181.28
L502.71 177.277
z
" style="fill:#af0a0a;stroke:#000000;stroke-width:0.25;"/>
   </g>
   <g id="patch_40">
    <path clip-path="url(#p09214e8173)" d="
M516.183 186.748
L510.715 188.213
L506.712 192.215
L505.247 197.683
L506.712 203.151
L510.715 207.154
L516.183 208.619
L521.651 207.154
L525.654 203.151
L527.119 197.683
L525.654 192.215
L521.651 188.213
z
" style="fill:#af0a0a;stroke:#000000;stroke-width:0.25;"/>
   </g>
   <g id="patch_41">
    <path clip-path="url(#p09214e8173)" d="
M527.119 205.689
L521.651 207.154
L517.648 211.157
L516.183 216.625
L517.648 222.093
L521.651 226.096
L527.119 227.561
L532.587 226.096
L536.59 222.093
L538.055 216.625
L536.59 211.157
L532.587 207.154
z
" style="fill:#af0a0a;stroke:#000000;stroke-width:0.25;"/>
   </g>
   <g id="patch_42">
    <path clip-path="url(#p09214e8173)" d="
M527.119 227.561
L521.651 229.026
L517.648 233.029
L516.183 238.497
L517.648 243.965
L521.651 247.967
L527.119 249.432
L532.587 247.967
L536.59 243.965
L538.055 238.497
L536.59 233.029
L532.587 229.026
z
" style="fill:#af0a0a;stroke:#000000;stroke-width:0.25;"/>
   </g>
   <g id="patch_43">
    <path clip-path="url(#p09214e8173)" d="
M516.183 246.502
L510.715 247.967
L506.712 251.97
L505.247 257.438
L506.712 262.906
L510.715 266.909
L516.183 268.374
L521.651 266.909
L525.654 262.906
L527.119 257.438
L525.654 251.97
L521.651 247.967
z
" style="fill:#af0a0a;stroke:#000000;stroke-width:0.25;"/>
   </g>
   <g id="patch_44">
    <path clip-path="url(#p09214e8173)" d="
M497.242 257.438
L491.774 258.903
L487.771 262.906
L486.306 268.374
L487.771 273.842
L491.774 277.845
L497.242 279.31
L502.71 277.845
L506.712 273.842
L508.178 268.374
L506.712 262.906
L502.71 258.903
z
" style="fill:#af0a0a;stroke:#000000;stroke-width:0.25;"/>
   </g>
   <g id="patch_45">
    <path clip-path="url(#p09214e8173)" d="
M475.37 257.438
L469.902 258.903
L465.899 262.906
L464.434 268.374
L465.899 273.842
L469.902 277.845
L475.37 279.31
L480.838 277.845
L484.841 273.842
L486.306 268.374
L484.841 262.906
L480.838 258.903
z
" style="fill:#af0a0a;stroke:#000000;stroke-width:0.25;"/>
   </g>
   <g id="patch_46">
    <path clip-path="url(#p09214e8173)" d="
M456.428 246.502
L450.961 247.967
L446.958 251.97
L445.493 257.438
L446.958 262.906
L450.961 266.909
L456.428 268.374
L461.896 266.909
L465.899 262.906
L467.364 257.438
L465.899 251.97
L461.896 247.967
z
" style="fill:#af0a0a;stroke:#000000;stroke-width:0.25;"/>
   </g>
   <g id="patch_47">
    <path clip-path="url(#p09214e8173)" d="
M445.493 227.561
L440.025 229.026
L436.022 233.029
L434.557 238.497
L436.022 243.965
L440.025 247.967
L445.493 249.432
L450.961 247.967
L454.963 243.965
L456.428 238.497
L454.963 233.029
L450.961 229.026
z
" style="fill:#af0a0a;stroke:#000000;stroke-width:0.25;"/>
   </g>
   <g id="patch_48">
    <path clip-path="url(#p09214e8173)" d="
M445.493 205.689
L440.025 207.154
L436.022 211.157
L434.557 216.625
L436.022 222.093
L440.025 226.096
L445.493 227.561
L450.961 226.096
L454.963 222.093
L456.428 216.625
L454.963 211.157
L450.961 207.154
z
" style="fill:#af0a0a;stroke:#000000;stroke-width:0.25;"/>
   </g>
   <g id="patch_49">
    <path clip-path="url(#p09214e8173)" d="
M456.428 186.748
L450.961 188.213
L446.958 192.215
L445.493 197.683
L446.958 203.151
L450.961 207.154
L456.428 208.619
L461.896 207.154
L465.899 203.151
L467.364 197.683
L465.899 192.215
L461.896 188.213
z
" style="fill:#af0a0a;stroke:#000000;stroke-width:0.25;"/>
   </g>
   <g id="patch_50">
    <path clip-path="url(#p09214e8173)" d="
M475.37 175.812
L469.902 177.277
L465.899 181.28
L464.434 186.748
L465.899 192.215
L469.902 196.218
L475.37 197.683
L480.838 196.218
L484.841 192.215
L486.306 186.748
L484.841 181.28
L480.838 177.277
z
" style="fill:#af0a0a;stroke:#000000;stroke-width:0.25;"/>
   </g>
   <g id="patch_51">
    <path clip-path="url(#p09214e8173)" d="
M497.242 285.17
L491.774 286.635
L487.771 290.638
L486.306 296.106
L487.771 301.574
L491.774 305.577
L497.242 307.042
L502.71 305.577
L506.712 301.574
L508.178 296.106
L506.712 290.638
L502.71 286.635
z
" style="fill:#af0a0a;stroke:#000000;stroke-width:0.25;"/>
   </g>
   <g id="patch_52">
    <path clip-path="url(#p09214e8173)" d="
M516.183 296.106
L510.715 297.571
L506.712 301.574
L505.247 307.042
L506.712 312.51
L510.715 316.513
L516.183 317.978
L521.651 316.513
L525.654 312.51
L527.119 307.042
L525.654 301.574
L521.651 297.571
z
" style="fill:#af0a0a;stroke:#000000;stroke-width:0.25;"/>
   </g>
   <g id="patch_53">
    <path clip-path="url(#p09214e8173)" d="
M527.119 315.048
L521.651 316.513
L517.648 320.515
L516.183 325.983
L517.648 331.451
L521.651 335.454
L527.119 336.919
L532.587 335.454
L536.59 331.451
L538.055 325.983
L536.59 320.515
L532.587 316.513
z
" style="fill:#af0a0a;stroke:#000000;stroke-width:0.25;"/>
   </g>
   <g id="patch_54">
    <path clip-path="url(#p09214e8173)" d="
M527.119 336.919
L521.651 338.384
L517.648 342.387
L516.183 347.855
L517.648 353.323
L521.651 357.326
L527.119 358.791
L532.587 357.326
L536.59 353.323
L538.055 347.855
L536.59 342.387
L532.587 338.384
z
" style="fill:#af0a0a;stroke:#000000;stroke-width:0.25;"/>
   </g>
   <g id="patch_55">
    <path clip-path="url(#p09214e8173)" d="
M516.183 355.861
L510.715 357.326
L506.712 361.329
L505.247 366.797
L506.712 372.265
L510.715 376.267
L516.183 377.732
L521.651 376.267
L525.654 372.265
L527.119 366.797
L525.654 361.329
L521.651 357.326
z
" style="fill:#af0a0a;stroke:#000000;stroke-width:0.25;"/>
   </g>
   <g id="patch_56">
    <path clip-path="url(#p09214e8173)" d="
M497.242 366.797
L491.774 368.262
L487.771 372.265
L486.306 377.732
L487.771 383.2
L491.774 387.203
L497.242 388.668
L502.71 387.203
L506.712 383.2
L508.178 377.732
L506.712 372.265
L502.71 368.262
z
" style="fill:#af0a0a;stroke:#000000;stroke-width:0.25;"/>
   </g>
   <g id="patch_57">
    <path clip-path="url(#p09214e8173)" d="
M475.37 366.797
L469.902 368.262
L465.899 372.265
L464.434 377.732
L465.899 383.2
L469.902 387.203
L475.37 388.668
L480.838 387.203
L484.841 383.2
L486.306 377.732
L484.841 372.265
L480.838 368.262
z
" style="fill:#af0a0a;stroke:#000000;stroke-width:0.25;"/>
   </g>
   <g id="patch_58">
    <path clip-path="url(#p09214e8173)" d="
M456.428 355.861
L450.961 357.326
L446.958 361.329
L445.493 366.797
L446.958 372.265
L450.961 376.267
L456.428 377.732
L461.896 376.267
L465.899 372.265
L467.364 366.797
L465.899 361.329
L461.896 357.326
z
" style="fill:#af0a0a;stroke:#000000;stroke-width:0.25;"/>
   </g>
   <g id="patch_59">
    <path clip-path="url(#p09214e8173)" d="
M445.493 336.919
L440.025 338.384
L436.022 342.387
L434.557 347.855
L436.022 353.323
L440.025 357.326
L445.493 358.791
L450.961 357.326
L454.963 353.323
L456.428 347.855
L454.963 342.387
L450.961 338.384
z
" style="fill:#af0a0a;stroke:#000000;stroke-width:0.25;"/>
   </g>
   <g id="patch_60">
    <path clip-path="url(#p09214e8173)" d="
M445.493 315.048
L440.025 316.513
L436.022 320.515
L434.557 325.983
L436.022 331.451
L440.025 335.454
L445.493 336.919
L450.961 335.454
L454.963 331.451
L456.428 325.983
L454.963 320.515
L450.961 316.513
z
" style="fill:#af0a0a;stroke:#000000;stroke-width:0.25;"/>
   </g>
   <g id="patch_61">
    <path clip-path="url(#p09214e8173)" d="
M456.428 296.106
L450.961 297.571
L446.958 301.574
L445.493 307.042
L446.958 312.51
L450.961 316.513
L456.428 317.978
L461.896 316.513
L465.899 312.51
L467.364 307.042
L465.899 301.574
L461.896 297.571
z
" style="fill:#af0a0a;stroke:#000000;stroke-width:0.25;"/>
   </g>
   <g id="patch_62">
    <path clip-path="url(#p09214e8173)" d="
M475.37 285.17
L469.902 286.635
L465.899 290.638
L464.434 296.106
L465.899 301.574
L469.902 305.577
L475.37 307.042
L480.838 305.577
L484.841 301.574
L486.306 296.106
L484.841 290.638
L480.838 286.635
z
" style="fill:#af0a0a;stroke:#000000;stroke-width:0.25;"/>
   </g>
   <g id="patch_63">
    <path clip-path="url(#p09214e8173)" d="
M442.562 379.878
L437.094 381.343
L433.092 385.345
L431.627 390.813
L433.092 396.281
L437.094 400.284
L442.562 401.749
L448.03 400.284
L452.033 396.281
L453.498 390.813
L452.033 385.345
L448.03 381.343
z
" style="fill:#af0a0a;stroke:#000000;stroke-width:0.25;"/>
   </g>
   <g id="patch_64">
    <path clip-path="url(#p09214e8173)" d="
M461.504 390.813
L456.036 392.279
L452.033 396.281
L450.568 401.749
L452.033 407.217
L456.036 411.22
L461.504 412.685
L466.972 411.22
L470.975 407.217
L472.44 401.749
L470.975 396.281
L466.972 392.279
z
" style="fill:#af0a0a;stroke:#000000;stroke-width:0.25;"/>
   </g>
   <g id="patch_65">
    <path clip-path="url(#p09214e8173)" d="
M472.44 409.755
L466.972 411.22
L462.969 415.223
L461.504 420.691
L462.969 426.159
L466.972 430.161
L472.44 431.627
L477.908 430.161
L481.91 426.159
L483.376 420.691
L481.91 415.223
L477.908 411.22
z
" style="fill:#af0a0a;stroke:#000000;stroke-width:0.25;"/>
   </g>
   <g id="patch_66">
    <path clip-path="url(#p09214e8173)" d="
M472.44 431.627
L466.972 433.092
L462.969 437.094
L461.504 442.562
L462.969 448.03
L466.972 452.033
L472.44 453.498
L477.908 452.033
L481.91 448.03
L483.376 442.562
L481.91 437.094
L477.908 433.092
z
" style="fill:#af0a0a;stroke:#000000;stroke-width:0.25;"/>
   </g>
   <g id="patch_67">
    <path clip-path="url(#p09214e8173)" d="
M461.504 450.568
L456.036 452.033
L452.033 456.036
L450.568 461.504
L452.033 466.972
L456.036 470.975
L461.504 472.44
L466.972 470.975
L470.975 466.972
L472.44 461.504
L470.975 456.036
L466.972 452.033
z
" style="fill:#af0a0a;stroke:#000000;stroke-width:0.25;"/>
   </g>
   <g id="patch_68">
    <path clip-path="url(#p09214e8173)" d="
M442.562 461.504
L437.094 462.969
L433.092 466.972
L431.627 472.44
L433.092 477.908
L437.094 481.91
L442.562 483.376
L448.03 481.91
L452.033 477.908
L453.498 472.44
L452.033 466.972
L448.03 462.969
z
" style="fill:#af0a0a;stroke:#000000;stroke-width:0.25;"/>
   </g>
   <g id="patch_69">
    <path clip-path="url(#p09214e8173)" d="
M420.691 461.504
L415.223 462.969
L411.22 466.972
L409.755 472.44
L411.22 477.908
L415.223 481.91
L420.691 483.376
L426.159 481.91
L430.161 477.908
L431.627 472.44
L430.161 466.972
L426.159 462.969
z
" style="fill:#af0a0a;stroke:#000000;stroke-width:0.25;"/>
   </g>
   <g id="patch_70">
    <path clip-path="url(#p09214e8173)" d="
M401.749 450.568
L396.281 452.033
L392.279 456.036
L390.813 461.504
L392.279 466.972
L396.281 470.975
L401.749 472.44
L407.217 470.975
L411.22 466.972
L412.685 461.504
L411.22 456.036
L407.217 452.033
z
" style="fill:#af0a0a;stroke:#000000;stroke-width:0.25;"/>
   </g>
   <g id="patch_71">
    <path clip-path="url(#p09214e8173)" d="
M390.813 431.627
L385.345 433.092
L381.343 437.094
L379.878 442.562
L381.343 448.03
L385.345 452.033
L390.813 453.498
L396.281 452.033
L400.284 448.03
L401.749 442.562
L400.284 437.094
L396.281 433.092
z
" style="fill:#af0a0a;stroke:#000000;stroke-width:0.25;"/>
   </g>
   <g id="patch_72">
    <path clip-path="url(#p09214e8173)" d="
M390.813 409.755
L385.345 411.22
L381.343 415.223
L379.878 420.691
L381.343 426.159
L385.345 430.161
L390.813 431.627
L396.281 430.161
L400.284 426.159
L401.749 420.691
L400.284 415.223
L396.281 411.22
z
" style="fill:#af0a0a;stroke:#000000;stroke-width:0.25;"/>
   </g>
   <g id="patch_73">
    <path clip-path="url(#p09214e8173)" d="
M401.749 390.813
L396.281 392.279
L392.279 396.281
L390.813 401.749
L392.279 407.217
L396.281 411.22
L401.749 412.685
L407.217 411.22
L411.22 407.217
L412.685 401.749
L411.22 396.281
L407.217 392.279
z
" style="fill:#af0a0a;stroke:#000000;stroke-width:0.25;"/>
   </g>
   <g id="patch_74">
    <path clip-path="url(#p09214e8173)" d="
M420.691 379.878
L415.223 381.343
L411.22 385.345
L409.755 390.813
L411.22 396.281
L415.223 400.284
L420.691 401.749
L426.159 400.284
L430.161 396.281
L431.627 390.813
L430.161 385.345
L426.159 381.343
z
" style="fill:#af0a0a;stroke:#000000;stroke-width:0.25;"/>
   </g>
   <g id="patch_75">
    <path clip-path="url(#p09214e8173)" d="
M347.855 434.557
L342.387 436.022
L338.384 440.025
L336.919 445.493
L338.384 450.961
L342.387 454.963
L347.855 456.428
L353.323 454.963
L357.326 450.961
L358.791 445.493
L357.326 440.025
L353.323 436.022
z
" style="fill:#af0a0a;stroke:#000000;stroke-width:0.25;"/>
   </g>
   <g id="patch_76">
    <path clip-path="url(#p09214e8173)" d="
M366.797 445.493
L361.329 446.958
L357.326 450.961
L355.861 456.428
L357.326 461.896
L361.329 465.899
L366.797 467.364
L372.265 465.899
L376.267 461.896
L377.732 456.428
L376.267 450.961
L372.265 446.958
z
" style="fill:#af0a0a;stroke:#000000;stroke-width:0.25;"/>
   </g>
   <g id="patch_77">
    <path clip-path="url(#p09214e8173)" d="
M377.732 464.434
L372.265 465.899
L368.262 469.902
L366.797 475.37
L368.262 480.838
L372.265 484.841
L377.732 486.306
L383.2 484.841
L387.203 480.838
L388.668 475.37
L387.203 469.902
L383.2 465.899
z
" style="fill:#af0a0a;stroke:#000000;stroke-width:0.25;"/>
   </g>
   <g id="patch_78">
    <path clip-path="url(#p09214e8173)" d="
M377.732 486.306
L372.265 487.771
L368.262 491.774
L366.797 497.242
L368.262 502.71
L372.265 506.712
L377.732 508.178
L383.2 506.712
L387.203 502.71
L388.668 497.242
L387.203 491.774
L383.2 487.771
z
" style="fill:#af0a0a;stroke:#000000;stroke-width:0.25;"/>
   </g>
   <g id="patch_79">
    <path clip-path="url(#p09214e8173)" d="
M366.797 505.247
L361.329 506.712
L357.326 510.715
L355.861 516.183
L357.326 521.651
L361.329 525.654
L366.797 527.119
L372.265 525.654
L376.267 521.651
L377.732 516.183
L376.267 510.715
L372.265 506.712
z
" style="fill:#af0a0a;stroke:#000000;stroke-width:0.25;"/>
   </g>
   <g id="patch_80">
    <path clip-path="url(#p09214e8173)" d="
M347.855 516.183
L342.387 517.648
L338.384 521.651
L336.919 527.119
L338.384 532.587
L342.387 536.59
L347.855 538.055
L353.323 536.59
L357.326 532.587
L358.791 527.119
L357.326 521.651
L353.323 517.648
z
" style="fill:#af0a0a;stroke:#000000;stroke-width:0.25;"/>
   </g>
   <g id="patch_81">
    <path clip-path="url(#p09214e8173)" d="
M325.983 516.183
L320.515 517.648
L316.513 521.651
L315.048 527.119
L316.513 532.587
L320.515 536.59
L325.983 538.055
L331.451 536.59
L335.454 532.587
L336.919 527.119
L335.454 521.651
L331.451 517.648
z
" style="fill:#af0a0a;stroke:#000000;stroke-width:0.25;"/>
   </g>
   <g id="patch_82">
    <path clip-path="url(#p09214e8173)" d="
M307.042 505.247
L301.574 506.712
L297.571 510.715
L296.106 516.183
L297.571 521.651
L301.574 525.654
L307.042 527.119
L312.51 525.654
L316.513 521.651
L317.978 516.183
L316.513 510.715
L312.51 506.712
z
" style="fill:#af0a0a;stroke:#000000;stroke-width:0.25;"/>
   </g>
   <g id="patch_83">
    <path clip-path="url(#p09214e8173)" d="
M296.106 486.306
L290.638 487.771
L286.635 491.774
L285.17 497.242
L286.635 502.71
L290.638 506.712
L296.106 508.178
L301.574 506.712
L305.577 502.71
L307.042 497.242
L305.577 491.774
L301.574 487.771
z
" style="fill:#af0a0a;stroke:#000000;stroke-width:0.25;"/>
   </g>
   <g id="patch_84">
    <path clip-path="url(#p09214e8173)" d="
M296.106 464.434
L290.638 465.899
L286.635 469.902
L285.17 475.37
L286.635 480.838
L290.638 484.841
L296.106 486.306
L301.574 484.841
L305.577 480.838
L307.042 475.37
L305.577 469.902
L301.574 465.899
z
" style="fill:#af0a0a;stroke:#000000;stroke-width:0.25;"/>
   </g>
   <g id="patch_85">
    <path clip-path="url(#p09214e8173)" d="
M307.042 445.493
L301.574 446.958
L297.571 450.961
L296.106 456.428
L297.571 461.896
L301.574 465.899
L307.042 467.364
L312.51 465.899
L316.513 461.896
L317.978 456.428
L316.513 450.961
L312.51 446.958
z
" style="fill:#af0a0a;stroke:#000000;stroke-width:0.25;"/>
   </g>
   <g id="patch_86">
    <path clip-path="url(#p09214e8173)" d="
M325.983 434.557
L320.515 436.022
L316.513 440.025
L315.048 445.493
L316.513 450.961
L320.515 454.963
L325.983 456.428
L331.451 454.963
L335.454 450.961
L336.919 445.493
L335.454 440.025
L331.451 436.022
z
" style="fill:#af0a0a;stroke:#000000;stroke-width:0.25;"/>
   </g>
   <g id="patch_87">
    <path clip-path="url(#p09214e8173)" d="
M238.497 434.557
L233.029 436.022
L229.026 440.025
L227.561 445.493
L229.026 450.961
L233.029 454.963
L238.497 456.428
L243.965 454.963
L247.967 450.961
L249.432 445.493
L247.967 440.025
L243.965 436.022
z
" style="fill:#af0a0a;stroke:#000000;stroke-width:0.25;"/>
   </g>
   <g id="patch_88">
    <path clip-path="url(#p09214e8173)" d="
M257.438 445.493
L251.97 446.958
L247.967 450.961
L246.502 456.428
L247.967 461.896
L251.97 465.899
L257.438 467.364
L262.906 465.899
L266.909 461.896
L268.374 456.428
L266.909 450.961
L262.906 446.958
z
" style="fill:#af0a0a;stroke:#000000;stroke-width:0.25;"/>
   </g>
   <g id="patch_89">
    <path clip-path="url(#p09214e8173)" d="
M268.374 464.434
L262.906 465.899
L258.903 469.902
L257.438 475.37
L258.903 480.838
L262.906 484.841
L268.374 486.306
L273.842 484.841
L277.845 480.838
L279.31 475.37
L277.845 469.902
L273.842 465.899
z
" style="fill:#af0a0a;stroke:#000000;stroke-width:0.25;"/>
   </g>
   <g id="patch_90">
    <path clip-path="url(#p09214e8173)" d="
M268.374 486.306
L262.906 487.771
L258.903 491.774
L257.438 497.242
L258.903 502.71
L262.906 506.712
L268.374 508.178
L273.842 506.712
L277.845 502.71
L279.31 497.242
L277.845 491.774
L273.842 487.771
z
" style="fill:#af0a0a;stroke:#000000;stroke-width:0.25;"/>
   </g>
   <g id="patch_91">
    <path clip-path="url(#p09214e8173)" d="
M257.438 505.247
L251.97 506.712
L247.967 510.715
L246.502 516.183
L247.967 521.651
L251.97 525.654
L257.438 527.119
L262.906 525.654
L266.909 521.651
L268.374 516.183
L266.909 510.715
L262.906 506.712
z
" style="fill:#af0a0a;stroke:#000000;stroke-width:0.25;"/>
   </g>
   <g id="patch_92">
    <path clip-path="url(#p09214e8173)" d="
M238.497 516.183
L233.029 517.648
L229.026 521.651
L227.561 527.119
L229.026 532.587
L233.029 536.59
L238.497 538.055
L243.965 536.59
L247.967 532.587
L249.432 527.119
L247.967 521.651
L243.965 517.648
z
" style="fill:#af0a0a;stroke:#000000;stroke-width:0.25;"/>
   </g>
   <g id="patch_93">
    <path clip-path="url(#p09214e8173)" d="
M216.625 516.183
L211.157 517.648
L207.154 521.651
L205.689 527.119
L207.154 532.587
L211.157 536.59
L216.625 538.055
L222.093 536.59
L226.096 532.587
L227.561 527.119
L226.096 521.651
L222.093 517.648
z
" style="fill:#af0a0a;stroke:#000000;stroke-width:0.25;"/>
   </g>
   <g id="patch_94">
    <path clip-path="url(#p09214e8173)" d="
M197.683 505.247
L192.215 506.712
L188.213 510.715
L186.748 516.183
L188.213 521.651
L192.215 525.654
L197.683 527.119
L203.151 525.654
L207.154 521.651
L208.619 516.183
L207.154 510.715
L203.151 506.712
z
" style="fill:#af0a0a;stroke:#000000;stroke-width:0.25;"/>
   </g>
   <g id="patch_95">
    <path clip-path="url(#p09214e8173)" d="
M186.748 486.306
L181.28 487.771
L177.277 491.774
L175.812 497.242
L177.277 502.71
L181.28 506.712
L186.748 508.178
L192.215 506.712
L196.218 502.71
L197.683 497.242
L196.218 491.774
L192.215 487.771
z
" style="fill:#af0a0a;stroke:#000000;stroke-width:0.25;"/>
   </g>
   <g id="patch_96">
    <path clip-path="url(#p09214e8173)" d="
M186.748 464.434
L181.28 465.899
L177.277 469.902
L175.812 475.37
L177.277 480.838
L181.28 484.841
L186.748 486.306
L192.215 484.841
L196.218 480.838
L197.683 475.37
L196.218 469.902
L192.215 465.899
z
" style="fill:#af0a0a;stroke:#000000;stroke-width:0.25;"/>
   </g>
   <g id="patch_97">
    <path clip-path="url(#p09214e8173)" d="
M197.683 445.493
L192.215 446.958
L188.213 450.961
L186.748 456.428
L188.213 461.896
L192.215 465.899
L197.683 467.364
L203.151 465.899
L207.154 461.896
L208.619 456.428
L207.154 450.961
L203.151 446.958
z
" style="fill:#af0a0a;stroke:#000000;stroke-width:0.25;"/>
   </g>
   <g id="patch_98">
    <path clip-path="url(#p09214e8173)" d="
M216.625 434.557
L211.157 436.022
L207.154 440.025
L205.689 445.493
L207.154 450.961
L211.157 454.963
L216.625 456.428
L222.093 454.963
L226.096 450.961
L227.561 445.493
L226.096 440.025
L222.093 436.022
z
" style="fill:#af0a0a;stroke:#000000;stroke-width:0.25;"/>
   </g>
   <g id="patch_99">
    <path clip-path="url(#p09214e8173)" d="
M143.789 379.878
L138.321 381.343
L134.319 385.345
L132.853 390.813
L134.319 396.281
L138.321 400.284
L143.789 401.749
L149.257 400.284
L153.26 396.281
L154.725 390.813
L153.26 385.345
L149.257 381.343
z
" style="fill:#af0a0a;stroke:#000000;stroke-width:0.25;"/>
   </g>
   <g id="patch_100">
    <path clip-path="url(#p09214e8173)" d="
M162.731 390.813
L157.263 392.279
L153.26 396.281
L151.795 401.749
L153.26 407.217
L157.263 411.22
L162.731 412.685
L168.199 411.22
L172.201 407.217
L173.667 401.749
L172.201 396.281
L168.199 392.279
z
" style="fill:#af0a0a;stroke:#000000;stroke-width:0.25;"/>
   </g>
   <g id="patch_101">
    <path clip-path="url(#p09214e8173)" d="
M173.667 409.755
L168.199 411.22
L164.196 415.223
L162.731 420.691
L164.196 426.159
L168.199 430.161
L173.667 431.627
L179.135 430.161
L183.137 426.159
L184.602 420.691
L183.137 415.223
L179.135 411.22
z
" style="fill:#af0a0a;stroke:#000000;stroke-width:0.25;"/>
   </g>
   <g id="patch_102">
    <path clip-path="url(#p09214e8173)" d="
M173.667 431.627
L168.199 433.092
L164.196 437.094
L162.731 442.562
L164.196 448.03
L168.199 452.033
L173.667 453.498
L179.135 452.033
L183.137 448.03
L184.602 442.562
L183.137 437.094
L179.135 433.092
z
" style="fill:#af0a0a;stroke:#000000;stroke-width:0.25;"/>
   </g>
   <g id="patch_103">
    <path clip-path="url(#p09214e8173)" d="
M162.731 450.568
L157.263 452.033
L153.26 456.036
L151.795 461.504
L153.26 466.972
L157.263 470.975
L162.731 472.44
L168.199 470.975
L172.201 466.972
L173.667 461.504
L172.201 456.036
L168.199 452.033
z
" style="fill:#af0a0a;stroke:#000000;stroke-width:0.25;"/>
   </g>
   <g id="patch_104">
    <path clip-path="url(#p09214e8173)" d="
M143.789 461.504
L138.321 462.969
L134.319 466.972
L132.853 472.44
L134.319 477.908
L138.321 481.91
L143.789 483.376
L149.257 481.91
L153.26 477.908
L154.725 472.44
L153.26 466.972
L149.257 462.969
z
" style="fill:#af0a0a;stroke:#000000;stroke-width:0.25;"/>
   </g>
   <g id="patch_105">
    <path clip-path="url(#p09214e8173)" d="
M121.918 461.504
L116.45 462.969
L112.447 466.972
L110.982 472.44
L112.447 477.908
L116.45 481.91
L121.918 483.376
L127.386 481.91
L131.388 477.908
L132.853 472.44
L131.388 466.972
L127.386 462.969
z
" style="fill:#af0a0a;stroke:#000000;stroke-width:0.25;"/>
   </g>
   <g id="patch_106">
    <path clip-path="url(#p09214e8173)" d="
M102.976 450.568
L97.5082 452.033
L93.5054 456.036
L92.0403 461.504
L93.5054 466.972
L97.5082 470.975
L102.976 472.44
L108.444 470.975
L112.447 466.972
L113.912 461.504
L112.447 456.036
L108.444 452.033
z
" style="fill:#af0a0a;stroke:#000000;stroke-width:0.25;"/>
   </g>
   <g id="patch_107">
    <path clip-path="url(#p09214e8173)" d="
M92.0403 431.627
L86.5724 433.092
L82.5696 437.094
L81.1044 442.562
L82.5696 448.03
L86.5724 452.033
L92.0403 453.498
L97.5082 452.033
L101.511 448.03
L102.976 442.562
L101.511 437.094
L97.5082 433.092
z
" style="fill:#af0a0a;stroke:#000000;stroke-width:0.25;"/>
   </g>
   <g id="patch_108">
    <path clip-path="url(#p09214e8173)" d="
M92.0403 409.755
L86.5724 411.22
L82.5696 415.223
L81.1044 420.691
L82.5696 426.159
L86.5724 430.161
L92.0403 431.627
L97.5082 430.161
L101.511 426.159
L102.976 420.691
L101.511 415.223
L97.5082 411.22
z
" style="fill:#af0a0a;stroke:#000000;stroke-width:0.25;"/>
   </g>
   <g id="patch_109">
    <path clip-path="url(#p09214e8173)" d="
M102.976 390.813
L97.5082 392.279
L93.5054 396.281
L92.0403 401.749
L93.5054 407.217
L97.5082 411.22
L102.976 412.685
L108.444 411.22
L112.447 407.217
L113.912 401.749
L112.447 396.281
L108.444 392.279
z
" style="fill:#af0a0a;stroke:#000000;stroke-width:0.25;"/>
   </g>
   <g id="patch_110">
    <path clip-path="url(#p09214e8173)" d="
M121.918 379.878
L116.45 381.343
L112.447 385.345
L110.982 390.813
L112.447 396.281
L116.45 400.284
L121.918 401.749
L127.386 400.284
L131.388 396.281
L132.853 390.813
L131.388 385.345
L127.386 381.343
z
" style="fill:#af0a0a;stroke:#000000;stroke-width:0.25;"/>
   </g>
   <g id="patch_111">
    <path clip-path="url(#p09214e8173)" d="
M89.11 285.17
L83.6421 286.635
L79.6393 290.638
L78.1742 296.106
L79.6393 301.574
L83.6421 305.577
L89.11 307.042
L94.578 305.577
L98.5808 301.574
L100.046 296.106
L98.5808 290.638
L94.578 286.635
z
" style="fill:#af0a0a;stroke:#000000;stroke-width:0.25;"/>
   </g>
   <g id="patch_112">
    <path clip-path="url(#p09214e8173)" d="
M108.052 296.106
L102.584 297.571
L98.5808 301.574
L97.1156 307.042
L98.5808 312.51
L102.584 316.513
L108.052 317.978
L113.519 316.513
L117.522 312.51
L118.987 307.042
L117.522 301.574
L113.519 297.571
z
" style="fill:#af0a0a;stroke:#000000;stroke-width:0.25;"/>
   </g>
   <g id="patch_113">
    <path clip-path="url(#p09214e8173)" d="
M118.987 315.048
L113.519 316.513
L109.517 320.515
L108.052 325.983
L109.517 331.451
L113.519 335.454
L118.987 336.919
L124.455 335.454
L128.458 331.451
L129.923 325.983
L128.458 320.515
L124.455 316.513
z
" style="fill:#af0a0a;stroke:#000000;stroke-width:0.25;"/>
   </g>
   <g id="patch_114">
    <path clip-path="url(#p09214e8173)" d="
M118.987 336.919
L113.519 338.384
L109.517 342.387
L108.052 347.855
L109.517 353.323
L113.519 357.326
L118.987 358.791
L124.455 357.326
L128.458 353.323
L129.923 347.855
L128.458 342.387
L124.455 338.384
z
" style="fill:#af0a0a;stroke:#000000;stroke-width:0.25;"/>
   </g>
   <g id="patch_115">
    <path clip-path="url(#p09214e8173)" d="
M108.052 355.861
L102.584 357.326
L98.5808 361.329
L97.1156 366.797
L98.5808 372.265
L102.584 376.267
L108.052 377.732
L113.519 376.267
L117.522 372.265
L118.987 366.797
L117.522 361.329
L113.519 357.326
z
" style="fill:#af0a0a;stroke:#000000;stroke-width:0.25;"/>
   </g>
   <g id="patch_116">
    <path clip-path="url(#p09214e8173)" d="
M89.11 366.797
L83.6421 368.262
L79.6393 372.265
L78.1742 377.732
L79.6393 383.2
L83.6421 387.203
L89.11 388.668
L94.578 387.203
L98.5808 383.2
L100.046 377.732
L98.5808 372.265
L94.578 368.262
z
" style="fill:#af0a0a;stroke:#000000;stroke-width:0.25;"/>
   </g>
   <g id="patch_117">
    <path clip-path="url(#p09214e8173)" d="
M67.2383 366.797
L61.7704 368.262
L57.7676 372.265
L56.3025 377.732
L57.7676 383.2
L61.7704 387.203
L67.2383 388.668
L72.7063 387.203
L76.7091 383.2
L78.1742 377.732
L76.7091 372.265
L72.7063 368.262
z
" style="fill:#af0a0a;stroke:#000000;stroke-width:0.25;"/>
   </g>
   <g id="patch_118">
    <path clip-path="url(#p09214e8173)" d="
M48.2969 355.861
L42.829 357.326
L38.8262 361.329
L37.361 366.797
L38.8262 372.265
L42.829 376.267
L48.2969 377.732
L53.7648 376.267
L57.7676 372.265
L59.2327 366.797
L57.7676 361.329
L53.7648 357.326
z
" style="fill:#af0a0a;stroke:#000000;stroke-width:0.25;"/>
   </g>
   <g id="patch_119">
    <path clip-path="url(#p09214e8173)" d="
M37.361 336.919
L31.8931 338.384
L27.8903 342.387
L26.4252 347.855
L27.8903 353.323
L31.8931 357.326
L37.361 358.791
L42.829 357.326
L46.8318 353.323
L48.2969 347.855
L46.8318 342.387
L42.829 338.384
z
" style="fill:#af0a0a;stroke:#000000;stroke-width:0.25;"/>
   </g>
   <g id="patch_120">
    <path clip-path="url(#p09214e8173)" d="
M37.361 315.048
L31.8931 316.513
L27.8903 320.515
L26.4252 325.983
L27.8903 331.451
L31.8931 335.454
L37.361 336.919
L42.829 335.454
L46.8318 331.451
L48.2969 325.983
L46.8318 320.515
L42.829 316.513
z
" style="fill:#af0a0a;stroke:#000000;stroke-width:0.25;"/>
   </g>
   <g id="patch_121">
    <path clip-path="url(#p09214e8173)" d="
M48.2969 296.106
L42.829 297.571
L38.8262 301.574
L37.361 307.042
L38.8262 312.51
L42.829 316.513
L48.2969 317.978
L53.7648 316.513
L57.7676 312.51
L59.2327 307.042
L57.7676 301.574
L53.7648 297.571
z
" style="fill:#af0a0a;stroke:#000000;stroke-width:0.25;"/>
   </g>
   <g id="patch_122">
    <path clip-path="url(#p09214e8173)" d="
M67.2383 285.17
L61.7704 286.635
L57.7676 290.638
L56.3025 296.106
L57.7676 301.574
L61.7704 305.577
L67.2383 307.042
L72.7063 305.577
L76.7091 301.574
L78.1742 296.106
L76.7091 290.638
L72.7063 286.635
z
" style="fill:#af0a0a;stroke:#000000;stroke-width:0.25;"/>
   </g>
   <g id="patch_123">
    <path clip-path="url(#p09214e8173)" d="
M89.11 175.812
L83.6421 177.277
L79.6393 181.28
L78.1742 186.748
L79.6393 192.215
L83.6421 196.218
L89.11 197.683
L94.578 196.218
L98.5808 192.215
L100.046 186.748
L98.5808 181.28
L94.578 177.277
z
" style="fill:#af0a0a;stroke:#000000;stroke-width:0.25;"/>
   </g>
   <g id="patch_124">
    <path clip-path="url(#p09214e8173)" d="
M108.052 186.748
L102.584 188.213
L98.5808 192.215
L97.1156 197.683
L98.5808 203.151
L102.584 207.154
L108.052 208.619
L113.519 207.154
L117.522 203.151
L118.987 197.683
L117.522 192.215
L113.519 188.213
z
" style="fill:#af0a0a;stroke:#000000;stroke-width:0.25;"/>
   </g>
   <g id="patch_125">
    <path clip-path="url(#p09214e8173)" d="
M118.987 205.689
L113.519 207.154
L109.517 211.157
L108.052 216.625
L109.517 222.093
L113.519 226.096
L118.987 227.561
L124.455 226.096
L128.458 222.093
L129.923 216.625
L128.458 211.157
L124.455 207.154
z
" style="fill:#af0a0a;stroke:#000000;stroke-width:0.25;"/>
   </g>
   <g id="patch_126">
    <path clip-path="url(#p09214e8173)" d="
M118.987 227.561
L113.519 229.026
L109.517 233.029
L108.052 238.497
L109.517 243.965
L113.519 247.967
L118.987 249.432
L124.455 247.967
L128.458 243.965
L129.923 238.497
L128.458 233.029
L124.455 229.026
z
" style="fill:#af0a0a;stroke:#000000;stroke-width:0.25;"/>
   </g>
   <g id="patch_127">
    <path clip-path="url(#p09214e8173)" d="
M108.052 246.502
L102.584 247.967
L98.5808 251.97
L97.1156 257.438
L98.5808 262.906
L102.584 266.909
L108.052 268.374
L113.519 266.909
L117.522 262.906
L118.987 257.438
L117.522 251.97
L113.519 247.967
z
" style="fill:#af0a0a;stroke:#000000;stroke-width:0.25;"/>
   </g>
   <g id="patch_128">
    <path clip-path="url(#p09214e8173)" d="
M89.11 257.438
L83.6421 258.903
L79.6393 262.906
L78.1742 268.374
L79.6393 273.842
L83.6421 277.845
L89.11 279.31
L94.578 277.845
L98.5808 273.842
L100.046 268.374
L98.5808 262.906
L94.578 258.903
z
" style="fill:#af0a0a;stroke:#000000;stroke-width:0.25;"/>
   </g>
   <g id="patch_129">
    <path clip-path="url(#p09214e8173)" d="
M67.2383 257.438
L61.7704 258.903
L57.7676 262.906
L56.3025 268.374
L57.7676 273.842
L61.7704 277.845
L67.2383 279.31
L72.7063 277.845
L76.7091 273.842
L78.1742 268.374
L76.7091 262.906
L72.7063 258.903
z
" style="fill:#af0a0a;stroke:#000000;stroke-width:0.25;"/>
   </g>
   <g id="patch_130">
    <path clip-path="url(#p09214e8173)" d="
M48.2969 246.502
L42.829 247.967
L38.8262 251.97
L37.361 257.438
L38.8262 262.906
L42.829 266.909
L48.2969 268.374
L53.7648 266.909
L57.7676 262.906
L59.2327 257.438
L57.7676 251.97
L53.7648 247.967
z
" style="fill:#af0a0a;stroke:#000000;stroke-width:0.25;"/>
   </g>
   <g id="patch_131">
    <path clip-path="url(#p09214e8173)" d="
M37.361 227.561
L31.8931 229.026
L27.8903 233.029
L26.4252 238.497
L27.8903 243.965
L31.8931 247.967
L37.361 249.432
L42.829 247.967
L46.8318 243.965
L48.2969 238.497
L46.8318 233.029
L42.829 229.026
z
" style="fill:#af0a0a;stroke:#000000;stroke-width:0.25;"/>
   </g>
   <g id="patch_132">
    <path clip-path="url(#p09214e8173)" d="
M37.361 205.689
L31.8931 207.154
L27.8903 211.157
L26.4252 216.625
L27.8903 222.093
L31.8931 226.096
L37.361 227.561
L42.829 226.096
L46.8318 222.093
L48.2969 216.625
L46.8318 211.157
L42.829 207.154
z
" style="fill:#af0a0a;stroke:#000000;stroke-width:0.25;"/>
   </g>
   <g id="patch_133">
    <path clip-path="url(#p09214e8173)" d="
M48.2969 186.748
L42.829 188.213
L38.8262 192.215
L37.361 197.683
L38.8262 203.151
L42.829 207.154
L48.2969 208.619
L53.7648 207.154
L57.7676 203.151
L59.2327 197.683
L57.7676 192.215
L53.7648 188.213
z
" style="fill:#af0a0a;stroke:#000000;stroke-width:0.25;"/>
   </g>
   <g id="patch_134">
    <path clip-path="url(#p09214e8173)" d="
M67.2383 175.812
L61.7704 177.277
L57.7676 181.28
L56.3025 186.748
L57.7676 192.215
L61.7704 196.218
L67.2383 197.683
L72.7063 196.218
L76.7091 192.215
L78.1742 186.748
L76.7091 181.28
L72.7063 177.277
z
" style="fill:#af0a0a;stroke:#000000;stroke-width:0.25;"/>
   </g>
   <g id="patch_135">
    <path clip-path="url(#p09214e8173)" d="
M143.789 81.1044
L138.321 82.5696
L134.319 86.5724
L132.853 92.0403
L134.319 97.5082
L138.321 101.511
L143.789 102.976
L149.257 101.511
L153.26 97.5082
L154.725 92.0403
L153.26 86.5724
L149.257 82.5696
z
" style="fill:#af0a0a;stroke:#000000;stroke-width:0.25;"/>
   </g>
   <g id="patch_136">
    <path clip-path="url(#p09214e8173)" d="
M162.731 92.0403
L157.263 93.5054
L153.26 97.5082
L151.795 102.976
L153.26 108.444
L157.263 112.447
L162.731 113.912
L168.199 112.447
L172.201 108.444
L173.667 102.976
L172.201 97.5082
L168.199 93.5054
z
" style="fill:#af0a0a;stroke:#000000;stroke-width:0.25;"/>
   </g>
   <g id="patch_137">
    <path clip-path="url(#p09214e8173)" d="
M173.667 110.982
L168.199 112.447
L164.196 116.45
L162.731 121.918
L164.196 127.386
L168.199 131.388
L173.667 132.853
L179.135 131.388
L183.137 127.386
L184.602 121.918
L183.137 116.45
L179.135 112.447
z
" style="fill:#af0a0a;stroke:#000000;stroke-width:0.25;"/>
   </g>
   <g id="patch_138">
    <path clip-path="url(#p09214e8173)" d="
M173.667 132.853
L168.199 134.319
L164.196 138.321
L162.731 143.789
L164.196 149.257
L168.199 153.26
L173.667 154.725
L179.135 153.26
L183.137 149.257
L184.602 143.789
L183.137 138.321
L179.135 134.319
z
" style="fill:#af0a0a;stroke:#000000;stroke-width:0.25;"/>
   </g>
   <g id="patch_139">
    <path clip-path="url(#p09214e8173)" d="
M162.731 151.795
L157.263 153.26
L153.26 157.263
L151.795 162.731
L153.26 168.199
L157.263 172.201
L162.731 173.667
L168.199 172.201
L172.201 168.199
L173.667 162.731
L172.201 157.263
L168.199 153.26
z
" style="fill:#af0a0a;stroke:#000000;stroke-width:0.25;"/>
   </g>
   <g id="patch_140">
    <path clip-path="url(#p09214e8173)" d="
M143.789 162.731
L138.321 164.196
L134.319 168.199
L132.853 173.667
L134.319 179.135
L138.321 183.137
L143.789 184.602
L149.257 183.137
L153.26 179.135
L154.725 173.667
L153.26 168.199
L149.257 164.196
z
" style="fill:#af0a0a;stroke:#000000;stroke-width:0.25;"/>
   </g>
   <g id="patch_141">
    <path clip-path="url(#p09214e8173)" d="
M121.918 162.731
L116.45 164.196
L112.447 168.199
L110.982 173.667
L112.447 179.135
L116.45 183.137
L121.918 184.602
L127.386 183.137
L131.388 179.135
L132.853 173.667
L131.388 168.199
L127.386 164.196
z
" style="fill:#af0a0a;stroke:#000000;stroke-width:0.25;"/>
   </g>
   <g id="patch_142">
    <path clip-path="url(#p09214e8173)" d="
M102.976 151.795
L97.5082 153.26
L93.5054 157.263
L92.0403 162.731
L93.5054 168.199
L97.5082 172.201
L102.976 173.667
L108.444 172.201
L112.447 168.199
L113.912 162.731
L112.447 157.263
L108.444 153.26
z
" style="fill:#af0a0a;stroke:#000000;stroke-width:0.25;"/>
   </g>
   <g id="patch_143">
    <path clip-path="url(#p09214e8173)" d="
M92.0403 132.853
L86.5724 134.319
L82.5696 138.321
L81.1044 143.789
L82.5696 149.257
L86.5724 153.26
L92.0403 154.725
L97.5082 153.26
L101.511 149.257
L102.976 143.789
L101.511 138.321
L97.5082 134.319
z
" style="fill:#af0a0a;stroke:#000000;stroke-width:0.25;"/>
   </g>
   <g id="patch_144">
    <path clip-path="url(#p09214e8173)" d="
M92.0403 110.982
L86.5724 112.447
L82.5696 116.45
L81.1044 121.918
L82.5696 127.386
L86.5724 131.388
L92.0403 132.853
L97.5082 131.388
L101.511 127.386
L102.976 121.918
L101.511 116.45
L97.5082 112.447
z
" style="fill:#af0a0a;stroke:#000000;stroke-width:0.25;"/>
   </g>
   <g id="patch_145">
    <path clip-path="url(#p09214e8173)" d="
M102.976 92.0403
L97.5082 93.5054
L93.5054 97.5082
L92.0403 102.976
L93.5054 108.444
L97.5082 112.447
L102.976 113.912
L108.444 112.447
L112.447 108.444
L113.912 102.976
L112.447 97.5082
L108.444 93.5054
z
" style="fill:#af0a0a;stroke:#000000;stroke-width:0.25;"/>
   </g>
   <g id="patch_146">
    <path clip-path="url(#p09214e8173)" d="
M121.918 81.1044
L116.45 82.5696
L112.447 86.5724
L110.982 92.0403
L112.447 97.5082
L116.45 101.511
L121.918 102.976
L127.386 101.511
L131.388 97.5082
L132.853 92.0403
L131.388 86.5724
L127.386 82.5696
z
" style="fill:#af0a0a;stroke:#000000;stroke-width:0.25;"/>
   </g>
   <g id="patch_147">
    <path clip-path="url(#p09214e8173)" d="
M238.497 26.4252
L233.029 27.8903
L229.026 31.8931
L227.561 37.361
L229.026 42.829
L233.029 46.8318
L238.497 48.2969
L243.965 46.8318
L247.967 42.829
L249.432 37.361
L247.967 31.8931
L243.965 27.8903
z
" style="fill:#af0a0a;stroke:#000000;stroke-width:0.25;"/>
   </g>
   <g id="patch_148">
    <path clip-path="url(#p09214e8173)" d="
M257.438 37.361
L251.97 38.8262
L247.967 42.829
L246.502 48.2969
L247.967 53.7648
L251.97 57.7676
L257.438 59.2327
L262.906 57.7676
L266.909 53.7648
L268.374 48.2969
L266.909 42.829
L262.906 38.8262
z
" style="fill:#af0a0a;stroke:#000000;stroke-width:0.25;"/>
   </g>
   <g id="patch_149">
    <path clip-path="url(#p09214e8173)" d="
M268.374 56.3025
L262.906 57.7676
L258.903 61.7704
L257.438 67.2383
L258.903 72.7063
L262.906 76.7091
L268.374 78.1742
L273.842 76.7091
L277.845 72.7063
L279.31 67.2383
L277.845 61.7704
L273.842 57.7676
z
" style="fill:#af0a0a;stroke:#000000;stroke-width:0.25;"/>
   </g>
   <g id="patch_150">
    <path clip-path="url(#p09214e8173)" d="
M268.374 78.1742
L262.906 79.6393
L258.903 83.6421
L257.438 89.11
L258.903 94.578
L262.906 98.5808
L268.374 100.046
L273.842 98.5808
L277.845 94.578
L279.31 89.11
L277.845 83.6421
L273.842 79.6393
z
" style="fill:#af0a0a;stroke:#000000;stroke-width:0.25;"/>
   </g>
   <g id="patch_151">
    <path clip-path="url(#p09214e8173)" d="
M257.438 97.1156
L251.97 98.5808
L247.967 102.584
L246.502 108.052
L247.967 113.519
L251.97 117.522
L257.438 118.987
L262.906 117.522
L266.909 113.519
L268.374 108.052
L266.909 102.584
L262.906 98.5808
z
" style="fill:#af0a0a;stroke:#000000;stroke-width:0.25;"/>
   </g>
   <g id="patch_152">
    <path clip-path="url(#p09214e8173)" d="
M238.497 108.052
L233.029 109.517
L229.026 113.519
L227.561 118.987
L229.026 124.455
L233.029 128.458
L238.497 129.923
L243.965 128.458
L247.967 124.455
L249.432 118.987
L247.967 113.519
L243.965 109.517
z
" style="fill:#af0a0a;stroke:#000000;stroke-width:0.25;"/>
   </g>
   <g id="patch_153">
    <path clip-path="url(#p09214e8173)" d="
M216.625 108.052
L211.157 109.517
L207.154 113.519
L205.689 118.987
L207.154 124.455
L211.157 128.458
L216.625 129.923
L222.093 128.458
L226.096 124.455
L227.561 118.987
L226.096 113.519
L222.093 109.517
z
" style="fill:#af0a0a;stroke:#000000;stroke-width:0.25;"/>
   </g>
   <g id="patch_154">
    <path clip-path="url(#p09214e8173)" d="
M197.683 97.1156
L192.215 98.5808
L188.213 102.584
L186.748 108.052
L188.213 113.519
L192.215 117.522
L197.683 118.987
L203.151 117.522
L207.154 113.519
L208.619 108.052
L207.154 102.584
L203.151 98.5808
z
" style="fill:#af0a0a;stroke:#000000;stroke-width:0.25;"/>
   </g>
   <g id="patch_155">
    <path clip-path="url(#p09214e8173)" d="
M186.748 78.1742
L181.28 79.6393
L177.277 83.6421
L175.812 89.11
L177.277 94.578
L181.28 98.5808
L186.748 100.046
L192.215 98.5808
L196.218 94.578
L197.683 89.11
L196.218 83.6421
L192.215 79.6393
z
" style="fill:#af0a0a;stroke:#000000;stroke-width:0.25;"/>
   </g>
   <g id="patch_156">
    <path clip-path="url(#p09214e8173)" d="
M186.748 56.3025
L181.28 57.7676
L177.277 61.7704
L175.812 67.2383
L177.277 72.7063
L181.28 76.7091
L186.748 78.1742
L192.215 76.7091
L196.218 72.7063
L197.683 67.2383
L196.218 61.7704
L192.215 57.7676
z
" style="fill:#af0a0a;stroke:#000000;stroke-width:0.25;"/>
   </g>
   <g id="patch_157">
    <path clip-path="url(#p09214e8173)" d="
M197.683 37.361
L192.215 38.8262
L188.213 42.829
L186.748 48.2969
L188.213 53.7648
L192.215 57.7676
L197.683 59.2327
L203.151 57.7676
L207.154 53.7648
L208.619 48.2969
L207.154 42.829
L203.151 38.8262
z
" style="fill:#af0a0a;stroke:#000000;stroke-width:0.25;"/>
   </g>
   <g id="patch_158">
    <path clip-path="url(#p09214e8173)" d="
M216.625 26.4252
L211.157 27.8903
L207.154 31.8931
L205.689 37.361
L207.154 42.829
L211.157 46.8318
L216.625 48.2969
L222.093 46.8318
L226.096 42.829
L227.561 37.361
L226.096 31.8931
L222.093 27.8903
z
" style="fill:#af0a0a;stroke:#000000;stroke-width:0.25;"/>
   </g>
   <g id="matplotlib.axis_1"/>
   <g id="matplotlib.axis_2"/>
  </g>
 </g>
 <defs>
  <clipPath id="p09214e8173">
   <rect height="550.08" width="550.08" x="7.2" y="7.2"/>
  </clipPath>
 </defs>
</svg>
