<?xml version="1.0" encoding="utf-8" standalone="no"?>
<!DOCTYPE svg PUBLIC "-//W3C//DTD SVG 1.1//EN"
  "http://www.w3.org/Graphics/SVG/1.1/DTD/svg11.dtd">
<!-- Created with matplotlib (http://matplotlib.org/) -->
<svg height="564pt" version="1.1" viewBox="0 0 490 564" width="490pt" xmlns="http://www.w3.org/2000/svg" xmlns:xlink="http://www.w3.org/1999/xlink">
 <defs>
  <style type="text/css">
*{stroke-linecap:butt;stroke-linejoin:round;}
  </style>
 </defs>
 <g id="figure_1">
  <g id="patch_1">
   <path d="
M0 564.48
L490.783 564.48
L490.783 0
L0 0
z
" style="fill:none;"/>
  </g>
  <g id="axes_1">
   <g id="patch_2">
    <path clip-path="url(#pb019acfbea)" d="
M245.392 9.38936
L9.09604 145.815
L9.09604 418.665
L245.392 555.091
L481.687 418.665
L481.687 145.815
z
" style="fill:#bcd4e6;stroke:#000000;stroke-width:0.25;"/>
   </g>
   <g id="patch_3">
    <path clip-path="url(#pb019acfbea)" d="
M324.157 54.8645
L245.392 100.34
L245.392 191.29
L324.157 236.765
L402.922 191.29
L402.922 100.34
z
" style="fill:#eae2ac;stroke:#000000;stroke-width:0.25;"/>
   </g>
   <g id="patch_4">
    <path clip-path="url(#pb019acfbea)" d="
M402.922 191.29
L324.157 236.765
L324.157 327.715
L402.922 373.19
L481.687 327.715
L481.687 236.765
z
" style="fill:#eae2ac;stroke:#000000;stroke-width:0.25;"/>
   </g>
   <g id="patch_5">
    <path clip-path="url(#pb019acfbea)" d="
M324.157 327.715
L245.392 373.19
L245.392 464.14
L324.157 509.616
L402.922 464.14
L402.922 373.19
z
" style="fill:#eae2ac;stroke:#000000;stroke-width:0.25;"/>
   </g>
   <g id="patch_6">
    <path clip-path="url(#pb019acfbea)" d="
M166.626 327.715
L87.8612 373.19
L87.8612 464.14
L166.626 509.616
L245.392 464.14
L245.392 373.19
z
" style="fill:#eae2ac;stroke:#000000;stroke-width:0.25;"/>
   </g>
   <g id="patch_7">
    <path clip-path="url(#pb019acfbea)" d="
M87.8612 191.29
L9.09604 236.765
L9.09604 327.715
L87.8612 373.19
L166.626 327.715
L166.626 236.765
z
" style="fill:#eae2ac;stroke:#000000;stroke-width:0.25;"/>
   </g>
   <g id="patch_8">
    <path clip-path="url(#pb019acfbea)" d="
M166.626 54.8645
L87.8612 100.34
L87.8612 191.29
L166.626 236.765
L245.392 191.29
L245.392 100.34
z
" style="fill:#eae2ac;stroke:#000000;stroke-width:0.25;"/>
   </g>
   <g id="patch_9">
    <path clip-path="url(#pb019acfbea)" d="
M350.412 70.0228
L324.157 85.1812
L324.157 115.498
L350.412 130.656
L376.667 115.498
L376.667 85.1812
z
" style="fill:#af0a0a;stroke:#000000;stroke-width:0.25;"/>
   </g>
   <g id="patch_10">
    <path clip-path="url(#pb019acfbea)" d="
M376.667 115.498
L350.412 130.656
L350.412 160.973
L376.667 176.131
L402.922 160.973
L402.922 130.656
z
" style="fill:#af0a0a;stroke:#000000;stroke-width:0.25;"/>
   </g>
   <g id="patch_11">
    <path clip-path="url(#pb019acfbea)" d="
M350.412 160.973
L324.157 176.131
L324.157 206.448
L350.412 221.607
L376.667 206.448
L376.667 176.131
z
" style="fill:#af0a0a;stroke:#000000;stroke-width:0.25;"/>
   </g>
   <g id="patch_12">
    <path clip-path="url(#pb019acfbea)" d="
M297.902 160.973
L271.647 176.131
L271.647 206.448
L297.902 221.607
L324.157 206.448
L324.157 176.131
z
" style="fill:#af0a0a;stroke:#000000;stroke-width:0.25;"/>
   </g>
   <g id="patch_13">
    <path clip-path="url(#pb019acfbea)" d="
M271.647 115.498
L245.392 130.656
L245.392 160.973
L271.647 176.131
L297.902 160.973
L297.902 130.656
z
" style="fill:#af0a0a;stroke:#000000;stroke-width:0.25;"/>
   </g>
   <g id="patch_14">
    <path clip-path="url(#pb019acfbea)" d="
M297.902 70.0228
L271.647 85.1812
L271.647 115.498
L297.902 130.656
L324.157 115.498
L324.157 85.1812
z
" style="fill:#af0a0a;stroke:#000000;stroke-width:0.25;"/>
   </g>
   <g id="patch_15">
    <path clip-path="url(#pb019acfbea)" d="
M429.177 206.448
L402.922 221.607
L402.922 251.923
L429.177 267.082
L455.432 251.923
L455.432 221.607
z
" style="fill:#af0a0a;stroke:#000000;stroke-width:0.25;"/>
   </g>
   <g id="patch_16">
    <path clip-path="url(#pb019acfbea)" d="
M455.432 251.923
L429.177 267.082
L429.177 297.398
L455.432 312.557
L481.687 297.398
L481.687 267.082
z
" style="fill:#af0a0a;stroke:#000000;stroke-width:0.25;"/>
   </g>
   <g id="patch_17">
    <path clip-path="url(#pb019acfbea)" d="
M429.177 297.398
L402.922 312.557
L402.922 342.873
L429.177 358.032
L455.432 342.873
L455.432 312.557
z
" style="fill:#af0a0a;stroke:#000000;stroke-width:0.25;"/>
   </g>
   <g id="patch_18">
    <path clip-path="url(#pb019acfbea)" d="
M376.667 297.398
L350.412 312.557
L350.412 342.873
L376.667 358.032
L402.922 342.873
L402.922 312.557
z
" style="fill:#af0a0a;stroke:#000000;stroke-width:0.25;"/>
   </g>
   <g id="patch_19">
    <path clip-path="url(#pb019acfbea)" d="
M350.412 251.923
L324.157 267.082
L324.157 297.398
L350.412 312.557
L376.667 297.398
L376.667 267.082
z
" style="fill:#af0a0a;stroke:#000000;stroke-width:0.25;"/>
   </g>
   <g id="patch_20">
    <path clip-path="url(#pb019acfbea)" d="
M376.667 206.448
L350.412 221.607
L350.412 251.923
L376.667 267.082
L402.922 251.923
L402.922 221.607
z
" style="fill:#af0a0a;stroke:#000000;stroke-width:0.25;"/>
   </g>
   <g id="patch_21">
    <path clip-path="url(#pb019acfbea)" d="
M350.412 342.873
L324.157 358.032
L324.157 388.349
L350.412 403.507
L376.667 388.349
L376.667 358.032
z
" style="fill:#af0a0a;stroke:#000000;stroke-width:0.25;"/>
   </g>
   <g id="patch_22">
    <path clip-path="url(#pb019acfbea)" d="
M376.667 388.349
L350.412 403.507
L350.412 433.824
L376.667 448.982
L402.922 433.824
L402.922 403.507
z
" style="fill:#af0a0a;stroke:#000000;stroke-width:0.25;"/>
   </g>
   <g id="patch_23">
    <path clip-path="url(#pb019acfbea)" d="
M350.412 433.824
L324.157 448.982
L324.157 479.299
L350.412 494.457
L376.667 479.299
L376.667 448.982
z
" style="fill:#af0a0a;stroke:#000000;stroke-width:0.25;"/>
   </g>
   <g id="patch_24">
    <path clip-path="url(#pb019acfbea)" d="
M297.902 433.824
L271.647 448.982
L271.647 479.299
L297.902 494.457
L324.157 479.299
L324.157 448.982
z
" style="fill:#af0a0a;stroke:#000000;stroke-width:0.25;"/>
   </g>
   <g id="patch_25">
    <path clip-path="url(#pb019acfbea)" d="
M271.647 388.349
L245.392 403.507
L245.392 433.824
L271.647 448.982
L297.902 433.824
L297.902 403.507
z
" style="fill:#af0a0a;stroke:#000000;stroke-width:0.25;"/>
   </g>
   <g id="patch_26">
    <path clip-path="url(#pb019acfbea)" d="
M297.902 342.873
L271.647 358.032
L271.647 388.349
L297.902 403.507
L324.157 388.349
L324.157 358.032
z
" style="fill:#af0a0a;stroke:#000000;stroke-width:0.25;"/>
   </g>
   <g id="patch_27">
    <path clip-path="url(#pb019acfbea)" d="
M192.881 342.873
L166.626 358.032
L166.626 388.349
L192.881 403.507
L219.137 388.349
L219.137 358.032
z
" style="fill:#af0a0a;stroke:#000000;stroke-width:0.25;"/>
   </g>
   <g id="patch_28">
    <path clip-path="url(#pb019acfbea)" d="
M219.137 388.349
L192.881 403.507
L192.881 433.824
L219.137 448.982
L245.392 433.824
L245.392 403.507
z
" style="fill:#af0a0a;stroke:#000000;stroke-width:0.25;"/>
   </g>
   <g id="patch_29">
    <path clip-path="url(#pb019acfbea)" d="
M192.881 433.824
L166.626 448.982
L166.626 479.299
L192.881 494.457
L219.137 479.299
L219.137 448.982
z
" style="fill:#af0a0a;stroke:#000000;stroke-width:0.25;"/>
   </g>
   <g id="patch_30">
    <path clip-path="url(#pb019acfbea)" d="
M140.371 433.824
L114.116 448.982
L114.116 479.299
L140.371 494.457
L166.626 479.299
L166.626 448.982
z
" style="fill:#af0a0a;stroke:#000000;stroke-width:0.25;"/>
   </g>
   <g id="patch_31">
    <path clip-path="url(#pb019acfbea)" d="
M114.116 388.349
L87.8612 403.507
L87.8612 433.824
L114.116 448.982
L140.371 433.824
L140.371 403.507
z
" style="fill:#af0a0a;stroke:#000000;stroke-width:0.25;"/>
   </g>
   <g id="patch_32">
    <path clip-path="url(#pb019acfbea)" d="
M140.371 342.873
L114.116 358.032
L114.116 388.349
L140.371 403.507
L166.626 388.349
L166.626 358.032
z
" style="fill:#af0a0a;stroke:#000000;stroke-width:0.25;"/>
   </g>
   <g id="patch_33">
    <path clip-path="url(#pb019acfbea)" d="
M114.116 206.448
L87.8612 221.607
L87.8612 251.923
L114.116 267.082
L140.371 251.923
L140.371 221.607
z
" style="fill:#af0a0a;stroke:#000000;stroke-width:0.25;"/>
   </g>
   <g id="patch_34">
    <path clip-path="url(#pb019acfbea)" d="
M140.371 251.923
L114.116 267.082
L114.116 297.398
L140.371 312.557
L166.626 297.398
L166.626 267.082
z
" style="fill:#af0a0a;stroke:#000000;stroke-width:0.25;"/>
   </g>
   <g id="patch_35">
    <path clip-path="url(#pb019acfbea)" d="
M114.116 297.398
L87.8612 312.557
L87.8612 342.873
L114.116 358.032
L140.371 342.873
L140.371 312.557
z
" style="fill:#af0a0a;stroke:#000000;stroke-width:0.25;"/>
   </g>
   <g id="patch_36">
    <path clip-path="url(#pb019acfbea)" d="
M61.6062 297.398
L35.3511 312.557
L35.3511 342.873
L61.6062 358.032
L87.8612 342.873
L87.8612 312.557
z
" style="fill:#af0a0a;stroke:#000000;stroke-width:0.25;"/>
   </g>
   <g id="patch_37">
    <path clip-path="url(#pb019acfbea)" d="
M35.3511 251.923
L9.09604 267.082
L9.09604 297.398
L35.3511 312.557
L61.6062 297.398
L61.6062 267.082
z
" style="fill:#af0a0a;stroke:#000000;stroke-width:0.25;"/>
   </g>
   <g id="patch_38">
    <path clip-path="url(#pb019acfbea)" d="
M61.6062 206.448
L35.3511 221.607
L35.3511 251.923
L61.6062 267.082
L87.8612 251.923
L87.8612 221.607
z
" style="fill:#af0a0a;stroke:#000000;stroke-width:0.25;"/>
   </g>
   <g id="patch_39">
    <path clip-path="url(#pb019acfbea)" d="
M192.881 70.0228
L166.626 85.1812
L166.626 115.498
L192.881 130.656
L219.137 115.498
L219.137 85.1812
z
" style="fill:#af0a0a;stroke:#000000;stroke-width:0.25;"/>
   </g>
   <g id="patch_40">
    <path clip-path="url(#pb019acfbea)" d="
M219.137 115.498
L192.881 130.656
L192.881 160.973
L219.137 176.131
L245.392 160.973
L245.392 130.656
z
" style="fill:#af0a0a;stroke:#000000;stroke-width:0.25;"/>
   </g>
   <g id="patch_41">
    <path clip-path="url(#pb019acfbea)" d="
M192.881 160.973
L166.626 176.131
L166.626 206.448
L192.881 221.607
L219.137 206.448
L219.137 176.131
z
" style="fill:#af0a0a;stroke:#000000;stroke-width:0.25;"/>
   </g>
   <g id="patch_42">
    <path clip-path="url(#pb019acfbea)" d="
M140.371 160.973
L114.116 176.131
L114.116 206.448
L140.371 221.607
L166.626 206.448
L166.626 176.131
z
" style="fill:#af0a0a;stroke:#000000;stroke-width:0.25;"/>
   </g>
   <g id="patch_43">
    <path clip-path="url(#pb019acfbea)" d="
M114.116 115.498
L87.8612 130.656
L87.8612 160.973
L114.116 176.131
L140.371 160.973
L140.371 130.656
z
" style="fill:#af0a0a;stroke:#000000;stroke-width:0.25;"/>
   </g>
   <g id="patch_44">
    <path clip-path="url(#pb019acfbea)" d="
M140.371 70.0228
L114.116 85.1812
L114.116 115.498
L140.371 130.656
L166.626 115.498
L166.626 85.1812
z
" style="fill:#af0a0a;stroke:#000000;stroke-width:0.25;"/>
   </g>
   <g id="patch_45">
    <path clip-path="url(#pb019acfbea)" d="
M359.164 75.0756
L350.412 80.1284
L350.412 90.234
L359.164 95.2868
L367.915 90.234
L367.915 80.1284
z
" style="fill:#dcdcdc;stroke:#000000;stroke-width:0.25;"/>
   </g>
   <g id="patch_46">
    <path clip-path="url(#pb019acfbea)" d="
M367.915 90.234
L359.164 95.2868
L359.164 105.392
L367.915 110.445
L376.667 105.392
L376.667 95.2868
z
" style="fill:#dcdcdc;stroke:#000000;stroke-width:0.25;"/>
   </g>
   <g id="patch_47">
    <path clip-path="url(#pb019acfbea)" d="
M359.164 105.392
L350.412 110.445
L350.412 120.551
L359.164 125.604
L367.915 120.551
L367.915 110.445
z
" style="fill:#dcdcdc;stroke:#000000;stroke-width:0.25;"/>
   </g>
   <g id="patch_48">
    <path clip-path="url(#pb019acfbea)" d="
M341.66 105.392
L332.909 110.445
L332.909 120.551
L341.66 125.604
L350.412 120.551
L350.412 110.445
z
" style="fill:#dcdcdc;stroke:#000000;stroke-width:0.25;"/>
   </g>
   <g id="patch_49">
    <path clip-path="url(#pb019acfbea)" d="
M332.909 90.234
L324.157 95.2868
L324.157 105.392
L332.909 110.445
L341.66 105.392
L341.66 95.2868
z
" style="fill:#dcdcdc;stroke:#000000;stroke-width:0.25;"/>
   </g>
   <g id="patch_50">
    <path clip-path="url(#pb019acfbea)" d="
M341.66 75.0756
L332.909 80.1284
L332.909 90.234
L341.66 95.2868
L350.412 90.234
L350.412 80.1284
z
" style="fill:#dcdcdc;stroke:#000000;stroke-width:0.25;"/>
   </g>
   <g id="patch_51">
    <path clip-path="url(#pb019acfbea)" d="
M385.419 120.551
L376.667 125.604
L376.667 135.709
L385.419 140.762
L394.17 135.709
L394.17 125.604
z
" style="fill:#dcdcdc;stroke:#000000;stroke-width:0.25;"/>
   </g>
   <g id="patch_52">
    <path clip-path="url(#pb019acfbea)" d="
M394.17 135.709
L385.419 140.762
L385.419 150.867
L394.17 155.92
L402.922 150.867
L402.922 140.762
z
" style="fill:#dcdcdc;stroke:#000000;stroke-width:0.25;"/>
   </g>
   <g id="patch_53">
    <path clip-path="url(#pb019acfbea)" d="
M385.419 150.867
L376.667 155.92
L376.667 166.026
L385.419 171.079
L394.17 166.026
L394.17 155.92
z
" style="fill:#dcdcdc;stroke:#000000;stroke-width:0.25;"/>
   </g>
   <g id="patch_54">
    <path clip-path="url(#pb019acfbea)" d="
M367.915 150.867
L359.164 155.92
L359.164 166.026
L367.915 171.079
L376.667 166.026
L376.667 155.92
z
" style="fill:#dcdcdc;stroke:#000000;stroke-width:0.25;"/>
   </g>
   <g id="patch_55">
    <path clip-path="url(#pb019acfbea)" d="
M359.164 135.709
L350.412 140.762
L350.412 150.867
L359.164 155.92
L367.915 150.867
L367.915 140.762
z
" style="fill:#dcdcdc;stroke:#000000;stroke-width:0.25;"/>
   </g>
   <g id="patch_56">
    <path clip-path="url(#pb019acfbea)" d="
M367.915 120.551
L359.164 125.604
L359.164 135.709
L367.915 140.762
L376.667 135.709
L376.667 125.604
z
" style="fill:#dcdcdc;stroke:#000000;stroke-width:0.25;"/>
   </g>
   <g id="patch_57">
    <path clip-path="url(#pb019acfbea)" d="
M359.164 166.026
L350.412 171.079
L350.412 181.184
L359.164 186.237
L367.915 181.184
L367.915 171.079
z
" style="fill:#dcdcdc;stroke:#000000;stroke-width:0.25;"/>
   </g>
   <g id="patch_58">
    <path clip-path="url(#pb019acfbea)" d="
M367.915 181.184
L359.164 186.237
L359.164 196.343
L367.915 201.395
L376.667 196.343
L376.667 186.237
z
" style="fill:#dcdcdc;stroke:#000000;stroke-width:0.25;"/>
   </g>
   <g id="patch_59">
    <path clip-path="url(#pb019acfbea)" d="
M359.164 196.343
L350.412 201.395
L350.412 211.501
L359.164 216.554
L367.915 211.501
L367.915 201.395
z
" style="fill:#dcdcdc;stroke:#000000;stroke-width:0.25;"/>
   </g>
   <g id="patch_60">
    <path clip-path="url(#pb019acfbea)" d="
M341.66 196.343
L332.909 201.395
L332.909 211.501
L341.66 216.554
L350.412 211.501
L350.412 201.395
z
" style="fill:#dcdcdc;stroke:#000000;stroke-width:0.25;"/>
   </g>
   <g id="patch_61">
    <path clip-path="url(#pb019acfbea)" d="
M332.909 181.184
L324.157 186.237
L324.157 196.343
L332.909 201.395
L341.66 196.343
L341.66 186.237
z
" style="fill:#dcdcdc;stroke:#000000;stroke-width:0.25;"/>
   </g>
   <g id="patch_62">
    <path clip-path="url(#pb019acfbea)" d="
M341.66 166.026
L332.909 171.079
L332.909 181.184
L341.66 186.237
L350.412 181.184
L350.412 171.079
z
" style="fill:#dcdcdc;stroke:#000000;stroke-width:0.25;"/>
   </g>
   <g id="patch_63">
    <path clip-path="url(#pb019acfbea)" d="
M306.653 166.026
L297.902 171.079
L297.902 181.184
L306.653 186.237
L315.405 181.184
L315.405 171.079
z
" style="fill:#dcdcdc;stroke:#000000;stroke-width:0.25;"/>
   </g>
   <g id="patch_64">
    <path clip-path="url(#pb019acfbea)" d="
M315.405 181.184
L306.653 186.237
L306.653 196.343
L315.405 201.395
L324.157 196.343
L324.157 186.237
z
" style="fill:#dcdcdc;stroke:#000000;stroke-width:0.25;"/>
   </g>
   <g id="patch_65">
    <path clip-path="url(#pb019acfbea)" d="
M306.653 196.343
L297.902 201.395
L297.902 211.501
L306.653 216.554
L315.405 211.501
L315.405 201.395
z
" style="fill:#dcdcdc;stroke:#000000;stroke-width:0.25;"/>
   </g>
   <g id="patch_66">
    <path clip-path="url(#pb019acfbea)" d="
M289.15 196.343
L280.398 201.395
L280.398 211.501
L289.15 216.554
L297.902 211.501
L297.902 201.395
z
" style="fill:#dcdcdc;stroke:#000000;stroke-width:0.25;"/>
   </g>
   <g id="patch_67">
    <path clip-path="url(#pb019acfbea)" d="
M280.398 181.184
L271.647 186.237
L271.647 196.343
L280.398 201.395
L289.15 196.343
L289.15 186.237
z
" style="fill:#dcdcdc;stroke:#000000;stroke-width:0.25;"/>
   </g>
   <g id="patch_68">
    <path clip-path="url(#pb019acfbea)" d="
M289.15 166.026
L280.398 171.079
L280.398 181.184
L289.15 186.237
L297.902 181.184
L297.902 171.079
z
" style="fill:#dcdcdc;stroke:#000000;stroke-width:0.25;"/>
   </g>
   <g id="patch_69">
    <path clip-path="url(#pb019acfbea)" d="
M280.398 120.551
L271.647 125.604
L271.647 135.709
L280.398 140.762
L289.15 135.709
L289.15 125.604
z
" style="fill:#dcdcdc;stroke:#000000;stroke-width:0.25;"/>
   </g>
   <g id="patch_70">
    <path clip-path="url(#pb019acfbea)" d="
M289.15 135.709
L280.398 140.762
L280.398 150.867
L289.15 155.92
L297.902 150.867
L297.902 140.762
z
" style="fill:#dcdcdc;stroke:#000000;stroke-width:0.25;"/>
   </g>
   <g id="patch_71">
    <path clip-path="url(#pb019acfbea)" d="
M280.398 150.867
L271.647 155.92
L271.647 166.026
L280.398 171.079
L289.15 166.026
L289.15 155.92
z
" style="fill:#dcdcdc;stroke:#000000;stroke-width:0.25;"/>
   </g>
   <g id="patch_72">
    <path clip-path="url(#pb019acfbea)" d="
M262.895 150.867
L254.143 155.92
L254.143 166.026
L262.895 171.079
L271.647 166.026
L271.647 155.92
z
" style="fill:#dcdcdc;stroke:#000000;stroke-width:0.25;"/>
   </g>
   <g id="patch_73">
    <path clip-path="url(#pb019acfbea)" d="
M254.143 135.709
L245.392 140.762
L245.392 150.867
L254.143 155.92
L262.895 150.867
L262.895 140.762
z
" style="fill:#dcdcdc;stroke:#000000;stroke-width:0.25;"/>
   </g>
   <g id="patch_74">
    <path clip-path="url(#pb019acfbea)" d="
M262.895 120.551
L254.143 125.604
L254.143 135.709
L262.895 140.762
L271.647 135.709
L271.647 125.604
z
" style="fill:#dcdcdc;stroke:#000000;stroke-width:0.25;"/>
   </g>
   <g id="patch_75">
    <path clip-path="url(#pb019acfbea)" d="
M306.653 75.0756
L297.902 80.1284
L297.902 90.234
L306.653 95.2868
L315.405 90.234
L315.405 80.1284
z
" style="fill:#dcdcdc;stroke:#000000;stroke-width:0.25;"/>
   </g>
   <g id="patch_76">
    <path clip-path="url(#pb019acfbea)" d="
M315.405 90.234
L306.653 95.2868
L306.653 105.392
L315.405 110.445
L324.157 105.392
L324.157 95.2868
z
" style="fill:#dcdcdc;stroke:#000000;stroke-width:0.25;"/>
   </g>
   <g id="patch_77">
    <path clip-path="url(#pb019acfbea)" d="
M306.653 105.392
L297.902 110.445
L297.902 120.551
L306.653 125.604
L315.405 120.551
L315.405 110.445
z
" style="fill:#dcdcdc;stroke:#000000;stroke-width:0.25;"/>
   </g>
   <g id="patch_78">
    <path clip-path="url(#pb019acfbea)" d="
M289.15 105.392
L280.398 110.445
L280.398 120.551
L289.15 125.604
L297.902 120.551
L297.902 110.445
z
" style="fill:#dcdcdc;stroke:#000000;stroke-width:0.25;"/>
   </g>
   <g id="patch_79">
    <path clip-path="url(#pb019acfbea)" d="
M280.398 90.234
L271.647 95.2868
L271.647 105.392
L280.398 110.445
L289.15 105.392
L289.15 95.2868
z
" style="fill:#dcdcdc;stroke:#000000;stroke-width:0.25;"/>
   </g>
   <g id="patch_80">
    <path clip-path="url(#pb019acfbea)" d="
M289.15 75.0756
L280.398 80.1284
L280.398 90.234
L289.15 95.2868
L297.902 90.234
L297.902 80.1284
z
" style="fill:#dcdcdc;stroke:#000000;stroke-width:0.25;"/>
   </g>
   <g id="patch_81">
    <path clip-path="url(#pb019acfbea)" d="
M437.929 211.501
L429.177 216.554
L429.177 226.659
L437.929 231.712
L446.68 226.659
L446.68 216.554
z
" style="fill:#dcdcdc;stroke:#000000;stroke-width:0.25;"/>
   </g>
   <g id="patch_82">
    <path clip-path="url(#pb019acfbea)" d="
M446.68 226.659
L437.929 231.712
L437.929 241.818
L446.68 246.87
L455.432 241.818
L455.432 231.712
z
" style="fill:#dcdcdc;stroke:#000000;stroke-width:0.25;"/>
   </g>
   <g id="patch_83">
    <path clip-path="url(#pb019acfbea)" d="
M437.929 241.818
L429.177 246.87
L429.177 256.976
L437.929 262.029
L446.68 256.976
L446.68 246.87
z
" style="fill:#dcdcdc;stroke:#000000;stroke-width:0.25;"/>
   </g>
   <g id="patch_84">
    <path clip-path="url(#pb019acfbea)" d="
M420.425 241.818
L411.674 246.87
L411.674 256.976
L420.425 262.029
L429.177 256.976
L429.177 246.87
z
" style="fill:#dcdcdc;stroke:#000000;stroke-width:0.25;"/>
   </g>
   <g id="patch_85">
    <path clip-path="url(#pb019acfbea)" d="
M411.674 226.659
L402.922 231.712
L402.922 241.818
L411.674 246.87
L420.425 241.818
L420.425 231.712
z
" style="fill:#dcdcdc;stroke:#000000;stroke-width:0.25;"/>
   </g>
   <g id="patch_86">
    <path clip-path="url(#pb019acfbea)" d="
M420.425 211.501
L411.674 216.554
L411.674 226.659
L420.425 231.712
L429.177 226.659
L429.177 216.554
z
" style="fill:#dcdcdc;stroke:#000000;stroke-width:0.25;"/>
   </g>
   <g id="patch_87">
    <path clip-path="url(#pb019acfbea)" d="
M464.184 256.976
L455.432 262.029
L455.432 272.134
L464.184 277.187
L472.936 272.134
L472.936 262.029
z
" style="fill:#dcdcdc;stroke:#000000;stroke-width:0.25;"/>
   </g>
   <g id="patch_88">
    <path clip-path="url(#pb019acfbea)" d="
M472.936 272.134
L464.184 277.187
L464.184 287.293
L472.936 292.346
L481.687 287.293
L481.687 277.187
z
" style="fill:#dcdcdc;stroke:#000000;stroke-width:0.25;"/>
   </g>
   <g id="patch_89">
    <path clip-path="url(#pb019acfbea)" d="
M464.184 287.293
L455.432 292.346
L455.432 302.451
L464.184 307.504
L472.936 302.451
L472.936 292.346
z
" style="fill:#dcdcdc;stroke:#000000;stroke-width:0.25;"/>
   </g>
   <g id="patch_90">
    <path clip-path="url(#pb019acfbea)" d="
M446.68 287.293
L437.929 292.346
L437.929 302.451
L446.68 307.504
L455.432 302.451
L455.432 292.346
z
" style="fill:#dcdcdc;stroke:#000000;stroke-width:0.25;"/>
   </g>
   <g id="patch_91">
    <path clip-path="url(#pb019acfbea)" d="
M437.929 272.134
L429.177 277.187
L429.177 287.293
L437.929 292.346
L446.68 287.293
L446.68 277.187
z
" style="fill:#dcdcdc;stroke:#000000;stroke-width:0.25;"/>
   </g>
   <g id="patch_92">
    <path clip-path="url(#pb019acfbea)" d="
M446.68 256.976
L437.929 262.029
L437.929 272.134
L446.68 277.187
L455.432 272.134
L455.432 262.029
z
" style="fill:#dcdcdc;stroke:#000000;stroke-width:0.25;"/>
   </g>
   <g id="patch_93">
    <path clip-path="url(#pb019acfbea)" d="
M437.929 302.451
L429.177 307.504
L429.177 317.61
L437.929 322.662
L446.68 317.61
L446.68 307.504
z
" style="fill:#dcdcdc;stroke:#000000;stroke-width:0.25;"/>
   </g>
   <g id="patch_94">
    <path clip-path="url(#pb019acfbea)" d="
M446.68 317.61
L437.929 322.662
L437.929 332.768
L446.68 337.821
L455.432 332.768
L455.432 322.662
z
" style="fill:#dcdcdc;stroke:#000000;stroke-width:0.25;"/>
   </g>
   <g id="patch_95">
    <path clip-path="url(#pb019acfbea)" d="
M437.929 332.768
L429.177 337.821
L429.177 347.926
L437.929 352.979
L446.68 347.926
L446.68 337.821
z
" style="fill:#dcdcdc;stroke:#000000;stroke-width:0.25;"/>
   </g>
   <g id="patch_96">
    <path clip-path="url(#pb019acfbea)" d="
M420.425 332.768
L411.674 337.821
L411.674 347.926
L420.425 352.979
L429.177 347.926
L429.177 337.821
z
" style="fill:#dcdcdc;stroke:#000000;stroke-width:0.25;"/>
   </g>
   <g id="patch_97">
    <path clip-path="url(#pb019acfbea)" d="
M411.674 317.61
L402.922 322.662
L402.922 332.768
L411.674 337.821
L420.425 332.768
L420.425 322.662
z
" style="fill:#dcdcdc;stroke:#000000;stroke-width:0.25;"/>
   </g>
   <g id="patch_98">
    <path clip-path="url(#pb019acfbea)" d="
M420.425 302.451
L411.674 307.504
L411.674 317.61
L420.425 322.662
L429.177 317.61
L429.177 307.504
z
" style="fill:#dcdcdc;stroke:#000000;stroke-width:0.25;"/>
   </g>
   <g id="patch_99">
    <path clip-path="url(#pb019acfbea)" d="
M385.419 302.451
L376.667 307.504
L376.667 317.61
L385.419 322.662
L394.17 317.61
L394.17 307.504
z
" style="fill:#dcdcdc;stroke:#000000;stroke-width:0.25;"/>
   </g>
   <g id="patch_100">
    <path clip-path="url(#pb019acfbea)" d="
M394.17 317.61
L385.419 322.662
L385.419 332.768
L394.17 337.821
L402.922 332.768
L402.922 322.662
z
" style="fill:#dcdcdc;stroke:#000000;stroke-width:0.25;"/>
   </g>
   <g id="patch_101">
    <path clip-path="url(#pb019acfbea)" d="
M385.419 332.768
L376.667 337.821
L376.667 347.926
L385.419 352.979
L394.17 347.926
L394.17 337.821
z
" style="fill:#dcdcdc;stroke:#000000;stroke-width:0.25;"/>
   </g>
   <g id="patch_102">
    <path clip-path="url(#pb019acfbea)" d="
M367.915 332.768
L359.164 337.821
L359.164 347.926
L367.915 352.979
L376.667 347.926
L376.667 337.821
z
" style="fill:#dcdcdc;stroke:#000000;stroke-width:0.25;"/>
   </g>
   <g id="patch_103">
    <path clip-path="url(#pb019acfbea)" d="
M359.164 317.61
L350.412 322.662
L350.412 332.768
L359.164 337.821
L367.915 332.768
L367.915 322.662
z
" style="fill:#dcdcdc;stroke:#000000;stroke-width:0.25;"/>
   </g>
   <g id="patch_104">
    <path clip-path="url(#pb019acfbea)" d="
M367.915 302.451
L359.164 307.504
L359.164 317.61
L367.915 322.662
L376.667 317.61
L376.667 307.504
z
" style="fill:#dcdcdc;stroke:#000000;stroke-width:0.25;"/>
   </g>
   <g id="patch_105">
    <path clip-path="url(#pb019acfbea)" d="
M359.164 256.976
L350.412 262.029
L350.412 272.134
L359.164 277.187
L367.915 272.134
L367.915 262.029
z
" style="fill:#dcdcdc;stroke:#000000;stroke-width:0.25;"/>
   </g>
   <g id="patch_106">
    <path clip-path="url(#pb019acfbea)" d="
M367.915 272.134
L359.164 277.187
L359.164 287.293
L367.915 292.346
L376.667 287.293
L376.667 277.187
z
" style="fill:#dcdcdc;stroke:#000000;stroke-width:0.25;"/>
   </g>
   <g id="patch_107">
    <path clip-path="url(#pb019acfbea)" d="
M359.164 287.293
L350.412 292.346
L350.412 302.451
L359.164 307.504
L367.915 302.451
L367.915 292.346
z
" style="fill:#dcdcdc;stroke:#000000;stroke-width:0.25;"/>
   </g>
   <g id="patch_108">
    <path clip-path="url(#pb019acfbea)" d="
M341.66 287.293
L332.909 292.346
L332.909 302.451
L341.66 307.504
L350.412 302.451
L350.412 292.346
z
" style="fill:#dcdcdc;stroke:#000000;stroke-width:0.25;"/>
   </g>
   <g id="patch_109">
    <path clip-path="url(#pb019acfbea)" d="
M332.909 272.134
L324.157 277.187
L324.157 287.293
L332.909 292.346
L341.66 287.293
L341.66 277.187
z
" style="fill:#dcdcdc;stroke:#000000;stroke-width:0.25;"/>
   </g>
   <g id="patch_110">
    <path clip-path="url(#pb019acfbea)" d="
M341.66 256.976
L332.909 262.029
L332.909 272.134
L341.66 277.187
L350.412 272.134
L350.412 262.029
z
" style="fill:#dcdcdc;stroke:#000000;stroke-width:0.25;"/>
   </g>
   <g id="patch_111">
    <path clip-path="url(#pb019acfbea)" d="
M385.419 211.501
L376.667 216.554
L376.667 226.659
L385.419 231.712
L394.17 226.659
L394.17 216.554
z
" style="fill:#dcdcdc;stroke:#000000;stroke-width:0.25;"/>
   </g>
   <g id="patch_112">
    <path clip-path="url(#pb019acfbea)" d="
M394.17 226.659
L385.419 231.712
L385.419 241.818
L394.17 246.87
L402.922 241.818
L402.922 231.712
z
" style="fill:#dcdcdc;stroke:#000000;stroke-width:0.25;"/>
   </g>
   <g id="patch_113">
    <path clip-path="url(#pb019acfbea)" d="
M385.419 241.818
L376.667 246.87
L376.667 256.976
L385.419 262.029
L394.17 256.976
L394.17 246.87
z
" style="fill:#dcdcdc;stroke:#000000;stroke-width:0.25;"/>
   </g>
   <g id="patch_114">
    <path clip-path="url(#pb019acfbea)" d="
M367.915 241.818
L359.164 246.87
L359.164 256.976
L367.915 262.029
L376.667 256.976
L376.667 246.87
z
" style="fill:#dcdcdc;stroke:#000000;stroke-width:0.25;"/>
   </g>
   <g id="patch_115">
    <path clip-path="url(#pb019acfbea)" d="
M359.164 226.659
L350.412 231.712
L350.412 241.818
L359.164 246.87
L367.915 241.818
L367.915 231.712
z
" style="fill:#dcdcdc;stroke:#000000;stroke-width:0.25;"/>
   </g>
   <g id="patch_116">
    <path clip-path="url(#pb019acfbea)" d="
M367.915 211.501
L359.164 216.554
L359.164 226.659
L367.915 231.712
L376.667 226.659
L376.667 216.554
z
" style="fill:#dcdcdc;stroke:#000000;stroke-width:0.25;"/>
   </g>
   <g id="patch_117">
    <path clip-path="url(#pb019acfbea)" d="
M359.164 347.926
L350.412 352.979
L350.412 363.085
L359.164 368.137
L367.915 363.085
L367.915 352.979
z
" style="fill:#dcdcdc;stroke:#000000;stroke-width:0.25;"/>
   </g>
   <g id="patch_118">
    <path clip-path="url(#pb019acfbea)" d="
M367.915 363.085
L359.164 368.137
L359.164 378.243
L367.915 383.296
L376.667 378.243
L376.667 368.137
z
" style="fill:#dcdcdc;stroke:#000000;stroke-width:0.25;"/>
   </g>
   <g id="patch_119">
    <path clip-path="url(#pb019acfbea)" d="
M359.164 378.243
L350.412 383.296
L350.412 393.401
L359.164 398.454
L367.915 393.401
L367.915 383.296
z
" style="fill:#dcdcdc;stroke:#000000;stroke-width:0.25;"/>
   </g>
   <g id="patch_120">
    <path clip-path="url(#pb019acfbea)" d="
M341.66 378.243
L332.909 383.296
L332.909 393.401
L341.66 398.454
L350.412 393.401
L350.412 383.296
z
" style="fill:#dcdcdc;stroke:#000000;stroke-width:0.25;"/>
   </g>
   <g id="patch_121">
    <path clip-path="url(#pb019acfbea)" d="
M332.909 363.085
L324.157 368.137
L324.157 378.243
L332.909 383.296
L341.66 378.243
L341.66 368.137
z
" style="fill:#dcdcdc;stroke:#000000;stroke-width:0.25;"/>
   </g>
   <g id="patch_122">
    <path clip-path="url(#pb019acfbea)" d="
M341.66 347.926
L332.909 352.979
L332.909 363.085
L341.66 368.137
L350.412 363.085
L350.412 352.979
z
" style="fill:#dcdcdc;stroke:#000000;stroke-width:0.25;"/>
   </g>
   <g id="patch_123">
    <path clip-path="url(#pb019acfbea)" d="
M385.419 393.401
L376.667 398.454
L376.667 408.56
L385.419 413.613
L394.17 408.56
L394.17 398.454
z
" style="fill:#dcdcdc;stroke:#000000;stroke-width:0.25;"/>
   </g>
   <g id="patch_124">
    <path clip-path="url(#pb019acfbea)" d="
M394.17 408.56
L385.419 413.613
L385.419 423.718
L394.17 428.771
L402.922 423.718
L402.922 413.613
z
" style="fill:#dcdcdc;stroke:#000000;stroke-width:0.25;"/>
   </g>
   <g id="patch_125">
    <path clip-path="url(#pb019acfbea)" d="
M385.419 423.718
L376.667 428.771
L376.667 438.876
L385.419 443.929
L394.17 438.876
L394.17 428.771
z
" style="fill:#dcdcdc;stroke:#000000;stroke-width:0.25;"/>
   </g>
   <g id="patch_126">
    <path clip-path="url(#pb019acfbea)" d="
M367.915 423.718
L359.164 428.771
L359.164 438.876
L367.915 443.929
L376.667 438.876
L376.667 428.771
z
" style="fill:#dcdcdc;stroke:#000000;stroke-width:0.25;"/>
   </g>
   <g id="patch_127">
    <path clip-path="url(#pb019acfbea)" d="
M359.164 408.56
L350.412 413.613
L350.412 423.718
L359.164 428.771
L367.915 423.718
L367.915 413.613
z
" style="fill:#dcdcdc;stroke:#000000;stroke-width:0.25;"/>
   </g>
   <g id="patch_128">
    <path clip-path="url(#pb019acfbea)" d="
M367.915 393.401
L359.164 398.454
L359.164 408.56
L367.915 413.613
L376.667 408.56
L376.667 398.454
z
" style="fill:#dcdcdc;stroke:#000000;stroke-width:0.25;"/>
   </g>
   <g id="patch_129">
    <path clip-path="url(#pb019acfbea)" d="
M359.164 438.876
L350.412 443.929
L350.412 454.035
L359.164 459.088
L367.915 454.035
L367.915 443.929
z
" style="fill:#dcdcdc;stroke:#000000;stroke-width:0.25;"/>
   </g>
   <g id="patch_130">
    <path clip-path="url(#pb019acfbea)" d="
M367.915 454.035
L359.164 459.088
L359.164 469.193
L367.915 474.246
L376.667 469.193
L376.667 459.088
z
" style="fill:#dcdcdc;stroke:#000000;stroke-width:0.25;"/>
   </g>
   <g id="patch_131">
    <path clip-path="url(#pb019acfbea)" d="
M359.164 469.193
L350.412 474.246
L350.412 484.352
L359.164 489.404
L367.915 484.352
L367.915 474.246
z
" style="fill:#dcdcdc;stroke:#000000;stroke-width:0.25;"/>
   </g>
   <g id="patch_132">
    <path clip-path="url(#pb019acfbea)" d="
M341.66 469.193
L332.909 474.246
L332.909 484.352
L341.66 489.404
L350.412 484.352
L350.412 474.246
z
" style="fill:#dcdcdc;stroke:#000000;stroke-width:0.25;"/>
   </g>
   <g id="patch_133">
    <path clip-path="url(#pb019acfbea)" d="
M332.909 454.035
L324.157 459.088
L324.157 469.193
L332.909 474.246
L341.66 469.193
L341.66 459.088
z
" style="fill:#dcdcdc;stroke:#000000;stroke-width:0.25;"/>
   </g>
   <g id="patch_134">
    <path clip-path="url(#pb019acfbea)" d="
M341.66 438.876
L332.909 443.929
L332.909 454.035
L341.66 459.088
L350.412 454.035
L350.412 443.929
z
" style="fill:#dcdcdc;stroke:#000000;stroke-width:0.25;"/>
   </g>
   <g id="patch_135">
    <path clip-path="url(#pb019acfbea)" d="
M306.653 438.876
L297.902 443.929
L297.902 454.035
L306.653 459.088
L315.405 454.035
L315.405 443.929
z
" style="fill:#dcdcdc;stroke:#000000;stroke-width:0.25;"/>
   </g>
   <g id="patch_136">
    <path clip-path="url(#pb019acfbea)" d="
M315.405 454.035
L306.653 459.088
L306.653 469.193
L315.405 474.246
L324.157 469.193
L324.157 459.088
z
" style="fill:#dcdcdc;stroke:#000000;stroke-width:0.25;"/>
   </g>
   <g id="patch_137">
    <path clip-path="url(#pb019acfbea)" d="
M306.653 469.193
L297.902 474.246
L297.902 484.352
L306.653 489.404
L315.405 484.352
L315.405 474.246
z
" style="fill:#dcdcdc;stroke:#000000;stroke-width:0.25;"/>
   </g>
   <g id="patch_138">
    <path clip-path="url(#pb019acfbea)" d="
M289.15 469.193
L280.398 474.246
L280.398 484.352
L289.15 489.404
L297.902 484.352
L297.902 474.246
z
" style="fill:#dcdcdc;stroke:#000000;stroke-width:0.25;"/>
   </g>
   <g id="patch_139">
    <path clip-path="url(#pb019acfbea)" d="
M280.398 454.035
L271.647 459.088
L271.647 469.193
L280.398 474.246
L289.15 469.193
L289.15 459.088
z
" style="fill:#dcdcdc;stroke:#000000;stroke-width:0.25;"/>
   </g>
   <g id="patch_140">
    <path clip-path="url(#pb019acfbea)" d="
M289.15 438.876
L280.398 443.929
L280.398 454.035
L289.15 459.088
L297.902 454.035
L297.902 443.929
z
" style="fill:#dcdcdc;stroke:#000000;stroke-width:0.25;"/>
   </g>
   <g id="patch_141">
    <path clip-path="url(#pb019acfbea)" d="
M280.398 393.401
L271.647 398.454
L271.647 408.56
L280.398 413.613
L289.15 408.56
L289.15 398.454
z
" style="fill:#dcdcdc;stroke:#000000;stroke-width:0.25;"/>
   </g>
   <g id="patch_142">
    <path clip-path="url(#pb019acfbea)" d="
M289.15 408.56
L280.398 413.613
L280.398 423.718
L289.15 428.771
L297.902 423.718
L297.902 413.613
z
" style="fill:#dcdcdc;stroke:#000000;stroke-width:0.25;"/>
   </g>
   <g id="patch_143">
    <path clip-path="url(#pb019acfbea)" d="
M280.398 423.718
L271.647 428.771
L271.647 438.876
L280.398 443.929
L289.15 438.876
L289.15 428.771
z
" style="fill:#dcdcdc;stroke:#000000;stroke-width:0.25;"/>
   </g>
   <g id="patch_144">
    <path clip-path="url(#pb019acfbea)" d="
M262.895 423.718
L254.143 428.771
L254.143 438.876
L262.895 443.929
L271.647 438.876
L271.647 428.771
z
" style="fill:#dcdcdc;stroke:#000000;stroke-width:0.25;"/>
   </g>
   <g id="patch_145">
    <path clip-path="url(#pb019acfbea)" d="
M254.143 408.56
L245.392 413.613
L245.392 423.718
L254.143 428.771
L262.895 423.718
L262.895 413.613
z
" style="fill:#dcdcdc;stroke:#000000;stroke-width:0.25;"/>
   </g>
   <g id="patch_146">
    <path clip-path="url(#pb019acfbea)" d="
M262.895 393.401
L254.143 398.454
L254.143 408.56
L262.895 413.613
L271.647 408.56
L271.647 398.454
z
" style="fill:#dcdcdc;stroke:#000000;stroke-width:0.25;"/>
   </g>
   <g id="patch_147">
    <path clip-path="url(#pb019acfbea)" d="
M306.653 347.926
L297.902 352.979
L297.902 363.085
L306.653 368.137
L315.405 363.085
L315.405 352.979
z
" style="fill:#dcdcdc;stroke:#000000;stroke-width:0.25;"/>
   </g>
   <g id="patch_148">
    <path clip-path="url(#pb019acfbea)" d="
M315.405 363.085
L306.653 368.137
L306.653 378.243
L315.405 383.296
L324.157 378.243
L324.157 368.137
z
" style="fill:#dcdcdc;stroke:#000000;stroke-width:0.25;"/>
   </g>
   <g id="patch_149">
    <path clip-path="url(#pb019acfbea)" d="
M306.653 378.243
L297.902 383.296
L297.902 393.401
L306.653 398.454
L315.405 393.401
L315.405 383.296
z
" style="fill:#dcdcdc;stroke:#000000;stroke-width:0.25;"/>
   </g>
   <g id="patch_150">
    <path clip-path="url(#pb019acfbea)" d="
M289.15 378.243
L280.398 383.296
L280.398 393.401
L289.15 398.454
L297.902 393.401
L297.902 383.296
z
" style="fill:#dcdcdc;stroke:#000000;stroke-width:0.25;"/>
   </g>
   <g id="patch_151">
    <path clip-path="url(#pb019acfbea)" d="
M280.398 363.085
L271.647 368.137
L271.647 378.243
L280.398 383.296
L289.15 378.243
L289.15 368.137
z
" style="fill:#dcdcdc;stroke:#000000;stroke-width:0.25;"/>
   </g>
   <g id="patch_152">
    <path clip-path="url(#pb019acfbea)" d="
M289.15 347.926
L280.398 352.979
L280.398 363.085
L289.15 368.137
L297.902 363.085
L297.902 352.979
z
" style="fill:#dcdcdc;stroke:#000000;stroke-width:0.25;"/>
   </g>
   <g id="patch_153">
    <path clip-path="url(#pb019acfbea)" d="
M201.633 347.926
L192.881 352.979
L192.881 363.085
L201.633 368.137
L210.385 363.085
L210.385 352.979
z
" style="fill:#dcdcdc;stroke:#000000;stroke-width:0.25;"/>
   </g>
   <g id="patch_154">
    <path clip-path="url(#pb019acfbea)" d="
M210.385 363.085
L201.633 368.137
L201.633 378.243
L210.385 383.296
L219.137 378.243
L219.137 368.137
z
" style="fill:#dcdcdc;stroke:#000000;stroke-width:0.25;"/>
   </g>
   <g id="patch_155">
    <path clip-path="url(#pb019acfbea)" d="
M201.633 378.243
L192.881 383.296
L192.881 393.401
L201.633 398.454
L210.385 393.401
L210.385 383.296
z
" style="fill:#dcdcdc;stroke:#000000;stroke-width:0.25;"/>
   </g>
   <g id="patch_156">
    <path clip-path="url(#pb019acfbea)" d="
M184.13 378.243
L175.378 383.296
L175.378 393.401
L184.13 398.454
L192.881 393.401
L192.881 383.296
z
" style="fill:#dcdcdc;stroke:#000000;stroke-width:0.25;"/>
   </g>
   <g id="patch_157">
    <path clip-path="url(#pb019acfbea)" d="
M175.378 363.085
L166.626 368.137
L166.626 378.243
L175.378 383.296
L184.13 378.243
L184.13 368.137
z
" style="fill:#dcdcdc;stroke:#000000;stroke-width:0.25;"/>
   </g>
   <g id="patch_158">
    <path clip-path="url(#pb019acfbea)" d="
M184.13 347.926
L175.378 352.979
L175.378 363.085
L184.13 368.137
L192.881 363.085
L192.881 352.979
z
" style="fill:#dcdcdc;stroke:#000000;stroke-width:0.25;"/>
   </g>
   <g id="patch_159">
    <path clip-path="url(#pb019acfbea)" d="
M227.888 393.401
L219.137 398.454
L219.137 408.56
L227.888 413.613
L236.64 408.56
L236.64 398.454
z
" style="fill:#dcdcdc;stroke:#000000;stroke-width:0.25;"/>
   </g>
   <g id="patch_160">
    <path clip-path="url(#pb019acfbea)" d="
M236.64 408.56
L227.888 413.613
L227.888 423.718
L236.64 428.771
L245.392 423.718
L245.392 413.613
z
" style="fill:#dcdcdc;stroke:#000000;stroke-width:0.25;"/>
   </g>
   <g id="patch_161">
    <path clip-path="url(#pb019acfbea)" d="
M227.888 423.718
L219.137 428.771
L219.137 438.876
L227.888 443.929
L236.64 438.876
L236.64 428.771
z
" style="fill:#dcdcdc;stroke:#000000;stroke-width:0.25;"/>
   </g>
   <g id="patch_162">
    <path clip-path="url(#pb019acfbea)" d="
M210.385 423.718
L201.633 428.771
L201.633 438.876
L210.385 443.929
L219.137 438.876
L219.137 428.771
z
" style="fill:#dcdcdc;stroke:#000000;stroke-width:0.25;"/>
   </g>
   <g id="patch_163">
    <path clip-path="url(#pb019acfbea)" d="
M201.633 408.56
L192.881 413.613
L192.881 423.718
L201.633 428.771
L210.385 423.718
L210.385 413.613
z
" style="fill:#dcdcdc;stroke:#000000;stroke-width:0.25;"/>
   </g>
   <g id="patch_164">
    <path clip-path="url(#pb019acfbea)" d="
M210.385 393.401
L201.633 398.454
L201.633 408.56
L210.385 413.613
L219.137 408.56
L219.137 398.454
z
" style="fill:#dcdcdc;stroke:#000000;stroke-width:0.25;"/>
   </g>
   <g id="patch_165">
    <path clip-path="url(#pb019acfbea)" d="
M201.633 438.876
L192.881 443.929
L192.881 454.035
L201.633 459.088
L210.385 454.035
L210.385 443.929
z
" style="fill:#dcdcdc;stroke:#000000;stroke-width:0.25;"/>
   </g>
   <g id="patch_166">
    <path clip-path="url(#pb019acfbea)" d="
M210.385 454.035
L201.633 459.088
L201.633 469.193
L210.385 474.246
L219.137 469.193
L219.137 459.088
z
" style="fill:#dcdcdc;stroke:#000000;stroke-width:0.25;"/>
   </g>
   <g id="patch_167">
    <path clip-path="url(#pb019acfbea)" d="
M201.633 469.193
L192.881 474.246
L192.881 484.352
L201.633 489.404
L210.385 484.352
L210.385 474.246
z
" style="fill:#dcdcdc;stroke:#000000;stroke-width:0.25;"/>
   </g>
   <g id="patch_168">
    <path clip-path="url(#pb019acfbea)" d="
M184.13 469.193
L175.378 474.246
L175.378 484.352
L184.13 489.404
L192.881 484.352
L192.881 474.246
z
" style="fill:#dcdcdc;stroke:#000000;stroke-width:0.25;"/>
   </g>
   <g id="patch_169">
    <path clip-path="url(#pb019acfbea)" d="
M175.378 454.035
L166.626 459.088
L166.626 469.193
L175.378 474.246
L184.13 469.193
L184.13 459.088
z
" style="fill:#dcdcdc;stroke:#000000;stroke-width:0.25;"/>
   </g>
   <g id="patch_170">
    <path clip-path="url(#pb019acfbea)" d="
M184.13 438.876
L175.378 443.929
L175.378 454.035
L184.13 459.088
L192.881 454.035
L192.881 443.929
z
" style="fill:#dcdcdc;stroke:#000000;stroke-width:0.25;"/>
   </g>
   <g id="patch_171">
    <path clip-path="url(#pb019acfbea)" d="
M149.123 438.876
L140.371 443.929
L140.371 454.035
L149.123 459.088
L157.875 454.035
L157.875 443.929
z
" style="fill:#dcdcdc;stroke:#000000;stroke-width:0.25;"/>
   </g>
   <g id="patch_172">
    <path clip-path="url(#pb019acfbea)" d="
M157.875 454.035
L149.123 459.088
L149.123 469.193
L157.875 474.246
L166.626 469.193
L166.626 459.088
z
" style="fill:#dcdcdc;stroke:#000000;stroke-width:0.25;"/>
   </g>
   <g id="patch_173">
    <path clip-path="url(#pb019acfbea)" d="
M149.123 469.193
L140.371 474.246
L140.371 484.352
L149.123 489.404
L157.875 484.352
L157.875 474.246
z
" style="fill:#dcdcdc;stroke:#000000;stroke-width:0.25;"/>
   </g>
   <g id="patch_174">
    <path clip-path="url(#pb019acfbea)" d="
M131.62 469.193
L122.868 474.246
L122.868 484.352
L131.62 489.404
L140.371 484.352
L140.371 474.246
z
" style="fill:#dcdcdc;stroke:#000000;stroke-width:0.25;"/>
   </g>
   <g id="patch_175">
    <path clip-path="url(#pb019acfbea)" d="
M122.868 454.035
L114.116 459.088
L114.116 469.193
L122.868 474.246
L131.62 469.193
L131.62 459.088
z
" style="fill:#dcdcdc;stroke:#000000;stroke-width:0.25;"/>
   </g>
   <g id="patch_176">
    <path clip-path="url(#pb019acfbea)" d="
M131.62 438.876
L122.868 443.929
L122.868 454.035
L131.62 459.088
L140.371 454.035
L140.371 443.929
z
" style="fill:#dcdcdc;stroke:#000000;stroke-width:0.25;"/>
   </g>
   <g id="patch_177">
    <path clip-path="url(#pb019acfbea)" d="
M122.868 393.401
L114.116 398.454
L114.116 408.56
L122.868 413.613
L131.62 408.56
L131.62 398.454
z
" style="fill:#dcdcdc;stroke:#000000;stroke-width:0.25;"/>
   </g>
   <g id="patch_178">
    <path clip-path="url(#pb019acfbea)" d="
M131.62 408.56
L122.868 413.613
L122.868 423.718
L131.62 428.771
L140.371 423.718
L140.371 413.613
z
" style="fill:#dcdcdc;stroke:#000000;stroke-width:0.25;"/>
   </g>
   <g id="patch_179">
    <path clip-path="url(#pb019acfbea)" d="
M122.868 423.718
L114.116 428.771
L114.116 438.876
L122.868 443.929
L131.62 438.876
L131.62 428.771
z
" style="fill:#dcdcdc;stroke:#000000;stroke-width:0.25;"/>
   </g>
   <g id="patch_180">
    <path clip-path="url(#pb019acfbea)" d="
M105.365 423.718
L96.6129 428.771
L96.6129 438.876
L105.365 443.929
L114.116 438.876
L114.116 428.771
z
" style="fill:#dcdcdc;stroke:#000000;stroke-width:0.25;"/>
   </g>
   <g id="patch_181">
    <path clip-path="url(#pb019acfbea)" d="
M96.6129 408.56
L87.8612 413.613
L87.8612 423.718
L96.6129 428.771
L105.365 423.718
L105.365 413.613
z
" style="fill:#dcdcdc;stroke:#000000;stroke-width:0.25;"/>
   </g>
   <g id="patch_182">
    <path clip-path="url(#pb019acfbea)" d="
M105.365 393.401
L96.6129 398.454
L96.6129 408.56
L105.365 413.613
L114.116 408.56
L114.116 398.454
z
" style="fill:#dcdcdc;stroke:#000000;stroke-width:0.25;"/>
   </g>
   <g id="patch_183">
    <path clip-path="url(#pb019acfbea)" d="
M149.123 347.926
L140.371 352.979
L140.371 363.085
L149.123 368.137
L157.875 363.085
L157.875 352.979
z
" style="fill:#dcdcdc;stroke:#000000;stroke-width:0.25;"/>
   </g>
   <g id="patch_184">
    <path clip-path="url(#pb019acfbea)" d="
M157.875 363.085
L149.123 368.137
L149.123 378.243
L157.875 383.296
L166.626 378.243
L166.626 368.137
z
" style="fill:#dcdcdc;stroke:#000000;stroke-width:0.25;"/>
   </g>
   <g id="patch_185">
    <path clip-path="url(#pb019acfbea)" d="
M149.123 378.243
L140.371 383.296
L140.371 393.401
L149.123 398.454
L157.875 393.401
L157.875 383.296
z
" style="fill:#dcdcdc;stroke:#000000;stroke-width:0.25;"/>
   </g>
   <g id="patch_186">
    <path clip-path="url(#pb019acfbea)" d="
M131.62 378.243
L122.868 383.296
L122.868 393.401
L131.62 398.454
L140.371 393.401
L140.371 383.296
z
" style="fill:#dcdcdc;stroke:#000000;stroke-width:0.25;"/>
   </g>
   <g id="patch_187">
    <path clip-path="url(#pb019acfbea)" d="
M122.868 363.085
L114.116 368.137
L114.116 378.243
L122.868 383.296
L131.62 378.243
L131.62 368.137
z
" style="fill:#dcdcdc;stroke:#000000;stroke-width:0.25;"/>
   </g>
   <g id="patch_188">
    <path clip-path="url(#pb019acfbea)" d="
M131.62 347.926
L122.868 352.979
L122.868 363.085
L131.62 368.137
L140.371 363.085
L140.371 352.979
z
" style="fill:#dcdcdc;stroke:#000000;stroke-width:0.25;"/>
   </g>
   <g id="patch_189">
    <path clip-path="url(#pb019acfbea)" d="
M122.868 211.501
L114.116 216.554
L114.116 226.659
L122.868 231.712
L131.62 226.659
L131.62 216.554
z
" style="fill:#dcdcdc;stroke:#000000;stroke-width:0.25;"/>
   </g>
   <g id="patch_190">
    <path clip-path="url(#pb019acfbea)" d="
M131.62 226.659
L122.868 231.712
L122.868 241.818
L131.62 246.87
L140.371 241.818
L140.371 231.712
z
" style="fill:#dcdcdc;stroke:#000000;stroke-width:0.25;"/>
   </g>
   <g id="patch_191">
    <path clip-path="url(#pb019acfbea)" d="
M122.868 241.818
L114.116 246.87
L114.116 256.976
L122.868 262.029
L131.62 256.976
L131.62 246.87
z
" style="fill:#dcdcdc;stroke:#000000;stroke-width:0.25;"/>
   </g>
   <g id="patch_192">
    <path clip-path="url(#pb019acfbea)" d="
M105.365 241.818
L96.6129 246.87
L96.6129 256.976
L105.365 262.029
L114.116 256.976
L114.116 246.87
z
" style="fill:#dcdcdc;stroke:#000000;stroke-width:0.25;"/>
   </g>
   <g id="patch_193">
    <path clip-path="url(#pb019acfbea)" d="
M96.6129 226.659
L87.8612 231.712
L87.8612 241.818
L96.6129 246.87
L105.365 241.818
L105.365 231.712
z
" style="fill:#dcdcdc;stroke:#000000;stroke-width:0.25;"/>
   </g>
   <g id="patch_194">
    <path clip-path="url(#pb019acfbea)" d="
M105.365 211.501
L96.6129 216.554
L96.6129 226.659
L105.365 231.712
L114.116 226.659
L114.116 216.554
z
" style="fill:#dcdcdc;stroke:#000000;stroke-width:0.25;"/>
   </g>
   <g id="patch_195">
    <path clip-path="url(#pb019acfbea)" d="
M149.123 256.976
L140.371 262.029
L140.371 272.134
L149.123 277.187
L157.875 272.134
L157.875 262.029
z
" style="fill:#dcdcdc;stroke:#000000;stroke-width:0.25;"/>
   </g>
   <g id="patch_196">
    <path clip-path="url(#pb019acfbea)" d="
M157.875 272.134
L149.123 277.187
L149.123 287.293
L157.875 292.346
L166.626 287.293
L166.626 277.187
z
" style="fill:#dcdcdc;stroke:#000000;stroke-width:0.25;"/>
   </g>
   <g id="patch_197">
    <path clip-path="url(#pb019acfbea)" d="
M149.123 287.293
L140.371 292.346
L140.371 302.451
L149.123 307.504
L157.875 302.451
L157.875 292.346
z
" style="fill:#dcdcdc;stroke:#000000;stroke-width:0.25;"/>
   </g>
   <g id="patch_198">
    <path clip-path="url(#pb019acfbea)" d="
M131.62 287.293
L122.868 292.346
L122.868 302.451
L131.62 307.504
L140.371 302.451
L140.371 292.346
z
" style="fill:#dcdcdc;stroke:#000000;stroke-width:0.25;"/>
   </g>
   <g id="patch_199">
    <path clip-path="url(#pb019acfbea)" d="
M122.868 272.134
L114.116 277.187
L114.116 287.293
L122.868 292.346
L131.62 287.293
L131.62 277.187
z
" style="fill:#dcdcdc;stroke:#000000;stroke-width:0.25;"/>
   </g>
   <g id="patch_200">
    <path clip-path="url(#pb019acfbea)" d="
M131.62 256.976
L122.868 262.029
L122.868 272.134
L131.62 277.187
L140.371 272.134
L140.371 262.029
z
" style="fill:#dcdcdc;stroke:#000000;stroke-width:0.25;"/>
   </g>
   <g id="patch_201">
    <path clip-path="url(#pb019acfbea)" d="
M122.868 302.451
L114.116 307.504
L114.116 317.61
L122.868 322.662
L131.62 317.61
L131.62 307.504
z
" style="fill:#dcdcdc;stroke:#000000;stroke-width:0.25;"/>
   </g>
   <g id="patch_202">
    <path clip-path="url(#pb019acfbea)" d="
M131.62 317.61
L122.868 322.662
L122.868 332.768
L131.62 337.821
L140.371 332.768
L140.371 322.662
z
" style="fill:#dcdcdc;stroke:#000000;stroke-width:0.25;"/>
   </g>
   <g id="patch_203">
    <path clip-path="url(#pb019acfbea)" d="
M122.868 332.768
L114.116 337.821
L114.116 347.926
L122.868 352.979
L131.62 347.926
L131.62 337.821
z
" style="fill:#dcdcdc;stroke:#000000;stroke-width:0.25;"/>
   </g>
   <g id="patch_204">
    <path clip-path="url(#pb019acfbea)" d="
M105.365 332.768
L96.6129 337.821
L96.6129 347.926
L105.365 352.979
L114.116 347.926
L114.116 337.821
z
" style="fill:#dcdcdc;stroke:#000000;stroke-width:0.25;"/>
   </g>
   <g id="patch_205">
    <path clip-path="url(#pb019acfbea)" d="
M96.6129 317.61
L87.8612 322.662
L87.8612 332.768
L96.6129 337.821
L105.365 332.768
L105.365 322.662
z
" style="fill:#dcdcdc;stroke:#000000;stroke-width:0.25;"/>
   </g>
   <g id="patch_206">
    <path clip-path="url(#pb019acfbea)" d="
M105.365 302.451
L96.6129 307.504
L96.6129 317.61
L105.365 322.662
L114.116 317.61
L114.116 307.504
z
" style="fill:#dcdcdc;stroke:#000000;stroke-width:0.25;"/>
   </g>
   <g id="patch_207">
    <path clip-path="url(#pb019acfbea)" d="
M70.3579 302.451
L61.6062 307.504
L61.6062 317.61
L70.3579 322.662
L79.1095 317.61
L79.1095 307.504
z
" style="fill:#dcdcdc;stroke:#000000;stroke-width:0.25;"/>
   </g>
   <g id="patch_208">
    <path clip-path="url(#pb019acfbea)" d="
M79.1095 317.61
L70.3579 322.662
L70.3579 332.768
L79.1095 337.821
L87.8612 332.768
L87.8612 322.662
z
" style="fill:#dcdcdc;stroke:#000000;stroke-width:0.25;"/>
   </g>
   <g id="patch_209">
    <path clip-path="url(#pb019acfbea)" d="
M70.3579 332.768
L61.6062 337.821
L61.6062 347.926
L70.3579 352.979
L79.1095 347.926
L79.1095 337.821
z
" style="fill:#dcdcdc;stroke:#000000;stroke-width:0.25;"/>
   </g>
   <g id="patch_210">
    <path clip-path="url(#pb019acfbea)" d="
M52.8545 332.768
L44.1028 337.821
L44.1028 347.926
L52.8545 352.979
L61.6062 347.926
L61.6062 337.821
z
" style="fill:#dcdcdc;stroke:#000000;stroke-width:0.25;"/>
   </g>
   <g id="patch_211">
    <path clip-path="url(#pb019acfbea)" d="
M44.1028 317.61
L35.3511 322.662
L35.3511 332.768
L44.1028 337.821
L52.8545 332.768
L52.8545 322.662
z
" style="fill:#dcdcdc;stroke:#000000;stroke-width:0.25;"/>
   </g>
   <g id="patch_212">
    <path clip-path="url(#pb019acfbea)" d="
M52.8545 302.451
L44.1028 307.504
L44.1028 317.61
L52.8545 322.662
L61.6062 317.61
L61.6062 307.504
z
" style="fill:#dcdcdc;stroke:#000000;stroke-width:0.25;"/>
   </g>
   <g id="patch_213">
    <path clip-path="url(#pb019acfbea)" d="
M44.1028 256.976
L35.3511 262.029
L35.3511 272.134
L44.1028 277.187
L52.8545 272.134
L52.8545 262.029
z
" style="fill:#dcdcdc;stroke:#000000;stroke-width:0.25;"/>
   </g>
   <g id="patch_214">
    <path clip-path="url(#pb019acfbea)" d="
M52.8545 272.134
L44.1028 277.187
L44.1028 287.293
L52.8545 292.346
L61.6062 287.293
L61.6062 277.187
z
" style="fill:#dcdcdc;stroke:#000000;stroke-width:0.25;"/>
   </g>
   <g id="patch_215">
    <path clip-path="url(#pb019acfbea)" d="
M44.1028 287.293
L35.3511 292.346
L35.3511 302.451
L44.1028 307.504
L52.8545 302.451
L52.8545 292.346
z
" style="fill:#dcdcdc;stroke:#000000;stroke-width:0.25;"/>
   </g>
   <g id="patch_216">
    <path clip-path="url(#pb019acfbea)" d="
M26.5994 287.293
L17.8477 292.346
L17.8477 302.451
L26.5994 307.504
L35.3511 302.451
L35.3511 292.346
z
" style="fill:#dcdcdc;stroke:#000000;stroke-width:0.25;"/>
   </g>
   <g id="patch_217">
    <path clip-path="url(#pb019acfbea)" d="
M17.8477 272.134
L9.09604 277.187
L9.09604 287.293
L17.8477 292.346
L26.5994 287.293
L26.5994 277.187
z
" style="fill:#dcdcdc;stroke:#000000;stroke-width:0.25;"/>
   </g>
   <g id="patch_218">
    <path clip-path="url(#pb019acfbea)" d="
M26.5994 256.976
L17.8477 262.029
L17.8477 272.134
L26.5994 277.187
L35.3511 272.134
L35.3511 262.029
z
" style="fill:#dcdcdc;stroke:#000000;stroke-width:0.25;"/>
   </g>
   <g id="patch_219">
    <path clip-path="url(#pb019acfbea)" d="
M70.3579 211.501
L61.6062 216.554
L61.6062 226.659
L70.3579 231.712
L79.1095 226.659
L79.1095 216.554
z
" style="fill:#dcdcdc;stroke:#000000;stroke-width:0.25;"/>
   </g>
   <g id="patch_220">
    <path clip-path="url(#pb019acfbea)" d="
M79.1095 226.659
L70.3579 231.712
L70.3579 241.818
L79.1095 246.87
L87.8612 241.818
L87.8612 231.712
z
" style="fill:#dcdcdc;stroke:#000000;stroke-width:0.25;"/>
   </g>
   <g id="patch_221">
    <path clip-path="url(#pb019acfbea)" d="
M70.3579 241.818
L61.6062 246.87
L61.6062 256.976
L70.3579 262.029
L79.1095 256.976
L79.1095 246.87
z
" style="fill:#dcdcdc;stroke:#000000;stroke-width:0.25;"/>
   </g>
   <g id="patch_222">
    <path clip-path="url(#pb019acfbea)" d="
M52.8545 241.818
L44.1028 246.87
L44.1028 256.976
L52.8545 262.029
L61.6062 256.976
L61.6062 246.87
z
" style="fill:#dcdcdc;stroke:#000000;stroke-width:0.25;"/>
   </g>
   <g id="patch_223">
    <path clip-path="url(#pb019acfbea)" d="
M44.1028 226.659
L35.3511 231.712
L35.3511 241.818
L44.1028 246.87
L52.8545 241.818
L52.8545 231.712
z
" style="fill:#dcdcdc;stroke:#000000;stroke-width:0.25;"/>
   </g>
   <g id="patch_224">
    <path clip-path="url(#pb019acfbea)" d="
M52.8545 211.501
L44.1028 216.554
L44.1028 226.659
L52.8545 231.712
L61.6062 226.659
L61.6062 216.554
z
" style="fill:#dcdcdc;stroke:#000000;stroke-width:0.25;"/>
   </g>
   <g id="patch_225">
    <path clip-path="url(#pb019acfbea)" d="
M201.633 75.0756
L192.881 80.1284
L192.881 90.234
L201.633 95.2868
L210.385 90.234
L210.385 80.1284
z
" style="fill:#dcdcdc;stroke:#000000;stroke-width:0.25;"/>
   </g>
   <g id="patch_226">
    <path clip-path="url(#pb019acfbea)" d="
M210.385 90.234
L201.633 95.2868
L201.633 105.392
L210.385 110.445
L219.137 105.392
L219.137 95.2868
z
" style="fill:#dcdcdc;stroke:#000000;stroke-width:0.25;"/>
   </g>
   <g id="patch_227">
    <path clip-path="url(#pb019acfbea)" d="
M201.633 105.392
L192.881 110.445
L192.881 120.551
L201.633 125.604
L210.385 120.551
L210.385 110.445
z
" style="fill:#dcdcdc;stroke:#000000;stroke-width:0.25;"/>
   </g>
   <g id="patch_228">
    <path clip-path="url(#pb019acfbea)" d="
M184.13 105.392
L175.378 110.445
L175.378 120.551
L184.13 125.604
L192.881 120.551
L192.881 110.445
z
" style="fill:#dcdcdc;stroke:#000000;stroke-width:0.25;"/>
   </g>
   <g id="patch_229">
    <path clip-path="url(#pb019acfbea)" d="
M175.378 90.234
L166.626 95.2868
L166.626 105.392
L175.378 110.445
L184.13 105.392
L184.13 95.2868
z
" style="fill:#dcdcdc;stroke:#000000;stroke-width:0.25;"/>
   </g>
   <g id="patch_230">
    <path clip-path="url(#pb019acfbea)" d="
M184.13 75.0756
L175.378 80.1284
L175.378 90.234
L184.13 95.2868
L192.881 90.234
L192.881 80.1284
z
" style="fill:#dcdcdc;stroke:#000000;stroke-width:0.25;"/>
   </g>
   <g id="patch_231">
    <path clip-path="url(#pb019acfbea)" d="
M227.888 120.551
L219.137 125.604
L219.137 135.709
L227.888 140.762
L236.64 135.709
L236.64 125.604
z
" style="fill:#dcdcdc;stroke:#000000;stroke-width:0.25;"/>
   </g>
   <g id="patch_232">
    <path clip-path="url(#pb019acfbea)" d="
M236.64 135.709
L227.888 140.762
L227.888 150.867
L236.64 155.92
L245.392 150.867
L245.392 140.762
z
" style="fill:#dcdcdc;stroke:#000000;stroke-width:0.25;"/>
   </g>
   <g id="patch_233">
    <path clip-path="url(#pb019acfbea)" d="
M227.888 150.867
L219.137 155.92
L219.137 166.026
L227.888 171.079
L236.64 166.026
L236.64 155.92
z
" style="fill:#dcdcdc;stroke:#000000;stroke-width:0.25;"/>
   </g>
   <g id="patch_234">
    <path clip-path="url(#pb019acfbea)" d="
M210.385 150.867
L201.633 155.92
L201.633 166.026
L210.385 171.079
L219.137 166.026
L219.137 155.92
z
" style="fill:#dcdcdc;stroke:#000000;stroke-width:0.25;"/>
   </g>
   <g id="patch_235">
    <path clip-path="url(#pb019acfbea)" d="
M201.633 135.709
L192.881 140.762
L192.881 150.867
L201.633 155.92
L210.385 150.867
L210.385 140.762
z
" style="fill:#dcdcdc;stroke:#000000;stroke-width:0.25;"/>
   </g>
   <g id="patch_236">
    <path clip-path="url(#pb019acfbea)" d="
M210.385 120.551
L201.633 125.604
L201.633 135.709
L210.385 140.762
L219.137 135.709
L219.137 125.604
z
" style="fill:#dcdcdc;stroke:#000000;stroke-width:0.25;"/>
   </g>
   <g id="patch_237">
    <path clip-path="url(#pb019acfbea)" d="
M201.633 166.026
L192.881 171.079
L192.881 181.184
L201.633 186.237
L210.385 181.184
L210.385 171.079
z
" style="fill:#dcdcdc;stroke:#000000;stroke-width:0.25;"/>
   </g>
   <g id="patch_238">
    <path clip-path="url(#pb019acfbea)" d="
M210.385 181.184
L201.633 186.237
L201.633 196.343
L210.385 201.395
L219.137 196.343
L219.137 186.237
z
" style="fill:#dcdcdc;stroke:#000000;stroke-width:0.25;"/>
   </g>
   <g id="patch_239">
    <path clip-path="url(#pb019acfbea)" d="
M201.633 196.343
L192.881 201.395
L192.881 211.501
L201.633 216.554
L210.385 211.501
L210.385 201.395
z
" style="fill:#dcdcdc;stroke:#000000;stroke-width:0.25;"/>
   </g>
   <g id="patch_240">
    <path clip-path="url(#pb019acfbea)" d="
M184.13 196.343
L175.378 201.395
L175.378 211.501
L184.13 216.554
L192.881 211.501
L192.881 201.395
z
" style="fill:#dcdcdc;stroke:#000000;stroke-width:0.25;"/>
   </g>
   <g id="patch_241">
    <path clip-path="url(#pb019acfbea)" d="
M175.378 181.184
L166.626 186.237
L166.626 196.343
L175.378 201.395
L184.13 196.343
L184.13 186.237
z
" style="fill:#dcdcdc;stroke:#000000;stroke-width:0.25;"/>
   </g>
   <g id="patch_242">
    <path clip-path="url(#pb019acfbea)" d="
M184.13 166.026
L175.378 171.079
L175.378 181.184
L184.13 186.237
L192.881 181.184
L192.881 171.079
z
" style="fill:#dcdcdc;stroke:#000000;stroke-width:0.25;"/>
   </g>
   <g id="patch_243">
    <path clip-path="url(#pb019acfbea)" d="
M149.123 166.026
L140.371 171.079
L140.371 181.184
L149.123 186.237
L157.875 181.184
L157.875 171.079
z
" style="fill:#dcdcdc;stroke:#000000;stroke-width:0.25;"/>
   </g>
   <g id="patch_244">
    <path clip-path="url(#pb019acfbea)" d="
M157.875 181.184
L149.123 186.237
L149.123 196.343
L157.875 201.395
L166.626 196.343
L166.626 186.237
z
" style="fill:#dcdcdc;stroke:#000000;stroke-width:0.25;"/>
   </g>
   <g id="patch_245">
    <path clip-path="url(#pb019acfbea)" d="
M149.123 196.343
L140.371 201.395
L140.371 211.501
L149.123 216.554
L157.875 211.501
L157.875 201.395
z
" style="fill:#dcdcdc;stroke:#000000;stroke-width:0.25;"/>
   </g>
   <g id="patch_246">
    <path clip-path="url(#pb019acfbea)" d="
M131.62 196.343
L122.868 201.395
L122.868 211.501
L131.62 216.554
L140.371 211.501
L140.371 201.395
z
" style="fill:#dcdcdc;stroke:#000000;stroke-width:0.25;"/>
   </g>
   <g id="patch_247">
    <path clip-path="url(#pb019acfbea)" d="
M122.868 181.184
L114.116 186.237
L114.116 196.343
L122.868 201.395
L131.62 196.343
L131.62 186.237
z
" style="fill:#dcdcdc;stroke:#000000;stroke-width:0.25;"/>
   </g>
   <g id="patch_248">
    <path clip-path="url(#pb019acfbea)" d="
M131.62 166.026
L122.868 171.079
L122.868 181.184
L131.62 186.237
L140.371 181.184
L140.371 171.079
z
" style="fill:#dcdcdc;stroke:#000000;stroke-width:0.25;"/>
   </g>
   <g id="patch_249">
    <path clip-path="url(#pb019acfbea)" d="
M122.868 120.551
L114.116 125.604
L114.116 135.709
L122.868 140.762
L131.62 135.709
L131.62 125.604
z
" style="fill:#dcdcdc;stroke:#000000;stroke-width:0.25;"/>
   </g>
   <g id="patch_250">
    <path clip-path="url(#pb019acfbea)" d="
M131.62 135.709
L122.868 140.762
L122.868 150.867
L131.62 155.92
L140.371 150.867
L140.371 140.762
z
" style="fill:#dcdcdc;stroke:#000000;stroke-width:0.25;"/>
   </g>
   <g id="patch_251">
    <path clip-path="url(#pb019acfbea)" d="
M122.868 150.867
L114.116 155.92
L114.116 166.026
L122.868 171.079
L131.62 166.026
L131.62 155.92
z
" style="fill:#dcdcdc;stroke:#000000;stroke-width:0.25;"/>
   </g>
   <g id="patch_252">
    <path clip-path="url(#pb019acfbea)" d="
M105.365 150.867
L96.6129 155.92
L96.6129 166.026
L105.365 171.079
L114.116 166.026
L114.116 155.92
z
" style="fill:#dcdcdc;stroke:#000000;stroke-width:0.25;"/>
   </g>
   <g id="patch_253">
    <path clip-path="url(#pb019acfbea)" d="
M96.6129 135.709
L87.8612 140.762
L87.8612 150.867
L96.6129 155.92
L105.365 150.867
L105.365 140.762
z
" style="fill:#dcdcdc;stroke:#000000;stroke-width:0.25;"/>
   </g>
   <g id="patch_254">
    <path clip-path="url(#pb019acfbea)" d="
M105.365 120.551
L96.6129 125.604
L96.6129 135.709
L105.365 140.762
L114.116 135.709
L114.116 125.604
z
" style="fill:#dcdcdc;stroke:#000000;stroke-width:0.25;"/>
   </g>
   <g id="patch_255">
    <path clip-path="url(#pb019acfbea)" d="
M149.123 75.0756
L140.371 80.1284
L140.371 90.234
L149.123 95.2868
L157.875 90.234
L157.875 80.1284
z
" style="fill:#dcdcdc;stroke:#000000;stroke-width:0.25;"/>
   </g>
   <g id="patch_256">
    <path clip-path="url(#pb019acfbea)" d="
M157.875 90.234
L149.123 95.2868
L149.123 105.392
L157.875 110.445
L166.626 105.392
L166.626 95.2868
z
" style="fill:#dcdcdc;stroke:#000000;stroke-width:0.25;"/>
   </g>
   <g id="patch_257">
    <path clip-path="url(#pb019acfbea)" d="
M149.123 105.392
L140.371 110.445
L140.371 120.551
L149.123 125.604
L157.875 120.551
L157.875 110.445
z
" style="fill:#dcdcdc;stroke:#000000;stroke-width:0.25;"/>
   </g>
   <g id="patch_258">
    <path clip-path="url(#pb019acfbea)" d="
M131.62 105.392
L122.868 110.445
L122.868 120.551
L131.62 125.604
L140.371 120.551
L140.371 110.445
z
" style="fill:#dcdcdc;stroke:#000000;stroke-width:0.25;"/>
   </g>
   <g id="patch_259">
    <path clip-path="url(#pb019acfbea)" d="
M122.868 90.234
L114.116 95.2868
L114.116 105.392
L122.868 110.445
L131.62 105.392
L131.62 95.2868
z
" style="fill:#dcdcdc;stroke:#000000;stroke-width:0.25;"/>
   </g>
   <g id="patch_260">
    <path clip-path="url(#pb019acfbea)" d="
M131.62 75.0756
L122.868 80.1284
L122.868 90.234
L131.62 95.2868
L140.371 90.234
L140.371 80.1284
z
" style="fill:#dcdcdc;stroke:#000000;stroke-width:0.25;"/>
   </g>
   <g id="matplotlib.axis_1"/>
   <g id="matplotlib.axis_2"/>
  </g>
 </g>
 <defs>
  <clipPath id="pb019acfbea">
   <rect height="550.08" width="476.383254114" x="7.2" y="7.2"/>
  </clipPath>
 </defs>
</svg>
