<?xml version="1.0" encoding="utf-8" standalone="no"?>
<!DOCTYPE svg PUBLIC "-//W3C//DTD SVG 1.1//EN"
  "http://www.w3.org/Graphics/SVG/1.1/DTD/svg11.dtd">
<!-- Created with matplotlib (http://matplotlib.org/) -->
<svg height="564pt" version="1.1" viewBox="0 0 537 564" width="537pt" xmlns="http://www.w3.org/2000/svg" xmlns:xlink="http://www.w3.org/1999/xlink">
 <defs>
  <style type="text/css">
*{stroke-linecap:butt;stroke-linejoin:round;}
  </style>
 </defs>
 <g id="figure_1">
  <g id="patch_1">
   <path d="
M0 564.48
L537.557 564.48
L537.557 0
L0 0
z
" style="fill:none;"/>
  </g>
  <g id="axes_1">
   <g id="patch_2">
    <path clip-path="url(#p26abfc3274)" d="
M268.779 8.84366
L108.08 61.0577
L8.76321 197.756
L8.76321 366.724
L108.08 503.422
L268.779 555.636
L429.477 503.422
L528.794 366.724
L528.794 197.756
L429.477 61.0577
z
" style="fill:#bcd4e6;stroke:#000000;stroke-width:0.25;"/>
   </g>
   <g id="patch_3">
    <path clip-path="url(#p26abfc3274)" d="
M330.16 28.7877
L292.224 41.1137
L268.779 73.3838
L268.779 113.272
L292.224 145.542
L330.16 157.868
L368.096 145.542
L391.541 113.272
L391.541 73.3838
L368.096 41.1137
z
" style="fill:#eae2ac;stroke:#000000;stroke-width:0.25;"/>
   </g>
   <g id="patch_4">
    <path clip-path="url(#p26abfc3274)" d="
M429.477 100.946
L391.541 113.272
L368.096 145.542
L368.096 185.43
L391.541 217.7
L429.477 230.026
L467.413 217.7
L490.858 185.43
L490.858 145.542
L467.413 113.272
z
" style="fill:#eae2ac;stroke:#000000;stroke-width:0.25;"/>
   </g>
   <g id="patch_5">
    <path clip-path="url(#p26abfc3274)" d="
M467.413 217.7
L429.477 230.026
L406.031 262.296
L406.031 302.184
L429.477 334.454
L467.413 346.78
L505.348 334.454
L528.794 302.184
L528.794 262.296
L505.348 230.026
z
" style="fill:#eae2ac;stroke:#000000;stroke-width:0.25;"/>
   </g>
   <g id="patch_6">
    <path clip-path="url(#p26abfc3274)" d="
M429.477 334.454
L391.541 346.78
L368.096 379.05
L368.096 418.938
L391.541 451.208
L429.477 463.534
L467.413 451.208
L490.858 418.938
L490.858 379.05
L467.413 346.78
z
" style="fill:#eae2ac;stroke:#000000;stroke-width:0.25;"/>
   </g>
   <g id="patch_7">
    <path clip-path="url(#p26abfc3274)" d="
M330.16 406.612
L292.224 418.938
L268.779 451.208
L268.779 491.096
L292.224 523.366
L330.16 535.692
L368.096 523.366
L391.541 491.096
L391.541 451.208
L368.096 418.938
z
" style="fill:#eae2ac;stroke:#000000;stroke-width:0.25;"/>
   </g>
   <g id="patch_8">
    <path clip-path="url(#p26abfc3274)" d="
M207.397 406.612
L169.462 418.938
L146.016 451.208
L146.016 491.096
L169.462 523.366
L207.397 535.692
L245.333 523.366
L268.779 491.096
L268.779 451.208
L245.333 418.938
z
" style="fill:#eae2ac;stroke:#000000;stroke-width:0.25;"/>
   </g>
   <g id="patch_9">
    <path clip-path="url(#p26abfc3274)" d="
M108.08 334.454
L70.1445 346.78
L46.6989 379.05
L46.6989 418.938
L70.1445 451.208
L108.08 463.534
L146.016 451.208
L169.462 418.938
L169.462 379.05
L146.016 346.78
z
" style="fill:#eae2ac;stroke:#000000;stroke-width:0.25;"/>
   </g>
   <g id="patch_10">
    <path clip-path="url(#p26abfc3274)" d="
M70.1445 217.7
L32.2088 230.026
L8.76321 262.296
L8.76321 302.184
L32.2088 334.454
L70.1445 346.78
L108.08 334.454
L131.526 302.184
L131.526 262.296
L108.08 230.026
z
" style="fill:#eae2ac;stroke:#000000;stroke-width:0.25;"/>
   </g>
   <g id="patch_11">
    <path clip-path="url(#p26abfc3274)" d="
M108.08 100.946
L70.1445 113.272
L46.6989 145.542
L46.6989 185.43
L70.1445 217.7
L108.08 230.026
L146.016 217.7
L169.462 185.43
L169.462 145.542
L146.016 113.272
z
" style="fill:#eae2ac;stroke:#000000;stroke-width:0.25;"/>
   </g>
   <g id="patch_12">
    <path clip-path="url(#p26abfc3274)" d="
M207.397 28.7877
L169.462 41.1137
L146.016 73.3838
L146.016 113.272
L169.462 145.542
L207.397 157.868
L245.333 145.542
L268.779 113.272
L268.779 73.3838
L245.333 41.1137
z
" style="fill:#eae2ac;stroke:#000000;stroke-width:0.25;"/>
   </g>
   <g id="patch_13">
    <path clip-path="url(#p26abfc3274)" d="
M344.65 33.4958
L335.695 36.4056
L330.16 44.0235
L330.16 53.4398
L335.695 61.0577
L344.65 63.9675
L353.605 61.0577
L359.14 53.4398
L359.14 44.0235
L353.605 36.4056
z
" style="fill:#af0a0a;stroke:#000000;stroke-width:0.25;"/>
   </g>
   <g id="patch_14">
    <path clip-path="url(#p26abfc3274)" d="
M368.096 50.53
L359.14 53.4398
L353.605 61.0577
L353.605 70.474
L359.14 78.0919
L368.096 81.0017
L377.051 78.0919
L382.586 70.474
L382.586 61.0577
L377.051 53.4398
z
" style="fill:#af0a0a;stroke:#000000;stroke-width:0.25;"/>
   </g>
   <g id="patch_15">
    <path clip-path="url(#p26abfc3274)" d="
M377.051 78.0919
L368.096 81.0017
L362.561 88.6196
L362.561 98.0359
L368.096 105.654
L377.051 108.564
L386.006 105.654
L391.541 98.0359
L391.541 88.6196
L386.006 81.0017
z
" style="fill:#af0a0a;stroke:#000000;stroke-width:0.25;"/>
   </g>
   <g id="patch_16">
    <path clip-path="url(#p26abfc3274)" d="
M368.096 105.654
L359.14 108.564
L353.605 116.182
L353.605 125.598
L359.14 133.216
L368.096 136.126
L377.051 133.216
L382.586 125.598
L382.586 116.182
L377.051 108.564
z
" style="fill:#af0a0a;stroke:#000000;stroke-width:0.25;"/>
   </g>
   <g id="patch_17">
    <path clip-path="url(#p26abfc3274)" d="
M344.65 122.688
L335.695 125.598
L330.16 133.216
L330.16 142.632
L335.695 150.25
L344.65 153.16
L353.605 150.25
L359.14 142.632
L359.14 133.216
L353.605 125.598
z
" style="fill:#af0a0a;stroke:#000000;stroke-width:0.25;"/>
   </g>
   <g id="patch_18">
    <path clip-path="url(#p26abfc3274)" d="
M315.67 122.688
L306.714 125.598
L301.18 133.216
L301.18 142.632
L306.714 150.25
L315.67 153.16
L324.625 150.25
L330.16 142.632
L330.16 133.216
L324.625 125.598
z
" style="fill:#af0a0a;stroke:#000000;stroke-width:0.25;"/>
   </g>
   <g id="patch_19">
    <path clip-path="url(#p26abfc3274)" d="
M292.224 105.654
L283.269 108.564
L277.734 116.182
L277.734 125.598
L283.269 133.216
L292.224 136.126
L301.18 133.216
L306.714 125.598
L306.714 116.182
L301.18 108.564
z
" style="fill:#af0a0a;stroke:#000000;stroke-width:0.25;"/>
   </g>
   <g id="patch_20">
    <path clip-path="url(#p26abfc3274)" d="
M283.269 78.0919
L274.313 81.0017
L268.779 88.6196
L268.779 98.0359
L274.313 105.654
L283.269 108.564
L292.224 105.654
L297.759 98.0359
L297.759 88.6196
L292.224 81.0017
z
" style="fill:#af0a0a;stroke:#000000;stroke-width:0.25;"/>
   </g>
   <g id="patch_21">
    <path clip-path="url(#p26abfc3274)" d="
M292.224 50.53
L283.269 53.4398
L277.734 61.0577
L277.734 70.474
L283.269 78.0919
L292.224 81.0017
L301.18 78.0919
L306.714 70.474
L306.714 61.0577
L301.18 53.4398
z
" style="fill:#af0a0a;stroke:#000000;stroke-width:0.25;"/>
   </g>
   <g id="patch_22">
    <path clip-path="url(#p26abfc3274)" d="
M315.67 33.4958
L306.714 36.4056
L301.18 44.0235
L301.18 53.4398
L306.714 61.0577
L315.67 63.9675
L324.625 61.0577
L330.16 53.4398
L330.16 44.0235
L324.625 36.4056
z
" style="fill:#af0a0a;stroke:#000000;stroke-width:0.25;"/>
   </g>
   <g id="patch_23">
    <path clip-path="url(#p26abfc3274)" d="
M443.967 105.654
L435.012 108.564
L429.477 116.182
L429.477 125.598
L435.012 133.216
L443.967 136.126
L452.922 133.216
L458.457 125.598
L458.457 116.182
L452.922 108.564
z
" style="fill:#af0a0a;stroke:#000000;stroke-width:0.25;"/>
   </g>
   <g id="patch_24">
    <path clip-path="url(#p26abfc3274)" d="
M467.413 122.688
L458.457 125.598
L452.922 133.216
L452.922 142.632
L458.457 150.25
L467.413 153.16
L476.368 150.25
L481.903 142.632
L481.903 133.216
L476.368 125.598
z
" style="fill:#af0a0a;stroke:#000000;stroke-width:0.25;"/>
   </g>
   <g id="patch_25">
    <path clip-path="url(#p26abfc3274)" d="
M476.368 150.25
L467.413 153.16
L461.878 160.778
L461.878 170.194
L467.413 177.812
L476.368 180.722
L485.323 177.812
L490.858 170.194
L490.858 160.778
L485.323 153.16
z
" style="fill:#af0a0a;stroke:#000000;stroke-width:0.25;"/>
   </g>
   <g id="patch_26">
    <path clip-path="url(#p26abfc3274)" d="
M467.413 177.812
L458.457 180.722
L452.922 188.34
L452.922 197.756
L458.457 205.374
L467.413 208.284
L476.368 205.374
L481.903 197.756
L481.903 188.34
L476.368 180.722
z
" style="fill:#af0a0a;stroke:#000000;stroke-width:0.25;"/>
   </g>
   <g id="patch_27">
    <path clip-path="url(#p26abfc3274)" d="
M443.967 194.846
L435.012 197.756
L429.477 205.374
L429.477 214.79
L435.012 222.408
L443.967 225.318
L452.922 222.408
L458.457 214.79
L458.457 205.374
L452.922 197.756
z
" style="fill:#af0a0a;stroke:#000000;stroke-width:0.25;"/>
   </g>
   <g id="patch_28">
    <path clip-path="url(#p26abfc3274)" d="
M414.987 194.846
L406.031 197.756
L400.497 205.374
L400.497 214.79
L406.031 222.408
L414.987 225.318
L423.942 222.408
L429.477 214.79
L429.477 205.374
L423.942 197.756
z
" style="fill:#af0a0a;stroke:#000000;stroke-width:0.25;"/>
   </g>
   <g id="patch_29">
    <path clip-path="url(#p26abfc3274)" d="
M391.541 177.812
L382.586 180.722
L377.051 188.34
L377.051 197.756
L382.586 205.374
L391.541 208.284
L400.497 205.374
L406.031 197.756
L406.031 188.34
L400.497 180.722
z
" style="fill:#af0a0a;stroke:#000000;stroke-width:0.25;"/>
   </g>
   <g id="patch_30">
    <path clip-path="url(#p26abfc3274)" d="
M382.586 150.25
L373.63 153.16
L368.096 160.778
L368.096 170.194
L373.63 177.812
L382.586 180.722
L391.541 177.812
L397.076 170.194
L397.076 160.778
L391.541 153.16
z
" style="fill:#af0a0a;stroke:#000000;stroke-width:0.25;"/>
   </g>
   <g id="patch_31">
    <path clip-path="url(#p26abfc3274)" d="
M391.541 122.688
L382.586 125.598
L377.051 133.216
L377.051 142.632
L382.586 150.25
L391.541 153.16
L400.497 150.25
L406.031 142.632
L406.031 133.216
L400.497 125.598
z
" style="fill:#af0a0a;stroke:#000000;stroke-width:0.25;"/>
   </g>
   <g id="patch_32">
    <path clip-path="url(#p26abfc3274)" d="
M414.987 105.654
L406.031 108.564
L400.497 116.182
L400.497 125.598
L406.031 133.216
L414.987 136.126
L423.942 133.216
L429.477 125.598
L429.477 116.182
L423.942 108.564
z
" style="fill:#af0a0a;stroke:#000000;stroke-width:0.25;"/>
   </g>
   <g id="patch_33">
    <path clip-path="url(#p26abfc3274)" d="
M481.903 222.408
L472.947 225.318
L467.413 232.936
L467.413 242.352
L472.947 249.97
L481.903 252.88
L490.858 249.97
L496.393 242.352
L496.393 232.936
L490.858 225.318
z
" style="fill:#af0a0a;stroke:#000000;stroke-width:0.25;"/>
   </g>
   <g id="patch_34">
    <path clip-path="url(#p26abfc3274)" d="
M505.348 239.442
L496.393 242.352
L490.858 249.97
L490.858 259.386
L496.393 267.004
L505.348 269.914
L514.304 267.004
L519.839 259.386
L519.839 249.97
L514.304 242.352
z
" style="fill:#af0a0a;stroke:#000000;stroke-width:0.25;"/>
   </g>
   <g id="patch_35">
    <path clip-path="url(#p26abfc3274)" d="
M514.304 267.004
L505.348 269.914
L499.814 277.532
L499.814 286.948
L505.348 294.566
L514.304 297.476
L523.259 294.566
L528.794 286.948
L528.794 277.532
L523.259 269.914
z
" style="fill:#af0a0a;stroke:#000000;stroke-width:0.25;"/>
   </g>
   <g id="patch_36">
    <path clip-path="url(#p26abfc3274)" d="
M505.348 294.566
L496.393 297.476
L490.858 305.094
L490.858 314.51
L496.393 322.128
L505.348 325.038
L514.304 322.128
L519.839 314.51
L519.839 305.094
L514.304 297.476
z
" style="fill:#af0a0a;stroke:#000000;stroke-width:0.25;"/>
   </g>
   <g id="patch_37">
    <path clip-path="url(#p26abfc3274)" d="
M481.903 311.6
L472.947 314.51
L467.413 322.128
L467.413 331.544
L472.947 339.162
L481.903 342.072
L490.858 339.162
L496.393 331.544
L496.393 322.128
L490.858 314.51
z
" style="fill:#af0a0a;stroke:#000000;stroke-width:0.25;"/>
   </g>
   <g id="patch_38">
    <path clip-path="url(#p26abfc3274)" d="
M452.922 311.6
L443.967 314.51
L438.432 322.128
L438.432 331.544
L443.967 339.162
L452.922 342.072
L461.878 339.162
L467.413 331.544
L467.413 322.128
L461.878 314.51
z
" style="fill:#af0a0a;stroke:#000000;stroke-width:0.25;"/>
   </g>
   <g id="patch_39">
    <path clip-path="url(#p26abfc3274)" d="
M429.477 294.566
L420.522 297.476
L414.987 305.094
L414.987 314.51
L420.522 322.128
L429.477 325.038
L438.432 322.128
L443.967 314.51
L443.967 305.094
L438.432 297.476
z
" style="fill:#af0a0a;stroke:#000000;stroke-width:0.25;"/>
   </g>
   <g id="patch_40">
    <path clip-path="url(#p26abfc3274)" d="
M420.522 267.004
L411.566 269.914
L406.031 277.532
L406.031 286.948
L411.566 294.566
L420.522 297.476
L429.477 294.566
L435.012 286.948
L435.012 277.532
L429.477 269.914
z
" style="fill:#af0a0a;stroke:#000000;stroke-width:0.25;"/>
   </g>
   <g id="patch_41">
    <path clip-path="url(#p26abfc3274)" d="
M429.477 239.442
L420.522 242.352
L414.987 249.97
L414.987 259.386
L420.522 267.004
L429.477 269.914
L438.432 267.004
L443.967 259.386
L443.967 249.97
L438.432 242.352
z
" style="fill:#af0a0a;stroke:#000000;stroke-width:0.25;"/>
   </g>
   <g id="patch_42">
    <path clip-path="url(#p26abfc3274)" d="
M452.922 222.408
L443.967 225.318
L438.432 232.936
L438.432 242.352
L443.967 249.97
L452.922 252.88
L461.878 249.97
L467.413 242.352
L467.413 232.936
L461.878 225.318
z
" style="fill:#af0a0a;stroke:#000000;stroke-width:0.25;"/>
   </g>
   <g id="patch_43">
    <path clip-path="url(#p26abfc3274)" d="
M443.967 339.162
L435.012 342.072
L429.477 349.69
L429.477 359.106
L435.012 366.724
L443.967 369.634
L452.922 366.724
L458.457 359.106
L458.457 349.69
L452.922 342.072
z
" style="fill:#af0a0a;stroke:#000000;stroke-width:0.25;"/>
   </g>
   <g id="patch_44">
    <path clip-path="url(#p26abfc3274)" d="
M467.413 356.196
L458.457 359.106
L452.922 366.724
L452.922 376.14
L458.457 383.758
L467.413 386.668
L476.368 383.758
L481.903 376.14
L481.903 366.724
L476.368 359.106
z
" style="fill:#af0a0a;stroke:#000000;stroke-width:0.25;"/>
   </g>
   <g id="patch_45">
    <path clip-path="url(#p26abfc3274)" d="
M476.368 383.758
L467.413 386.668
L461.878 394.286
L461.878 403.702
L467.413 411.32
L476.368 414.23
L485.323 411.32
L490.858 403.702
L490.858 394.286
L485.323 386.668
z
" style="fill:#af0a0a;stroke:#000000;stroke-width:0.25;"/>
   </g>
   <g id="patch_46">
    <path clip-path="url(#p26abfc3274)" d="
M467.413 411.32
L458.457 414.23
L452.922 421.848
L452.922 431.264
L458.457 438.882
L467.413 441.792
L476.368 438.882
L481.903 431.264
L481.903 421.848
L476.368 414.23
z
" style="fill:#af0a0a;stroke:#000000;stroke-width:0.25;"/>
   </g>
   <g id="patch_47">
    <path clip-path="url(#p26abfc3274)" d="
M443.967 428.354
L435.012 431.264
L429.477 438.882
L429.477 448.298
L435.012 455.916
L443.967 458.826
L452.922 455.916
L458.457 448.298
L458.457 438.882
L452.922 431.264
z
" style="fill:#af0a0a;stroke:#000000;stroke-width:0.25;"/>
   </g>
   <g id="patch_48">
    <path clip-path="url(#p26abfc3274)" d="
M414.987 428.354
L406.031 431.264
L400.497 438.882
L400.497 448.298
L406.031 455.916
L414.987 458.826
L423.942 455.916
L429.477 448.298
L429.477 438.882
L423.942 431.264
z
" style="fill:#af0a0a;stroke:#000000;stroke-width:0.25;"/>
   </g>
   <g id="patch_49">
    <path clip-path="url(#p26abfc3274)" d="
M391.541 411.32
L382.586 414.23
L377.051 421.848
L377.051 431.264
L382.586 438.882
L391.541 441.792
L400.497 438.882
L406.031 431.264
L406.031 421.848
L400.497 414.23
z
" style="fill:#af0a0a;stroke:#000000;stroke-width:0.25;"/>
   </g>
   <g id="patch_50">
    <path clip-path="url(#p26abfc3274)" d="
M382.586 383.758
L373.63 386.668
L368.096 394.286
L368.096 403.702
L373.63 411.32
L382.586 414.23
L391.541 411.32
L397.076 403.702
L397.076 394.286
L391.541 386.668
z
" style="fill:#af0a0a;stroke:#000000;stroke-width:0.25;"/>
   </g>
   <g id="patch_51">
    <path clip-path="url(#p26abfc3274)" d="
M391.541 356.196
L382.586 359.106
L377.051 366.724
L377.051 376.14
L382.586 383.758
L391.541 386.668
L400.497 383.758
L406.031 376.14
L406.031 366.724
L400.497 359.106
z
" style="fill:#af0a0a;stroke:#000000;stroke-width:0.25;"/>
   </g>
   <g id="patch_52">
    <path clip-path="url(#p26abfc3274)" d="
M414.987 339.162
L406.031 342.072
L400.497 349.69
L400.497 359.106
L406.031 366.724
L414.987 369.634
L423.942 366.724
L429.477 359.106
L429.477 349.69
L423.942 342.072
z
" style="fill:#af0a0a;stroke:#000000;stroke-width:0.25;"/>
   </g>
   <g id="patch_53">
    <path clip-path="url(#p26abfc3274)" d="
M344.65 411.32
L335.695 414.23
L330.16 421.848
L330.16 431.264
L335.695 438.882
L344.65 441.792
L353.605 438.882
L359.14 431.264
L359.14 421.848
L353.605 414.23
z
" style="fill:#af0a0a;stroke:#000000;stroke-width:0.25;"/>
   </g>
   <g id="patch_54">
    <path clip-path="url(#p26abfc3274)" d="
M368.096 428.354
L359.14 431.264
L353.605 438.882
L353.605 448.298
L359.14 455.916
L368.096 458.826
L377.051 455.916
L382.586 448.298
L382.586 438.882
L377.051 431.264
z
" style="fill:#af0a0a;stroke:#000000;stroke-width:0.25;"/>
   </g>
   <g id="patch_55">
    <path clip-path="url(#p26abfc3274)" d="
M377.051 455.916
L368.096 458.826
L362.561 466.444
L362.561 475.86
L368.096 483.478
L377.051 486.388
L386.006 483.478
L391.541 475.86
L391.541 466.444
L386.006 458.826
z
" style="fill:#af0a0a;stroke:#000000;stroke-width:0.25;"/>
   </g>
   <g id="patch_56">
    <path clip-path="url(#p26abfc3274)" d="
M368.096 483.478
L359.14 486.388
L353.605 494.006
L353.605 503.422
L359.14 511.04
L368.096 513.95
L377.051 511.04
L382.586 503.422
L382.586 494.006
L377.051 486.388
z
" style="fill:#af0a0a;stroke:#000000;stroke-width:0.25;"/>
   </g>
   <g id="patch_57">
    <path clip-path="url(#p26abfc3274)" d="
M344.65 500.512
L335.695 503.422
L330.16 511.04
L330.16 520.456
L335.695 528.074
L344.65 530.984
L353.605 528.074
L359.14 520.456
L359.14 511.04
L353.605 503.422
z
" style="fill:#af0a0a;stroke:#000000;stroke-width:0.25;"/>
   </g>
   <g id="patch_58">
    <path clip-path="url(#p26abfc3274)" d="
M315.67 500.512
L306.714 503.422
L301.18 511.04
L301.18 520.456
L306.714 528.074
L315.67 530.984
L324.625 528.074
L330.16 520.456
L330.16 511.04
L324.625 503.422
z
" style="fill:#af0a0a;stroke:#000000;stroke-width:0.25;"/>
   </g>
   <g id="patch_59">
    <path clip-path="url(#p26abfc3274)" d="
M292.224 483.478
L283.269 486.388
L277.734 494.006
L277.734 503.422
L283.269 511.04
L292.224 513.95
L301.18 511.04
L306.714 503.422
L306.714 494.006
L301.18 486.388
z
" style="fill:#af0a0a;stroke:#000000;stroke-width:0.25;"/>
   </g>
   <g id="patch_60">
    <path clip-path="url(#p26abfc3274)" d="
M283.269 455.916
L274.313 458.826
L268.779 466.444
L268.779 475.86
L274.313 483.478
L283.269 486.388
L292.224 483.478
L297.759 475.86
L297.759 466.444
L292.224 458.826
z
" style="fill:#af0a0a;stroke:#000000;stroke-width:0.25;"/>
   </g>
   <g id="patch_61">
    <path clip-path="url(#p26abfc3274)" d="
M292.224 428.354
L283.269 431.264
L277.734 438.882
L277.734 448.298
L283.269 455.916
L292.224 458.826
L301.18 455.916
L306.714 448.298
L306.714 438.882
L301.18 431.264
z
" style="fill:#af0a0a;stroke:#000000;stroke-width:0.25;"/>
   </g>
   <g id="patch_62">
    <path clip-path="url(#p26abfc3274)" d="
M315.67 411.32
L306.714 414.23
L301.18 421.848
L301.18 431.264
L306.714 438.882
L315.67 441.792
L324.625 438.882
L330.16 431.264
L330.16 421.848
L324.625 414.23
z
" style="fill:#af0a0a;stroke:#000000;stroke-width:0.25;"/>
   </g>
   <g id="patch_63">
    <path clip-path="url(#p26abfc3274)" d="
M221.887 411.32
L212.932 414.23
L207.397 421.848
L207.397 431.264
L212.932 438.882
L221.887 441.792
L230.843 438.882
L236.378 431.264
L236.378 421.848
L230.843 414.23
z
" style="fill:#af0a0a;stroke:#000000;stroke-width:0.25;"/>
   </g>
   <g id="patch_64">
    <path clip-path="url(#p26abfc3274)" d="
M245.333 428.354
L236.378 431.264
L230.843 438.882
L230.843 448.298
L236.378 455.916
L245.333 458.826
L254.288 455.916
L259.823 448.298
L259.823 438.882
L254.288 431.264
z
" style="fill:#af0a0a;stroke:#000000;stroke-width:0.25;"/>
   </g>
   <g id="patch_65">
    <path clip-path="url(#p26abfc3274)" d="
M254.288 455.916
L245.333 458.826
L239.798 466.444
L239.798 475.86
L245.333 483.478
L254.288 486.388
L263.244 483.478
L268.779 475.86
L268.779 466.444
L263.244 458.826
z
" style="fill:#af0a0a;stroke:#000000;stroke-width:0.25;"/>
   </g>
   <g id="patch_66">
    <path clip-path="url(#p26abfc3274)" d="
M245.333 483.478
L236.378 486.388
L230.843 494.006
L230.843 503.422
L236.378 511.04
L245.333 513.95
L254.288 511.04
L259.823 503.422
L259.823 494.006
L254.288 486.388
z
" style="fill:#af0a0a;stroke:#000000;stroke-width:0.25;"/>
   </g>
   <g id="patch_67">
    <path clip-path="url(#p26abfc3274)" d="
M221.887 500.512
L212.932 503.422
L207.397 511.04
L207.397 520.456
L212.932 528.074
L221.887 530.984
L230.843 528.074
L236.378 520.456
L236.378 511.04
L230.843 503.422
z
" style="fill:#af0a0a;stroke:#000000;stroke-width:0.25;"/>
   </g>
   <g id="patch_68">
    <path clip-path="url(#p26abfc3274)" d="
M192.907 500.512
L183.952 503.422
L178.417 511.04
L178.417 520.456
L183.952 528.074
L192.907 530.984
L201.863 528.074
L207.397 520.456
L207.397 511.04
L201.863 503.422
z
" style="fill:#af0a0a;stroke:#000000;stroke-width:0.25;"/>
   </g>
   <g id="patch_69">
    <path clip-path="url(#p26abfc3274)" d="
M169.462 483.478
L160.506 486.388
L154.971 494.006
L154.971 503.422
L160.506 511.04
L169.462 513.95
L178.417 511.04
L183.952 503.422
L183.952 494.006
L178.417 486.388
z
" style="fill:#af0a0a;stroke:#000000;stroke-width:0.25;"/>
   </g>
   <g id="patch_70">
    <path clip-path="url(#p26abfc3274)" d="
M160.506 455.916
L151.551 458.826
L146.016 466.444
L146.016 475.86
L151.551 483.478
L160.506 486.388
L169.462 483.478
L174.996 475.86
L174.996 466.444
L169.462 458.826
z
" style="fill:#af0a0a;stroke:#000000;stroke-width:0.25;"/>
   </g>
   <g id="patch_71">
    <path clip-path="url(#p26abfc3274)" d="
M169.462 428.354
L160.506 431.264
L154.971 438.882
L154.971 448.298
L160.506 455.916
L169.462 458.826
L178.417 455.916
L183.952 448.298
L183.952 438.882
L178.417 431.264
z
" style="fill:#af0a0a;stroke:#000000;stroke-width:0.25;"/>
   </g>
   <g id="patch_72">
    <path clip-path="url(#p26abfc3274)" d="
M192.907 411.32
L183.952 414.23
L178.417 421.848
L178.417 431.264
L183.952 438.882
L192.907 441.792
L201.863 438.882
L207.397 431.264
L207.397 421.848
L201.863 414.23
z
" style="fill:#af0a0a;stroke:#000000;stroke-width:0.25;"/>
   </g>
   <g id="patch_73">
    <path clip-path="url(#p26abfc3274)" d="
M122.57 339.162
L113.615 342.072
L108.08 349.69
L108.08 359.106
L113.615 366.724
L122.57 369.634
L131.526 366.724
L137.061 359.106
L137.061 349.69
L131.526 342.072
z
" style="fill:#af0a0a;stroke:#000000;stroke-width:0.25;"/>
   </g>
   <g id="patch_74">
    <path clip-path="url(#p26abfc3274)" d="
M146.016 356.196
L137.061 359.106
L131.526 366.724
L131.526 376.14
L137.061 383.758
L146.016 386.668
L154.971 383.758
L160.506 376.14
L160.506 366.724
L154.971 359.106
z
" style="fill:#af0a0a;stroke:#000000;stroke-width:0.25;"/>
   </g>
   <g id="patch_75">
    <path clip-path="url(#p26abfc3274)" d="
M154.971 383.758
L146.016 386.668
L140.481 394.286
L140.481 403.702
L146.016 411.32
L154.971 414.23
L163.927 411.32
L169.462 403.702
L169.462 394.286
L163.927 386.668
z
" style="fill:#af0a0a;stroke:#000000;stroke-width:0.25;"/>
   </g>
   <g id="patch_76">
    <path clip-path="url(#p26abfc3274)" d="
M146.016 411.32
L137.061 414.23
L131.526 421.848
L131.526 431.264
L137.061 438.882
L146.016 441.792
L154.971 438.882
L160.506 431.264
L160.506 421.848
L154.971 414.23
z
" style="fill:#af0a0a;stroke:#000000;stroke-width:0.25;"/>
   </g>
   <g id="patch_77">
    <path clip-path="url(#p26abfc3274)" d="
M122.57 428.354
L113.615 431.264
L108.08 438.882
L108.08 448.298
L113.615 455.916
L122.57 458.826
L131.526 455.916
L137.061 448.298
L137.061 438.882
L131.526 431.264
z
" style="fill:#af0a0a;stroke:#000000;stroke-width:0.25;"/>
   </g>
   <g id="patch_78">
    <path clip-path="url(#p26abfc3274)" d="
M93.5901 428.354
L84.6347 431.264
L79.0999 438.882
L79.0999 448.298
L84.6347 455.916
L93.5901 458.826
L102.545 455.916
L108.08 448.298
L108.08 438.882
L102.545 431.264
z
" style="fill:#af0a0a;stroke:#000000;stroke-width:0.25;"/>
   </g>
   <g id="patch_79">
    <path clip-path="url(#p26abfc3274)" d="
M70.1445 411.32
L61.1891 414.23
L55.6544 421.848
L55.6544 431.264
L61.1891 438.882
L70.1445 441.792
L79.0999 438.882
L84.6347 431.264
L84.6347 421.848
L79.0999 414.23
z
" style="fill:#af0a0a;stroke:#000000;stroke-width:0.25;"/>
   </g>
   <g id="patch_80">
    <path clip-path="url(#p26abfc3274)" d="
M61.1891 383.758
L52.2337 386.668
L46.6989 394.286
L46.6989 403.702
L52.2337 411.32
L61.1891 414.23
L70.1445 411.32
L75.6793 403.702
L75.6793 394.286
L70.1445 386.668
z
" style="fill:#af0a0a;stroke:#000000;stroke-width:0.25;"/>
   </g>
   <g id="patch_81">
    <path clip-path="url(#p26abfc3274)" d="
M70.1445 356.196
L61.1891 359.106
L55.6544 366.724
L55.6544 376.14
L61.1891 383.758
L70.1445 386.668
L79.0999 383.758
L84.6347 376.14
L84.6347 366.724
L79.0999 359.106
z
" style="fill:#af0a0a;stroke:#000000;stroke-width:0.25;"/>
   </g>
   <g id="patch_82">
    <path clip-path="url(#p26abfc3274)" d="
M93.5901 339.162
L84.6347 342.072
L79.0999 349.69
L79.0999 359.106
L84.6347 366.724
L93.5901 369.634
L102.545 366.724
L108.08 359.106
L108.08 349.69
L102.545 342.072
z
" style="fill:#af0a0a;stroke:#000000;stroke-width:0.25;"/>
   </g>
   <g id="patch_83">
    <path clip-path="url(#p26abfc3274)" d="
M84.6347 222.408
L75.6793 225.318
L70.1445 232.936
L70.1445 242.352
L75.6793 249.97
L84.6347 252.88
L93.5901 249.97
L99.1248 242.352
L99.1248 232.936
L93.5901 225.318
z
" style="fill:#af0a0a;stroke:#000000;stroke-width:0.25;"/>
   </g>
   <g id="patch_84">
    <path clip-path="url(#p26abfc3274)" d="
M108.08 239.442
L99.1248 242.352
L93.5901 249.97
L93.5901 259.386
L99.1248 267.004
L108.08 269.914
L117.036 267.004
L122.57 259.386
L122.57 249.97
L117.036 242.352
z
" style="fill:#af0a0a;stroke:#000000;stroke-width:0.25;"/>
   </g>
   <g id="patch_85">
    <path clip-path="url(#p26abfc3274)" d="
M117.036 267.004
L108.08 269.914
L102.545 277.532
L102.545 286.948
L108.08 294.566
L117.036 297.476
L125.991 294.566
L131.526 286.948
L131.526 277.532
L125.991 269.914
z
" style="fill:#af0a0a;stroke:#000000;stroke-width:0.25;"/>
   </g>
   <g id="patch_86">
    <path clip-path="url(#p26abfc3274)" d="
M108.08 294.566
L99.1248 297.476
L93.5901 305.094
L93.5901 314.51
L99.1248 322.128
L108.08 325.038
L117.036 322.128
L122.57 314.51
L122.57 305.094
L117.036 297.476
z
" style="fill:#af0a0a;stroke:#000000;stroke-width:0.25;"/>
   </g>
   <g id="patch_87">
    <path clip-path="url(#p26abfc3274)" d="
M84.6347 311.6
L75.6793 314.51
L70.1445 322.128
L70.1445 331.544
L75.6793 339.162
L84.6347 342.072
L93.5901 339.162
L99.1248 331.544
L99.1248 322.128
L93.5901 314.51
z
" style="fill:#af0a0a;stroke:#000000;stroke-width:0.25;"/>
   </g>
   <g id="patch_88">
    <path clip-path="url(#p26abfc3274)" d="
M55.6544 311.6
L46.6989 314.51
L41.1642 322.128
L41.1642 331.544
L46.6989 339.162
L55.6544 342.072
L64.6098 339.162
L70.1445 331.544
L70.1445 322.128
L64.6098 314.51
z
" style="fill:#af0a0a;stroke:#000000;stroke-width:0.25;"/>
   </g>
   <g id="patch_89">
    <path clip-path="url(#p26abfc3274)" d="
M32.2088 294.566
L23.2534 297.476
L17.7186 305.094
L17.7186 314.51
L23.2534 322.128
L32.2088 325.038
L41.1642 322.128
L46.6989 314.51
L46.6989 305.094
L41.1642 297.476
z
" style="fill:#af0a0a;stroke:#000000;stroke-width:0.25;"/>
   </g>
   <g id="patch_90">
    <path clip-path="url(#p26abfc3274)" d="
M23.2534 267.004
L14.298 269.914
L8.76321 277.532
L8.76321 286.948
L14.298 294.566
L23.2534 297.476
L32.2088 294.566
L37.7435 286.948
L37.7435 277.532
L32.2088 269.914
z
" style="fill:#af0a0a;stroke:#000000;stroke-width:0.25;"/>
   </g>
   <g id="patch_91">
    <path clip-path="url(#p26abfc3274)" d="
M32.2088 239.442
L23.2534 242.352
L17.7186 249.97
L17.7186 259.386
L23.2534 267.004
L32.2088 269.914
L41.1642 267.004
L46.6989 259.386
L46.6989 249.97
L41.1642 242.352
z
" style="fill:#af0a0a;stroke:#000000;stroke-width:0.25;"/>
   </g>
   <g id="patch_92">
    <path clip-path="url(#p26abfc3274)" d="
M55.6544 222.408
L46.6989 225.318
L41.1642 232.936
L41.1642 242.352
L46.6989 249.97
L55.6544 252.88
L64.6098 249.97
L70.1445 242.352
L70.1445 232.936
L64.6098 225.318
z
" style="fill:#af0a0a;stroke:#000000;stroke-width:0.25;"/>
   </g>
   <g id="patch_93">
    <path clip-path="url(#p26abfc3274)" d="
M122.57 105.654
L113.615 108.564
L108.08 116.182
L108.08 125.598
L113.615 133.216
L122.57 136.126
L131.526 133.216
L137.061 125.598
L137.061 116.182
L131.526 108.564
z
" style="fill:#af0a0a;stroke:#000000;stroke-width:0.25;"/>
   </g>
   <g id="patch_94">
    <path clip-path="url(#p26abfc3274)" d="
M146.016 122.688
L137.061 125.598
L131.526 133.216
L131.526 142.632
L137.061 150.25
L146.016 153.16
L154.971 150.25
L160.506 142.632
L160.506 133.216
L154.971 125.598
z
" style="fill:#af0a0a;stroke:#000000;stroke-width:0.25;"/>
   </g>
   <g id="patch_95">
    <path clip-path="url(#p26abfc3274)" d="
M154.971 150.25
L146.016 153.16
L140.481 160.778
L140.481 170.194
L146.016 177.812
L154.971 180.722
L163.927 177.812
L169.462 170.194
L169.462 160.778
L163.927 153.16
z
" style="fill:#af0a0a;stroke:#000000;stroke-width:0.25;"/>
   </g>
   <g id="patch_96">
    <path clip-path="url(#p26abfc3274)" d="
M146.016 177.812
L137.061 180.722
L131.526 188.34
L131.526 197.756
L137.061 205.374
L146.016 208.284
L154.971 205.374
L160.506 197.756
L160.506 188.34
L154.971 180.722
z
" style="fill:#af0a0a;stroke:#000000;stroke-width:0.25;"/>
   </g>
   <g id="patch_97">
    <path clip-path="url(#p26abfc3274)" d="
M122.57 194.846
L113.615 197.756
L108.08 205.374
L108.08 214.79
L113.615 222.408
L122.57 225.318
L131.526 222.408
L137.061 214.79
L137.061 205.374
L131.526 197.756
z
" style="fill:#af0a0a;stroke:#000000;stroke-width:0.25;"/>
   </g>
   <g id="patch_98">
    <path clip-path="url(#p26abfc3274)" d="
M93.5901 194.846
L84.6347 197.756
L79.0999 205.374
L79.0999 214.79
L84.6347 222.408
L93.5901 225.318
L102.545 222.408
L108.08 214.79
L108.08 205.374
L102.545 197.756
z
" style="fill:#af0a0a;stroke:#000000;stroke-width:0.25;"/>
   </g>
   <g id="patch_99">
    <path clip-path="url(#p26abfc3274)" d="
M70.1445 177.812
L61.1891 180.722
L55.6544 188.34
L55.6544 197.756
L61.1891 205.374
L70.1445 208.284
L79.0999 205.374
L84.6347 197.756
L84.6347 188.34
L79.0999 180.722
z
" style="fill:#af0a0a;stroke:#000000;stroke-width:0.25;"/>
   </g>
   <g id="patch_100">
    <path clip-path="url(#p26abfc3274)" d="
M61.1891 150.25
L52.2337 153.16
L46.6989 160.778
L46.6989 170.194
L52.2337 177.812
L61.1891 180.722
L70.1445 177.812
L75.6793 170.194
L75.6793 160.778
L70.1445 153.16
z
" style="fill:#af0a0a;stroke:#000000;stroke-width:0.25;"/>
   </g>
   <g id="patch_101">
    <path clip-path="url(#p26abfc3274)" d="
M70.1445 122.688
L61.1891 125.598
L55.6544 133.216
L55.6544 142.632
L61.1891 150.25
L70.1445 153.16
L79.0999 150.25
L84.6347 142.632
L84.6347 133.216
L79.0999 125.598
z
" style="fill:#af0a0a;stroke:#000000;stroke-width:0.25;"/>
   </g>
   <g id="patch_102">
    <path clip-path="url(#p26abfc3274)" d="
M93.5901 105.654
L84.6347 108.564
L79.0999 116.182
L79.0999 125.598
L84.6347 133.216
L93.5901 136.126
L102.545 133.216
L108.08 125.598
L108.08 116.182
L102.545 108.564
z
" style="fill:#af0a0a;stroke:#000000;stroke-width:0.25;"/>
   </g>
   <g id="patch_103">
    <path clip-path="url(#p26abfc3274)" d="
M221.887 33.4958
L212.932 36.4056
L207.397 44.0235
L207.397 53.4398
L212.932 61.0577
L221.887 63.9675
L230.843 61.0577
L236.378 53.4398
L236.378 44.0235
L230.843 36.4056
z
" style="fill:#af0a0a;stroke:#000000;stroke-width:0.25;"/>
   </g>
   <g id="patch_104">
    <path clip-path="url(#p26abfc3274)" d="
M245.333 50.53
L236.378 53.4398
L230.843 61.0577
L230.843 70.474
L236.378 78.0919
L245.333 81.0017
L254.288 78.0919
L259.823 70.474
L259.823 61.0577
L254.288 53.4398
z
" style="fill:#af0a0a;stroke:#000000;stroke-width:0.25;"/>
   </g>
   <g id="patch_105">
    <path clip-path="url(#p26abfc3274)" d="
M254.288 78.0919
L245.333 81.0017
L239.798 88.6196
L239.798 98.0359
L245.333 105.654
L254.288 108.564
L263.244 105.654
L268.779 98.0359
L268.779 88.6196
L263.244 81.0017
z
" style="fill:#af0a0a;stroke:#000000;stroke-width:0.25;"/>
   </g>
   <g id="patch_106">
    <path clip-path="url(#p26abfc3274)" d="
M245.333 105.654
L236.378 108.564
L230.843 116.182
L230.843 125.598
L236.378 133.216
L245.333 136.126
L254.288 133.216
L259.823 125.598
L259.823 116.182
L254.288 108.564
z
" style="fill:#af0a0a;stroke:#000000;stroke-width:0.25;"/>
   </g>
   <g id="patch_107">
    <path clip-path="url(#p26abfc3274)" d="
M221.887 122.688
L212.932 125.598
L207.397 133.216
L207.397 142.632
L212.932 150.25
L221.887 153.16
L230.843 150.25
L236.378 142.632
L236.378 133.216
L230.843 125.598
z
" style="fill:#af0a0a;stroke:#000000;stroke-width:0.25;"/>
   </g>
   <g id="patch_108">
    <path clip-path="url(#p26abfc3274)" d="
M192.907 122.688
L183.952 125.598
L178.417 133.216
L178.417 142.632
L183.952 150.25
L192.907 153.16
L201.863 150.25
L207.397 142.632
L207.397 133.216
L201.863 125.598
z
" style="fill:#af0a0a;stroke:#000000;stroke-width:0.25;"/>
   </g>
   <g id="patch_109">
    <path clip-path="url(#p26abfc3274)" d="
M169.462 105.654
L160.506 108.564
L154.971 116.182
L154.971 125.598
L160.506 133.216
L169.462 136.126
L178.417 133.216
L183.952 125.598
L183.952 116.182
L178.417 108.564
z
" style="fill:#af0a0a;stroke:#000000;stroke-width:0.25;"/>
   </g>
   <g id="patch_110">
    <path clip-path="url(#p26abfc3274)" d="
M160.506 78.0919
L151.551 81.0017
L146.016 88.6196
L146.016 98.0359
L151.551 105.654
L160.506 108.564
L169.462 105.654
L174.996 98.0359
L174.996 88.6196
L169.462 81.0017
z
" style="fill:#af0a0a;stroke:#000000;stroke-width:0.25;"/>
   </g>
   <g id="patch_111">
    <path clip-path="url(#p26abfc3274)" d="
M169.462 50.53
L160.506 53.4398
L154.971 61.0577
L154.971 70.474
L160.506 78.0919
L169.462 81.0017
L178.417 78.0919
L183.952 70.474
L183.952 61.0577
L178.417 53.4398
z
" style="fill:#af0a0a;stroke:#000000;stroke-width:0.25;"/>
   </g>
   <g id="patch_112">
    <path clip-path="url(#p26abfc3274)" d="
M192.907 33.4958
L183.952 36.4056
L178.417 44.0235
L178.417 53.4398
L183.952 61.0577
L192.907 63.9675
L201.863 61.0577
L207.397 53.4398
L207.397 44.0235
L201.863 36.4056
z
" style="fill:#af0a0a;stroke:#000000;stroke-width:0.25;"/>
   </g>
   <g id="matplotlib.axis_1"/>
   <g id="matplotlib.axis_2"/>
  </g>
 </g>
 <defs>
  <clipPath id="p26abfc3274">
   <rect height="550.08" width="523.157168484" x="7.2" y="7.2"/>
  </clipPath>
 </defs>
</svg>
