<?xml version="1.0" encoding="utf-8" standalone="no"?>
<!DOCTYPE svg PUBLIC "-//W3C//DTD SVG 1.1//EN"
  "http://www.w3.org/Graphics/SVG/1.1/DTD/svg11.dtd">
<!-- Created with matplotlib (http://matplotlib.org/) -->
<svg height="550pt" version="1.1" viewBox="0 0 564 550" width="564pt" xmlns="http://www.w3.org/2000/svg" xmlns:xlink="http://www.w3.org/1999/xlink">
 <defs>
  <style type="text/css">
*{stroke-linecap:butt;stroke-linejoin:round;}
  </style>
 </defs>
 <g id="figure_1">
  <g id="patch_1">
   <path d="
M0 550.688
L564.48 550.688
L564.48 0
L0 0
z
" style="fill:none;"/>
  </g>
  <g id="axes_1">
   <g id="patch_2">
    <path clip-path="url(#pc813c8d37d)" d="
M282.24 8.26937
L62.5547 114.064
L8.29687 351.783
L160.324 542.419
L404.156 542.419
L556.183 351.783
L501.925 114.064
z
" style="fill:#bcd4e6;stroke:#000000;stroke-width:0.25;"/>
   </g>
   <g id="patch_3">
    <path clip-path="url(#pc813c8d37d)" d="
M360.645 46.0271
L297.769 76.3065
L282.24 144.344
L325.751 198.905
L395.538 198.905
L439.05 144.344
L423.521 76.3065
z
" style="fill:#eae2ac;stroke:#000000;stroke-width:0.25;"/>
   </g>
   <g id="patch_4">
    <path clip-path="url(#pc813c8d37d)" d="
M458.414 168.626
L395.538 198.905
L380.009 266.942
L423.521 321.504
L493.307 321.504
L536.819 266.942
L521.29 198.905
z
" style="fill:#eae2ac;stroke:#000000;stroke-width:0.25;"/>
   </g>
   <g id="patch_5">
    <path clip-path="url(#pc813c8d37d)" d="
M423.521 321.504
L360.645 351.783
L345.116 419.82
L388.627 474.382
L458.414 474.382
L501.925 419.82
L486.396 351.783
z
" style="fill:#eae2ac;stroke:#000000;stroke-width:0.25;"/>
   </g>
   <g id="patch_6">
    <path clip-path="url(#pc813c8d37d)" d="
M282.24 389.541
L219.364 419.82
L203.835 487.857
L247.347 542.419
L317.133 542.419
L360.645 487.857
L345.116 419.82
z
" style="fill:#eae2ac;stroke:#000000;stroke-width:0.25;"/>
   </g>
   <g id="patch_7">
    <path clip-path="url(#pc813c8d37d)" d="
M140.959 321.504
L78.0837 351.783
L62.5547 419.82
L106.066 474.382
L175.853 474.382
L219.364 419.82
L203.835 351.783
z
" style="fill:#eae2ac;stroke:#000000;stroke-width:0.25;"/>
   </g>
   <g id="patch_8">
    <path clip-path="url(#pc813c8d37d)" d="
M106.066 168.626
L43.1903 198.905
L27.6613 266.942
L71.1726 321.504
L140.959 321.504
L184.471 266.942
L168.942 198.905
z
" style="fill:#eae2ac;stroke:#000000;stroke-width:0.25;"/>
   </g>
   <g id="patch_9">
    <path clip-path="url(#pc813c8d37d)" d="
M203.835 46.0271
L140.959 76.3065
L125.43 144.344
L168.942 198.905
L238.729 198.905
L282.24 144.344
L266.711 76.3065
z
" style="fill:#eae2ac;stroke:#000000;stroke-width:0.25;"/>
   </g>
   <g id="matplotlib.axis_1"/>
   <g id="matplotlib.axis_2"/>
  </g>
 </g>
 <defs>
  <clipPath id="pc813c8d37d">
   <rect height="536.288345933" width="550.08" x="7.2" y="7.2"/>
  </clipPath>
 </defs>
</svg>
