<?xml version="1.0" encoding="utf-8" standalone="no"?>
<!DOCTYPE svg PUBLIC "-//W3C//DTD SVG 1.1//EN"
  "http://www.w3.org/Graphics/SVG/1.1/DTD/svg11.dtd">
<!-- Created with matplotlib (http://matplotlib.org/) -->
<svg height="564pt" version="1.1" viewBox="0 0 564 564" width="564pt" xmlns="http://www.w3.org/2000/svg" xmlns:xlink="http://www.w3.org/1999/xlink">
 <defs>
  <style type="text/css">
*{stroke-linecap:butt;stroke-linejoin:round;}
  </style>
 </defs>
 <g id="figure_1">
  <g id="patch_1">
   <path d="
M0 564.48
L564.48 564.48
L564.48 0
L0 0
z
" style="fill:none;"/>
  </g>
  <g id="axes_1">
   <g id="patch_2">
    <path clip-path="url(#p09214e8173)" d="
M282.24 8.84366
L88.9196 88.9196
L8.84366 282.24
L88.9196 475.56
L282.24 555.636
L475.56 475.56
L555.636 282.24
L475.56 88.9196
z
" style="fill:#bcd4e6;stroke:#000000;stroke-width:0.25;"/>
   </g>
   <g id="patch_3">
    <path clip-path="url(#p09214e8173)" d="
M353.652 38.4236
L303.156 59.3397
L282.24 109.836
L303.156 160.332
L353.652 181.248
L404.148 160.332
L425.064 109.836
L404.148 59.3397
z
" style="fill:#eae2ac;stroke:#000000;stroke-width:0.25;"/>
   </g>
   <g id="patch_4">
    <path clip-path="url(#p09214e8173)" d="
M454.644 139.416
L404.148 160.332
L383.232 210.828
L404.148 261.324
L454.644 282.24
L505.14 261.324
L526.056 210.828
L505.14 160.332
z
" style="fill:#eae2ac;stroke:#000000;stroke-width:0.25;"/>
   </g>
   <g id="patch_5">
    <path clip-path="url(#p09214e8173)" d="
M454.644 282.24
L404.148 303.156
L383.232 353.652
L404.148 404.148
L454.644 425.064
L505.14 404.148
L526.056 353.652
L505.14 303.156
z
" style="fill:#eae2ac;stroke:#000000;stroke-width:0.25;"/>
   </g>
   <g id="patch_6">
    <path clip-path="url(#p09214e8173)" d="
M353.652 383.232
L303.156 404.148
L282.24 454.644
L303.156 505.14
L353.652 526.056
L404.148 505.14
L425.064 454.644
L404.148 404.148
z
" style="fill:#eae2ac;stroke:#000000;stroke-width:0.25;"/>
   </g>
   <g id="patch_7">
    <path clip-path="url(#p09214e8173)" d="
M210.828 383.232
L160.332 404.148
L139.416 454.644
L160.332 505.14
L210.828 526.056
L261.324 505.14
L282.24 454.644
L261.324 404.148
z
" style="fill:#eae2ac;stroke:#000000;stroke-width:0.25;"/>
   </g>
   <g id="patch_8">
    <path clip-path="url(#p09214e8173)" d="
M109.836 282.24
L59.3397 303.156
L38.4236 353.652
L59.3397 404.148
L109.836 425.064
L160.332 404.148
L181.248 353.652
L160.332 303.156
z
" style="fill:#eae2ac;stroke:#000000;stroke-width:0.25;"/>
   </g>
   <g id="patch_9">
    <path clip-path="url(#p09214e8173)" d="
M109.836 139.416
L59.3397 160.332
L38.4236 210.828
L59.3397 261.324
L109.836 282.24
L160.332 261.324
L181.248 210.828
L160.332 160.332
z
" style="fill:#eae2ac;stroke:#000000;stroke-width:0.25;"/>
   </g>
   <g id="patch_10">
    <path clip-path="url(#p09214e8173)" d="
M210.828 38.4236
L160.332 59.3397
L139.416 109.836
L160.332 160.332
L210.828 181.248
L261.324 160.332
L282.24 109.836
L261.324 59.3397
z
" style="fill:#eae2ac;stroke:#000000;stroke-width:0.25;"/>
   </g>
   <g id="patch_11">
    <path clip-path="url(#p09214e8173)" d="
M282.24 412.812
L374.568 374.568
L412.812 282.24
L374.568 189.912
L282.24 151.668
L189.912 189.912
L151.668 282.24
L189.912 374.568
z
" style="fill:#eae2ac;stroke:#000000;stroke-width:0.25;"/>
   </g>
   <g id="patch_12">
    <path clip-path="url(#p09214e8173)" d="
M372.305 46.1499
L359.116 51.6133
L353.652 64.8031
L359.116 77.9928
L372.305 83.4562
L385.495 77.9928
L390.958 64.8031
L385.495 51.6133
z
" style="fill:#af0a0a;stroke:#000000;stroke-width:0.25;"/>
   </g>
   <g id="patch_13">
    <path clip-path="url(#p09214e8173)" d="
M398.685 72.5295
L385.495 77.9928
L380.032 91.1826
L385.495 104.372
L398.685 109.836
L411.875 104.372
L417.338 91.1826
L411.875 77.9928
z
" style="fill:#af0a0a;stroke:#000000;stroke-width:0.25;"/>
   </g>
   <g id="patch_14">
    <path clip-path="url(#p09214e8173)" d="
M398.685 109.836
L385.495 115.299
L380.032 128.489
L385.495 141.679
L398.685 147.142
L411.875 141.679
L417.338 128.489
L411.875 115.299
z
" style="fill:#af0a0a;stroke:#000000;stroke-width:0.25;"/>
   </g>
   <g id="patch_15">
    <path clip-path="url(#p09214e8173)" d="
M372.305 136.215
L359.116 141.679
L353.652 154.868
L359.116 168.058
L372.305 173.522
L385.495 168.058
L390.958 154.868
L385.495 141.679
z
" style="fill:#af0a0a;stroke:#000000;stroke-width:0.25;"/>
   </g>
   <g id="patch_16">
    <path clip-path="url(#p09214e8173)" d="
M334.999 136.215
L321.809 141.679
L316.346 154.868
L321.809 168.058
L334.999 173.522
L348.189 168.058
L353.652 154.868
L348.189 141.679
z
" style="fill:#af0a0a;stroke:#000000;stroke-width:0.25;"/>
   </g>
   <g id="patch_17">
    <path clip-path="url(#p09214e8173)" d="
M308.62 109.836
L295.43 115.299
L289.966 128.489
L295.43 141.679
L308.62 147.142
L321.809 141.679
L327.273 128.489
L321.809 115.299
z
" style="fill:#af0a0a;stroke:#000000;stroke-width:0.25;"/>
   </g>
   <g id="patch_18">
    <path clip-path="url(#p09214e8173)" d="
M308.62 72.5295
L295.43 77.9928
L289.966 91.1826
L295.43 104.372
L308.62 109.836
L321.809 104.372
L327.273 91.1826
L321.809 77.9928
z
" style="fill:#af0a0a;stroke:#000000;stroke-width:0.25;"/>
   </g>
   <g id="patch_19">
    <path clip-path="url(#p09214e8173)" d="
M334.999 46.1499
L321.809 51.6133
L316.346 64.8031
L321.809 77.9928
L334.999 83.4562
L348.189 77.9928
L353.652 64.8031
L348.189 51.6133
z
" style="fill:#af0a0a;stroke:#000000;stroke-width:0.25;"/>
   </g>
   <g id="patch_20">
    <path clip-path="url(#p09214e8173)" d="
M353.652 143.942
L377.769 133.952
L387.758 109.836
L377.769 85.7192
L353.652 75.7298
L329.536 85.7192
L319.546 109.836
L329.536 133.952
z
" style="fill:#af0a0a;stroke:#000000;stroke-width:0.25;"/>
   </g>
   <g id="patch_21">
    <path clip-path="url(#p09214e8173)" d="
M473.297 147.142
L460.108 152.605
L454.644 165.795
L460.108 178.985
L473.297 184.448
L486.487 178.985
L491.951 165.795
L486.487 152.605
z
" style="fill:#af0a0a;stroke:#000000;stroke-width:0.25;"/>
   </g>
   <g id="patch_22">
    <path clip-path="url(#p09214e8173)" d="
M499.677 173.522
L486.487 178.985
L481.024 192.175
L486.487 205.364
L499.677 210.828
L512.867 205.364
L518.33 192.175
L512.867 178.985
z
" style="fill:#af0a0a;stroke:#000000;stroke-width:0.25;"/>
   </g>
   <g id="patch_23">
    <path clip-path="url(#p09214e8173)" d="
M499.677 210.828
L486.487 216.291
L481.024 229.481
L486.487 242.671
L499.677 248.134
L512.867 242.671
L518.33 229.481
L512.867 216.291
z
" style="fill:#af0a0a;stroke:#000000;stroke-width:0.25;"/>
   </g>
   <g id="patch_24">
    <path clip-path="url(#p09214e8173)" d="
M473.297 237.207
L460.108 242.671
L454.644 255.86
L460.108 269.05
L473.297 274.514
L486.487 269.05
L491.951 255.86
L486.487 242.671
z
" style="fill:#af0a0a;stroke:#000000;stroke-width:0.25;"/>
   </g>
   <g id="patch_25">
    <path clip-path="url(#p09214e8173)" d="
M435.991 237.207
L422.801 242.671
L417.338 255.86
L422.801 269.05
L435.991 274.514
L449.181 269.05
L454.644 255.86
L449.181 242.671
z
" style="fill:#af0a0a;stroke:#000000;stroke-width:0.25;"/>
   </g>
   <g id="patch_26">
    <path clip-path="url(#p09214e8173)" d="
M409.612 210.828
L396.422 216.291
L390.958 229.481
L396.422 242.671
L409.612 248.134
L422.801 242.671
L428.265 229.481
L422.801 216.291
z
" style="fill:#af0a0a;stroke:#000000;stroke-width:0.25;"/>
   </g>
   <g id="patch_27">
    <path clip-path="url(#p09214e8173)" d="
M409.612 173.522
L396.422 178.985
L390.958 192.175
L396.422 205.364
L409.612 210.828
L422.801 205.364
L428.265 192.175
L422.801 178.985
z
" style="fill:#af0a0a;stroke:#000000;stroke-width:0.25;"/>
   </g>
   <g id="patch_28">
    <path clip-path="url(#p09214e8173)" d="
M435.991 147.142
L422.801 152.605
L417.338 165.795
L422.801 178.985
L435.991 184.448
L449.181 178.985
L454.644 165.795
L449.181 152.605
z
" style="fill:#af0a0a;stroke:#000000;stroke-width:0.25;"/>
   </g>
   <g id="patch_29">
    <path clip-path="url(#p09214e8173)" d="
M454.644 244.934
L478.761 234.944
L488.75 210.828
L478.761 186.711
L454.644 176.722
L430.528 186.711
L420.538 210.828
L430.528 234.944
z
" style="fill:#af0a0a;stroke:#000000;stroke-width:0.25;"/>
   </g>
   <g id="patch_30">
    <path clip-path="url(#p09214e8173)" d="
M473.297 289.966
L460.108 295.43
L454.644 308.62
L460.108 321.809
L473.297 327.273
L486.487 321.809
L491.951 308.62
L486.487 295.43
z
" style="fill:#af0a0a;stroke:#000000;stroke-width:0.25;"/>
   </g>
   <g id="patch_31">
    <path clip-path="url(#p09214e8173)" d="
M499.677 316.346
L486.487 321.809
L481.024 334.999
L486.487 348.189
L499.677 353.652
L512.867 348.189
L518.33 334.999
L512.867 321.809
z
" style="fill:#af0a0a;stroke:#000000;stroke-width:0.25;"/>
   </g>
   <g id="patch_32">
    <path clip-path="url(#p09214e8173)" d="
M499.677 353.652
L486.487 359.116
L481.024 372.305
L486.487 385.495
L499.677 390.958
L512.867 385.495
L518.33 372.305
L512.867 359.116
z
" style="fill:#af0a0a;stroke:#000000;stroke-width:0.25;"/>
   </g>
   <g id="patch_33">
    <path clip-path="url(#p09214e8173)" d="
M473.297 380.032
L460.108 385.495
L454.644 398.685
L460.108 411.875
L473.297 417.338
L486.487 411.875
L491.951 398.685
L486.487 385.495
z
" style="fill:#af0a0a;stroke:#000000;stroke-width:0.25;"/>
   </g>
   <g id="patch_34">
    <path clip-path="url(#p09214e8173)" d="
M435.991 380.032
L422.801 385.495
L417.338 398.685
L422.801 411.875
L435.991 417.338
L449.181 411.875
L454.644 398.685
L449.181 385.495
z
" style="fill:#af0a0a;stroke:#000000;stroke-width:0.25;"/>
   </g>
   <g id="patch_35">
    <path clip-path="url(#p09214e8173)" d="
M409.612 353.652
L396.422 359.116
L390.958 372.305
L396.422 385.495
L409.612 390.958
L422.801 385.495
L428.265 372.305
L422.801 359.116
z
" style="fill:#af0a0a;stroke:#000000;stroke-width:0.25;"/>
   </g>
   <g id="patch_36">
    <path clip-path="url(#p09214e8173)" d="
M409.612 316.346
L396.422 321.809
L390.958 334.999
L396.422 348.189
L409.612 353.652
L422.801 348.189
L428.265 334.999
L422.801 321.809
z
" style="fill:#af0a0a;stroke:#000000;stroke-width:0.25;"/>
   </g>
   <g id="patch_37">
    <path clip-path="url(#p09214e8173)" d="
M435.991 289.966
L422.801 295.43
L417.338 308.62
L422.801 321.809
L435.991 327.273
L449.181 321.809
L454.644 308.62
L449.181 295.43
z
" style="fill:#af0a0a;stroke:#000000;stroke-width:0.25;"/>
   </g>
   <g id="patch_38">
    <path clip-path="url(#p09214e8173)" d="
M454.644 387.758
L478.761 377.769
L488.75 353.652
L478.761 329.536
L454.644 319.546
L430.528 329.536
L420.538 353.652
L430.528 377.769
z
" style="fill:#af0a0a;stroke:#000000;stroke-width:0.25;"/>
   </g>
   <g id="patch_39">
    <path clip-path="url(#p09214e8173)" d="
M372.305 390.958
L359.116 396.422
L353.652 409.612
L359.116 422.801
L372.305 428.265
L385.495 422.801
L390.958 409.612
L385.495 396.422
z
" style="fill:#af0a0a;stroke:#000000;stroke-width:0.25;"/>
   </g>
   <g id="patch_40">
    <path clip-path="url(#p09214e8173)" d="
M398.685 417.338
L385.495 422.801
L380.032 435.991
L385.495 449.181
L398.685 454.644
L411.875 449.181
L417.338 435.991
L411.875 422.801
z
" style="fill:#af0a0a;stroke:#000000;stroke-width:0.25;"/>
   </g>
   <g id="patch_41">
    <path clip-path="url(#p09214e8173)" d="
M398.685 454.644
L385.495 460.108
L380.032 473.297
L385.495 486.487
L398.685 491.951
L411.875 486.487
L417.338 473.297
L411.875 460.108
z
" style="fill:#af0a0a;stroke:#000000;stroke-width:0.25;"/>
   </g>
   <g id="patch_42">
    <path clip-path="url(#p09214e8173)" d="
M372.305 481.024
L359.116 486.487
L353.652 499.677
L359.116 512.867
L372.305 518.33
L385.495 512.867
L390.958 499.677
L385.495 486.487
z
" style="fill:#af0a0a;stroke:#000000;stroke-width:0.25;"/>
   </g>
   <g id="patch_43">
    <path clip-path="url(#p09214e8173)" d="
M334.999 481.024
L321.809 486.487
L316.346 499.677
L321.809 512.867
L334.999 518.33
L348.189 512.867
L353.652 499.677
L348.189 486.487
z
" style="fill:#af0a0a;stroke:#000000;stroke-width:0.25;"/>
   </g>
   <g id="patch_44">
    <path clip-path="url(#p09214e8173)" d="
M308.62 454.644
L295.43 460.108
L289.966 473.297
L295.43 486.487
L308.62 491.951
L321.809 486.487
L327.273 473.297
L321.809 460.108
z
" style="fill:#af0a0a;stroke:#000000;stroke-width:0.25;"/>
   </g>
   <g id="patch_45">
    <path clip-path="url(#p09214e8173)" d="
M308.62 417.338
L295.43 422.801
L289.966 435.991
L295.43 449.181
L308.62 454.644
L321.809 449.181
L327.273 435.991
L321.809 422.801
z
" style="fill:#af0a0a;stroke:#000000;stroke-width:0.25;"/>
   </g>
   <g id="patch_46">
    <path clip-path="url(#p09214e8173)" d="
M334.999 390.958
L321.809 396.422
L316.346 409.612
L321.809 422.801
L334.999 428.265
L348.189 422.801
L353.652 409.612
L348.189 396.422
z
" style="fill:#af0a0a;stroke:#000000;stroke-width:0.25;"/>
   </g>
   <g id="patch_47">
    <path clip-path="url(#p09214e8173)" d="
M353.652 488.75
L377.769 478.761
L387.758 454.644
L377.769 430.528
L353.652 420.538
L329.536 430.528
L319.546 454.644
L329.536 478.761
z
" style="fill:#af0a0a;stroke:#000000;stroke-width:0.25;"/>
   </g>
   <g id="patch_48">
    <path clip-path="url(#p09214e8173)" d="
M229.481 390.958
L216.291 396.422
L210.828 409.612
L216.291 422.801
L229.481 428.265
L242.671 422.801
L248.134 409.612
L242.671 396.422
z
" style="fill:#af0a0a;stroke:#000000;stroke-width:0.25;"/>
   </g>
   <g id="patch_49">
    <path clip-path="url(#p09214e8173)" d="
M255.86 417.338
L242.671 422.801
L237.207 435.991
L242.671 449.181
L255.86 454.644
L269.05 449.181
L274.514 435.991
L269.05 422.801
z
" style="fill:#af0a0a;stroke:#000000;stroke-width:0.25;"/>
   </g>
   <g id="patch_50">
    <path clip-path="url(#p09214e8173)" d="
M255.86 454.644
L242.671 460.108
L237.207 473.297
L242.671 486.487
L255.86 491.951
L269.05 486.487
L274.514 473.297
L269.05 460.108
z
" style="fill:#af0a0a;stroke:#000000;stroke-width:0.25;"/>
   </g>
   <g id="patch_51">
    <path clip-path="url(#p09214e8173)" d="
M229.481 481.024
L216.291 486.487
L210.828 499.677
L216.291 512.867
L229.481 518.33
L242.671 512.867
L248.134 499.677
L242.671 486.487
z
" style="fill:#af0a0a;stroke:#000000;stroke-width:0.25;"/>
   </g>
   <g id="patch_52">
    <path clip-path="url(#p09214e8173)" d="
M192.175 481.024
L178.985 486.487
L173.522 499.677
L178.985 512.867
L192.175 518.33
L205.364 512.867
L210.828 499.677
L205.364 486.487
z
" style="fill:#af0a0a;stroke:#000000;stroke-width:0.25;"/>
   </g>
   <g id="patch_53">
    <path clip-path="url(#p09214e8173)" d="
M165.795 454.644
L152.605 460.108
L147.142 473.297
L152.605 486.487
L165.795 491.951
L178.985 486.487
L184.448 473.297
L178.985 460.108
z
" style="fill:#af0a0a;stroke:#000000;stroke-width:0.25;"/>
   </g>
   <g id="patch_54">
    <path clip-path="url(#p09214e8173)" d="
M165.795 417.338
L152.605 422.801
L147.142 435.991
L152.605 449.181
L165.795 454.644
L178.985 449.181
L184.448 435.991
L178.985 422.801
z
" style="fill:#af0a0a;stroke:#000000;stroke-width:0.25;"/>
   </g>
   <g id="patch_55">
    <path clip-path="url(#p09214e8173)" d="
M192.175 390.958
L178.985 396.422
L173.522 409.612
L178.985 422.801
L192.175 428.265
L205.364 422.801
L210.828 409.612
L205.364 396.422
z
" style="fill:#af0a0a;stroke:#000000;stroke-width:0.25;"/>
   </g>
   <g id="patch_56">
    <path clip-path="url(#p09214e8173)" d="
M210.828 488.75
L234.944 478.761
L244.934 454.644
L234.944 430.528
L210.828 420.538
L186.711 430.528
L176.722 454.644
L186.711 478.761
z
" style="fill:#af0a0a;stroke:#000000;stroke-width:0.25;"/>
   </g>
   <g id="patch_57">
    <path clip-path="url(#p09214e8173)" d="
M128.489 289.966
L115.299 295.43
L109.836 308.62
L115.299 321.809
L128.489 327.273
L141.679 321.809
L147.142 308.62
L141.679 295.43
z
" style="fill:#af0a0a;stroke:#000000;stroke-width:0.25;"/>
   </g>
   <g id="patch_58">
    <path clip-path="url(#p09214e8173)" d="
M154.868 316.346
L141.679 321.809
L136.215 334.999
L141.679 348.189
L154.868 353.652
L168.058 348.189
L173.522 334.999
L168.058 321.809
z
" style="fill:#af0a0a;stroke:#000000;stroke-width:0.25;"/>
   </g>
   <g id="patch_59">
    <path clip-path="url(#p09214e8173)" d="
M154.868 353.652
L141.679 359.116
L136.215 372.305
L141.679 385.495
L154.868 390.958
L168.058 385.495
L173.522 372.305
L168.058 359.116
z
" style="fill:#af0a0a;stroke:#000000;stroke-width:0.25;"/>
   </g>
   <g id="patch_60">
    <path clip-path="url(#p09214e8173)" d="
M128.489 380.032
L115.299 385.495
L109.836 398.685
L115.299 411.875
L128.489 417.338
L141.679 411.875
L147.142 398.685
L141.679 385.495
z
" style="fill:#af0a0a;stroke:#000000;stroke-width:0.25;"/>
   </g>
   <g id="patch_61">
    <path clip-path="url(#p09214e8173)" d="
M91.1826 380.032
L77.9928 385.495
L72.5295 398.685
L77.9928 411.875
L91.1826 417.338
L104.372 411.875
L109.836 398.685
L104.372 385.495
z
" style="fill:#af0a0a;stroke:#000000;stroke-width:0.25;"/>
   </g>
   <g id="patch_62">
    <path clip-path="url(#p09214e8173)" d="
M64.8031 353.652
L51.6133 359.116
L46.1499 372.305
L51.6133 385.495
L64.8031 390.958
L77.9928 385.495
L83.4562 372.305
L77.9928 359.116
z
" style="fill:#af0a0a;stroke:#000000;stroke-width:0.25;"/>
   </g>
   <g id="patch_63">
    <path clip-path="url(#p09214e8173)" d="
M64.8031 316.346
L51.6133 321.809
L46.1499 334.999
L51.6133 348.189
L64.8031 353.652
L77.9928 348.189
L83.4562 334.999
L77.9928 321.809
z
" style="fill:#af0a0a;stroke:#000000;stroke-width:0.25;"/>
   </g>
   <g id="patch_64">
    <path clip-path="url(#p09214e8173)" d="
M91.1826 289.966
L77.9928 295.43
L72.5295 308.62
L77.9928 321.809
L91.1826 327.273
L104.372 321.809
L109.836 308.62
L104.372 295.43
z
" style="fill:#af0a0a;stroke:#000000;stroke-width:0.25;"/>
   </g>
   <g id="patch_65">
    <path clip-path="url(#p09214e8173)" d="
M109.836 387.758
L133.952 377.769
L143.942 353.652
L133.952 329.536
L109.836 319.546
L85.7192 329.536
L75.7298 353.652
L85.7192 377.769
z
" style="fill:#af0a0a;stroke:#000000;stroke-width:0.25;"/>
   </g>
   <g id="patch_66">
    <path clip-path="url(#p09214e8173)" d="
M128.489 147.142
L115.299 152.605
L109.836 165.795
L115.299 178.985
L128.489 184.448
L141.679 178.985
L147.142 165.795
L141.679 152.605
z
" style="fill:#af0a0a;stroke:#000000;stroke-width:0.25;"/>
   </g>
   <g id="patch_67">
    <path clip-path="url(#p09214e8173)" d="
M154.868 173.522
L141.679 178.985
L136.215 192.175
L141.679 205.364
L154.868 210.828
L168.058 205.364
L173.522 192.175
L168.058 178.985
z
" style="fill:#af0a0a;stroke:#000000;stroke-width:0.25;"/>
   </g>
   <g id="patch_68">
    <path clip-path="url(#p09214e8173)" d="
M154.868 210.828
L141.679 216.291
L136.215 229.481
L141.679 242.671
L154.868 248.134
L168.058 242.671
L173.522 229.481
L168.058 216.291
z
" style="fill:#af0a0a;stroke:#000000;stroke-width:0.25;"/>
   </g>
   <g id="patch_69">
    <path clip-path="url(#p09214e8173)" d="
M128.489 237.207
L115.299 242.671
L109.836 255.86
L115.299 269.05
L128.489 274.514
L141.679 269.05
L147.142 255.86
L141.679 242.671
z
" style="fill:#af0a0a;stroke:#000000;stroke-width:0.25;"/>
   </g>
   <g id="patch_70">
    <path clip-path="url(#p09214e8173)" d="
M91.1826 237.207
L77.9928 242.671
L72.5295 255.86
L77.9928 269.05
L91.1826 274.514
L104.372 269.05
L109.836 255.86
L104.372 242.671
z
" style="fill:#af0a0a;stroke:#000000;stroke-width:0.25;"/>
   </g>
   <g id="patch_71">
    <path clip-path="url(#p09214e8173)" d="
M64.8031 210.828
L51.6133 216.291
L46.1499 229.481
L51.6133 242.671
L64.8031 248.134
L77.9928 242.671
L83.4562 229.481
L77.9928 216.291
z
" style="fill:#af0a0a;stroke:#000000;stroke-width:0.25;"/>
   </g>
   <g id="patch_72">
    <path clip-path="url(#p09214e8173)" d="
M64.8031 173.522
L51.6133 178.985
L46.1499 192.175
L51.6133 205.364
L64.8031 210.828
L77.9928 205.364
L83.4562 192.175
L77.9928 178.985
z
" style="fill:#af0a0a;stroke:#000000;stroke-width:0.25;"/>
   </g>
   <g id="patch_73">
    <path clip-path="url(#p09214e8173)" d="
M91.1826 147.142
L77.9928 152.605
L72.5295 165.795
L77.9928 178.985
L91.1826 184.448
L104.372 178.985
L109.836 165.795
L104.372 152.605
z
" style="fill:#af0a0a;stroke:#000000;stroke-width:0.25;"/>
   </g>
   <g id="patch_74">
    <path clip-path="url(#p09214e8173)" d="
M109.836 244.934
L133.952 234.944
L143.942 210.828
L133.952 186.711
L109.836 176.722
L85.7192 186.711
L75.7298 210.828
L85.7192 234.944
z
" style="fill:#af0a0a;stroke:#000000;stroke-width:0.25;"/>
   </g>
   <g id="patch_75">
    <path clip-path="url(#p09214e8173)" d="
M229.481 46.1499
L216.291 51.6133
L210.828 64.8031
L216.291 77.9928
L229.481 83.4562
L242.671 77.9928
L248.134 64.8031
L242.671 51.6133
z
" style="fill:#af0a0a;stroke:#000000;stroke-width:0.25;"/>
   </g>
   <g id="patch_76">
    <path clip-path="url(#p09214e8173)" d="
M255.86 72.5295
L242.671 77.9928
L237.207 91.1826
L242.671 104.372
L255.86 109.836
L269.05 104.372
L274.514 91.1826
L269.05 77.9928
z
" style="fill:#af0a0a;stroke:#000000;stroke-width:0.25;"/>
   </g>
   <g id="patch_77">
    <path clip-path="url(#p09214e8173)" d="
M255.86 109.836
L242.671 115.299
L237.207 128.489
L242.671 141.679
L255.86 147.142
L269.05 141.679
L274.514 128.489
L269.05 115.299
z
" style="fill:#af0a0a;stroke:#000000;stroke-width:0.25;"/>
   </g>
   <g id="patch_78">
    <path clip-path="url(#p09214e8173)" d="
M229.481 136.215
L216.291 141.679
L210.828 154.868
L216.291 168.058
L229.481 173.522
L242.671 168.058
L248.134 154.868
L242.671 141.679
z
" style="fill:#af0a0a;stroke:#000000;stroke-width:0.25;"/>
   </g>
   <g id="patch_79">
    <path clip-path="url(#p09214e8173)" d="
M192.175 136.215
L178.985 141.679
L173.522 154.868
L178.985 168.058
L192.175 173.522
L205.364 168.058
L210.828 154.868
L205.364 141.679
z
" style="fill:#af0a0a;stroke:#000000;stroke-width:0.25;"/>
   </g>
   <g id="patch_80">
    <path clip-path="url(#p09214e8173)" d="
M165.795 109.836
L152.605 115.299
L147.142 128.489
L152.605 141.679
L165.795 147.142
L178.985 141.679
L184.448 128.489
L178.985 115.299
z
" style="fill:#af0a0a;stroke:#000000;stroke-width:0.25;"/>
   </g>
   <g id="patch_81">
    <path clip-path="url(#p09214e8173)" d="
M165.795 72.5295
L152.605 77.9928
L147.142 91.1826
L152.605 104.372
L165.795 109.836
L178.985 104.372
L184.448 91.1826
L178.985 77.9928
z
" style="fill:#af0a0a;stroke:#000000;stroke-width:0.25;"/>
   </g>
   <g id="patch_82">
    <path clip-path="url(#p09214e8173)" d="
M192.175 46.1499
L178.985 51.6133
L173.522 64.8031
L178.985 77.9928
L192.175 83.4562
L205.364 77.9928
L210.828 64.8031
L205.364 51.6133
z
" style="fill:#af0a0a;stroke:#000000;stroke-width:0.25;"/>
   </g>
   <g id="patch_83">
    <path clip-path="url(#p09214e8173)" d="
M210.828 143.942
L234.944 133.952
L244.934 109.836
L234.944 85.7192
L210.828 75.7298
L186.711 85.7192
L176.722 109.836
L186.711 133.952
z
" style="fill:#af0a0a;stroke:#000000;stroke-width:0.25;"/>
   </g>
   <g id="patch_84">
    <path clip-path="url(#p09214e8173)" d="
M248.134 398.685
L272.251 388.695
L282.24 364.579
L272.251 340.462
L248.134 330.473
L224.018 340.462
L214.028 364.579
L224.018 388.695
z
" style="fill:#af0a0a;stroke:#000000;stroke-width:0.25;"/>
   </g>
   <g id="patch_85">
    <path clip-path="url(#p09214e8173)" d="
M199.901 350.452
L224.018 340.462
L234.007 316.346
L224.018 292.229
L199.901 282.24
L175.785 292.229
L165.795 316.346
L175.785 340.462
z
" style="fill:#af0a0a;stroke:#000000;stroke-width:0.25;"/>
   </g>
   <g id="patch_86">
    <path clip-path="url(#p09214e8173)" d="
M199.901 282.24
L224.018 272.251
L234.007 248.134
L224.018 224.018
L199.901 214.028
L175.785 224.018
L165.795 248.134
L175.785 272.251
z
" style="fill:#af0a0a;stroke:#000000;stroke-width:0.25;"/>
   </g>
   <g id="patch_87">
    <path clip-path="url(#p09214e8173)" d="
M248.134 234.007
L272.251 224.018
L282.24 199.901
L272.251 175.785
L248.134 165.795
L224.018 175.785
L214.028 199.901
L224.018 224.018
z
" style="fill:#af0a0a;stroke:#000000;stroke-width:0.25;"/>
   </g>
   <g id="patch_88">
    <path clip-path="url(#p09214e8173)" d="
M316.346 234.007
L340.462 224.018
L350.452 199.901
L340.462 175.785
L316.346 165.795
L292.229 175.785
L282.24 199.901
L292.229 224.018
z
" style="fill:#af0a0a;stroke:#000000;stroke-width:0.25;"/>
   </g>
   <g id="patch_89">
    <path clip-path="url(#p09214e8173)" d="
M364.579 282.24
L388.695 272.251
L398.685 248.134
L388.695 224.018
L364.579 214.028
L340.462 224.018
L330.473 248.134
L340.462 272.251
z
" style="fill:#af0a0a;stroke:#000000;stroke-width:0.25;"/>
   </g>
   <g id="patch_90">
    <path clip-path="url(#p09214e8173)" d="
M364.579 350.452
L388.695 340.462
L398.685 316.346
L388.695 292.229
L364.579 282.24
L340.462 292.229
L330.473 316.346
L340.462 340.462
z
" style="fill:#af0a0a;stroke:#000000;stroke-width:0.25;"/>
   </g>
   <g id="patch_91">
    <path clip-path="url(#p09214e8173)" d="
M316.346 398.685
L340.462 388.695
L350.452 364.579
L340.462 340.462
L316.346 330.473
L292.229 340.462
L282.24 364.579
L292.229 388.695
z
" style="fill:#af0a0a;stroke:#000000;stroke-width:0.25;"/>
   </g>
   <g id="patch_92">
    <path clip-path="url(#p09214e8173)" d="
M282.24 219.88
L238.145 238.145
L219.88 282.24
L238.145 326.335
L282.24 344.6
L326.335 326.335
L344.6 282.24
L326.335 238.145
z
" style="fill:#af0a0a;stroke:#000000;stroke-width:0.25;"/>
   </g>
   <g id="matplotlib.axis_1"/>
   <g id="matplotlib.axis_2"/>
  </g>
 </g>
 <defs>
  <clipPath id="p09214e8173">
   <rect height="550.08" width="550.08" x="7.2" y="7.2"/>
  </clipPath>
 </defs>
</svg>
