<?xml version="1.0" encoding="utf-8" standalone="no"?>
<!DOCTYPE svg PUBLIC "-//W3C//DTD SVG 1.1//EN"
  "http://www.w3.org/Graphics/SVG/1.1/DTD/svg11.dtd">
<!-- Created with matplotlib (http://matplotlib.org/) -->
<svg height="556pt" version="1.1" viewBox="0 0 564 556" width="564pt" xmlns="http://www.w3.org/2000/svg" xmlns:xlink="http://www.w3.org/1999/xlink">
 <defs>
  <style type="text/css">
*{stroke-linecap:butt;stroke-linejoin:round;}
  </style>
 </defs>
 <g id="figure_1">
  <g id="patch_1">
   <path d="
M0 556.123
L564.48 556.123
L564.48 0
L0 0
z
" style="fill:none;"/>
  </g>
  <g id="axes_1">
   <g id="patch_2">
    <path clip-path="url(#pfcc5eb3d25)" d="
M282.24 8.81869
L103.793 73.768
L8.84366 238.225
L41.8193 425.24
L187.29 547.304
L377.19 547.304
L522.661 425.24
L555.636 238.225
L460.687 73.768
z
" style="fill:#bcd4e6;stroke:#000000;stroke-width:0.25;"/>
   </g>
   <g id="patch_3">
    <path clip-path="url(#pfcc5eb3d25)" d="
M349.51 33.3029
L305.603 49.2838
L282.24 89.7489
L290.354 135.764
L326.147 165.798
L372.872 165.798
L408.666 135.764
L416.78 89.7489
L393.417 49.2838
z
" style="fill:#eae2ac;stroke:#000000;stroke-width:0.25;"/>
   </g>
   <g id="patch_4">
    <path clip-path="url(#pfcc5eb3d25)" d="
M452.573 119.783
L408.666 135.764
L385.303 176.229
L393.417 222.245
L429.211 252.279
L475.936 252.279
L511.729 222.245
L519.843 176.229
L496.48 135.764
z
" style="fill:#eae2ac;stroke:#000000;stroke-width:0.25;"/>
   </g>
   <g id="patch_5">
    <path clip-path="url(#pfcc5eb3d25)" d="
M475.936 252.279
L432.028 268.26
L408.666 308.725
L416.78 354.74
L452.573 384.774
L499.298 384.774
L535.092 354.74
L543.205 308.725
L519.843 268.26
z
" style="fill:#eae2ac;stroke:#000000;stroke-width:0.25;"/>
   </g>
   <g id="patch_6">
    <path clip-path="url(#pfcc5eb3d25)" d="
M408.666 368.794
L364.759 384.774
L341.396 425.24
L349.51 471.255
L385.303 501.289
L432.028 501.289
L467.822 471.255
L475.936 425.24
L452.573 384.774
z
" style="fill:#eae2ac;stroke:#000000;stroke-width:0.25;"/>
   </g>
   <g id="patch_7">
    <path clip-path="url(#pfcc5eb3d25)" d="
M282.24 414.809
L238.333 430.79
L214.97 471.255
L223.084 517.27
L258.877 547.304
L305.603 547.304
L341.396 517.27
L349.51 471.255
L326.147 430.79
z
" style="fill:#eae2ac;stroke:#000000;stroke-width:0.25;"/>
   </g>
   <g id="patch_8">
    <path clip-path="url(#pfcc5eb3d25)" d="
M155.814 368.794
L111.907 384.774
L88.5444 425.24
L96.6581 471.255
L132.452 501.289
L179.177 501.289
L214.97 471.255
L223.084 425.24
L199.721 384.774
z
" style="fill:#eae2ac;stroke:#000000;stroke-width:0.25;"/>
   </g>
   <g id="patch_9">
    <path clip-path="url(#pfcc5eb3d25)" d="
M88.5444 252.279
L44.6372 268.26
L21.2746 308.725
L29.3883 354.74
L65.1818 384.774
L111.907 384.774
L147.7 354.74
L155.814 308.725
L132.452 268.26
z
" style="fill:#eae2ac;stroke:#000000;stroke-width:0.25;"/>
   </g>
   <g id="patch_10">
    <path clip-path="url(#pfcc5eb3d25)" d="
M111.907 119.783
L67.9997 135.764
L44.6372 176.229
L52.7509 222.245
L88.5444 252.279
L135.269 252.279
L171.063 222.245
L179.177 176.229
L155.814 135.764
z
" style="fill:#eae2ac;stroke:#000000;stroke-width:0.25;"/>
   </g>
   <g id="patch_11">
    <path clip-path="url(#pfcc5eb3d25)" d="
M214.97 33.3029
L171.063 49.2838
L147.7 89.7489
L155.814 135.764
L191.608 165.798
L238.333 165.798
L274.126 135.764
L282.24 89.7489
L258.877 49.2838
z
" style="fill:#eae2ac;stroke:#000000;stroke-width:0.25;"/>
   </g>
   <g id="patch_12">
    <path clip-path="url(#pfcc5eb3d25)" d="
M282.24 414.809
L364.759 384.774
L408.666 308.725
L393.417 222.245
L326.147 165.798
L238.333 165.798
L171.063 222.245
L155.814 308.725
L199.721 384.774
z
" style="fill:#eae2ac;stroke:#000000;stroke-width:0.25;"/>
   </g>
   <g id="patch_13">
    <path clip-path="url(#pfcc5eb3d25)" d="
M366.062 39.3273
L355.258 43.2594
L349.51 53.216
L351.506 64.5381
L360.313 71.9281
L371.81 71.9281
L380.617 64.5381
L382.614 53.216
L376.865 43.2594
z
" style="fill:#af0a0a;stroke:#000000;stroke-width:0.25;"/>
   </g>
   <g id="patch_14">
    <path clip-path="url(#pfcc5eb3d25)" d="
M391.421 60.606
L380.617 64.5381
L374.869 74.4946
L376.865 85.8168
L385.672 93.2068
L397.169 93.2068
L405.976 85.8168
L407.972 74.4946
L402.224 64.5381
z
" style="fill:#af0a0a;stroke:#000000;stroke-width:0.25;"/>
   </g>
   <g id="patch_15">
    <path clip-path="url(#pfcc5eb3d25)" d="
M397.169 93.2068
L386.366 97.1389
L380.617 107.095
L382.614 118.418
L391.421 125.808
L402.917 125.808
L411.724 118.418
L413.721 107.095
L407.972 97.1389
z
" style="fill:#af0a0a;stroke:#000000;stroke-width:0.25;"/>
   </g>
   <g id="patch_16">
    <path clip-path="url(#pfcc5eb3d25)" d="
M380.617 121.875
L369.814 125.808
L364.065 135.764
L366.062 147.086
L374.869 154.476
L386.366 154.476
L395.173 147.086
L397.169 135.764
L391.421 125.808
z
" style="fill:#af0a0a;stroke:#000000;stroke-width:0.25;"/>
   </g>
   <g id="patch_17">
    <path clip-path="url(#pfcc5eb3d25)" d="
M349.51 133.198
L338.706 137.13
L332.958 147.086
L334.954 158.408
L343.761 165.798
L355.258 165.798
L364.065 158.408
L366.062 147.086
L360.313 137.13
z
" style="fill:#af0a0a;stroke:#000000;stroke-width:0.25;"/>
   </g>
   <g id="patch_18">
    <path clip-path="url(#pfcc5eb3d25)" d="
M318.402 121.875
L307.599 125.808
L301.851 135.764
L303.847 147.086
L312.654 154.476
L324.151 154.476
L332.958 147.086
L334.954 135.764
L329.206 125.808
z
" style="fill:#af0a0a;stroke:#000000;stroke-width:0.25;"/>
   </g>
   <g id="patch_19">
    <path clip-path="url(#pfcc5eb3d25)" d="
M301.851 93.2068
L291.047 97.1389
L285.299 107.095
L287.295 118.418
L296.102 125.808
L307.599 125.808
L316.406 118.418
L318.402 107.095
L312.654 97.1389
z
" style="fill:#af0a0a;stroke:#000000;stroke-width:0.25;"/>
   </g>
   <g id="patch_20">
    <path clip-path="url(#pfcc5eb3d25)" d="
M307.599 60.606
L296.795 64.5381
L291.047 74.4946
L293.043 85.8168
L301.851 93.2068
L313.347 93.2068
L322.154 85.8168
L324.151 74.4946
L318.402 64.5381
z
" style="fill:#af0a0a;stroke:#000000;stroke-width:0.25;"/>
   </g>
   <g id="patch_21">
    <path clip-path="url(#pfcc5eb3d25)" d="
M332.958 39.3273
L322.154 43.2594
L316.406 53.216
L318.402 64.5381
L327.209 71.9281
L338.706 71.9281
L347.513 64.5381
L349.51 53.216
L343.761 43.2594
z
" style="fill:#af0a0a;stroke:#000000;stroke-width:0.25;"/>
   </g>
   <g id="patch_22">
    <path clip-path="url(#pfcc5eb3d25)" d="
M349.51 133.198
L369.814 125.808
L380.617 107.095
L376.865 85.8168
L360.313 71.9281
L338.706 71.9281
L322.154 85.8168
L318.402 107.095
L329.206 125.808
z
" style="fill:#af0a0a;stroke:#000000;stroke-width:0.25;"/>
   </g>
   <g id="patch_23">
    <path clip-path="url(#pfcc5eb3d25)" d="
M469.125 125.808
L458.321 129.74
L452.573 139.696
L454.569 151.018
L463.377 158.408
L474.873 158.408
L483.68 151.018
L485.677 139.696
L479.928 129.74
z
" style="fill:#af0a0a;stroke:#000000;stroke-width:0.25;"/>
   </g>
   <g id="patch_24">
    <path clip-path="url(#pfcc5eb3d25)" d="
M494.484 147.086
L483.68 151.018
L477.932 160.975
L479.928 172.297
L488.735 179.687
L500.232 179.687
L509.039 172.297
L511.036 160.975
L505.287 151.018
z
" style="fill:#af0a0a;stroke:#000000;stroke-width:0.25;"/>
   </g>
   <g id="patch_25">
    <path clip-path="url(#pfcc5eb3d25)" d="
M500.232 179.687
L489.429 183.619
L483.68 193.576
L485.677 204.898
L494.484 212.288
L505.981 212.288
L514.788 204.898
L516.784 193.576
L511.036 183.619
z
" style="fill:#af0a0a;stroke:#000000;stroke-width:0.25;"/>
   </g>
   <g id="patch_26">
    <path clip-path="url(#pfcc5eb3d25)" d="
M483.68 208.356
L472.877 212.288
L467.129 222.245
L469.125 233.567
L477.932 240.957
L489.429 240.957
L498.236 233.567
L500.232 222.245
L494.484 212.288
z
" style="fill:#af0a0a;stroke:#000000;stroke-width:0.25;"/>
   </g>
   <g id="patch_27">
    <path clip-path="url(#pfcc5eb3d25)" d="
M452.573 219.678
L441.77 223.61
L436.021 233.567
L438.018 244.889
L446.825 252.279
L458.321 252.279
L467.129 244.889
L469.125 233.567
L463.377 223.61
z
" style="fill:#af0a0a;stroke:#000000;stroke-width:0.25;"/>
   </g>
   <g id="patch_28">
    <path clip-path="url(#pfcc5eb3d25)" d="
M421.466 208.356
L410.662 212.288
L404.914 222.245
L406.91 233.567
L415.717 240.957
L427.214 240.957
L436.021 233.567
L438.018 222.245
L432.269 212.288
z
" style="fill:#af0a0a;stroke:#000000;stroke-width:0.25;"/>
   </g>
   <g id="patch_29">
    <path clip-path="url(#pfcc5eb3d25)" d="
M404.914 179.687
L394.11 183.619
L388.362 193.576
L390.358 204.898
L399.165 212.288
L410.662 212.288
L419.469 204.898
L421.466 193.576
L415.717 183.619
z
" style="fill:#af0a0a;stroke:#000000;stroke-width:0.25;"/>
   </g>
   <g id="patch_30">
    <path clip-path="url(#pfcc5eb3d25)" d="
M410.662 147.086
L399.859 151.018
L394.11 160.975
L396.107 172.297
L404.914 179.687
L416.411 179.687
L425.218 172.297
L427.214 160.975
L421.466 151.018
z
" style="fill:#af0a0a;stroke:#000000;stroke-width:0.25;"/>
   </g>
   <g id="patch_31">
    <path clip-path="url(#pfcc5eb3d25)" d="
M436.021 125.808
L425.218 129.74
L419.469 139.696
L421.466 151.018
L430.273 158.408
L441.77 158.408
L450.577 151.018
L452.573 139.696
L446.825 129.74
z
" style="fill:#af0a0a;stroke:#000000;stroke-width:0.25;"/>
   </g>
   <g id="patch_32">
    <path clip-path="url(#pfcc5eb3d25)" d="
M452.573 219.678
L472.877 212.288
L483.68 193.576
L479.928 172.297
L463.377 158.408
L441.77 158.408
L425.218 172.297
L421.466 193.576
L432.269 212.288
z
" style="fill:#af0a0a;stroke:#000000;stroke-width:0.25;"/>
   </g>
   <g id="patch_33">
    <path clip-path="url(#pfcc5eb3d25)" d="
M492.487 258.303
L481.684 262.235
L475.936 272.192
L477.932 283.514
L486.739 290.904
L498.236 290.904
L507.043 283.514
L509.039 272.192
L503.291 262.235
z
" style="fill:#af0a0a;stroke:#000000;stroke-width:0.25;"/>
   </g>
   <g id="patch_34">
    <path clip-path="url(#pfcc5eb3d25)" d="
M517.846 279.582
L507.043 283.514
L501.295 293.471
L503.291 304.793
L512.098 312.183
L523.595 312.183
L532.402 304.793
L534.398 293.471
L528.65 283.514
z
" style="fill:#af0a0a;stroke:#000000;stroke-width:0.25;"/>
   </g>
   <g id="patch_35">
    <path clip-path="url(#pfcc5eb3d25)" d="
M523.595 312.183
L512.791 316.115
L507.043 326.071
L509.039 337.394
L517.846 344.784
L529.343 344.784
L538.15 337.394
L540.147 326.071
L534.398 316.115
z
" style="fill:#af0a0a;stroke:#000000;stroke-width:0.25;"/>
   </g>
   <g id="patch_36">
    <path clip-path="url(#pfcc5eb3d25)" d="
M507.043 340.851
L496.239 344.784
L490.491 354.74
L492.487 366.062
L501.295 373.452
L512.791 373.452
L521.598 366.062
L523.595 354.74
L517.846 344.784
z
" style="fill:#af0a0a;stroke:#000000;stroke-width:0.25;"/>
   </g>
   <g id="patch_37">
    <path clip-path="url(#pfcc5eb3d25)" d="
M475.936 352.174
L465.132 356.106
L459.384 366.062
L461.38 377.384
L470.187 384.774
L481.684 384.774
L490.491 377.384
L492.487 366.062
L486.739 356.106
z
" style="fill:#af0a0a;stroke:#000000;stroke-width:0.25;"/>
   </g>
   <g id="patch_38">
    <path clip-path="url(#pfcc5eb3d25)" d="
M444.828 340.851
L434.025 344.784
L428.276 354.74
L430.273 366.062
L439.08 373.452
L450.577 373.452
L459.384 366.062
L461.38 354.74
L455.632 344.784
z
" style="fill:#af0a0a;stroke:#000000;stroke-width:0.25;"/>
   </g>
   <g id="patch_39">
    <path clip-path="url(#pfcc5eb3d25)" d="
M428.276 312.183
L417.473 316.115
L411.724 326.071
L413.721 337.394
L422.528 344.784
L434.025 344.784
L442.832 337.394
L444.828 326.071
L439.08 316.115
z
" style="fill:#af0a0a;stroke:#000000;stroke-width:0.25;"/>
   </g>
   <g id="patch_40">
    <path clip-path="url(#pfcc5eb3d25)" d="
M434.025 279.582
L423.221 283.514
L417.473 293.471
L419.469 304.793
L428.276 312.183
L439.773 312.183
L448.58 304.793
L450.577 293.471
L444.828 283.514
z
" style="fill:#af0a0a;stroke:#000000;stroke-width:0.25;"/>
   </g>
   <g id="patch_41">
    <path clip-path="url(#pfcc5eb3d25)" d="
M459.384 258.303
L448.58 262.235
L442.832 272.192
L444.828 283.514
L453.635 290.904
L465.132 290.904
L473.939 283.514
L475.936 272.192
L470.187 262.235
z
" style="fill:#af0a0a;stroke:#000000;stroke-width:0.25;"/>
   </g>
   <g id="patch_42">
    <path clip-path="url(#pfcc5eb3d25)" d="
M475.936 352.174
L496.239 344.784
L507.043 326.071
L503.291 304.793
L486.739 290.904
L465.132 290.904
L448.58 304.793
L444.828 326.071
L455.632 344.784
z
" style="fill:#af0a0a;stroke:#000000;stroke-width:0.25;"/>
   </g>
   <g id="patch_43">
    <path clip-path="url(#pfcc5eb3d25)" d="
M425.218 374.818
L414.414 378.75
L408.666 388.707
L410.662 400.029
L419.469 407.419
L430.966 407.419
L439.773 400.029
L441.77 388.707
L436.021 378.75
z
" style="fill:#af0a0a;stroke:#000000;stroke-width:0.25;"/>
   </g>
   <g id="patch_44">
    <path clip-path="url(#pfcc5eb3d25)" d="
M450.577 396.097
L439.773 400.029
L434.025 409.985
L436.021 421.307
L444.828 428.697
L456.325 428.697
L465.132 421.307
L467.129 409.985
L461.38 400.029
z
" style="fill:#af0a0a;stroke:#000000;stroke-width:0.25;"/>
   </g>
   <g id="patch_45">
    <path clip-path="url(#pfcc5eb3d25)" d="
M456.325 428.697
L445.522 432.63
L439.773 442.586
L441.77 453.908
L450.577 461.298
L462.073 461.298
L470.881 453.908
L472.877 442.586
L467.129 432.63
z
" style="fill:#af0a0a;stroke:#000000;stroke-width:0.25;"/>
   </g>
   <g id="patch_46">
    <path clip-path="url(#pfcc5eb3d25)" d="
M439.773 457.366
L428.97 461.298
L423.221 471.255
L425.218 482.577
L434.025 489.967
L445.522 489.967
L454.329 482.577
L456.325 471.255
L450.577 461.298
z
" style="fill:#af0a0a;stroke:#000000;stroke-width:0.25;"/>
   </g>
   <g id="patch_47">
    <path clip-path="url(#pfcc5eb3d25)" d="
M408.666 468.688
L397.862 472.62
L392.114 482.577
L394.11 493.899
L402.917 501.289
L414.414 501.289
L423.221 493.899
L425.218 482.577
L419.469 472.62
z
" style="fill:#af0a0a;stroke:#000000;stroke-width:0.25;"/>
   </g>
   <g id="patch_48">
    <path clip-path="url(#pfcc5eb3d25)" d="
M377.558 457.366
L366.755 461.298
L361.007 471.255
L363.003 482.577
L371.81 489.967
L383.307 489.967
L392.114 482.577
L394.11 471.255
L388.362 461.298
z
" style="fill:#af0a0a;stroke:#000000;stroke-width:0.25;"/>
   </g>
   <g id="patch_49">
    <path clip-path="url(#pfcc5eb3d25)" d="
M361.007 428.697
L350.203 432.63
L344.455 442.586
L346.451 453.908
L355.258 461.298
L366.755 461.298
L375.562 453.908
L377.558 442.586
L371.81 432.63
z
" style="fill:#af0a0a;stroke:#000000;stroke-width:0.25;"/>
   </g>
   <g id="patch_50">
    <path clip-path="url(#pfcc5eb3d25)" d="
M366.755 396.097
L355.952 400.029
L350.203 409.985
L352.2 421.307
L361.007 428.697
L372.503 428.697
L381.31 421.307
L383.307 409.985
L377.558 400.029
z
" style="fill:#af0a0a;stroke:#000000;stroke-width:0.25;"/>
   </g>
   <g id="patch_51">
    <path clip-path="url(#pfcc5eb3d25)" d="
M392.114 374.818
L381.31 378.75
L375.562 388.707
L377.558 400.029
L386.366 407.419
L397.862 407.419
L406.669 400.029
L408.666 388.707
L402.917 378.75
z
" style="fill:#af0a0a;stroke:#000000;stroke-width:0.25;"/>
   </g>
   <g id="patch_52">
    <path clip-path="url(#pfcc5eb3d25)" d="
M408.666 468.688
L428.97 461.298
L439.773 442.586
L436.021 421.307
L419.469 407.419
L397.862 407.419
L381.31 421.307
L377.558 442.586
L388.362 461.298
z
" style="fill:#af0a0a;stroke:#000000;stroke-width:0.25;"/>
   </g>
   <g id="patch_53">
    <path clip-path="url(#pfcc5eb3d25)" d="
M298.792 420.833
L287.988 424.765
L282.24 434.722
L284.236 446.044
L293.043 453.434
L304.54 453.434
L313.347 446.044
L315.344 434.722
L309.595 424.765
z
" style="fill:#af0a0a;stroke:#000000;stroke-width:0.25;"/>
   </g>
   <g id="patch_54">
    <path clip-path="url(#pfcc5eb3d25)" d="
M324.151 442.112
L313.347 446.044
L307.599 456.001
L309.595 467.323
L318.402 474.713
L329.899 474.713
L338.706 467.323
L340.703 456.001
L334.954 446.044
z
" style="fill:#af0a0a;stroke:#000000;stroke-width:0.25;"/>
   </g>
   <g id="patch_55">
    <path clip-path="url(#pfcc5eb3d25)" d="
M329.899 474.713
L319.096 478.645
L313.347 488.601
L315.344 499.924
L324.151 507.314
L335.648 507.314
L344.455 499.924
L346.451 488.601
L340.703 478.645
z
" style="fill:#af0a0a;stroke:#000000;stroke-width:0.25;"/>
   </g>
   <g id="patch_56">
    <path clip-path="url(#pfcc5eb3d25)" d="
M313.347 503.381
L302.544 507.314
L296.795 517.27
L298.792 528.592
L307.599 535.982
L319.096 535.982
L327.903 528.592
L329.899 517.27
L324.151 507.314
z
" style="fill:#af0a0a;stroke:#000000;stroke-width:0.25;"/>
   </g>
   <g id="patch_57">
    <path clip-path="url(#pfcc5eb3d25)" d="
M282.24 514.704
L271.437 518.636
L265.688 528.592
L267.685 539.914
L276.492 547.304
L287.988 547.304
L296.795 539.914
L298.792 528.592
L293.043 518.636
z
" style="fill:#af0a0a;stroke:#000000;stroke-width:0.25;"/>
   </g>
   <g id="patch_58">
    <path clip-path="url(#pfcc5eb3d25)" d="
M251.133 503.381
L240.329 507.314
L234.581 517.27
L236.577 528.592
L245.384 535.982
L256.881 535.982
L265.688 528.592
L267.685 517.27
L261.936 507.314
z
" style="fill:#af0a0a;stroke:#000000;stroke-width:0.25;"/>
   </g>
   <g id="patch_59">
    <path clip-path="url(#pfcc5eb3d25)" d="
M234.581 474.713
L223.777 478.645
L218.029 488.601
L220.025 499.924
L228.832 507.314
L240.329 507.314
L249.136 499.924
L251.133 488.601
L245.384 478.645
z
" style="fill:#af0a0a;stroke:#000000;stroke-width:0.25;"/>
   </g>
   <g id="patch_60">
    <path clip-path="url(#pfcc5eb3d25)" d="
M240.329 442.112
L229.526 446.044
L223.777 456.001
L225.774 467.323
L234.581 474.713
L246.078 474.713
L254.885 467.323
L256.881 456.001
L251.133 446.044
z
" style="fill:#af0a0a;stroke:#000000;stroke-width:0.25;"/>
   </g>
   <g id="patch_61">
    <path clip-path="url(#pfcc5eb3d25)" d="
M265.688 420.833
L254.885 424.765
L249.136 434.722
L251.133 446.044
L259.94 453.434
L271.437 453.434
L280.244 446.044
L282.24 434.722
L276.492 424.765
z
" style="fill:#af0a0a;stroke:#000000;stroke-width:0.25;"/>
   </g>
   <g id="patch_62">
    <path clip-path="url(#pfcc5eb3d25)" d="
M282.24 514.704
L302.544 507.314
L313.347 488.601
L309.595 467.323
L293.043 453.434
L271.437 453.434
L254.885 467.323
L251.133 488.601
L261.936 507.314
z
" style="fill:#af0a0a;stroke:#000000;stroke-width:0.25;"/>
   </g>
   <g id="patch_63">
    <path clip-path="url(#pfcc5eb3d25)" d="
M172.366 374.818
L161.563 378.75
L155.814 388.707
L157.811 400.029
L166.618 407.419
L178.114 407.419
L186.922 400.029
L188.918 388.707
L183.17 378.75
z
" style="fill:#af0a0a;stroke:#000000;stroke-width:0.25;"/>
   </g>
   <g id="patch_64">
    <path clip-path="url(#pfcc5eb3d25)" d="
M197.725 396.097
L186.922 400.029
L181.173 409.985
L183.17 421.307
L191.977 428.697
L203.473 428.697
L212.28 421.307
L214.277 409.985
L208.528 400.029
z
" style="fill:#af0a0a;stroke:#000000;stroke-width:0.25;"/>
   </g>
   <g id="patch_65">
    <path clip-path="url(#pfcc5eb3d25)" d="
M203.473 428.697
L192.67 432.63
L186.922 442.586
L188.918 453.908
L197.725 461.298
L209.222 461.298
L218.029 453.908
L220.025 442.586
L214.277 432.63
z
" style="fill:#af0a0a;stroke:#000000;stroke-width:0.25;"/>
   </g>
   <g id="patch_66">
    <path clip-path="url(#pfcc5eb3d25)" d="
M186.922 457.366
L176.118 461.298
L170.37 471.255
L172.366 482.577
L181.173 489.967
L192.67 489.967
L201.477 482.577
L203.473 471.255
L197.725 461.298
z
" style="fill:#af0a0a;stroke:#000000;stroke-width:0.25;"/>
   </g>
   <g id="patch_67">
    <path clip-path="url(#pfcc5eb3d25)" d="
M155.814 468.688
L145.011 472.62
L139.262 482.577
L141.259 493.899
L150.066 501.289
L161.563 501.289
L170.37 493.899
L172.366 482.577
L166.618 472.62
z
" style="fill:#af0a0a;stroke:#000000;stroke-width:0.25;"/>
   </g>
   <g id="patch_68">
    <path clip-path="url(#pfcc5eb3d25)" d="
M124.707 457.366
L113.903 461.298
L108.155 471.255
L110.151 482.577
L118.958 489.967
L130.455 489.967
L139.262 482.577
L141.259 471.255
L135.51 461.298
z
" style="fill:#af0a0a;stroke:#000000;stroke-width:0.25;"/>
   </g>
   <g id="patch_69">
    <path clip-path="url(#pfcc5eb3d25)" d="
M108.155 428.697
L97.3515 432.63
L91.6031 442.586
L93.5995 453.908
L102.407 461.298
L113.903 461.298
L122.71 453.908
L124.707 442.586
L118.958 432.63
z
" style="fill:#af0a0a;stroke:#000000;stroke-width:0.25;"/>
   </g>
   <g id="patch_70">
    <path clip-path="url(#pfcc5eb3d25)" d="
M113.903 396.097
L103.1 400.029
L97.3515 409.985
L99.3479 421.307
L108.155 428.697
L119.652 428.697
L128.459 421.307
L130.455 409.985
L124.707 400.029
z
" style="fill:#af0a0a;stroke:#000000;stroke-width:0.25;"/>
   </g>
   <g id="patch_71">
    <path clip-path="url(#pfcc5eb3d25)" d="
M139.262 374.818
L128.459 378.75
L122.71 388.707
L124.707 400.029
L133.514 407.419
L145.011 407.419
L153.818 400.029
L155.814 388.707
L150.066 378.75
z
" style="fill:#af0a0a;stroke:#000000;stroke-width:0.25;"/>
   </g>
   <g id="patch_72">
    <path clip-path="url(#pfcc5eb3d25)" d="
M155.814 468.688
L176.118 461.298
L186.922 442.586
L183.17 421.307
L166.618 407.419
L145.011 407.419
L128.459 421.307
L124.707 442.586
L135.51 461.298
z
" style="fill:#af0a0a;stroke:#000000;stroke-width:0.25;"/>
   </g>
   <g id="patch_73">
    <path clip-path="url(#pfcc5eb3d25)" d="
M105.096 258.303
L94.2928 262.235
L88.5444 272.192
L90.5408 283.514
L99.3479 290.904
L110.845 290.904
L119.652 283.514
L121.648 272.192
L115.9 262.235
z
" style="fill:#af0a0a;stroke:#000000;stroke-width:0.25;"/>
   </g>
   <g id="patch_74">
    <path clip-path="url(#pfcc5eb3d25)" d="
M130.455 279.582
L119.652 283.514
L113.903 293.471
L115.9 304.793
L124.707 312.183
L136.204 312.183
L145.011 304.793
L147.007 293.471
L141.259 283.514
z
" style="fill:#af0a0a;stroke:#000000;stroke-width:0.25;"/>
   </g>
   <g id="patch_75">
    <path clip-path="url(#pfcc5eb3d25)" d="
M136.204 312.183
L125.4 316.115
L119.652 326.071
L121.648 337.394
L130.455 344.784
L141.952 344.784
L150.759 337.394
L152.756 326.071
L147.007 316.115
z
" style="fill:#af0a0a;stroke:#000000;stroke-width:0.25;"/>
   </g>
   <g id="patch_76">
    <path clip-path="url(#pfcc5eb3d25)" d="
M119.652 340.851
L108.848 344.784
L103.1 354.74
L105.096 366.062
L113.903 373.452
L125.4 373.452
L134.207 366.062
L136.204 354.74
L130.455 344.784
z
" style="fill:#af0a0a;stroke:#000000;stroke-width:0.25;"/>
   </g>
   <g id="patch_77">
    <path clip-path="url(#pfcc5eb3d25)" d="
M88.5444 352.174
L77.7409 356.106
L71.9925 366.062
L73.9889 377.384
L82.796 384.774
L94.2928 384.774
L103.1 377.384
L105.096 366.062
L99.3479 356.106
z
" style="fill:#af0a0a;stroke:#000000;stroke-width:0.25;"/>
   </g>
   <g id="patch_78">
    <path clip-path="url(#pfcc5eb3d25)" d="
M57.437 340.851
L46.6336 344.784
L40.8852 354.74
L42.8816 366.062
L51.6886 373.452
L63.1854 373.452
L71.9925 366.062
L73.9889 354.74
L68.2405 344.784
z
" style="fill:#af0a0a;stroke:#000000;stroke-width:0.25;"/>
   </g>
   <g id="patch_79">
    <path clip-path="url(#pfcc5eb3d25)" d="
M40.8852 312.183
L30.0817 316.115
L24.3333 326.071
L26.3297 337.394
L35.1367 344.784
L46.6336 344.784
L55.4406 337.394
L57.437 326.071
L51.6886 316.115
z
" style="fill:#af0a0a;stroke:#000000;stroke-width:0.25;"/>
   </g>
   <g id="patch_80">
    <path clip-path="url(#pfcc5eb3d25)" d="
M46.6336 279.582
L35.8301 283.514
L30.0817 293.471
L32.0781 304.793
L40.8852 312.183
L52.382 312.183
L61.189 304.793
L63.1854 293.471
L57.437 283.514
z
" style="fill:#af0a0a;stroke:#000000;stroke-width:0.25;"/>
   </g>
   <g id="patch_81">
    <path clip-path="url(#pfcc5eb3d25)" d="
M71.9925 258.303
L61.189 262.235
L55.4406 272.192
L57.437 283.514
L66.2441 290.904
L77.7409 290.904
L86.548 283.514
L88.5444 272.192
L82.796 262.235
z
" style="fill:#af0a0a;stroke:#000000;stroke-width:0.25;"/>
   </g>
   <g id="patch_82">
    <path clip-path="url(#pfcc5eb3d25)" d="
M88.5444 352.174
L108.848 344.784
L119.652 326.071
L115.9 304.793
L99.3479 290.904
L77.7409 290.904
L61.189 304.793
L57.437 326.071
L68.2405 344.784
z
" style="fill:#af0a0a;stroke:#000000;stroke-width:0.25;"/>
   </g>
   <g id="patch_83">
    <path clip-path="url(#pfcc5eb3d25)" d="
M128.459 125.808
L117.655 129.74
L111.907 139.696
L113.903 151.018
L122.71 158.408
L134.207 158.408
L143.014 151.018
L145.011 139.696
L139.262 129.74
z
" style="fill:#af0a0a;stroke:#000000;stroke-width:0.25;"/>
   </g>
   <g id="patch_84">
    <path clip-path="url(#pfcc5eb3d25)" d="
M153.818 147.086
L143.014 151.018
L137.266 160.975
L139.262 172.297
L148.069 179.687
L159.566 179.687
L168.373 172.297
L170.37 160.975
L164.621 151.018
z
" style="fill:#af0a0a;stroke:#000000;stroke-width:0.25;"/>
   </g>
   <g id="patch_85">
    <path clip-path="url(#pfcc5eb3d25)" d="
M159.566 179.687
L148.763 183.619
L143.014 193.576
L145.011 204.898
L153.818 212.288
L165.315 212.288
L174.122 204.898
L176.118 193.576
L170.37 183.619
z
" style="fill:#af0a0a;stroke:#000000;stroke-width:0.25;"/>
   </g>
   <g id="patch_86">
    <path clip-path="url(#pfcc5eb3d25)" d="
M143.014 208.356
L132.211 212.288
L126.462 222.245
L128.459 233.567
L137.266 240.957
L148.763 240.957
L157.57 233.567
L159.566 222.245
L153.818 212.288
z
" style="fill:#af0a0a;stroke:#000000;stroke-width:0.25;"/>
   </g>
   <g id="patch_87">
    <path clip-path="url(#pfcc5eb3d25)" d="
M111.907 219.678
L101.103 223.61
L95.3551 233.567
L97.3515 244.889
L106.159 252.279
L117.655 252.279
L126.462 244.889
L128.459 233.567
L122.71 223.61
z
" style="fill:#af0a0a;stroke:#000000;stroke-width:0.25;"/>
   </g>
   <g id="patch_88">
    <path clip-path="url(#pfcc5eb3d25)" d="
M80.7996 208.356
L69.9961 212.288
L64.2477 222.245
L66.2441 233.567
L75.0512 240.957
L86.548 240.957
L95.3551 233.567
L97.3515 222.245
L91.6031 212.288
z
" style="fill:#af0a0a;stroke:#000000;stroke-width:0.25;"/>
   </g>
   <g id="patch_89">
    <path clip-path="url(#pfcc5eb3d25)" d="
M64.2477 179.687
L53.4442 183.619
L47.6958 193.576
L49.6922 204.898
L58.4993 212.288
L69.9961 212.288
L78.8032 204.898
L80.7996 193.576
L75.0512 183.619
z
" style="fill:#af0a0a;stroke:#000000;stroke-width:0.25;"/>
   </g>
   <g id="patch_90">
    <path clip-path="url(#pfcc5eb3d25)" d="
M69.9961 147.086
L59.1926 151.018
L53.4442 160.975
L55.4406 172.297
L64.2477 179.687
L75.7445 179.687
L84.5516 172.297
L86.548 160.975
L80.7996 151.018
z
" style="fill:#af0a0a;stroke:#000000;stroke-width:0.25;"/>
   </g>
   <g id="patch_91">
    <path clip-path="url(#pfcc5eb3d25)" d="
M95.3551 125.808
L84.5516 129.74
L78.8032 139.696
L80.7996 151.018
L89.6067 158.408
L101.103 158.408
L109.911 151.018
L111.907 139.696
L106.159 129.74
z
" style="fill:#af0a0a;stroke:#000000;stroke-width:0.25;"/>
   </g>
   <g id="patch_92">
    <path clip-path="url(#pfcc5eb3d25)" d="
M111.907 219.678
L132.211 212.288
L143.014 193.576
L139.262 172.297
L122.71 158.408
L101.103 158.408
L84.5516 172.297
L80.7996 193.576
L91.6031 212.288
z
" style="fill:#af0a0a;stroke:#000000;stroke-width:0.25;"/>
   </g>
   <g id="patch_93">
    <path clip-path="url(#pfcc5eb3d25)" d="
M231.522 39.3273
L220.719 43.2594
L214.97 53.216
L216.967 64.5381
L225.774 71.9281
L237.271 71.9281
L246.078 64.5381
L248.074 53.216
L242.326 43.2594
z
" style="fill:#af0a0a;stroke:#000000;stroke-width:0.25;"/>
   </g>
   <g id="patch_94">
    <path clip-path="url(#pfcc5eb3d25)" d="
M256.881 60.606
L246.078 64.5381
L240.329 74.4946
L242.326 85.8168
L251.133 93.2068
L262.629 93.2068
L271.437 85.8168
L273.433 74.4946
L267.685 64.5381
z
" style="fill:#af0a0a;stroke:#000000;stroke-width:0.25;"/>
   </g>
   <g id="patch_95">
    <path clip-path="url(#pfcc5eb3d25)" d="
M262.629 93.2068
L251.826 97.1389
L246.078 107.095
L248.074 118.418
L256.881 125.808
L268.378 125.808
L277.185 118.418
L279.181 107.095
L273.433 97.1389
z
" style="fill:#af0a0a;stroke:#000000;stroke-width:0.25;"/>
   </g>
   <g id="patch_96">
    <path clip-path="url(#pfcc5eb3d25)" d="
M246.078 121.875
L235.274 125.808
L229.526 135.764
L231.522 147.086
L240.329 154.476
L251.826 154.476
L260.633 147.086
L262.629 135.764
L256.881 125.808
z
" style="fill:#af0a0a;stroke:#000000;stroke-width:0.25;"/>
   </g>
   <g id="patch_97">
    <path clip-path="url(#pfcc5eb3d25)" d="
M214.97 133.198
L204.167 137.13
L198.418 147.086
L200.415 158.408
L209.222 165.798
L220.719 165.798
L229.526 158.408
L231.522 147.086
L225.774 137.13
z
" style="fill:#af0a0a;stroke:#000000;stroke-width:0.25;"/>
   </g>
   <g id="patch_98">
    <path clip-path="url(#pfcc5eb3d25)" d="
M183.863 121.875
L173.059 125.808
L167.311 135.764
L169.307 147.086
L178.114 154.476
L189.611 154.476
L198.418 147.086
L200.415 135.764
L194.666 125.808
z
" style="fill:#af0a0a;stroke:#000000;stroke-width:0.25;"/>
   </g>
   <g id="patch_99">
    <path clip-path="url(#pfcc5eb3d25)" d="
M167.311 93.2068
L156.508 97.1389
L150.759 107.095
L152.756 118.418
L161.563 125.808
L173.059 125.808
L181.866 118.418
L183.863 107.095
L178.114 97.1389
z
" style="fill:#af0a0a;stroke:#000000;stroke-width:0.25;"/>
   </g>
   <g id="patch_100">
    <path clip-path="url(#pfcc5eb3d25)" d="
M173.059 60.606
L162.256 64.5381
L156.508 74.4946
L158.504 85.8168
L167.311 93.2068
L178.808 93.2068
L187.615 85.8168
L189.611 74.4946
L183.863 64.5381
z
" style="fill:#af0a0a;stroke:#000000;stroke-width:0.25;"/>
   </g>
   <g id="patch_101">
    <path clip-path="url(#pfcc5eb3d25)" d="
M198.418 39.3273
L187.615 43.2594
L181.866 53.216
L183.863 64.5381
L192.67 71.9281
L204.167 71.9281
L212.974 64.5381
L214.97 53.216
L209.222 43.2594
z
" style="fill:#af0a0a;stroke:#000000;stroke-width:0.25;"/>
   </g>
   <g id="patch_102">
    <path clip-path="url(#pfcc5eb3d25)" d="
M214.97 133.198
L235.274 125.808
L246.078 107.095
L242.326 85.8168
L225.774 71.9281
L204.167 71.9281
L187.615 85.8168
L183.863 107.095
L194.666 125.808
z
" style="fill:#af0a0a;stroke:#000000;stroke-width:0.25;"/>
   </g>
   <g id="patch_103">
    <path clip-path="url(#pfcc5eb3d25)" d="
M251.133 403.487
L271.437 396.097
L282.24 377.384
L278.488 356.106
L261.936 342.217
L240.329 342.217
L223.777 356.106
L220.025 377.384
L230.829 396.097
z
" style="fill:#af0a0a;stroke:#000000;stroke-width:0.25;"/>
   </g>
   <g id="patch_104">
    <path clip-path="url(#pfcc5eb3d25)" d="
M203.473 363.496
L223.777 356.106
L234.581 337.394
L230.829 316.115
L214.277 302.226
L192.67 302.226
L176.118 316.115
L172.366 337.394
L183.17 356.106
z
" style="fill:#af0a0a;stroke:#000000;stroke-width:0.25;"/>
   </g>
   <g id="patch_105">
    <path clip-path="url(#pfcc5eb3d25)" d="
M192.67 302.226
L212.974 294.836
L223.777 276.124
L220.025 254.845
L203.473 240.957
L181.866 240.957
L165.315 254.845
L161.563 276.124
L172.366 294.836
z
" style="fill:#af0a0a;stroke:#000000;stroke-width:0.25;"/>
   </g>
   <g id="patch_106">
    <path clip-path="url(#pfcc5eb3d25)" d="
M223.777 248.347
L244.081 240.957
L254.885 222.245
L251.133 200.966
L234.581 187.077
L212.974 187.077
L196.422 200.966
L192.67 222.245
L203.473 240.957
z
" style="fill:#af0a0a;stroke:#000000;stroke-width:0.25;"/>
   </g>
   <g id="patch_107">
    <path clip-path="url(#pfcc5eb3d25)" d="
M282.24 227.068
L302.544 219.678
L313.347 200.966
L309.595 179.687
L293.043 165.798
L271.437 165.798
L254.885 179.687
L251.133 200.966
L261.936 219.678
z
" style="fill:#af0a0a;stroke:#000000;stroke-width:0.25;"/>
   </g>
   <g id="patch_108">
    <path clip-path="url(#pfcc5eb3d25)" d="
M340.703 248.347
L361.007 240.957
L371.81 222.245
L368.058 200.966
L351.506 187.077
L329.899 187.077
L313.347 200.966
L309.595 222.245
L320.399 240.957
z
" style="fill:#af0a0a;stroke:#000000;stroke-width:0.25;"/>
   </g>
   <g id="patch_109">
    <path clip-path="url(#pfcc5eb3d25)" d="
M371.81 302.226
L392.114 294.836
L402.917 276.124
L399.165 254.845
L382.614 240.957
L361.007 240.957
L344.455 254.845
L340.703 276.124
L351.506 294.836
z
" style="fill:#af0a0a;stroke:#000000;stroke-width:0.25;"/>
   </g>
   <g id="patch_110">
    <path clip-path="url(#pfcc5eb3d25)" d="
M361.007 363.496
L381.31 356.106
L392.114 337.394
L388.362 316.115
L371.81 302.226
L350.203 302.226
L333.651 316.115
L329.899 337.394
L340.703 356.106
z
" style="fill:#af0a0a;stroke:#000000;stroke-width:0.25;"/>
   </g>
   <g id="patch_111">
    <path clip-path="url(#pfcc5eb3d25)" d="
M313.347 403.487
L333.651 396.097
L344.455 377.384
L340.703 356.106
L324.151 342.217
L302.544 342.217
L285.992 356.106
L282.24 377.384
L293.043 396.097
z
" style="fill:#af0a0a;stroke:#000000;stroke-width:0.25;"/>
   </g>
   <g id="patch_112">
    <path clip-path="url(#pfcc5eb3d25)" d="
M282.24 227.068
L244.081 240.957
L223.777 276.124
L230.829 316.115
L261.936 342.217
L302.544 342.217
L333.651 316.115
L340.703 276.124
L320.399 240.957
z
" style="fill:#af0a0a;stroke:#000000;stroke-width:0.25;"/>
   </g>
   <g id="matplotlib.axis_1"/>
   <g id="matplotlib.axis_2"/>
  </g>
 </g>
 <defs>
  <clipPath id="pfcc5eb3d25">
   <rect height="541.723048777" width="550.08" x="7.2" y="7.2"/>
  </clipPath>
 </defs>
</svg>
