<?xml version="1.0" encoding="utf-8" standalone="no"?>
<!DOCTYPE svg PUBLIC "-//W3C//DTD SVG 1.1//EN"
  "http://www.w3.org/Graphics/SVG/1.1/DTD/svg11.dtd">
<!-- Created with matplotlib (http://matplotlib.org/) -->
<svg height="564pt" version="1.1" viewBox="0 0 564 564" width="564pt" xmlns="http://www.w3.org/2000/svg" xmlns:xlink="http://www.w3.org/1999/xlink">
 <defs>
  <style type="text/css">
*{stroke-linecap:butt;stroke-linejoin:round;}
  </style>
 </defs>
 <g id="figure_1">
  <g id="patch_1">
   <path d="
M0 564.48
L564.48 564.48
L564.48 0
L0 0
z
" style="fill:none;"/>
  </g>
  <g id="axes_1">
   <g id="patch_2">
    <path clip-path="url(#p09214e8173)" d="
M282.24 8.29687
L145.268 44.9983
L44.9983 145.268
L8.29687 282.24
L44.9983 419.212
L145.268 519.482
L282.24 556.183
L419.212 519.482
L519.482 419.212
L556.183 282.24
L519.482 145.268
L419.212 44.9983
z
" style="fill:#bcd4e6;stroke:#000000;stroke-width:0.25;"/>
   </g>
   <g id="patch_3">
    <path clip-path="url(#p09214e8173)" d="
M337.029 22.9774
L309.634 30.3177
L289.58 50.3717
L282.24 77.7661
L289.58 105.16
L309.634 125.214
L337.029 132.555
L364.423 125.214
L384.477 105.16
L391.817 77.7661
L384.477 50.3717
L364.423 30.3177
z
" style="fill:#eae2ac;stroke:#000000;stroke-width:0.25;"/>
   </g>
   <g id="patch_4">
    <path clip-path="url(#p09214e8173)" d="
M431.925 77.7661
L404.531 85.1063
L384.477 105.16
L377.137 132.555
L384.477 159.949
L404.531 180.003
L431.925 187.343
L459.32 180.003
L479.374 159.949
L486.714 132.555
L479.374 105.16
L459.32 85.1063
z
" style="fill:#eae2ac;stroke:#000000;stroke-width:0.25;"/>
   </g>
   <g id="patch_5">
    <path clip-path="url(#p09214e8173)" d="
M486.714 172.663
L459.32 180.003
L439.266 200.057
L431.925 227.451
L439.266 254.846
L459.32 274.9
L486.714 282.24
L514.108 274.9
L534.162 254.846
L541.503 227.451
L534.162 200.057
L514.108 180.003
z
" style="fill:#eae2ac;stroke:#000000;stroke-width:0.25;"/>
   </g>
   <g id="patch_6">
    <path clip-path="url(#p09214e8173)" d="
M486.714 282.24
L459.32 289.58
L439.266 309.634
L431.925 337.029
L439.266 364.423
L459.32 384.477
L486.714 391.817
L514.108 384.477
L534.162 364.423
L541.503 337.029
L534.162 309.634
L514.108 289.58
z
" style="fill:#eae2ac;stroke:#000000;stroke-width:0.25;"/>
   </g>
   <g id="patch_7">
    <path clip-path="url(#p09214e8173)" d="
M431.925 377.137
L404.531 384.477
L384.477 404.531
L377.137 431.925
L384.477 459.32
L404.531 479.374
L431.925 486.714
L459.32 479.374
L479.374 459.32
L486.714 431.925
L479.374 404.531
L459.32 384.477
z
" style="fill:#eae2ac;stroke:#000000;stroke-width:0.25;"/>
   </g>
   <g id="patch_8">
    <path clip-path="url(#p09214e8173)" d="
M337.029 431.925
L309.634 439.266
L289.58 459.32
L282.24 486.714
L289.58 514.108
L309.634 534.162
L337.029 541.503
L364.423 534.162
L384.477 514.108
L391.817 486.714
L384.477 459.32
L364.423 439.266
z
" style="fill:#eae2ac;stroke:#000000;stroke-width:0.25;"/>
   </g>
   <g id="patch_9">
    <path clip-path="url(#p09214e8173)" d="
M227.451 431.925
L200.057 439.266
L180.003 459.32
L172.663 486.714
L180.003 514.108
L200.057 534.162
L227.451 541.503
L254.846 534.162
L274.9 514.108
L282.24 486.714
L274.9 459.32
L254.846 439.266
z
" style="fill:#eae2ac;stroke:#000000;stroke-width:0.25;"/>
   </g>
   <g id="patch_10">
    <path clip-path="url(#p09214e8173)" d="
M132.555 377.137
L105.16 384.477
L85.1063 404.531
L77.7661 431.925
L85.1063 459.32
L105.16 479.374
L132.555 486.714
L159.949 479.374
L180.003 459.32
L187.343 431.925
L180.003 404.531
L159.949 384.477
z
" style="fill:#eae2ac;stroke:#000000;stroke-width:0.25;"/>
   </g>
   <g id="patch_11">
    <path clip-path="url(#p09214e8173)" d="
M77.7661 282.24
L50.3717 289.58
L30.3177 309.634
L22.9774 337.029
L30.3177 364.423
L50.3717 384.477
L77.7661 391.817
L105.16 384.477
L125.214 364.423
L132.555 337.029
L125.214 309.634
L105.16 289.58
z
" style="fill:#eae2ac;stroke:#000000;stroke-width:0.25;"/>
   </g>
   <g id="patch_12">
    <path clip-path="url(#p09214e8173)" d="
M77.7661 172.663
L50.3717 180.003
L30.3177 200.057
L22.9774 227.451
L30.3177 254.846
L50.3717 274.9
L77.7661 282.24
L105.16 274.9
L125.214 254.846
L132.555 227.451
L125.214 200.057
L105.16 180.003
z
" style="fill:#eae2ac;stroke:#000000;stroke-width:0.25;"/>
   </g>
   <g id="patch_13">
    <path clip-path="url(#p09214e8173)" d="
M132.555 77.7661
L105.16 85.1063
L85.1063 105.16
L77.7661 132.555
L85.1063 159.949
L105.16 180.003
L132.555 187.343
L159.949 180.003
L180.003 159.949
L187.343 132.555
L180.003 105.16
L159.949 85.1063
z
" style="fill:#eae2ac;stroke:#000000;stroke-width:0.25;"/>
   </g>
   <g id="patch_14">
    <path clip-path="url(#p09214e8173)" d="
M227.451 22.9774
L200.057 30.3177
L180.003 50.3717
L172.663 77.7661
L180.003 105.16
L200.057 125.214
L227.451 132.555
L254.846 125.214
L274.9 105.16
L282.24 77.7661
L274.9 50.3717
L254.846 30.3177
z
" style="fill:#eae2ac;stroke:#000000;stroke-width:0.25;"/>
   </g>
   <g id="patch_15">
    <path clip-path="url(#p09214e8173)" d="
M282.24 446.606
L364.423 424.585
L424.585 364.423
L446.606 282.24
L424.585 200.057
L364.423 139.895
L282.24 117.874
L200.057 139.895
L139.895 200.057
L117.874 282.24
L139.895 364.423
L200.057 424.585
z
" style="fill:#eae2ac;stroke:#000000;stroke-width:0.25;"/>
   </g>
   <g id="matplotlib.axis_1"/>
   <g id="matplotlib.axis_2"/>
  </g>
 </g>
 <defs>
  <clipPath id="p09214e8173">
   <rect height="550.08" width="550.08" x="7.2" y="7.2"/>
  </clipPath>
 </defs>
</svg>
