<?xml version="1.0" encoding="utf-8" standalone="no"?>
<!DOCTYPE svg PUBLIC "-//W3C//DTD SVG 1.1//EN"
  "http://www.w3.org/Graphics/SVG/1.1/DTD/svg11.dtd">
<!-- Created with matplotlib (http://matplotlib.org/) -->
<svg height="564pt" version="1.1" viewBox="0 0 564 564" width="564pt" xmlns="http://www.w3.org/2000/svg" xmlns:xlink="http://www.w3.org/1999/xlink">
 <defs>
  <style type="text/css">
*{stroke-linecap:butt;stroke-linejoin:round;}
  </style>
 </defs>
 <g id="figure_1">
  <g id="patch_1">
   <path d="
M0 564.48
L564.48 564.48
L564.48 0
L0 0
z
" style="fill:none;"/>
  </g>
  <g id="axes_1">
   <g id="patch_2">
    <path clip-path="url(#p09214e8173)" d="
M282.24 8.29687
L8.29687 282.24
L282.24 556.183
L556.183 282.24
z
" style="fill:#bcd4e6;stroke:#000000;stroke-width:0.25;"/>
   </g>
   <g id="patch_3">
    <path clip-path="url(#p09214e8173)" d="
M373.554 99.6112
L282.24 190.926
L373.554 282.24
L464.869 190.926
z
" style="fill:#eae2ac;stroke:#000000;stroke-width:0.25;"/>
   </g>
   <g id="patch_4">
    <path clip-path="url(#p09214e8173)" d="
M373.554 282.24
L282.24 373.554
L373.554 464.869
L464.869 373.554
z
" style="fill:#eae2ac;stroke:#000000;stroke-width:0.25;"/>
   </g>
   <g id="patch_5">
    <path clip-path="url(#p09214e8173)" d="
M190.926 282.24
L99.6112 373.554
L190.926 464.869
L282.24 373.554
z
" style="fill:#eae2ac;stroke:#000000;stroke-width:0.25;"/>
   </g>
   <g id="patch_6">
    <path clip-path="url(#p09214e8173)" d="
M190.926 99.6112
L99.6112 190.926
L190.926 282.24
L282.24 190.926
z
" style="fill:#eae2ac;stroke:#000000;stroke-width:0.25;"/>
   </g>
   <g id="patch_7">
    <path clip-path="url(#p09214e8173)" d="
M282.24 373.554
L373.554 282.24
L282.24 190.926
L190.926 282.24
z
" style="fill:#eae2ac;stroke:#000000;stroke-width:0.25;"/>
   </g>
   <g id="matplotlib.axis_1"/>
   <g id="matplotlib.axis_2"/>
  </g>
 </g>
 <defs>
  <clipPath id="p09214e8173">
   <rect height="550.08" width="550.08" x="7.2" y="7.2"/>
  </clipPath>
 </defs>
</svg>
