<?xml version="1.0" encoding="utf-8" standalone="no"?>
<!DOCTYPE svg PUBLIC "-//W3C//DTD SVG 1.1//EN"
  "http://www.w3.org/Graphics/SVG/1.1/DTD/svg11.dtd">
<!-- Created with matplotlib (http://matplotlib.org/) -->
<svg height="564pt" version="1.1" viewBox="0 0 564 564" width="564pt" xmlns="http://www.w3.org/2000/svg" xmlns:xlink="http://www.w3.org/1999/xlink">
 <defs>
  <style type="text/css">
*{stroke-linecap:butt;stroke-linejoin:round;}
  </style>
 </defs>
 <g id="figure_1">
  <g id="patch_1">
   <path d="
M0 564.48
L564.48 564.48
L564.48 0
L0 0
z
" style="fill:none;"/>
  </g>
  <g id="axes_1">
   <g id="patch_2">
    <path clip-path="url(#p09214e8173)" d="
M282.24 8.84366
L8.84366 282.24
L282.24 555.636
L555.636 282.24
z
" style="fill:#bcd4e6;stroke:#000000;stroke-width:0.25;"/>
   </g>
   <g id="patch_3">
    <path clip-path="url(#p09214e8173)" d="
M373.372 99.9758
L282.24 191.108
L373.372 282.24
L464.504 191.108
z
" style="fill:#eae2ac;stroke:#000000;stroke-width:0.25;"/>
   </g>
   <g id="patch_4">
    <path clip-path="url(#p09214e8173)" d="
M373.372 282.24
L282.24 373.372
L373.372 464.504
L464.504 373.372
z
" style="fill:#eae2ac;stroke:#000000;stroke-width:0.25;"/>
   </g>
   <g id="patch_5">
    <path clip-path="url(#p09214e8173)" d="
M191.108 282.24
L99.9758 373.372
L191.108 464.504
L282.24 373.372
z
" style="fill:#eae2ac;stroke:#000000;stroke-width:0.25;"/>
   </g>
   <g id="patch_6">
    <path clip-path="url(#p09214e8173)" d="
M191.108 99.9758
L99.9758 191.108
L191.108 282.24
L282.24 191.108
z
" style="fill:#eae2ac;stroke:#000000;stroke-width:0.25;"/>
   </g>
   <g id="patch_7">
    <path clip-path="url(#p09214e8173)" d="
M282.24 373.372
L373.372 282.24
L282.24 191.108
L191.108 282.24
z
" style="fill:#eae2ac;stroke:#000000;stroke-width:0.25;"/>
   </g>
   <g id="patch_8">
    <path clip-path="url(#p09214e8173)" d="
M403.749 130.353
L373.372 160.731
L403.749 191.108
L434.127 160.731
z
" style="fill:#af0a0a;stroke:#000000;stroke-width:0.25;"/>
   </g>
   <g id="patch_9">
    <path clip-path="url(#p09214e8173)" d="
M403.749 191.108
L373.372 221.485
L403.749 251.863
L434.127 221.485
z
" style="fill:#af0a0a;stroke:#000000;stroke-width:0.25;"/>
   </g>
   <g id="patch_10">
    <path clip-path="url(#p09214e8173)" d="
M342.995 191.108
L312.617 221.485
L342.995 251.863
L373.372 221.485
z
" style="fill:#af0a0a;stroke:#000000;stroke-width:0.25;"/>
   </g>
   <g id="patch_11">
    <path clip-path="url(#p09214e8173)" d="
M342.995 130.353
L312.617 160.731
L342.995 191.108
L373.372 160.731
z
" style="fill:#af0a0a;stroke:#000000;stroke-width:0.25;"/>
   </g>
   <g id="patch_12">
    <path clip-path="url(#p09214e8173)" d="
M373.372 221.485
L403.749 191.108
L373.372 160.731
L342.995 191.108
z
" style="fill:#af0a0a;stroke:#000000;stroke-width:0.25;"/>
   </g>
   <g id="patch_13">
    <path clip-path="url(#p09214e8173)" d="
M403.749 312.617
L373.372 342.995
L403.749 373.372
L434.127 342.995
z
" style="fill:#af0a0a;stroke:#000000;stroke-width:0.25;"/>
   </g>
   <g id="patch_14">
    <path clip-path="url(#p09214e8173)" d="
M403.749 373.372
L373.372 403.749
L403.749 434.127
L434.127 403.749
z
" style="fill:#af0a0a;stroke:#000000;stroke-width:0.25;"/>
   </g>
   <g id="patch_15">
    <path clip-path="url(#p09214e8173)" d="
M342.995 373.372
L312.617 403.749
L342.995 434.127
L373.372 403.749
z
" style="fill:#af0a0a;stroke:#000000;stroke-width:0.25;"/>
   </g>
   <g id="patch_16">
    <path clip-path="url(#p09214e8173)" d="
M342.995 312.617
L312.617 342.995
L342.995 373.372
L373.372 342.995
z
" style="fill:#af0a0a;stroke:#000000;stroke-width:0.25;"/>
   </g>
   <g id="patch_17">
    <path clip-path="url(#p09214e8173)" d="
M373.372 403.749
L403.749 373.372
L373.372 342.995
L342.995 373.372
z
" style="fill:#af0a0a;stroke:#000000;stroke-width:0.25;"/>
   </g>
   <g id="patch_18">
    <path clip-path="url(#p09214e8173)" d="
M221.485 312.617
L191.108 342.995
L221.485 373.372
L251.863 342.995
z
" style="fill:#af0a0a;stroke:#000000;stroke-width:0.25;"/>
   </g>
   <g id="patch_19">
    <path clip-path="url(#p09214e8173)" d="
M221.485 373.372
L191.108 403.749
L221.485 434.127
L251.863 403.749
z
" style="fill:#af0a0a;stroke:#000000;stroke-width:0.25;"/>
   </g>
   <g id="patch_20">
    <path clip-path="url(#p09214e8173)" d="
M160.731 373.372
L130.353 403.749
L160.731 434.127
L191.108 403.749
z
" style="fill:#af0a0a;stroke:#000000;stroke-width:0.25;"/>
   </g>
   <g id="patch_21">
    <path clip-path="url(#p09214e8173)" d="
M160.731 312.617
L130.353 342.995
L160.731 373.372
L191.108 342.995
z
" style="fill:#af0a0a;stroke:#000000;stroke-width:0.25;"/>
   </g>
   <g id="patch_22">
    <path clip-path="url(#p09214e8173)" d="
M191.108 403.749
L221.485 373.372
L191.108 342.995
L160.731 373.372
z
" style="fill:#af0a0a;stroke:#000000;stroke-width:0.25;"/>
   </g>
   <g id="patch_23">
    <path clip-path="url(#p09214e8173)" d="
M221.485 130.353
L191.108 160.731
L221.485 191.108
L251.863 160.731
z
" style="fill:#af0a0a;stroke:#000000;stroke-width:0.25;"/>
   </g>
   <g id="patch_24">
    <path clip-path="url(#p09214e8173)" d="
M221.485 191.108
L191.108 221.485
L221.485 251.863
L251.863 221.485
z
" style="fill:#af0a0a;stroke:#000000;stroke-width:0.25;"/>
   </g>
   <g id="patch_25">
    <path clip-path="url(#p09214e8173)" d="
M160.731 191.108
L130.353 221.485
L160.731 251.863
L191.108 221.485
z
" style="fill:#af0a0a;stroke:#000000;stroke-width:0.25;"/>
   </g>
   <g id="patch_26">
    <path clip-path="url(#p09214e8173)" d="
M160.731 130.353
L130.353 160.731
L160.731 191.108
L191.108 160.731
z
" style="fill:#af0a0a;stroke:#000000;stroke-width:0.25;"/>
   </g>
   <g id="patch_27">
    <path clip-path="url(#p09214e8173)" d="
M191.108 221.485
L221.485 191.108
L191.108 160.731
L160.731 191.108
z
" style="fill:#af0a0a;stroke:#000000;stroke-width:0.25;"/>
   </g>
   <g id="patch_28">
    <path clip-path="url(#p09214e8173)" d="
M251.863 342.995
L282.24 312.617
L251.863 282.24
L221.485 312.617
z
" style="fill:#af0a0a;stroke:#000000;stroke-width:0.25;"/>
   </g>
   <g id="patch_29">
    <path clip-path="url(#p09214e8173)" d="
M251.863 282.24
L282.24 251.863
L251.863 221.485
L221.485 251.863
z
" style="fill:#af0a0a;stroke:#000000;stroke-width:0.25;"/>
   </g>
   <g id="patch_30">
    <path clip-path="url(#p09214e8173)" d="
M312.617 282.24
L342.995 251.863
L312.617 221.485
L282.24 251.863
z
" style="fill:#af0a0a;stroke:#000000;stroke-width:0.25;"/>
   </g>
   <g id="patch_31">
    <path clip-path="url(#p09214e8173)" d="
M312.617 342.995
L342.995 312.617
L312.617 282.24
L282.24 312.617
z
" style="fill:#af0a0a;stroke:#000000;stroke-width:0.25;"/>
   </g>
   <g id="patch_32">
    <path clip-path="url(#p09214e8173)" d="
M282.24 251.863
L251.863 282.24
L282.24 312.617
L312.617 282.24
z
" style="fill:#af0a0a;stroke:#000000;stroke-width:0.25;"/>
   </g>
   <g id="matplotlib.axis_1"/>
   <g id="matplotlib.axis_2"/>
  </g>
 </g>
 <defs>
  <clipPath id="p09214e8173">
   <rect height="550.08" width="550.08" x="7.2" y="7.2"/>
  </clipPath>
 </defs>
</svg>
